<svg width="397" height="242" viewBox="0 0 397 242" fill="none" xmlns="http://www.w3.org/2000/svg">
<path d="M324.227 -81.7875C301.091 -93.1097 274.517 -96.849 249.033 -93.2246C223.41 -89.5559 199 -78.7156 179.854 -61.1688C161.326 -44.186 148.379 -21.4242 142.163 2.83376C139.041 14.9672 137.639 27.5927 138.077 40.1216C138.513 52.7427 140.746 65.6171 145.387 77.3877C150.171 89.5105 157.999 101.183 170.072 107.035C182.852 113.182 197.962 114.517 211.831 111.963C225.868 109.355 239.672 103.517 250.604 94.2493C255.454 90.1332 259.886 85.4769 262.873 79.8432C265.537 74.8326 267.276 69.2291 268.092 63.6141C269.64 53.0838 268.448 40.3978 260.036 32.8585C255.703 28.9765 249.71 26.9087 244.171 25.4C237.73 23.6585 230.964 22.7245 224.313 22.8247C217.755 22.9262 211.14 24.4839 204.81 26.0729C197.776 27.856 190.892 30.1112 184.15 32.8109C170.703 38.2291 157.916 45.3342 146.263 53.9751C134.88 62.4074 124.114 72.2954 115.591 83.6411C107.36 94.5571 101.519 107.007 97.7554 120.109C89.3573 149.255 91.779 180.032 97.5818 209.394C99.0844 216.993 100.81 224.522 102.655 232.043C103.022 233.578 104.904 234.386 106.323 233.933C107.909 233.428 108.587 231.804 108.22 230.269C101.164 201.398 95.3905 171.261 99.2907 141.468C100.962 128.726 104.284 116.162 109.772 104.529C115.413 92.6025 123.375 82.384 132.756 73.1518C152.351 53.8401 177.13 39.6384 203.67 32.4032C209.761 30.7373 216.137 29.1028 222.459 28.7401C228.485 28.4106 234.57 29.1332 240.426 30.48C245.526 31.6696 251.505 33.4052 255.487 36.6649C259.003 39.5221 260.924 43.5303 262.008 47.9889C264.33 57.7751 262.187 69.2293 257.255 77.9923C254.443 83.0195 250.062 87.3537 245.506 90.9479C240.165 95.1592 234.207 98.5881 227.947 101.165C215.567 106.274 202.022 108.694 188.696 106.607C182.282 105.622 175.806 103.769 170.19 100.48C165.133 97.5017 160.972 93.1977 157.658 88.3788C150.786 78.3598 147.166 66.2333 145.298 54.3134C143.464 42.5967 143.37 30.5702 145.01 18.7869C148.241 -4.64204 157.87 -27.2338 173.026 -45.4673C188.624 -64.2394 209.797 -77.4446 233.28 -83.9808C256.679 -90.4904 281.907 -90.3001 305.1 -83.127C310.747 -81.3771 316.23 -79.1774 321.532 -76.5835C324.927 -74.9728 327.603 -80.1401 324.227 -81.7875Z" fill="#231F20"/>
<path d="M79.1981 225.871C79.5953 225.867 79.9736 225.899 80.3796 225.923C80.1304 225.911 79.8724 225.87 79.6232 225.858C82.2517 226.122 84.789 226.966 87.2809 227.762C89.9017 228.58 92.5036 229.433 95.1143 230.315C96.5942 230.822 98.0829 231.357 99.5717 231.893C99.3326 231.816 99.1214 231.73 98.8735 231.626C100.601 232.238 102.3 232.951 104.047 233.526C106.179 234.254 108.635 233.686 110.045 231.859C111.042 230.562 111.682 229.012 112.477 227.565C113.188 226.237 113.936 224.928 114.729 223.665C115.617 222.219 116.542 220.792 117.484 219.421C117.334 219.622 117.211 219.814 117.069 220.043C119.67 216.276 122.563 212.753 125.739 209.446C126.638 208.517 127.566 207.578 128.529 206.659C129.053 206.186 129.315 205.277 129.278 204.585C129.26 203.856 128.894 202.994 128.318 202.534C127.743 202.075 127.018 201.725 126.241 201.789C125.437 201.862 124.777 202.194 124.187 202.749C118.123 208.538 112.915 215.185 108.716 222.399C108.139 223.379 107.599 224.377 107.059 225.375C106.546 226.365 106.088 227.429 105.466 228.362C105.617 228.161 105.739 227.969 105.881 227.74C105.712 227.977 105.533 228.187 105.299 228.415C105.495 228.261 105.683 228.078 105.879 227.924C105.71 228.07 105.533 228.187 105.347 228.277C105.589 228.169 105.83 228.062 106.063 227.926C105.905 228.007 105.71 228.07 105.534 228.095C105.794 228.043 106.053 227.991 106.321 227.967C106.118 228.001 105.933 227.999 105.748 227.996C105.997 228.009 106.255 228.049 106.505 228.061C106.062 228.019 105.657 227.903 105.243 227.759C105.483 227.836 105.694 227.922 105.942 228.026C99.105 225.524 92.2874 222.984 85.2863 221.024C83.2624 220.445 81.2082 220.059 79.0845 220.032C78.3458 220.023 77.5083 220.473 77.0302 220.993C76.5521 221.513 76.2081 222.357 76.2814 223.068C76.3143 224.71 77.5639 225.841 79.1981 225.871Z" fill="#231F20"/>
</svg>
