<svg width="159" height="117" viewBox="0 0 159 117" fill="none" xmlns="http://www.w3.org/2000/svg">
<path opacity="0.2" d="M120.675 90.7649H40.1757C39.4842 90.7649 38.9235 90.0315 38.9235 89.1269V15.2414C38.9235 14.3368 39.4842 13.6034 40.1757 13.6034H120.675C121.367 13.6034 121.927 14.3368 121.927 15.2414V89.128C121.927 90.0315 121.367 90.7649 120.675 90.7649Z" fill="#ABBDFF"/>
<path opacity="0.27" d="M116.033 41.6921H111.261C110.63 41.6921 110.114 42.367 110.114 43.1925V45.5087L111.261 44.6929H116.033C116.664 44.6929 117.18 44.018 117.18 43.1925C117.18 42.367 116.664 41.6921 116.033 41.6921Z" fill="#002663"/>
<path d="M115.95 41.5838H111.178C110.547 41.5838 110.031 42.2587 110.031 43.0842V45.4003L111.178 44.5846H115.95C116.581 44.5846 117.097 43.9097 117.097 43.0842C117.097 42.2587 116.581 41.5838 115.95 41.5838Z" fill="#DCE6FF"/>
<path opacity="0.27" d="M58.1079 48.2311H53.0522C52.8369 48.2311 52.6613 48.0025 52.6613 47.7197V32.8131C52.6613 32.5314 52.8361 32.3018 53.0522 32.3018H58.1079C58.3232 32.3018 58.4988 32.5303 58.4988 32.8131V47.7197C58.4988 48.0025 58.324 48.2311 58.1079 48.2311Z" fill="#002663"/>
<path d="M58.0251 48.1228H52.9694C52.7541 48.1228 52.5785 47.8942 52.5785 47.6114V32.7048C52.5785 32.4231 52.7532 32.1934 52.9694 32.1934H58.0251C58.2404 32.1934 58.4159 32.422 58.4159 32.7048V47.6114C58.4159 47.8942 58.2412 48.1228 58.0251 48.1228Z" fill="#DCE6FF"/>
<path d="M55.4976 39.1625C56.7023 39.1625 57.6789 37.8849 57.6789 36.309C57.6789 34.7331 56.7023 33.4555 55.4976 33.4555C54.2929 33.4555 53.3163 34.7331 53.3163 36.309C53.3163 37.8849 54.2929 39.1625 55.4976 39.1625Z" fill="white"/>
<path opacity="0.27" d="M51.1566 48.2311H46.1009C45.8856 48.2311 45.71 48.0025 45.71 47.7197V32.8131C45.71 32.5314 45.8848 32.3018 46.1009 32.3018H51.1566C51.3719 32.3018 51.5475 32.5303 51.5475 32.8131V47.7197C51.5467 48.0025 51.3719 48.2311 51.1566 48.2311Z" fill="#002663"/>
<path d="M51.0738 48.1228H46.0181C45.8028 48.1228 45.6272 47.8942 45.6272 47.6114V32.7048C45.6272 32.4231 45.8019 32.1934 46.0181 32.1934H51.0738C51.2891 32.1934 51.4647 32.422 51.4647 32.7048V47.6114C51.4638 47.8942 51.2891 48.1228 51.0738 48.1228Z" fill="#DCE6FF"/>
<path d="M72.846 74.737L70.9761 75.7727L72.5967 77.3738L72.846 74.737Z" stroke="#603913" stroke-miterlimit="10" stroke-linejoin="round"/>
<path d="M87.1047 79.8644L86.5051 81.4569L87.8591 81.341L87.1047 79.8644Z" stroke="#603913" stroke-miterlimit="10" stroke-linejoin="round"/>
<path d="M112.224 59.137C112.86 59.137 113.376 58.4623 113.376 57.6301C113.376 56.7978 112.86 56.1232 112.224 56.1232C111.588 56.1232 111.072 56.7978 111.072 57.6301C111.072 58.4623 111.588 59.137 112.224 59.137Z" stroke="#603913" stroke-miterlimit="10"/>
<path opacity="0.27" d="M116.754 38.4053H88.481C88.3121 38.4053 88.1746 38.2254 88.1746 38.0044V21.7869C88.1746 21.5659 88.3121 21.3861 88.481 21.3861H116.754C116.923 21.3861 117.06 21.5659 117.06 21.7869V38.0044C117.061 38.2265 116.924 38.4053 116.754 38.4053Z" fill="#002663"/>
<path d="M116.671 38.2969H88.3982C88.2293 38.2969 88.0918 38.1171 88.0918 37.8961V21.6786C88.0918 21.4576 88.2293 21.2777 88.3982 21.2777H116.671C116.84 21.2777 116.978 21.4576 116.978 21.6786V37.8961C116.978 38.1182 116.841 38.2969 116.671 38.2969Z" fill="#DCE6FF"/>
<path d="M98.6056 25.0954V34.4793C98.6056 34.8357 98.3845 35.1249 98.1121 35.1249H90.9389C90.6681 35.1249 90.447 34.8357 90.447 34.4793V25.0954C90.447 24.739 90.6681 24.4498 90.9389 24.4498H98.1121C98.3845 24.4498 98.6056 24.739 98.6056 25.0954Z" fill="white"/>
<path d="M98.6056 30.6843V34.4793C98.6056 34.8357 98.3845 35.1249 98.1121 35.1249H90.9389C90.6672 35.1249 90.447 34.8368 90.447 34.4814V33.2919L93.1226 29.9282C93.3023 29.7028 93.5773 29.6714 93.7835 29.8523L95.776 31.5987L96.8542 29.9791C97.0223 29.7267 97.3047 29.6671 97.5241 29.8393L98.6056 30.6843Z" fill="#C0D3F9"/>
<g opacity="0.27">
<path d="M102.908 26.2167C102.908 26.5178 102.847 26.8006 102.737 27.0433C102.518 27.5362 102.109 27.8687 101.643 27.8687C101.176 27.8687 100.77 27.5362 100.551 27.0433C100.442 26.7995 100.38 26.5178 100.38 26.2167C100.38 25.3034 100.946 24.5624 101.643 24.5624C102.342 24.5624 102.908 25.3034 102.908 26.2167Z" fill="#002663"/>
<path d="M102.738 27.0443C102.519 27.5372 102.11 27.8698 101.644 27.8698C101.177 27.8698 100.77 27.5372 100.552 27.0443C100.77 26.5492 101.178 26.2177 101.644 26.2177C102.112 26.2167 102.52 26.5492 102.738 27.0443Z" fill="#002663"/>
<path d="M101.644 26.2156C101.922 26.2156 102.147 25.9212 102.147 25.558C102.147 25.1948 101.922 24.9004 101.644 24.9004C101.366 24.9004 101.141 25.1948 101.141 25.558C101.141 25.9212 101.366 26.2156 101.644 26.2156Z" fill="#002663"/>
</g>
<path d="M102.825 26.1083C102.825 26.4095 102.764 26.6923 102.654 26.9349C102.435 27.4278 102.027 27.7604 101.56 27.7604C101.093 27.7604 100.687 27.4278 100.468 26.9349C100.36 26.6912 100.298 26.4095 100.298 26.1083C100.298 25.1951 100.863 24.4541 101.56 24.4541C102.259 24.4541 102.825 25.1951 102.825 26.1083Z" fill="#E8E8E8"/>
<path d="M102.655 26.936C102.436 27.4289 102.027 27.7615 101.561 27.7615C101.094 27.7615 100.688 27.4289 100.469 26.936C100.687 26.4409 101.095 26.1094 101.561 26.1094C102.029 26.1083 102.437 26.4409 102.655 26.936Z" fill="white"/>
<path d="M101.561 26.1073C101.839 26.1073 102.064 25.8128 102.064 25.4497C102.064 25.0865 101.839 24.7921 101.561 24.7921C101.284 24.7921 101.059 25.0865 101.059 25.4497C101.059 25.8128 101.284 26.1073 101.561 26.1073Z" fill="white"/>
<path d="M109.806 26.3434L109.494 24.3869C108.796 24.596 108.156 25.1442 107.734 25.9881C107.312 26.832 107.183 27.8167 107.316 28.7376L108.811 28.3292C108.759 27.911 108.821 27.4668 109.013 27.0823C109.205 26.6988 109.492 26.4474 109.806 26.3434Z" fill="#FFC880"/>
<path d="M113.196 27.6326C113.19 27.5871 113.182 27.5405 113.175 27.4961C113.019 26.6056 112.611 25.7898 111.982 25.2514C111.351 24.7119 110.617 24.5472 109.93 24.7184L110.234 26.6272C110.546 26.559 110.879 26.6381 111.165 26.8829C111.452 27.1277 111.64 27.495 111.716 27.8958C111.725 27.9413 111.732 27.9868 111.737 28.0323C111.789 28.4408 111.729 28.8741 111.541 29.2478C111.354 29.6227 111.075 29.8675 110.768 29.9683C110.734 29.9802 110.699 29.9888 110.663 29.9964C110.352 30.0658 110.02 29.9867 109.733 29.7418C109.447 29.497 109.259 29.1297 109.182 28.7278L107.723 29.1254C107.878 30.017 108.286 30.8327 108.917 31.3722C109.546 31.9107 110.28 32.0753 110.967 31.9063C111.002 31.8977 111.038 31.8879 111.071 31.8782C111.753 31.6745 112.377 31.1404 112.789 30.316C113.201 29.4927 113.326 28.5318 113.196 27.6326Z" fill="#00AEEF"/>
<path d="M107.689 34.2149C107.849 34.2149 107.978 34.0452 107.978 33.8357C107.978 33.6263 107.849 33.4566 107.689 33.4566C107.528 33.4566 107.399 33.6263 107.399 33.8357C107.399 34.0452 107.528 34.2149 107.689 34.2149Z" fill="#FFC880"/>
<path d="M107.689 35.3275C107.849 35.3275 107.978 35.1577 107.978 34.9483C107.978 34.7389 107.849 34.5692 107.689 34.5692C107.528 34.5692 107.399 34.7389 107.399 34.9483C107.399 35.1577 107.528 35.3275 107.689 35.3275Z" fill="#00AEEF"/>
<path d="M108.602 33.8358H113.114" stroke="#00AEEF" stroke-width="2" stroke-miterlimit="10" stroke-linecap="round"/>
<path d="M108.602 34.9483H113.114" stroke="#00AEEF" stroke-width="2" stroke-miterlimit="10" stroke-linecap="round"/>
<path d="M100.464 29.6032H104.856" stroke="#00AEEF" stroke-width="3" stroke-miterlimit="10" stroke-linecap="round"/>
<path d="M100.464 31.0895H102.659" stroke="#00AEEF" stroke-width="3" stroke-miterlimit="10" stroke-linecap="round"/>
<path opacity="0.27" d="M65.9055 27.6521H45.7407C45.5833 27.6521 45.4566 27.4853 45.4566 27.2805V21.7588C45.4566 21.5529 45.5841 21.3872 45.7407 21.3872H65.9055C66.0628 21.3872 66.1895 21.554 66.1895 21.7588V27.2805C66.1895 27.4853 66.062 27.6521 65.9055 27.6521Z" fill="#002663"/>
<path d="M65.8227 27.5437H45.6578C45.5005 27.5437 45.3738 27.3769 45.3738 27.1722V21.6504C45.3738 21.4446 45.5013 21.2788 45.6578 21.2788H65.8227C65.98 21.2788 66.1067 21.4457 66.1067 21.6504V27.1722C66.1067 27.3769 65.9792 27.5437 65.8227 27.5437Z" fill="#DCE6FF"/>
<g opacity="0.27">
<path d="M49.3156 27.6521C49.3156 27.9533 49.2544 28.236 49.1451 28.4787C48.9256 28.9716 48.5173 29.3042 48.0511 29.3042C47.584 29.3042 47.1774 28.9716 46.9588 28.4787C46.8503 28.2349 46.7882 27.9533 46.7882 27.6521C46.7882 26.7388 47.3538 25.9978 48.0511 25.9978C48.7492 25.9978 49.3156 26.7388 49.3156 27.6521Z" fill="#002663"/>
<path d="M49.1451 28.4787C48.9256 28.9716 48.5173 29.3042 48.0511 29.3042C47.584 29.3042 47.1774 28.9716 46.9588 28.4787C47.1766 27.9836 47.5849 27.6521 48.0511 27.6521C48.519 27.6521 48.9273 27.9836 49.1451 28.4787Z" fill="#002663"/>
<path d="M48.0519 27.651C48.3295 27.651 48.5546 27.3566 48.5546 26.9934C48.5546 26.6302 48.3295 26.3358 48.0519 26.3358C47.7743 26.3358 47.5493 26.6302 47.5493 26.9934C47.5493 27.3566 47.7743 27.651 48.0519 27.651Z" fill="#002663"/>
</g>
<path d="M49.2329 27.5437C49.2329 27.8449 49.1716 28.1277 49.0623 28.3703C48.8428 28.8632 48.4346 29.1958 47.9683 29.1958C47.5013 29.1958 47.0947 28.8632 46.876 28.3703C46.7676 28.1266 46.7054 27.8449 46.7054 27.5437C46.7054 26.6305 47.2711 25.8895 47.9683 25.8895C48.6664 25.8895 49.2329 26.6305 49.2329 27.5437Z" fill="#E8E8E8"/>
<path d="M49.0623 28.3703C48.8428 28.8632 48.4346 29.1958 47.9683 29.1958C47.5013 29.1958 47.0947 28.8632 46.876 28.3703C47.0938 27.8752 47.5021 27.5437 47.9683 27.5437C48.4362 27.5437 48.8445 27.8752 49.0623 28.3703Z" fill="white"/>
<path d="M47.9692 27.5427C48.2468 27.5427 48.4718 27.2483 48.4718 26.8851C48.4718 26.5219 48.2468 26.2275 47.9692 26.2275C47.6915 26.2275 47.4665 26.5219 47.4665 26.8851C47.4665 27.2483 47.6915 27.5427 47.9692 27.5427Z" fill="white"/>
<g opacity="0.27">
<path d="M51.4233 27.6521C51.4233 27.9533 51.362 28.236 51.2527 28.4787C51.0332 28.9716 50.6249 29.3042 50.1587 29.3042C49.6916 29.3042 49.285 28.9716 49.0664 28.4787C48.9579 28.2349 48.8958 27.9533 48.8958 27.6521C48.8958 26.7388 49.4614 25.9978 50.1587 25.9978C50.8576 25.9978 51.4233 26.7388 51.4233 27.6521Z" fill="#002663"/>
<path d="M51.2527 28.4787C51.0332 28.9716 50.6249 29.3042 50.1587 29.3042C49.6916 29.3042 49.285 28.9716 49.0664 28.4787C49.2842 27.9836 49.6925 27.6521 50.1587 27.6521C50.6274 27.6521 51.0357 27.9836 51.2527 28.4787Z" fill="#002663"/>
<path d="M50.1595 27.651C50.4372 27.651 50.6622 27.3566 50.6622 26.9934C50.6622 26.6302 50.4372 26.3358 50.1595 26.3358C49.8819 26.3358 49.6569 26.6302 49.6569 26.9934C49.6569 27.3566 49.8819 27.651 50.1595 27.651Z" fill="#002663"/>
</g>
<path d="M51.3404 27.5437C51.3404 27.8449 51.2791 28.1277 51.1698 28.3703C50.9504 28.8632 50.5421 29.1958 50.0759 29.1958C49.6088 29.1958 49.2022 28.8632 48.9836 28.3703C48.8751 28.1266 48.813 27.8449 48.813 27.5437C48.813 26.6305 49.3786 25.8895 50.0759 25.8895C50.7748 25.8895 51.3404 26.6305 51.3404 27.5437Z" fill="#E8E8E8"/>
<path d="M51.1698 28.3703C50.9504 28.8632 50.5421 29.1958 50.0759 29.1958C49.6088 29.1958 49.2022 28.8632 48.9836 28.3703C49.2014 27.8752 49.6096 27.5437 50.0759 27.5437C50.5446 27.5437 50.9529 27.8752 51.1698 28.3703Z" fill="white"/>
<path d="M50.0767 27.5427C50.3543 27.5427 50.5794 27.2483 50.5794 26.8851C50.5794 26.5219 50.3543 26.2275 50.0767 26.2275C49.7991 26.2275 49.574 26.5219 49.574 26.8851C49.574 27.2483 49.7991 27.5427 50.0767 27.5427Z" fill="white"/>
<g opacity="0.27">
<path d="M53.5309 27.6521C53.5309 27.9533 53.4696 28.236 53.3603 28.4787C53.1408 28.9716 52.7325 29.3042 52.2663 29.3042C51.7992 29.3042 51.3926 28.9716 51.174 28.4787C51.0655 28.2349 51.0034 27.9533 51.0034 27.6521C51.0034 26.7388 51.569 25.9978 52.2663 25.9978C52.9652 25.9978 53.5309 26.7388 53.5309 27.6521Z" fill="#002663"/>
<path d="M53.3611 28.4787C53.1417 28.9716 52.7334 29.3042 52.2672 29.3042C51.8001 29.3042 51.3935 28.9716 51.1749 28.4787C51.3927 27.9836 51.8009 27.6521 52.2672 27.6521C52.7351 27.6521 53.1433 27.9836 53.3611 28.4787Z" fill="#002663"/>
<path d="M52.268 27.651C52.5456 27.651 52.7707 27.3566 52.7707 26.9934C52.7707 26.6302 52.5456 26.3358 52.268 26.3358C51.9904 26.3358 51.7653 26.6302 51.7653 26.9934C51.7653 27.3566 51.9904 27.651 52.268 27.651Z" fill="#002663"/>
</g>
<path d="M53.448 27.5437C53.448 27.8449 53.3867 28.1277 53.2774 28.3703C53.058 28.8632 52.6497 29.1958 52.1835 29.1958C51.7164 29.1958 51.3098 28.8632 51.0912 28.3703C50.9827 28.1266 50.9206 27.8449 50.9206 27.5437C50.9206 26.6305 51.4862 25.8895 52.1835 25.8895C52.8824 25.8895 53.448 26.6305 53.448 27.5437Z" fill="#E8E8E8"/>
<path d="M53.2782 28.3703C53.0588 28.8632 52.6505 29.1958 52.1843 29.1958C51.7172 29.1958 51.3106 28.8632 51.092 28.3703C51.3098 27.8752 51.718 27.5437 52.1843 27.5437C52.6522 27.5437 53.0604 27.8752 53.2782 28.3703Z" fill="white"/>
<path d="M52.1851 27.5427C52.4627 27.5427 52.6878 27.2483 52.6878 26.8851C52.6878 26.5219 52.4627 26.2275 52.1851 26.2275C51.9075 26.2275 51.6824 26.5219 51.6824 26.8851C51.6824 27.2483 51.9075 27.5427 52.1851 27.5427Z" fill="white"/>
<g opacity="0.27">
<path d="M55.6393 27.6521C55.6393 27.9533 55.578 28.236 55.4687 28.4787C55.2492 28.9716 54.8409 29.3042 54.3747 29.3042C53.9076 29.3042 53.501 28.9716 53.2824 28.4787C53.1739 28.2349 53.1118 27.9533 53.1118 27.6521C53.1118 26.7388 53.6774 25.9978 54.3747 25.9978C55.0728 25.9978 55.6393 26.7388 55.6393 27.6521Z" fill="#002663"/>
<path d="M55.4687 28.4787C55.2492 28.9716 54.8409 29.3042 54.3747 29.3042C53.9076 29.3042 53.501 28.9716 53.2824 28.4787C53.5002 27.9836 53.9085 27.6521 54.3747 27.6521C54.8426 27.6521 55.2517 27.9836 55.4687 28.4787Z" fill="#002663"/>
<path d="M54.3755 27.651C54.6532 27.651 54.8782 27.3566 54.8782 26.9934C54.8782 26.6302 54.6532 26.3358 54.3755 26.3358C54.0979 26.3358 53.8729 26.6302 53.8729 26.9934C53.8729 27.3566 54.0979 27.651 54.3755 27.651Z" fill="#002663"/>
</g>
<path d="M55.5564 27.5437C55.5564 27.8449 55.4951 28.1277 55.3858 28.3703C55.1664 28.8632 54.7581 29.1958 54.2919 29.1958C53.8248 29.1958 53.4182 28.8632 53.1996 28.3703C53.0911 28.1266 53.029 27.8449 53.029 27.5437C53.029 26.6305 53.5946 25.8895 54.2919 25.8895C54.99 25.8895 55.5564 26.6305 55.5564 27.5437Z" fill="#E8E8E8"/>
<path d="M55.3858 28.3703C55.1664 28.8632 54.7581 29.1958 54.2919 29.1958C53.8248 29.1958 53.4182 28.8632 53.1996 28.3703C53.4174 27.8752 53.8256 27.5437 54.2919 27.5437C54.7598 27.5437 55.1689 27.8752 55.3858 28.3703Z" fill="white"/>
<path d="M54.2927 27.5427C54.5703 27.5427 54.7954 27.2483 54.7954 26.8851C54.7954 26.5219 54.5703 26.2275 54.2927 26.2275C54.0151 26.2275 53.79 26.5219 53.79 26.8851C53.79 27.2483 54.0151 27.5427 54.2927 27.5427Z" fill="white"/>
<path d="M47.064 23.0457H58.8988" stroke="#00AEEF" stroke-width="3" stroke-miterlimit="10" stroke-linecap="round"/>
<path d="M47.064 24.6068H53.1996" stroke="#00AEEF" stroke-width="3" stroke-miterlimit="10" stroke-linecap="round"/>
<path d="M54.9362 24.6068H62.0183" stroke="#00AEEF" stroke-width="3" stroke-miterlimit="10" stroke-linecap="round"/>
<path opacity="0.27" d="M83.4742 38.5678H63.3093C63.152 38.5678 63.0253 38.4009 63.0253 38.1962V32.6744C63.0253 32.4686 63.1528 32.3028 63.3093 32.3028H83.4742C83.6315 32.3028 83.7582 32.4697 83.7582 32.6744V38.1962C83.7582 38.4009 83.6315 38.5678 83.4742 38.5678Z" fill="#002663"/>
<path d="M83.3913 38.4594H63.2265C63.0691 38.4594 62.9424 38.2926 62.9424 38.0878V32.5661C62.9424 32.3603 63.07 32.1945 63.2265 32.1945H83.3913C83.5487 32.1945 83.6754 32.3613 83.6754 32.5661V38.0878C83.6754 38.2926 83.5487 38.4594 83.3913 38.4594Z" fill="#DCE6FF"/>
<g opacity="0.27">
<path d="M66.8645 35.4358C66.8645 35.737 66.8032 36.0198 66.6939 36.2624C66.4744 36.7553 66.0662 37.0879 65.5999 37.0879C65.1329 37.0879 64.7263 36.7553 64.5076 36.2624C64.3991 36.0187 64.337 35.737 64.337 35.4358C64.337 34.5226 64.9026 33.7816 65.5999 33.7816C66.2989 33.7816 66.8645 34.5226 66.8645 35.4358Z" fill="#002663"/>
<path d="M66.6939 36.2635C66.4744 36.7564 66.0662 37.089 65.5999 37.089C65.1329 37.089 64.7263 36.7564 64.5076 36.2635C64.7254 35.7684 65.1337 35.4369 65.5999 35.4369C66.0686 35.4358 66.4769 35.7684 66.6939 36.2635Z" fill="#002663"/>
<path d="M65.6008 35.4348C65.8784 35.4348 66.1034 35.1403 66.1034 34.7772C66.1034 34.414 65.8784 34.1196 65.6008 34.1196C65.3231 34.1196 65.0981 34.414 65.0981 34.7772C65.0981 35.1403 65.3231 35.4348 65.6008 35.4348Z" fill="#002663"/>
</g>
<path d="M66.7816 35.3275C66.7816 35.6287 66.7204 35.9114 66.6111 36.1541C66.3916 36.647 65.9833 36.9796 65.5171 36.9796C65.05 36.9796 64.6434 36.647 64.4248 36.1541C64.3163 35.9103 64.2542 35.6287 64.2542 35.3275C64.2542 34.4143 64.8198 33.6732 65.5171 33.6732C66.216 33.6732 66.7816 34.4143 66.7816 35.3275Z" fill="#E8E8E8"/>
<path d="M66.6111 36.1552C66.3916 36.6481 65.9833 36.9807 65.5171 36.9807C65.05 36.9807 64.6434 36.6481 64.4248 36.1552C64.6426 35.6601 65.0509 35.3286 65.5171 35.3286C65.9858 35.3275 66.3941 35.6601 66.6111 36.1552Z" fill="white"/>
<path d="M65.5179 35.3264C65.7955 35.3264 66.0206 35.032 66.0206 34.6688C66.0206 34.3057 65.7955 34.0112 65.5179 34.0112C65.2403 34.0112 65.0153 34.3057 65.0153 34.6688C65.0153 35.032 65.2403 35.3264 65.5179 35.3264Z" fill="white"/>
<path d="M68.3716 34.4207H80.2064" stroke="#00AEEF" stroke-width="3" stroke-miterlimit="10" stroke-linecap="round"/>
<path d="M68.3716 35.9829H74.5072" stroke="#00AEEF" stroke-width="3" stroke-miterlimit="10" stroke-linecap="round"/>
<path d="M76.0649 35.9829H79.1323" stroke="#00AEEF" stroke-width="3" stroke-miterlimit="10" stroke-linecap="round"/>
<path opacity="0.27" d="M83.6067 27.651H70.5993C70.4569 27.651 70.3409 27.4993 70.3409 27.313V12.0163C70.3409 11.83 70.4569 11.6783 70.5993 11.6783H83.6067C83.7491 11.6783 83.8651 11.83 83.8651 12.0163V27.3141C83.8651 27.4993 83.7491 27.651 83.6067 27.651Z" fill="#002663"/>
<path d="M83.5239 27.5427H70.5165C70.3741 27.5427 70.2581 27.391 70.2581 27.2047V11.908C70.2581 11.7217 70.3741 11.57 70.5165 11.57H83.5239C83.6663 11.57 83.7822 11.7217 83.7822 11.908V27.2058C83.7822 27.391 83.6663 27.5427 83.5239 27.5427Z" fill="#DCE6FF"/>
<path d="M71.8067 13.6034H80.2064" stroke="#00AEEF" stroke-width="3" stroke-miterlimit="10" stroke-linecap="round"/>
<path d="M72.0046 16.7852C72.2534 16.7852 72.4551 16.5213 72.4551 16.1958C72.4551 15.8704 72.2534 15.6065 72.0046 15.6065C71.7558 15.6065 71.5541 15.8704 71.5541 16.1958C71.5541 16.5213 71.7558 16.7852 72.0046 16.7852Z" fill="white"/>
<path d="M71.7048 15.8838L72.0353 16.6833C72.0353 16.6833 72.2489 16.0637 73.0149 15.6412C73.0149 15.6412 72.5056 15.6412 72.0328 16.1319L71.7048 15.8838Z" fill="#00AEEF"/>
<path d="M72.0046 20.5768C72.2534 20.5768 72.4551 20.313 72.4551 19.9875C72.4551 19.662 72.2534 19.3982 72.0046 19.3982C71.7558 19.3982 71.5541 19.662 71.5541 19.9875C71.5541 20.313 71.7558 20.5768 72.0046 20.5768Z" fill="white"/>
<path d="M71.7048 19.6755L72.0353 20.475C72.0353 20.475 72.2489 19.8553 73.0149 19.4328C73.0149 19.4328 72.5056 19.4328 72.0328 19.9236L71.7048 19.6755Z" fill="#00AEEF"/>
<path d="M72.0046 24.3674C72.2534 24.3674 72.4551 24.1036 72.4551 23.7781C72.4551 23.4526 72.2534 23.1888 72.0046 23.1888C71.7558 23.1888 71.5541 23.4526 71.5541 23.7781C71.5541 24.1036 71.7558 24.3674 72.0046 24.3674Z" fill="white"/>
<path d="M71.7048 23.4661L72.0353 24.2656C72.0353 24.2656 72.2489 23.6459 73.0149 23.2234C73.0149 23.2234 72.5056 23.2234 72.0328 23.7142L71.7048 23.4661Z" fill="#00AEEF"/>
<path d="M73.8762 16.1958H81.8494" stroke="#00AEEF" stroke-miterlimit="10" stroke-linecap="round"/>
<path d="M71.5533 17.9378H81.8494" stroke="#00AEEF" stroke-miterlimit="10" stroke-linecap="round"/>
<path d="M73.8762 19.9875H81.8494" stroke="#00AEEF" stroke-miterlimit="10" stroke-linecap="round"/>
<path d="M71.5533 21.7284H81.8494" stroke="#00AEEF" stroke-miterlimit="10" stroke-linecap="round"/>
<path d="M73.8762 23.7781H81.8494" stroke="#00AEEF" stroke-miterlimit="10" stroke-linecap="round"/>
<path d="M71.5533 25.5201H81.8494" stroke="#00AEEF" stroke-miterlimit="10" stroke-linecap="round"/>
<path d="M116.965 61.4402C116.965 61.4402 118.256 69.784 114.993 76.4411C111.73 83.0971 110.904 83.6041 110.904 83.6041" stroke="#FFD19F" stroke-miterlimit="10"/>
<path d="M117.154 62.6589C117.154 62.6589 116.952 60.7046 115.249 61.3351C115.25 61.3362 115.868 63.128 117.154 62.6589Z" fill="#FFD19F"/>
<path d="M117.056 62.6437C117.056 62.6437 117.094 60.6721 118.838 61.0556C118.839 61.0556 118.375 62.9254 117.056 62.6437Z" fill="#FFD19F"/>
<path d="M117.298 65.247C117.298 65.247 117.134 63.2862 115.42 63.8603C115.42 63.8603 116.003 65.6728 117.298 65.247Z" fill="#FFD19F"/>
<path d="M117.2 65.2286C117.2 65.2286 117.276 63.258 119.013 63.7011C119.013 63.7011 118.513 65.5547 117.2 65.2286Z" fill="#FFD19F"/>
<path d="M117.137 68.3367C117.137 68.3367 117.19 66.365 115.43 66.612C115.43 66.612 115.808 68.5154 117.137 68.3367Z" fill="#FFD19F"/>
<path d="M117.042 68.2998C117.042 68.2998 117.333 66.3639 119.004 67.1277C119.004 67.1288 118.305 68.8686 117.042 68.2998Z" fill="#FFD19F"/>
<path d="M116.7 71.5336C116.7 71.5336 116.983 69.5955 115.215 69.4883C115.215 69.4883 115.366 71.4437 116.7 71.5336Z" fill="#FFD19F"/>
<path d="M116.611 71.4783C116.611 71.4783 117.124 69.6237 118.686 70.7113C118.686 70.7113 117.793 72.2919 116.611 71.4783Z" fill="#FFD19F"/>
<path d="M116.994 61.6417C116.994 61.6417 116.161 60.7133 116.491 59.2323C116.492 59.2323 118.013 60.0297 116.994 61.6417Z" fill="#FFD19F"/>
<path d="M40.6477 62.179C40.6477 62.179 39.3567 70.5228 42.6203 77.1799C45.8831 83.8359 46.7088 84.3429 46.7088 84.3429" stroke="#ABBDFF" stroke-miterlimit="10" stroke-linecap="round"/>
<path d="M58.6213 91.7832L54.1262 91.338L47.4855 90.6804L42.4596 90.1832C42.4596 90.1832 39.904 87.7272 40.6824 82.5543C40.8638 81.3475 41.2282 79.9944 41.846 78.4918C45.1187 70.5369 42.9499 67.9402 46.0661 65.117C47.9956 63.3685 47.9434 60.71 48.2291 58.5628C48.4055 57.2433 48.7103 56.1145 49.6808 55.5122C52.2331 53.9283 55.8231 63.1724 52.4791 70.0147C49.4142 76.2862 54.3738 78.8093 53.5151 83.7157C53.4364 84.1653 53.3089 84.6354 53.1225 85.1283C51.9292 88.2841 53.602 89.9687 55.4131 90.8538C56.8458 91.5547 58.3637 91.754 58.6213 91.7832Z" fill="#ABBDFF"/>
<path d="M55.4869 91.1278L54.1263 91.338L48.736 92.1754L47.4855 90.6804L40.6825 82.5543C40.8639 81.3475 41.2282 79.9944 41.846 78.4918C45.1188 70.5369 42.9499 67.9402 46.0661 65.117C47.9957 63.3685 47.9435 60.71 48.2292 58.5628C50.6622 59.9755 52.9951 61.8713 51.0713 63.1887C47.6296 65.5438 46.6069 68.4558 47.7845 72.5866C48.9604 76.7173 46.5564 78.0022 48.177 82.2445C49.7993 86.4868 53.3892 83.239 53.3892 83.239L53.5151 83.7157L55.4132 90.8538L55.4869 91.1278Z" fill="#8FABF9"/>
<path d="M122.247 88.465L115.181 91.9707L113.992 92.56L113.71 92.6998C113.71 92.6998 113.481 92.6683 113.056 92.4419C112.372 92.079 111.181 91.2102 109.621 89.1562C108.905 88.2137 108.736 87.0664 108.813 85.8065C109.005 82.6118 110.77 78.6977 109.179 75.5853C106.961 71.2476 108.794 66.1743 110.385 64.1929C110.527 64.0174 110.671 63.8549 110.819 63.7108C112.329 62.1974 114.063 62.3253 114.24 66.6911C114.315 68.5284 114.32 70.2628 114.554 71.8163C114.557 71.8304 114.559 71.8456 114.562 71.8597C114.586 72.0168 114.611 72.1706 114.641 72.3233C114.642 72.3298 114.644 72.3374 114.644 72.3439C115.078 74.6027 116.094 76.4378 118.686 77.5883C120.193 78.2589 121.05 79.2068 121.522 80.1743C122.465 82.1113 121.869 84.1241 121.869 84.1241L122.247 88.465Z" fill="#ABBDFF"/>
<path d="M110.819 63.7119C112.329 62.1985 114.063 62.3263 114.24 66.6922C114.315 68.5295 114.32 70.2639 114.554 71.8174C113.91 68.3258 112.659 65.0607 110.819 63.7119Z" fill="#8FABF9"/>
<path d="M115.181 91.9707L115.532 88.7781L121.522 80.1753C121.05 79.2079 120.193 78.2589 118.686 77.5894C116.094 76.4389 115.077 74.6027 114.644 72.345C115.319 76.5581 114.836 81.0983 112.867 82.2174C111.396 83.0548 109.669 84.8575 108.813 85.8076C108.736 87.0675 108.904 88.2148 109.621 89.1573C111.182 91.2113 112.372 92.0801 113.056 92.443L113.992 92.5611L115.181 91.9707Z" fill="#8FABF9"/>
<path d="M99.3907 34.3579C99.2947 34.8757 98.9792 35.1433 98.9792 35.1433C98.9792 35.1433 99.2127 35.9461 98.7299 36.5213C98.2471 37.0966 97.3536 36.6968 97.3536 36.6968L93.7686 35.8702C93.7686 35.8702 92.9347 35.0577 93.1376 34.0405C93.1798 33.8325 93.2245 33.6667 93.2684 33.5367C93.4241 33.0828 93.574 33.0622 93.5997 33.0622C93.5599 33.0601 93.2088 33.0211 93.179 32.3592C93.1475 31.6604 93.8208 31.6062 93.9906 31.798C93.9906 31.798 93.9508 30.8122 94.7632 31.2303C94.7632 31.2303 94.8891 30.6594 95.5259 30.6627C95.6965 30.6648 95.8381 30.706 95.9565 30.7677C95.9582 30.7699 95.9582 30.7699 95.9598 30.7699C96.2795 30.9346 96.4136 31.2401 96.4136 31.2401C96.4136 31.2401 96.8617 30.5966 97.5076 31.1718C98.1527 31.7471 97.9506 32.5412 97.9506 32.5412C97.9506 32.5412 98.9253 32.2562 99.3079 33.3948C99.4363 33.7783 99.4413 34.1001 99.3907 34.3579Z" fill="#8B5E3C"/>
<path d="M98.7299 36.5213C98.2471 37.0966 97.3536 36.6968 97.3536 36.6968L93.7686 35.8702C93.7686 35.8702 92.9347 35.0578 93.1376 34.0405C93.1798 33.8325 93.2245 33.6668 93.2684 33.5368H93.2701C93.2701 33.5368 93.0937 34.2713 93.5997 34.2485C94.1073 34.2279 94.5239 33.6299 94.5239 33.6299C94.5239 33.6299 95.6004 36.1216 96.6521 34.5334C96.6521 34.5334 97.3329 34.7793 97.756 34.0286C97.756 34.0286 97.5854 35.5962 98.9792 35.1444C98.9792 35.1433 99.2127 35.9461 98.7299 36.5213Z" fill="#754C29"/>
<path d="M73.3694 54.0291C72.7151 54.7636 71.7893 55.4006 70.6722 55.8642C67.2669 57.2769 51.6087 62.0252 47.9964 61.5149C47.382 61.4283 46.8627 61.1661 46.4404 60.7826C44.4984 59.0168 44.5771 54.6639 46.5936 52.7453C46.5953 52.7432 46.5969 52.741 46.5986 52.7388C46.6077 52.7302 46.6176 52.7204 46.6267 52.7118C46.8677 52.4864 47.0665 52.2329 47.2304 51.9567C47.3364 51.7768 47.4275 51.5894 47.5078 51.3912C48.2805 49.4748 47.9443 46.7512 48.8403 44.4015C49.0564 43.8327 49.3446 43.2835 49.7405 42.7765C51.6592 40.3076 55.1274 40.8893 56.5369 39.0823C56.7762 38.7768 56.9559 38.402 57.0586 37.9318C57.0744 37.8571 57.0917 37.7856 57.1091 37.713V37.7108C57.8834 34.4457 59.4345 33.5877 60.9193 34.2788C60.921 34.2788 60.921 34.2788 60.9226 34.2788C61.085 34.3536 61.244 34.4457 61.4038 34.5572C61.9967 34.9722 62.2675 33.4295 63.9817 35.8399C64.1209 36.0338 64.2467 36.2397 64.3668 36.452C64.3668 36.452 64.3668 36.452 64.3668 36.4542C65.4864 38.4421 65.9336 41.0432 69.3869 41.6802C72.0212 42.1687 72.075 44.7124 72.4063 46.7805C72.4634 47.1391 72.5288 47.4814 72.6191 47.7988C72.6191 47.801 72.6191 47.801 72.6191 47.8032C72.7607 48.3069 72.9611 48.737 73.2799 49.049C74.9097 50.6426 74.7093 52.5341 73.3694 54.0291Z" fill="#603913"/>
<path d="M59.1547 39.8591C59.1547 39.8591 59.023 42.6638 56.2355 43.5771C53.448 44.4903 51.5483 47.4738 51.2949 50.4238C51.0415 53.3737 69.6644 48.5453 69.6644 48.5453C69.6644 48.5453 67.7282 45.8337 65.9262 44.98C64.1242 44.1263 62.4821 41.0258 62.256 38.5548C62.0299 36.0837 59.1547 39.8591 59.1547 39.8591Z" fill="#3C2415"/>
<path d="M111.723 66.2328C111.723 66.2328 109.224 80.6011 116.221 89.7401" stroke="#4A76D8" stroke-miterlimit="10" stroke-linecap="round"/>
<path d="M126.7 73.2344C126.183 73.7912 125.752 74.2343 125.407 74.6146V74.6168C124.008 76.1551 123.971 76.6892 125.039 79.5892C125.039 79.5914 125.039 79.5914 125.039 79.5936C125.161 79.9262 125.299 80.2902 125.45 80.691C128.7 89.2873 122.343 90.6132 122.343 90.6132H112.838C111.725 84.4285 118.828 82.7883 117.677 79.5546C116.524 76.3208 117.855 73.0102 120.128 71.123C122.403 69.2337 122.557 63.7087 125.075 59.8888C125.513 59.2247 125.935 59.1012 126.316 59.371C128.127 60.6428 129.047 70.7102 126.7 73.2344Z" fill="#FFDFB8"/>
<path d="M125.407 65.0845C125.407 65.0845 120.071 78.299 118.448 90.2503" stroke="#DDA45F" stroke-miterlimit="10" stroke-linecap="round"/>
<path d="M50.5794 60.1488C50.5794 60.1488 44.9067 78.1896 49.8117 91.7876" stroke="#4A76D8" stroke-miterlimit="10" stroke-linecap="round"/>
<path d="M38.55 90.6111C38.55 90.6111 33.077 86.5053 34.2935 80.2306C35.51 73.957 32.8749 73.1315 31.5574 69.2348C30.2398 65.338 30.7466 60.7057 34.3953 63.0879C38.0441 65.4702 37.1315 75.2104 40.3752 74.9808C43.6182 74.7511 46.0288 76.3663 45.0773 81.4591C44.1258 86.5518 50.2332 85.7545 49.8125 90.61L38.55 90.6111Z" fill="#FFDFB8"/>
<path d="M33.5167 66.7983C33.5167 66.7983 39.4685 84.461 44.3304 90.6122" stroke="#DDA45F" stroke-miterlimit="10" stroke-linecap="round"/>
<path d="M80.2511 43.1611C80.2511 43.1611 79.4942 43.2911 79.3369 43.8111C79.5464 42.9206 79.8528 41.9651 80.1989 41.9174C80.8565 41.8286 80.3116 42.8036 80.2511 43.1611Z" fill="#E5C2A8"/>
<path d="M79.5108 41.4505L79.3427 41.1092C79.293 41.0085 79.192 40.9782 79.1141 41.0388L79.0694 41.0735C78.9833 41.1407 78.9601 41.2891 79.0189 41.3942L79.206 41.73C79.2648 41.8351 79.3808 41.8513 79.4553 41.7647L79.4802 41.7354C79.5431 41.6628 79.5555 41.5426 79.5108 41.4505Z" fill="#B5C2F4"/>
<path d="M82.4084 47.6645C82.4117 47.7284 82.3579 47.7696 82.3181 47.7349L82.2626 47.6872L81.75 47.2442C81.731 47.2279 81.7153 47.2073 81.7028 47.1824L79.0586 41.8697C79.0098 41.7712 79.0321 41.6368 79.1091 41.5729L79.4611 41.2858C79.5365 41.2262 79.6358 41.2533 79.683 41.3519L82.3272 46.6602C82.343 46.6917 82.3513 46.7263 82.3537 46.761L82.4009 47.5529L82.4084 47.6645Z" fill="#4361F7"/>
<path d="M80.9542 48.8941V48.9233C80.8184 52.481 80.2304 58.7091 77.8752 62.8485C77.8735 62.8485 77.8735 62.8485 77.8719 62.8507C77.6839 63.1843 77.4843 63.5007 77.2715 63.8018C73.1739 69.5977 66.9721 63.0056 66.9721 63.0056L67.3348 60.4132L68.0255 55.4721L72.0676 55.2533L72.34 55.5046L73.5607 56.6291L73.5623 56.6313C73.5623 56.6313 73.7313 56.5132 74.0087 56.2478C75.0289 55.2706 77.9688 51.8072 79.0296 45.3646C79.0313 45.3538 79.0329 45.3418 79.0346 45.3321C79.0379 45.318 79.0412 45.2996 79.0437 45.2747L80.3016 45.8564L80.9798 46.1695C80.9798 46.1695 80.9798 46.1858 80.9815 46.2193C80.9873 46.4458 81.008 47.4457 80.9542 48.8941Z" fill="#F4D1B3"/>
<path d="M68.6284 61.23C68.6284 61.23 71.3687 60.5258 72.9346 56.0777L72.0676 55.2522L68.0661 60.0806L68.6284 61.23Z" fill="#E0BEA4"/>
<path d="M77.8727 62.8507C77.6839 63.1832 77.4835 63.4996 77.2715 63.8008C73.1739 69.5966 66.9721 63.0045 66.9721 63.0045L67.334 60.4121C67.7033 60.1759 68.0859 60.1142 68.4776 60.2973C68.4776 60.2962 72.4228 68.1882 77.8727 62.8507Z" fill="#E0BEA4"/>
<path d="M72.3707 97.2324L72.0568 97.2866H65.4889C65.3664 96.9312 65.2471 96.5802 65.1312 96.2314C65.0832 96.0895 65.0368 95.9487 64.9904 95.8089C64.9788 95.7764 64.9681 95.745 64.9581 95.7125C64.9308 95.6258 64.9026 95.5402 64.8745 95.4557C64.819 95.2835 64.7635 95.1145 64.7089 94.9455C64.6724 94.8361 64.6376 94.7256 64.6028 94.6162C64.559 94.4764 64.5134 94.3356 64.4695 94.1969C64.4646 94.1817 64.4596 94.1644 64.4554 94.1492C64.4091 94.0008 64.3627 93.8535 64.3155 93.7083C64.2906 93.6271 64.2666 93.5458 64.2418 93.4667C64.1192 93.0681 64.0016 92.6802 63.889 92.3076C63.8542 92.1906 63.8203 92.0747 63.7855 91.9609C63.6679 91.5633 63.5569 91.1831 63.4534 90.8234C63.4311 90.7487 63.4112 90.675 63.3905 90.6024C63.3035 90.3002 63.2224 90.0109 63.1478 89.7401C62.9963 89.1995 62.8688 88.7293 62.7669 88.3437C62.7479 88.2689 62.728 88.1963 62.7098 88.1292C62.7081 88.127 62.7081 88.1237 62.7073 88.1227C62.6891 88.0533 62.6725 87.9862 62.6559 87.9233C62.5317 87.4532 62.4671 87.1899 62.4671 87.1899L62.4042 87.9071L61.5835 97.2877H54.6331C54.0053 94.9552 52.9934 90.8884 52.3342 86.6807C52.3342 86.6742 52.3325 86.6677 52.3317 86.6602C52.311 86.5269 52.2903 86.3926 52.2696 86.2582C52.224 85.9571 52.1843 85.6602 52.1495 85.3677C51.6402 81.0756 52.2439 77.831 52.6505 76.2721C52.8236 75.6058 52.9619 75.2472 52.9619 75.2472C53.0149 75.1801 53.0679 75.1118 53.1209 75.0447C53.5201 74.5528 53.9424 74.1087 54.3846 73.7089C60.6345 68.0528 70.6266 71.4068 70.6266 71.4068C73.5342 83.9399 72.3707 97.2324 72.3707 97.2324Z" fill="#4361F7"/>
<path d="M69.2205 72.5866C69.2205 72.5866 65.5312 76.7682 58.001 76.3338C55.6947 76.2006 53.954 76.2038 52.6505 76.271C52.8236 75.6047 52.9619 75.2462 52.9619 75.2462C53.4074 74.672 53.8828 74.1607 54.3846 73.7078L69.2205 72.5866Z" fill="#3858CE"/>
<path d="M73.1748 55.6162C73.1748 55.6162 73.1748 55.6162 73.1731 55.6183C73.1541 55.6552 72.8204 56.2911 72.2233 57.1003V57.1025C71.6461 57.8847 70.8229 58.8337 69.801 59.5584C69.3911 59.8487 68.9497 60.1044 68.4777 60.2972C68.2855 60.3785 68.0884 60.4478 67.8856 60.5052C67.8856 60.5052 69.6851 66.9164 70.6258 71.4079C70.6258 71.4079 68.4884 73.6461 64.9987 74.7056C64.9962 74.7077 64.9937 74.7077 64.9896 74.7088C63.9545 75.0219 62.7992 75.231 61.5446 75.2483C60.1592 75.2667 58.989 75.2245 57.9994 75.166H57.9977C55.0687 74.9883 53.7056 74.6525 52.9611 75.2483L53.7312 63.453L53.9018 60.8313C53.9018 60.8313 53.2542 60.8606 52.3218 60.8292C51.328 60.7988 50.0113 60.7024 48.8114 60.4348C48.384 60.3417 47.9692 60.2257 47.5907 60.0817C47.5907 60.0817 47.6487 59.2908 47.8259 58.1078C48.177 55.7646 48.9993 51.8862 50.7748 49.5852C51.5632 48.5647 52.4659 47.7923 53.3694 47.2073C53.6882 46.9993 54.0062 46.8152 54.32 46.6527C54.3217 46.6527 54.3217 46.6527 54.3217 46.6527C55.6012 45.9897 56.7945 45.6744 57.5597 45.5271C58.0922 45.4242 58.416 45.4025 58.416 45.4025L63.6348 44.9128C63.6348 44.9128 63.9917 45.0157 64.5325 45.2118C65.7275 45.6441 67.8218 46.5237 68.9654 47.7197C69.3869 48.1607 69.8283 48.737 70.2631 49.3881C70.2631 49.3881 70.2648 49.3902 70.2672 49.3946C71.0672 50.5927 71.8399 52.0466 72.4096 53.3899C72.7525 54.1981 73.0199 54.9672 73.1748 55.6162Z" fill="#FBB040"/>
<path d="M82.8034 43.2445C82.3222 43.5955 81.7028 43.5771 81.09 43.7894C81.09 43.7894 81.36 43.8826 81.5993 44.0863C81.8908 44.3322 82.1351 44.7406 81.7881 45.3386C81.4867 45.8586 81.2142 46.1121 80.9807 46.2172C80.7836 46.3103 80.613 46.293 80.4821 46.2399C80.3703 46.1966 80.2867 46.1283 80.2312 46.0774C80.0432 45.8976 79.028 45.3635 79.028 45.3635C79.028 45.3635 79.0296 45.3527 79.0329 45.331C79.0362 45.3169 79.0395 45.2985 79.042 45.2736C79.0768 45.0569 79.1762 44.4795 79.3211 43.8631C79.3244 43.8447 79.3294 43.8284 79.3352 43.8111C79.4925 43.2911 80.2494 43.1611 80.2494 43.1611L80.2528 43.1589C80.3281 43.1427 81.5537 42.8512 82.9516 42.7137C82.9533 42.7126 83.2704 42.9043 82.8034 43.2445Z" fill="#F4D1B3"/>
<path d="M73.1748 55.6162C73.1748 55.6162 71.1252 59.5812 67.8864 60.5042L67.3531 58.4675C70.8693 56.745 72.4096 53.3899 72.4096 53.3899C72.7525 54.1981 73.0199 54.9673 73.1748 55.6162Z" fill="#FFC880"/>
<path d="M54.5469 58.6853C54.5469 58.6853 54.5974 60.9982 54.3887 62.7261C54.354 63.0121 54.1121 63.2504 53.732 63.453L53.9465 60.8508C53.9465 60.8508 51.6162 61.1921 47.5915 60.0828C47.5915 60.0828 47.6495 59.2919 47.8267 58.1089C48.2383 58.2389 51.3777 59.1955 54.5469 58.6853Z" fill="#FFC880"/>
<path opacity="0.53" d="M73.1748 55.6162C73.1748 55.6162 73.1748 55.6162 73.1731 55.6183C73.1541 55.6552 72.8203 56.2911 72.2232 57.1003C72.4129 53.9413 70.3442 49.5636 70.2672 49.3946C71.0672 50.5928 71.8398 52.0466 72.4096 53.3899C72.7524 54.1981 73.0199 54.9673 73.1748 55.6162Z" fill="#DD973A"/>
<path opacity="0.53" d="M70.6266 71.4068C70.6266 71.4068 68.4892 73.645 64.9995 74.7045C65.0575 74.6839 65.1212 74.6644 65.1883 74.6438C69.2155 73.4218 66.8189 55.7418 66.7659 55.3507C67.4971 58.5888 68.4379 60.2268 68.4776 60.2962C68.2855 60.3774 68.0884 60.4467 67.8855 60.5042C67.8864 60.5042 69.6859 66.9153 70.6266 71.4068Z" fill="#DD973A"/>
<path opacity="0.53" d="M56.5477 72.7296C56.5477 72.7296 56.5866 74.5539 57.9985 75.1638C55.944 75.0392 54.6612 74.8377 53.8198 74.932H53.8157C53.4588 74.9742 53.1822 75.0685 52.9619 75.2462L53.1143 72.9202L53.732 63.4508L53.9026 60.8292C53.9026 60.8292 53.255 60.8584 52.3226 60.827L52.436 60.7783C52.436 60.7783 55.0231 59.228 55.6434 53.5535C55.4984 55.0312 54.9494 61.5431 56.2156 66.7517L62.1218 61.4423C62.0829 61.5236 60.8241 63.4508 59.8693 66.9142C58.9923 70.1014 57.5439 72.1316 56.5477 72.7296Z" fill="#DD973A"/>
<path d="M62.6146 60.8313C61.8676 61.6872 61.167 62.8398 60.4689 64.0694C60.4672 64.0716 60.4672 64.0738 60.4672 64.0738C60.2668 64.4269 60.0681 64.7855 59.8668 65.1441C59.8056 65.2557 59.7426 65.3672 59.6805 65.4777C59.1017 66.5112 58.512 67.5404 57.8909 68.4374C57.751 68.6378 57.5928 68.8372 57.4197 69.0311C57.4197 69.0311 57.4197 69.0311 57.4181 69.0311C55.7063 70.9475 52.5106 72.3331 50.268 70.46C50.2598 70.4557 50.2523 70.4481 50.244 70.4416C50.1844 70.3896 50.1223 70.3322 50.0627 70.2769C50.0577 70.2726 50.0544 70.2661 50.0502 70.265C50.0378 70.2542 50.0262 70.2444 50.0138 70.2325C49.8863 70.1068 49.7596 69.9682 49.6387 69.8154C49.4937 69.6334 49.3596 69.4417 49.237 69.238C48.5149 68.0463 48.1398 66.5037 47.9518 65.0282C47.6329 62.5018 47.8665 60.177 47.8665 60.177C47.9866 60.2095 48.1091 60.2431 48.235 60.2734C48.929 60.4489 49.6867 60.5995 50.4991 60.7046C51.5773 60.8432 53.0298 60.8757 54.0542 60.8465C54.2199 60.8422 54.3731 60.8357 54.5114 60.8303L54.4484 61.7868V61.789L54.3888 62.7228C55.1548 62.1454 55.8819 61.6135 56.5585 61.1282C59.6358 58.9193 61.692 57.6918 61.7583 57.6528C61.7583 57.6528 61.7583 57.6528 61.7599 57.6507L62.3744 59.9376L62.6121 60.8227L62.6146 60.8313Z" fill="#F4D1B3"/>
<path d="M63.6348 44.9118C63.6348 44.9118 63.9917 45.0147 64.5325 45.2107C63.7532 48.2798 61.933 50.1822 60.3819 49.205C58.8317 48.2268 57.5588 45.5271 57.5588 45.5271C58.0913 45.4242 58.4151 45.4025 58.4151 45.4025L63.6348 44.9118Z" fill="#FFC880"/>
<path d="M63.6348 44.9107C63.3631 45.7188 62.7843 46.7415 62.333 47.4771C61.923 48.1444 61.1984 48.321 60.6378 47.8833C60.5525 47.8162 60.468 47.7458 60.3835 47.671C59.3434 46.7643 58.4167 45.4003 58.4167 45.4003C59.1861 45.2909 59.7558 44.265 60.0051 43.5771C60.4241 42.4223 60.2171 41.2728 60.2171 41.2728C60.2171 41.2728 60.2328 41.2165 60.2593 41.1223C60.4697 40.4192 61.3781 37.6274 61.7814 40.8384C61.8295 41.2208 61.8874 41.5675 61.9537 41.8806C62.3388 43.7179 62.9847 44.46 63.3549 44.7449C63.5238 44.8771 63.6348 44.9107 63.6348 44.9107Z" fill="#F4D1B3"/>
<path d="M67.0566 97.2866H65.489C65.3664 96.9313 65.2471 96.5802 65.1312 96.2314C65.0832 96.0895 65.0368 95.9487 64.9904 95.8089C64.9788 95.7764 64.9681 95.745 64.9581 95.7125C64.93 95.6258 64.901 95.5413 64.8745 95.4557C64.8174 95.2846 64.7635 95.1145 64.7089 94.9455C64.6724 94.8361 64.6376 94.7256 64.6029 94.6162C64.5573 94.4764 64.5134 94.3356 64.4695 94.1969C64.4646 94.1818 64.4596 94.1644 64.4555 94.1493C64.4074 94.0008 64.3611 93.8535 64.3155 93.7083C64.2907 93.6271 64.2667 93.5458 64.2418 93.4668C64.1176 93.0681 64 92.6803 63.889 92.3076C63.8542 92.1906 63.8203 92.0747 63.7855 91.9609C63.6663 91.5633 63.5569 91.1831 63.4534 90.8234C63.4311 90.7487 63.4112 90.675 63.3905 90.6024C63.3027 90.298 63.2224 90.0109 63.1479 89.7401C62.9963 89.1995 62.8688 88.7293 62.7669 88.3437C62.7479 88.2689 62.728 88.1963 62.7098 88.1292C62.7081 88.127 62.7081 88.1237 62.7073 88.1227C62.6891 88.0533 62.6725 87.9862 62.6559 87.9233C62.5317 87.4532 62.4671 87.1899 62.4671 87.1899L62.4042 87.9071L62.2916 86.2864V86.2842L62.2783 86.0968L62.4183 85.4598C62.4199 85.4577 62.4199 85.4566 62.4199 85.4544L63.0675 82.5121C63.0882 82.6118 63.9578 86.5919 67.0566 97.2866Z" fill="#3858CE"/>
<path d="M63.3574 80.2317L63.0667 82.5099L62.4671 87.1888L62.4042 87.906L61.5835 97.2866H60.8059C61.0138 95.7147 61.2813 93.2869 61.7119 90.2417C61.9288 88.7055 62.1218 87.3968 62.2924 86.2842C62.3363 85.9939 62.3793 85.7166 62.4199 85.4523C63.0625 81.3356 63.3367 80.3075 63.3574 80.2317Z" fill="#8FA7FF"/>
<path opacity="0.28" d="M53.3693 47.2063C52.094 48.2831 49.237 51.4854 48.8146 60.411C48.813 60.4197 48.813 60.4262 48.8121 60.4348C48.3848 60.3417 47.9699 60.2258 47.5915 60.0817C47.5915 60.0817 47.6495 59.2908 47.8267 58.1078C48.1778 55.7646 49.0001 51.8863 50.7756 49.5853C51.5632 48.5637 52.4658 47.7913 53.3693 47.2063Z" fill="#FFF5E9"/>
<path d="M57.4172 69.0322C55.5382 71.1349 51.8704 72.6007 49.6386 69.8143C48.649 68.5783 48.1712 66.7561 47.9526 65.0271C47.9526 65.0271 49.0581 73.7252 57.4172 69.0322Z" fill="#E0BEA4"/>
<path d="M49.237 69.2358C48.5149 68.0463 48.1389 66.5026 47.9526 65.0271C47.6337 62.5018 47.8673 60.1781 47.8673 60.1781C47.9874 60.2106 48.4354 60.346 48.5604 60.3763C48.5041 60.8985 47.613 66.3574 49.237 69.2358Z" fill="#F7E7DA"/>
<path d="M50.0641 70.2766C50.059 70.2722 50.0557 70.2689 50.0507 70.2645C50.0389 70.2546 50.0272 70.2435 50.0154 70.2314C50.0314 70.2479 50.0473 70.2612 50.0641 70.2766Z" fill="#F7E7DA"/>
<path d="M50.2448 70.4416C50.1835 70.3896 50.1231 70.3332 50.0626 70.2758C50.1297 70.3343 50.191 70.3896 50.2448 70.4416Z" fill="#F7E7DA"/>
<path d="M61.9528 41.8806C61.9528 41.8806 61.316 43.1687 60.0043 43.5782C60.4233 42.4233 60.2163 41.2728 60.2163 41.2728C60.2163 41.2728 60.232 41.2176 60.2585 41.1223L61.5173 40.7279L61.9528 41.8806Z" fill="#E0BEA4"/>
<path d="M61.8577 36.7889C61.8577 36.7889 61.8842 37.4844 60.8937 37.674C59.9033 37.8636 59.5919 38.7627 59.63 39.3142C59.63 39.3142 59.6424 38.7703 59.1745 38.7053C58.7066 38.6392 58.6131 40.8124 59.654 40.56C59.654 40.56 60.0225 42.1785 61.1687 42.1211C62.3148 42.0637 62.7057 40.9197 62.7967 39.8602C62.9052 38.5937 62.4746 36.7293 61.8577 36.7889Z" fill="#F4D1B3"/>
<path d="M60.9268 39.3976C61 39.3976 61.0593 39.2928 61.0593 39.1636C61.0593 39.0343 61 38.9296 60.9268 38.9296C60.8536 38.9296 60.7943 39.0343 60.7943 39.1636C60.7943 39.2928 60.8536 39.3976 60.9268 39.3976Z" fill="black"/>
<path d="M62.3885 39.3488C62.4617 39.3488 62.521 39.2441 62.521 39.1148C62.521 38.9856 62.4617 38.8808 62.3885 38.8808C62.3153 38.8808 62.256 38.9856 62.256 39.1148C62.256 39.2441 62.3153 39.3488 62.3885 39.3488Z" fill="black"/>
<path d="M61.2614 40.9825C61.2614 40.9825 61.658 41.418 62.0298 40.9825" stroke="#EF4136" stroke-miterlimit="10" stroke-linecap="round"/>
<path d="M61.6133 38.8169C61.6133 38.8169 61.8791 39.9956 61.8841 40.1992C61.8891 40.4029 61.3864 40.2122 61.3864 40.2122" stroke="#C1A18B" stroke-width="0.75" stroke-miterlimit="10" stroke-linecap="round"/>
<path d="M62.3885 39.8591C62.7182 39.8591 62.9855 39.5094 62.9855 39.078C62.9855 38.6466 62.7182 38.2969 62.3885 38.2969C62.0587 38.2969 61.7914 38.6466 61.7914 39.078C61.7914 39.5094 62.0587 39.8591 62.3885 39.8591Z" stroke="white" stroke-miterlimit="10"/>
<path d="M61.5247 39.1148H61.7914" stroke="white" stroke-miterlimit="10" stroke-linecap="round"/>
<path d="M59.9173 38.2969C59.9173 38.2969 59.7417 38.8082 60.0043 40.3845C60.0043 40.3845 59.1496 38.9902 59.4337 37.7227C59.7177 36.4552 59.7177 36.4552 59.7177 36.4552L60.5483 36.673L59.9173 38.2969Z" fill="#603913"/>
<path d="M60.3306 39.078C60.3306 39.078 59.8022 38.7898 59.6126 38.7042C58.796 38.337 58.5418 38.7584 58.5418 38.7584" stroke="white" stroke-miterlimit="10" stroke-linecap="round"/>
<path opacity="0.28" d="M53.8165 74.932C53.4596 74.9743 53.183 75.0685 52.9627 75.2462L53.1151 72.9202C53.1151 72.9213 53.0671 74.9255 53.8165 74.932Z" fill="#FFF5E9"/>
<path d="M52.2696 86.2572C52.2953 86.4012 52.316 86.5356 52.3317 86.6591C52.311 86.5258 52.2903 86.3926 52.2696 86.2572Z" fill="#8FA7FF"/>
<path d="M52.1495 85.3667C51.6402 81.0745 52.2439 77.8299 52.6505 76.271C52.8236 75.6047 52.9619 75.2462 52.9619 75.2462C53.0149 75.179 53.0679 75.1108 53.1209 75.0436C53.4439 74.9526 53.6956 74.9028 53.8157 74.932C53.8165 74.932 51.723 80.8199 52.1495 85.3667Z" fill="#8FA7FF"/>
<path d="M55.0107 76.5873C55.0107 76.5873 54.8591 79.3585 52.6505 79.7929" stroke="#294AA5" stroke-width="2" stroke-miterlimit="10" stroke-linecap="round"/>
<path d="M61.7599 57.6528C61.7599 57.6528 62.1011 55.6519 63.4708 55.2348C64.8405 54.8188 63.5669 56.7569 63.5669 56.7569C63.5669 56.7569 61.6622 57.5792 61.7599 57.6528Z" fill="#E0BEA4"/>
<path d="M56.2546 96.6539C53.1184 83.8955 54.1288 78.9132 54.1288 78.9132" stroke="#294AA5" stroke-width="2" stroke-miterlimit="10" stroke-linecap="round"/>
<path d="M65.812 54.5209L65.561 61.0729C65.5594 61.1347 65.5138 61.1845 65.4567 61.1867L64.6824 61.2051L64.3785 61.2116L63.3334 61.23C63.2762 61.2322 63.2307 61.1845 63.2265 61.1249L62.7106 54.5827C62.7057 54.5166 62.7529 54.4592 62.8117 54.4592L65.706 54.4061C65.7283 54.4061 65.7498 54.4126 65.7672 54.4245C65.7689 54.4267 65.7722 54.4288 65.7739 54.431C65.7979 54.4505 65.8136 54.483 65.812 54.5209Z" fill="#DBDBDB"/>
<path d="M65.8119 54.5209L65.561 61.0729C65.5594 61.1347 65.5138 61.1845 65.4567 61.1867L64.6824 61.2051C64.66 61.1867 64.6443 61.1574 64.6426 61.1249L64.1259 54.5827C64.1192 54.5166 64.1664 54.4592 64.2286 54.4592L65.7738 54.4299C65.7979 54.4505 65.8136 54.483 65.8119 54.5209Z" fill="#EAEAEA"/>
<path d="M65.8111 53.4506V54.0638C65.8111 54.1396 65.7647 54.2003 65.7075 54.2003L63.6389 54.2024H62.7992C62.7412 54.2024 62.6948 54.1396 62.6948 54.0659V53.4528C62.6948 53.3769 62.7412 53.3163 62.7992 53.3163H65.7067C65.7647 53.3152 65.8111 53.3758 65.8111 53.4506Z" fill="#603C29"/>
<path d="M66.067 54.2013V54.509C66.067 54.5838 66.0206 54.6444 65.9626 54.6444L63.6397 54.6466H62.5441C62.487 54.6466 62.4406 54.5859 62.4406 54.5112V54.2035C62.4406 54.1287 62.487 54.067 62.5441 54.067H63.6397L65.8119 54.0648H65.9635C66.0206 54.0637 66.067 54.1266 66.067 54.2013Z" fill="#996441"/>
<path opacity="0.22" d="M63.6389 54.0659V54.6455H62.5433C62.4862 54.6455 62.4398 54.5848 62.4398 54.5101V54.2024C62.4398 54.1277 62.4862 54.0659 62.5433 54.0659H62.6949V53.4527C62.6949 53.3769 62.7413 53.3162 62.7992 53.3162H63.6389C63.6389 53.3152 63.6389 53.677 63.6389 54.0659Z" fill="black"/>
<path d="M65.3241 59.9419C65.209 60.086 65.0434 60.2637 64.8082 60.424C64.3619 60.7317 63.6687 60.9765 62.612 60.8238C62.6104 60.8238 62.6104 60.8238 62.6087 60.8238C62.424 60.7967 62.2617 60.7718 62.1168 60.749C60.9848 60.5659 60.9624 60.4814 60.9624 60.4814L61.7566 57.6539C61.7566 57.6539 61.7566 57.6539 61.7582 57.6518C61.7864 57.59 62.3462 56.433 63.4484 55.9791C64.5805 55.5133 65.5204 56.2716 65.7142 57.0473C65.908 57.8262 65.6554 59.527 65.3241 59.9419Z" fill="#F4D1B3"/>
<path d="M64.6062 55.9065C64.6062 55.9065 65.7747 56.0852 65.9776 56.5662C66.2244 57.1502 65.7126 57.3202 65.3134 57.3202C64.9143 57.3202 64.6062 55.9065 64.6062 55.9065Z" fill="#F4D1B3"/>
<path d="M64.9043 56.7569C64.9043 56.7569 65.8202 56.8013 66.0272 57.2791C66.2657 57.8294 65.8152 58.097 65.4161 58.097C65.0169 58.097 64.9043 56.7569 64.9043 56.7569Z" fill="#F4D1B3"/>
<path d="M64.7039 57.4069C64.7039 57.4069 65.5187 57.6994 65.8235 58.0797C66.1282 58.4599 65.8135 59.3017 65.4127 59.3017C65.0119 59.3017 64.7039 57.4069 64.7039 57.4069Z" fill="#F4D1B3"/>
<path d="M58.5153 34.9332C58.5153 34.9332 56.7125 38.9772 52.5644 39.4387C49.7455 39.7518 46.6359 40.2144 45.8533 47.177C45.0707 54.1396 42.2327 52.78 41.1073 55.0279" stroke="#603913" stroke-width="0.75" stroke-miterlimit="10"/>
<path d="M54.5122 60.8303L54.4492 61.7879L54.4658 61.5323C50.48 61.3589 47.8673 60.1781 47.8673 60.1781C47.9874 60.2095 48.1108 60.2442 48.2358 60.2734C48.9298 60.45 49.6867 60.6006 50.4999 60.7046C51.579 60.8422 53.0298 60.8747 54.0542 60.8465C54.2199 60.8443 54.3731 60.8368 54.5122 60.8303Z" fill="#E0BEA4"/>
<path d="M54.3888 62.725C54.3888 62.725 53.0381 63.9188 52.5669 65.2795" stroke="#231F20" stroke-miterlimit="10" stroke-linecap="round"/>
<path d="M73.5599 56.628C73.5599 56.628 72.2009 58.2595 72.0295 60.0806" stroke="#231F20" stroke-miterlimit="10" stroke-linecap="round"/>
<path d="M63.9942 36.0252C63.9942 36.0252 65.8658 40.6022 68.7286 40.5383C71.5914 40.4744 74.2091 40.1537 74.8691 42.4905C75.53 44.8272 74.9428 47.2972 77.756 47.8064" stroke="#603913" stroke-width="0.75" stroke-miterlimit="10"/>
<path d="M65.9262 57.1274C65.9262 57.1274 65.3474 56.7981 64.4662 56.8219" stroke="#231F20" stroke-miterlimit="10" stroke-linecap="round"/>
<path d="M65.8227 58.0797C65.8227 58.0797 65.1958 57.6528 64.4108 57.9334" stroke="#231F20" stroke-miterlimit="10" stroke-linecap="round"/>
<path d="M65.6024 59.2367C65.6024 59.2367 65.1055 58.8694 64.3594 59.1738" stroke="#231F20" stroke-miterlimit="10" stroke-linecap="round"/>
<path d="M54.5262 60.7923C54.5262 60.7923 54.8972 60.2182 55.1366 58.2064C55.3809 56.1535 55.4877 55.1785 55.4877 55.1785" stroke="black" stroke-miterlimit="10" stroke-linecap="round"/>
<path d="M67.8864 60.5042C67.8864 60.5042 66.9589 57.9843 66.7659 55.3507" stroke="black" stroke-miterlimit="10" stroke-linecap="round"/>
<path d="M63.0128 44.4113C63.0128 44.4113 62.7362 46.0861 61.3276 46.7372C61.3276 46.7372 60.1989 46.6148 59.4155 44.6918" stroke="white" stroke-miterlimit="10" stroke-linecap="round"/>
<path d="M61.504 47.1608C61.504 47.2983 61.4187 47.4099 61.3135 47.4099C61.2083 47.4099 61.123 47.2983 61.123 47.1608C61.123 47.0232 61.2224 46.7383 61.3276 46.7383C61.4328 46.7383 61.504 47.0232 61.504 47.1608Z" fill="#4361F7"/>
<path d="M63.6348 44.9107C63.3631 45.7188 62.7843 46.7415 62.333 47.4771C61.923 48.1444 61.1984 48.321 60.6378 47.8833C60.5525 47.8162 60.468 47.7458 60.3835 47.671C62.0953 49.0273 63.3532 44.7449 63.3532 44.7449H63.354C63.5238 44.8771 63.6348 44.9107 63.6348 44.9107Z" fill="#E0BEA4"/>
<path d="M60.4987 38.6544C60.4987 38.6544 60.7297 38.467 61.0593 38.5547" stroke="black" stroke-miterlimit="10" stroke-linecap="round"/>
<path d="M62.1077 38.6544C62.1077 38.6544 62.3388 38.467 62.6684 38.5547" stroke="black" stroke-miterlimit="10" stroke-linecap="round"/>
<path d="M60.9276 39.8591C61.2574 39.8591 61.5247 39.5094 61.5247 39.078C61.5247 38.6466 61.2574 38.2969 60.9276 38.2969C60.5979 38.2969 60.3306 38.6466 60.3306 39.078C60.3306 39.5094 60.5979 39.8591 60.9276 39.8591Z" stroke="white" stroke-miterlimit="10"/>
<path d="M59.3509 40.7496C59.4593 40.7496 59.5471 40.6346 59.5471 40.4928C59.5471 40.351 59.4593 40.2361 59.3509 40.2361C59.2425 40.2361 59.1546 40.351 59.1546 40.4928C59.1546 40.6346 59.2425 40.7496 59.3509 40.7496Z" fill="white"/>
<path d="M79.6996 43.0365C79.6929 43.121 79.6681 43.1643 79.6474 43.1849C79.6209 43.2012 79.6076 43.1665 79.6052 43.16C79.5281 42.9292 79.2143 42.3345 79.0851 42.0983C79.0834 42.094 79.0818 42.0897 79.0785 42.0864C79.0785 42.0864 79.0785 42.0842 79.0768 42.0842C79.042 42.0182 79.0627 41.9792 79.0702 41.9683C79.0718 41.9662 79.0735 41.964 79.0735 41.964L79.1099 41.9391C79.1099 41.9391 79.1522 41.9142 79.2168 42.0279V42.0301C79.3667 42.2966 79.7087 42.9152 79.6996 43.0365Z" fill="#B5C2F4"/>
<path d="M82.4084 47.6645C82.4117 47.7284 82.3579 47.7696 82.3181 47.7349L82.2626 47.6872L81.75 47.2442C81.731 47.2279 81.7152 47.2073 81.7028 47.1824C81.8966 46.5714 82.3272 46.6602 82.3272 46.6602C82.343 46.6917 82.3512 46.7263 82.3537 46.761L82.4009 47.5529L82.4084 47.6645Z" fill="#B5C2F4"/>
<path d="M82.4084 47.6645C82.4117 47.7284 82.3579 47.7696 82.3181 47.7349L82.2626 47.6873C82.2626 47.6873 82.2436 47.5475 82.4017 47.5529L82.4084 47.6645Z" fill="#231F20"/>
<path d="M110.576 97.0634H99.9663L98.5924 89.8072L98.4839 89.232L98.2107 97.0634H88.0595C88.6243 92.0714 89.2065 84.4827 89.0052 75.387L92.8444 72.5877L93.9003 71.8185L104.345 73.1662L106.95 73.502L108.848 73.7468C108.848 73.7468 108.949 74.685 109.103 76.2547C109.239 77.6327 109.415 79.4972 109.6 81.64C109.601 81.6476 109.602 81.6573 109.602 81.6649C109.624 81.9217 109.647 82.1838 109.669 82.4482C109.696 82.7645 109.722 83.0884 109.75 83.4145C109.75 83.4145 109.75 83.4221 109.751 83.4394C110.097 87.6633 110.441 92.651 110.576 97.0634Z" fill="#FBB040"/>
<path opacity="0.53" d="M92.8444 72.5866L91.8382 76.4757C91.8382 76.4757 89.4706 81.1298 89.4052 89.6404C89.4052 89.6404 89.0955 94.8328 89.2884 97.0634H88.0595C88.6243 92.0714 89.2065 84.4827 89.0052 75.387L92.8444 72.5866Z" fill="#DD973A"/>
<path opacity="0.53" d="M109.103 76.2526C107.766 76.934 105.488 77.7411 102.032 77.9112C95.8339 78.2134 90.2449 76.1854 90.2449 76.1854L104.345 73.1651L108.846 73.7447C108.847 73.7447 108.949 74.6828 109.103 76.2526Z" fill="#DD973A"/>
<path opacity="0.28" d="M109.103 76.2526C109.239 77.6306 109.481 80.2837 109.6 81.6378C109.126 76.2277 106.95 74.9818 106.95 74.9818V73.4998L108.848 73.7447C108.847 73.7447 108.949 74.6828 109.103 76.2526Z" fill="#FFF5E9"/>
<path d="M92.0444 67.6477C91.9417 69.3799 90.7675 70.5705 87.6653 70.4914C84.0621 70.4004 81.8502 67.7073 80.4962 64.6414C78.6669 60.502 78.4069 55.6844 78.4069 55.6844L86.0008 55.7678C86.0016 55.7678 92.2953 63.3663 92.0444 67.6477Z" fill="#F4D1B3"/>
<path d="M92.0444 67.6477C91.9417 69.3799 90.7674 70.5705 87.6653 70.4914C84.0621 70.4004 81.8502 67.7073 80.4962 64.6414C81.7169 66.3672 83.3615 68.12 84.8646 67.8275C87.7233 67.2707 87.0806 63.4736 87.0806 63.4736L89.3265 62.1021L92.0444 67.6477Z" fill="#E0BEA4"/>
<path d="M112.224 56.4222L111.857 56.7537L111.296 57.2596L110.546 57.9345L109.245 59.1078L108.951 59.371L106.522 59.1078L105.911 59.0417C105.911 59.0417 105.916 59.0633 105.924 59.1078C105.956 59.2573 106.041 59.6559 106.164 60.2333C106.164 60.2366 106.165 60.2377 106.165 60.2409C106.173 60.2821 106.183 60.3243 106.192 60.3688C106.324 60.9928 106.494 61.8031 106.685 62.7228C106.769 63.1248 106.857 63.5473 106.947 63.9838C107.103 64.7378 107.267 65.533 107.431 66.3368C107.515 66.7561 107.601 67.1786 107.686 67.5978C107.848 68.4017 108.006 69.1979 108.152 69.9519C108.237 70.3885 108.319 70.811 108.394 71.2129C108.568 72.1305 108.714 72.9387 108.815 73.5648C108.826 73.6277 108.836 73.6894 108.845 73.7479C108.845 73.7479 108.293 74.2333 107.236 74.8258C107.143 74.8778 107.047 74.9298 106.947 74.984C105.228 75.8994 102.383 76.986 98.5767 76.9654C95.6774 76.9513 93.4299 76.7228 91.8358 76.4768C89.8971 76.1778 88.9257 75.8507 88.9257 75.8507L88.8752 74.8258L88.8114 73.5648L88.6947 71.2129L88.6317 69.9519L88.5133 67.5978L88.4504 66.3368L88.332 63.9838L88.269 62.7228L88.1572 60.4814L85.8186 60.3698L84.2054 60.2929L82.7015 60.2203L81.4304 60.1586C81.3807 58.9767 81.4353 57.6648 81.5968 56.3138C81.8718 54.0172 82.4597 51.6078 83.3864 49.5257C83.5802 49.0891 83.7889 48.6677 84.0133 48.2647C84.506 47.3774 85.0725 46.5779 85.7151 45.9128C86.0116 45.604 86.3246 45.3245 86.655 45.0775C86.8571 44.9258 87.0633 44.7828 87.2753 44.6518C87.2786 44.6485 87.2836 44.6474 87.2877 44.6442L87.2885 44.6431C88.8818 43.6453 90.6689 43.1687 91.8026 42.952C92.5041 42.8177 92.9546 42.7819 92.9546 42.7819L98.8856 42.38C98.8856 42.38 99.4661 42.3497 100.368 42.4082C100.368 42.4082 102.431 42.3594 104.626 43.1524C104.626 43.1524 104.627 43.1524 104.629 43.1524C104.63 43.1535 104.632 43.1535 104.634 43.1535C104.7 43.1773 104.764 43.2023 104.83 43.2272C105.683 43.5533 106.547 44.0104 107.311 44.6518C107.74 45.0114 108.137 45.4274 108.482 45.9128C108.498 45.9333 108.512 45.955 108.527 45.9778C108.942 46.5747 109.346 47.3915 109.718 48.2647C109.894 48.6774 110.062 49.1053 110.219 49.5257C110.54 50.3815 110.815 51.2157 111.023 51.8798C111.208 52.4713 111.339 52.9263 111.399 53.1408C111.425 53.2285 111.438 53.2762 111.438 53.2762C111.712 54.3053 111.893 55.0138 112.01 55.4938C112.189 56.2142 112.224 56.4222 112.224 56.4222Z" fill="#4361F7"/>
<path d="M100.37 42.4049C99.4371 44.1599 98.6297 46.5216 95.6733 45.8618C92.7152 45.2032 91.5583 42.9845 91.5583 42.9845C92.2598 42.8502 92.9571 42.7776 92.9571 42.7776L98.8881 42.3757C98.8881 42.3768 99.4686 42.3464 100.37 42.4049Z" fill="white"/>
<path d="M98.8881 42.3768C98.4508 43.3604 97.9324 43.9465 97.3875 44.2574C97.385 44.2585 97.3842 44.2585 97.3817 44.2607C95.3545 45.4144 92.957 42.7787 92.957 42.7787C93.0912 42.731 93.2171 42.6747 93.3338 42.6064L93.3363 42.6053C93.6866 42.4038 93.9615 42.1146 94.1752 41.7918H94.176C94.8336 40.7973 94.9271 39.468 94.9379 39.2568C94.9387 39.2394 94.9387 39.2286 94.9387 39.2286C94.9387 39.2286 96.5031 35.4954 96.5403 38.5678C96.5436 38.8213 96.7316 38.7833 96.7647 39.0076C97.1167 41.4798 98.8881 42.3768 98.8881 42.3768Z" fill="#F4D1B3"/>
<path d="M96.8376 39.1658C96.8376 39.1658 96.8194 39.3066 96.8194 39.3088C96.7979 39.4279 96.0501 42.1731 94.176 41.7918C94.8344 40.7973 94.9271 39.468 94.9379 39.2568L95.5921 39.1029L96.7424 39.2113L96.8376 39.1658Z" fill="#E0BEA4"/>
<path d="M96.6522 34.5334C97.0157 35.4066 97.3933 34.6374 97.3933 34.6374L97.2989 35.7944C97.8886 35.0859 98.0716 35.8074 98.0765 36.6307C98.0815 37.4541 97.3602 37.7011 97.3602 37.7011C97.3859 38.2742 96.7855 40.5936 94.9934 39.7421C93.2014 38.8906 93.8763 34.7782 93.8763 34.7782C94.4568 35.3654 94.634 34.3785 94.634 34.3785C94.634 34.3785 94.9843 35.1238 95.6808 35.1737C96.3772 35.2235 96.6522 34.5334 96.6522 34.5334Z" fill="#F4D1B3"/>
<path d="M94.9006 36.1541C94.9006 36.7835 94.4675 37.2764 93.9723 37.1583C93.675 37.0868 93.4299 36.7813 93.3595 36.3967C93.3355 36.2635 93.3313 36.1335 93.3454 36.01C93.3653 35.8291 93.4821 35.6937 93.622 35.6937H94.6845C94.7698 35.6937 94.8468 35.7652 94.8708 35.8724C94.8899 35.9623 94.9006 36.0566 94.9006 36.1541Z" stroke="black" stroke-width="0.75" stroke-miterlimit="10"/>
<path d="M96.8144 36.4011C96.7424 36.7846 96.4981 37.089 96.2008 37.1583C95.7064 37.2742 95.2758 36.7813 95.2758 36.153C95.2758 36.0847 95.2807 36.0187 95.2907 35.9547C95.3139 35.8031 95.4141 35.6926 95.5316 35.6926H96.5809C96.6952 35.6926 96.7962 35.7944 96.8202 35.9407C96.8442 36.0869 96.8442 36.2418 96.8144 36.4011Z" stroke="black" stroke-width="0.75" stroke-miterlimit="10"/>
<path d="M94.2406 36.66C94.338 36.66 94.417 36.5567 94.417 36.4292C94.417 36.3018 94.338 36.1985 94.2406 36.1985C94.1432 36.1985 94.0642 36.3018 94.0642 36.4292C94.0642 36.5567 94.1432 36.66 94.2406 36.66Z" fill="#231F20"/>
<path d="M96.0567 36.66C96.1541 36.66 96.2331 36.5567 96.2331 36.4292C96.2331 36.3018 96.1541 36.1985 96.0567 36.1985C95.9593 36.1985 95.8803 36.3018 95.8803 36.4292C95.8803 36.5567 95.9593 36.66 96.0567 36.66Z" fill="#231F20"/>
<path d="M94.9006 36.1541H95.2758" stroke="black" stroke-width="0.75" stroke-miterlimit="10"/>
<path d="M96.8376 36.1541C96.8376 36.1541 97.5366 35.2181 98.0765 35.5442" stroke="black" stroke-width="0.75" stroke-miterlimit="10" stroke-linecap="round"/>
<path d="M93.9409 35.9439C93.9409 35.9439 94.0767 35.7684 94.523 35.9157" stroke="black" stroke-width="0.75" stroke-miterlimit="10" stroke-linecap="round"/>
<path d="M95.8331 35.9407C95.8331 35.9407 95.9714 35.7684 96.4161 35.9266" stroke="black" stroke-width="0.75" stroke-miterlimit="10" stroke-linecap="round"/>
<path d="M95.1416 35.9407C95.1416 35.9407 94.7988 37.2125 94.7698 37.3544C94.7408 37.4952 94.9164 37.687 95.1938 37.687" stroke="black" stroke-width="0.75" stroke-miterlimit="10" stroke-linecap="round"/>
<path d="M94.7094 38.4908C94.9727 38.7779 95.4406 38.9599 95.7478 38.4908" stroke="black" stroke-width="0.75" stroke-miterlimit="10" stroke-linecap="round"/>
<path d="M97.2335 36.9796C97.2335 36.9796 97.2773 36.6275 97.5299 36.66" stroke="black" stroke-width="0.75" stroke-miterlimit="10" stroke-linecap="round"/>
<path d="M105.555 76.9643C105.555 76.9643 106.104 81.5923 109.103 81.458" stroke="#B77E34" stroke-width="2" stroke-miterlimit="10" stroke-linecap="round"/>
<path opacity="0.28" d="M109.75 83.4134C109.726 83.1751 109.703 82.9075 109.681 82.6053C109.678 82.5522 109.674 82.5002 109.669 82.4471C109.696 82.7634 109.722 83.0862 109.75 83.4134Z" fill="#FFF5E9"/>
<path opacity="0.28" d="M109.352 97.0634C110.445 95.4828 109.787 84.0428 109.751 83.4383C110.098 87.6633 110.442 92.651 110.577 97.0634H109.352Z" fill="#FFF5E9"/>
<path opacity="0.53" d="M98.5924 89.8073L98.4839 89.232L98.2107 97.0634H94.8013C98.1063 93.0767 97.486 84.1609 97.486 84.1609L98.5196 87.607L98.5924 89.8073Z" fill="#DD973A"/>
<path d="M101.955 97.0634H99.9663L97.1134 82.2185L101.955 97.0634Z" fill="#F7C684"/>
<path d="M97.3817 44.2607C95.3545 45.4144 92.957 42.7787 92.957 42.7787C93.0912 42.731 93.2171 42.6747 93.3338 42.6064L93.3363 42.6053C93.3363 42.6053 95.5201 45.1165 97.3817 44.2607Z" fill="#E0BEA4"/>
<g opacity="0.79">
<path d="M108.484 45.9106H85.7167C86.0131 45.6018 86.3262 45.3223 86.6566 45.0753C86.8587 44.9237 87.0649 44.7807 87.2769 44.6496H107.313C107.742 45.0092 108.139 45.4253 108.484 45.9106Z" fill="white"/>
<path d="M110.223 49.5235H83.3889C83.5826 49.0869 83.7913 48.6655 84.0157 48.2625H109.722C109.897 48.6763 110.064 49.1032 110.223 49.5235Z" fill="white"/>
<path d="M111.402 53.1386H82.704V51.8776H111.026C111.211 52.4691 111.341 52.9241 111.402 53.1386Z" fill="white"/>
<path d="M112.224 56.4222L111.856 56.7537H82.704V55.4927H112.011C112.189 56.2142 112.224 56.4222 112.224 56.4222Z" fill="white"/>
<path d="M106.166 60.2398C106.175 60.281 106.185 60.3233 106.194 60.3677H82.704V59.1067H105.925C105.957 59.2562 106.041 59.6548 106.165 60.2323C106.165 60.2355 106.166 60.2366 106.166 60.2398Z" fill="white"/>
<path d="M109.245 59.1067L108.952 59.3699L106.523 59.1067H109.245Z" fill="white"/>
<path d="M106.949 63.9827H88.3352L88.2723 62.7217H106.686C106.771 63.1237 106.859 63.5462 106.949 63.9827Z" fill="white"/>
<path d="M107.688 67.5967H88.5158L88.4528 66.3358H107.432C107.517 66.755 107.602 67.1775 107.688 67.5967Z" fill="white"/>
<path d="M108.397 71.2118H88.6972L88.6342 69.9508H108.155C108.238 70.3874 108.32 70.8099 108.397 71.2118Z" fill="white"/>
<path d="M108.847 73.7468C108.847 73.7468 108.296 74.2322 107.238 74.8247H88.8768L88.813 73.5637H108.816C108.828 73.6266 108.838 73.6883 108.847 73.7468Z" fill="white"/>
</g>
<path d="M105.259 59.1023L104.879 56.4558C104.879 56.4558 109.313 56.4558 111.595 53.8612C112.087 55.7646 112.224 56.4222 112.224 56.4222L108.952 59.3699L105.911 59.0395L105.259 59.1023Z" fill="#869DEF"/>
<path opacity="0.35" d="M108.847 73.7468C108.847 73.7468 108.194 74.321 106.949 74.9829C106.43 73.9982 105.374 73.0849 103.425 72.4728C96.7639 70.3777 93.5284 64.1398 93.5284 64.1398C93.5284 64.1398 100.224 67.2024 102.909 64.8386C105.531 62.5289 104.312 53.1375 104.254 52.6977L105.258 59.1045L106.166 60.2409C106.793 63.2017 108.388 70.8381 108.847 73.7468Z" fill="#2B3990"/>
<path opacity="0.35" d="M94.8543 76.817C92.9156 76.518 88.9282 75.8496 88.9282 75.8496L88.1605 60.4803L84.2079 60.2908L83.8021 53.8623L89.3249 53.3531C89.3249 53.3531 90.9033 53.8937 90.7998 63.0901C90.6971 72.2865 94.8543 76.817 94.8543 76.817Z" fill="#2B3990"/>
<path opacity="0.35" d="M85.4542 51.3641L85.6099 54.2317L81.5993 56.3127C82.1177 51.987 83.7458 47.2582 86.6567 45.0764C86.8629 44.9215 87.0732 44.7774 87.2894 44.6431C84.7901 47.8216 85.4542 51.3641 85.4542 51.3641Z" fill="#2B3990"/>
<path d="M77.0521 55.9585L76.2645 51.9621C76.185 51.5569 76.4409 51.1734 76.7738 51.1929L77.7055 51.2471L78.0003 51.2644L78.4086 51.2882L79.2839 51.3392C79.2946 51.3413 79.3013 51.3413 79.3013 51.3413L79.7302 51.3662C79.7302 51.3662 79.7319 51.3662 79.736 51.3662C79.7385 51.3684 79.7427 51.3684 79.7485 51.3684L91.4176 51.3641C91.6528 51.3782 91.8474 51.5927 91.8871 51.8787L92.7517 58.1587C92.7583 58.201 92.7616 58.2248 92.7616 58.2248L93.4755 63.4129C93.5285 63.804 93.2775 64.1582 92.9579 64.1398L78.8036 63.6263C78.5825 63.6122 78.3936 63.4216 78.3406 63.1518L78.0458 61.6579C78.0376 61.6189 78.0309 61.5821 78.0243 61.5431L77.8703 60.7609L77.0521 55.9585Z" fill="#262262"/>
<path d="M92.75 58.1587C92.6548 57.512 91.8622 52.3293 90.8735 52.0899C89.8449 51.8429 80.2254 51.4226 79.7468 51.3684L91.4159 51.3641C91.6511 51.3782 91.8457 51.5927 91.8854 51.8787L92.75 58.1587Z" fill="#444499"/>
<path d="M77.0521 55.9585L76.2645 51.9621C76.185 51.5569 76.4409 51.1734 76.7738 51.1929L77.7055 51.2471L78.0003 51.2644L78.4086 51.2882C77.7535 51.2904 76.9883 51.3987 77.0653 51.9047C77.1953 52.7702 77.0802 56.7017 78.0235 61.5431L77.8694 60.7609L77.0521 55.9585Z" fill="#444499"/>
<path d="M94.8551 63.5017C94.8551 63.5017 94.6738 63.687 93.7355 63.5451C93.5177 63.5104 93.2593 63.4584 92.9521 63.3848C92.1935 63.1973 91.5285 62.9189 90.9753 62.504C90.9704 62.4997 90.9662 62.4975 90.9629 62.4953C90.3311 62.0252 89.845 61.3817 89.5344 60.5053C88.9481 58.8553 90.0139 56.4135 90.6963 57.7828C91.3786 59.15 92.1894 59.4284 92.1894 59.4284C92.1215 58.8943 92.1124 57.5023 92.5347 57.9865C92.9554 58.4729 93.1558 60.437 93.1558 60.437L93.1575 60.4392L94.8551 63.5017Z" fill="#F4D1B3"/>
<path d="M112.53 65.7605C111.891 68.5631 110.212 70.8175 106.362 70.4524C105.914 70.4091 105.479 70.356 105.055 70.2899H105.043C104.562 70.2152 104.097 70.1274 103.647 70.0277C103.633 70.0234 103.621 70.0213 103.607 70.0169C103.37 69.9638 103.137 69.9075 102.91 69.8479C102.858 69.8338 102.808 69.8208 102.757 69.8068C101.313 69.4211 100.042 68.9119 98.9352 68.3486C98.7348 68.2478 98.5394 68.1427 98.3489 68.0387C97.8711 67.7744 97.4281 67.5025 97.0181 67.2284L97.0165 67.2262C96.9502 67.1829 96.8856 67.1374 96.821 67.0919H96.8194C96.6132 66.95 96.4144 66.807 96.2264 66.6673C93.9764 64.9805 92.952 63.3837 92.952 63.3837L93.0026 62.6416L93.1541 60.437C93.1541 60.437 93.1541 60.437 93.1558 60.437L93.1574 60.4392C93.2328 60.4782 94.4708 61.1119 96.132 61.776C96.132 61.776 96.132 61.776 96.1337 61.776C98.4433 62.6957 101.576 63.6697 103.551 63.1637H103.553C104.701 62.8691 105.459 62.075 105.434 60.4803C105.429 60.0741 105.372 59.618 105.259 59.1045C105.259 59.1045 105.906 59.0698 106.946 58.8488C107.075 58.8217 107.211 58.7936 107.352 58.76C107.754 58.6647 108.204 58.5455 108.689 58.3949C109.115 58.2606 109.564 58.0591 109.992 57.8359C110.432 57.6073 110.852 57.3549 111.201 57.1307C111.784 56.7558 112.18 56.4547 112.18 56.4547C112.18 56.4547 112.236 56.6778 112.313 57.0668C112.614 58.5639 113.266 62.5257 112.53 65.7605Z" fill="#F4D1B3"/>
<path opacity="0.61" d="M112.529 65.7605C111.891 68.562 110.213 70.8175 106.363 70.4513C105.915 70.4091 105.479 70.3538 105.055 70.2888C105.052 70.2888 105.047 70.2888 105.043 70.2877C104.562 70.2141 104.097 70.1253 103.647 70.0256C114.581 72.4382 111.201 57.1296 111.201 57.1296C110.851 57.3549 111.641 56.901 111.201 57.1296C111.784 56.7558 112.181 56.4547 112.181 56.4547C112.181 56.4547 112.235 56.6768 112.314 57.0668C112.614 58.565 113.265 62.5257 112.529 65.7605Z" fill="#F7E7DA"/>
<path d="M84.4493 58.2482C84.8159 58.0397 84.9603 57.4111 84.7719 56.8444C84.5835 56.2776 84.1336 55.9872 83.767 56.1957C83.4004 56.4043 83.256 57.0328 83.4444 57.5996C83.6329 58.1664 84.0828 58.4568 84.4493 58.2482Z" fill="white"/>
<path d="M102.909 64.1398C99.4644 63.5949 96.2091 61.8182 96.1329 61.7749C98.4425 62.6957 101.576 63.6686 103.551 63.1627H103.552C104.701 62.868 105.458 62.075 105.433 60.4793C105.434 60.4793 106.395 64.6923 102.909 64.1398Z" fill="#E0BEA4"/>
<path opacity="0.42" d="M112.224 56.4222L111.297 57.2596L109.989 57.8543C109.989 57.8543 111.192 54.8838 109.418 49.0967C107.533 42.9487 105.49 43.511 104.832 43.225C106.187 43.7439 107.569 44.5922 108.531 45.9756C110.043 48.1542 111.441 53.274 111.441 53.274C112.126 55.8447 112.224 56.4222 112.224 56.4222Z" fill="white"/>
<path d="M89.7729 57.9085C89.7729 57.9085 90.2375 59.1121 90.9546 59.4414" stroke="black" stroke-miterlimit="10" stroke-linecap="round"/>
<path d="M89.483 58.8348C89.483 58.8348 89.9476 60.0383 90.6648 60.3677" stroke="black" stroke-miterlimit="10" stroke-linecap="round"/>
<path d="M89.6669 60.6071C89.6669 60.6071 90.0544 61.2788 90.8188 61.5702" stroke="black" stroke-miterlimit="10" stroke-linecap="round"/>
<path d="M120.327 90.6122H40.6833V101.825H120.327V90.6122Z" fill="white"/>
<path d="M38.001 104.58L49.2353 94.0832C49.2908 94.0312 49.3579 94.0041 49.4258 94.0041H61.8667C62.1085 94.0041 62.2684 94.3334 62.1657 94.6205L55.1862 105.117C55.1316 105.269 55.0156 105.365 54.8873 105.365H38.1914C37.8693 105.365 37.7376 104.822 38.001 104.58Z" fill="#D6AC85"/>
<path d="M38.001 104.314L49.2353 93.818C49.2908 93.766 49.3579 93.7389 49.4258 93.7389H61.8667C62.1085 93.7389 62.2684 94.0682 62.1657 94.3553L55.1862 104.852C55.1316 105.003 55.0156 105.1 54.8873 105.1H38.1914C37.8693 105.1 37.7376 104.558 38.001 104.314Z" fill="#F7C797"/>
<path d="M41.374 102.319L40.7487 102.955L54.5171 103.054L61.408 93.7387H50.0312L41.374 102.319Z" fill="#CCCCCC"/>
<path d="M61.1794 93.7387L54.3565 102.755L40.9764 102.712L47.9998 95.7515C47.9998 95.7515 48.0014 95.7493 48.0047 95.745L48.2772 95.4753C48.2805 95.4709 48.2838 95.4687 48.2863 95.4666L50.0303 93.7387H61.1794Z" fill="#E0E0E0"/>
<path opacity="0.36" d="M51.7785 96.382C49.7206 94.8198 47.623 96.2336 46.6524 97.0948L50.0394 93.7376H54.9295C51.5334 93.7387 51.7785 96.382 51.7785 96.382Z" fill="white"/>
<path d="M45.1568 101.654C45.0185 101.671 43.2447 101.926 43.2265 103.313C43.2248 103.445 43.3109 103.551 43.412 103.551C44.5291 103.551 50.7492 103.551 51.805 103.551C51.8903 103.551 51.9632 103.475 51.9839 103.366C52.0394 103.077 52.2067 102.508 52.6952 102.094C52.8485 101.964 52.7756 101.652 52.5934 101.652C50.3748 101.652 45.402 101.652 45.1742 101.652C45.1676 101.652 45.1626 101.652 45.1568 101.654ZM51.3355 103.009L44.1581 102.982C44.0008 102.981 43.9155 102.739 44.0173 102.582C44.385 102.019 45.2189 101.905 45.31 101.894C45.3158 101.894 45.3208 101.893 45.3266 101.893H51.6452C51.8092 101.893 51.8878 102.146 51.7769 102.304C51.6344 102.505 51.55 102.723 51.5061 102.861C51.4771 102.951 51.41 103.009 51.3355 103.009Z" fill="#414042"/>
<path d="M54.4508 100.833H43.8028" stroke="white" stroke-miterlimit="10" stroke-linecap="round"/>
<path d="M45.0143 99.7988H55.2881" stroke="white" stroke-miterlimit="10" stroke-linecap="round"/>
<path d="M46.0777 98.683H56.0003" stroke="white" stroke-miterlimit="10" stroke-linecap="round"/>
<path d="M47.3265 97.5704H56.7373" stroke="white" stroke-miterlimit="10" stroke-linecap="round"/>
<path d="M60.3852 103.102L65.503 95.3647C65.5312 95.29 65.5908 95.2445 65.6546 95.2499L69.6246 95.0582C69.878 95.0777 69.8938 95.4427 69.8507 95.5749L65.1494 103.387C64.983 103.658 64.8795 103.673 64.7478 103.662L60.6163 103.657C60.348 103.619 60.2908 103.353 60.3852 103.102Z" fill="#4361F7"/>
<path d="M60.3852 103.102L65.296 95.3431C65.4045 95.1524 65.4136 95.0094 65.7324 95.0343L69.6254 95.0571C69.7348 95.0658 69.8043 95.2131 69.7613 95.3452L65.0186 103.224C64.9043 103.425 64.8198 103.437 64.6666 103.433L60.5177 103.4C60.3827 103.392 60.3347 103.234 60.3852 103.102Z" fill="#8FA7FF"/>
<path d="M60.6527 102.929L65.4028 95.4482C65.5535 95.1762 65.7101 95.2196 65.773 95.2239L69.3464 95.2564C69.4548 95.2651 69.5244 95.4113 69.4813 95.5424L64.8563 103.096C64.8049 103.197 64.732 103.23 64.5929 103.212L60.7844 103.225C60.6717 103.216 60.603 103.061 60.6527 102.929Z" fill="#EFEFEF"/>
<path d="M63.5238 103.356L63.5619 103.224C63.6099 103.1 63.5967 102.994 63.4294 102.994L62.2493 102.996C62.1077 102.985 61.9686 103.048 61.8618 103.171L61.7028 103.355L63.5238 103.356Z" fill="#8FA7FF"/>
<path d="M65.4699 101.17L62.2452 101.155C62.227 101.155 62.2088 101.167 62.1972 101.187L61.6415 102.056C61.6076 102.113 61.6365 102.198 61.6895 102.198L64.954 102.207C64.9731 102.207 64.9913 102.195 65.0037 102.174L65.5196 101.31C65.5511 101.253 65.5221 101.17 65.4699 101.17Z" fill="#CFCFD3"/>
<path d="M66.5804 99.515L63.2448 99.5572C63.2257 99.5572 63.2083 99.5692 63.1967 99.5887L62.5442 100.642C62.5102 100.698 62.5392 100.784 62.5922 100.784H65.8856C65.9055 100.784 65.9237 100.772 65.9353 100.75L66.6301 99.6548C66.6616 99.5973 66.6326 99.515 66.5804 99.515Z" fill="#CFCFD3"/>
<path d="M67.3439 98.3103L63.9768 98.3526C63.9577 98.3526 63.9403 98.3645 63.9279 98.384L63.5387 99.0221C63.5039 99.0784 63.5337 99.164 63.5876 99.164L66.9348 99.0936C66.9547 99.0936 66.9729 99.0817 66.9854 99.06L67.3945 98.4512C67.4259 98.3927 67.3969 98.3103 67.3439 98.3103Z" fill="#CFCFD3"/>
<path d="M66.3221 95.5608L68.5257 95.5327" stroke="#CFCFD3" stroke-width="0.5" stroke-miterlimit="10" stroke-linecap="round"/>
<path d="M119.085 103.108L113.336 95.3712C113.308 95.2965 113.249 95.251 113.185 95.2564L109.215 95.0647C108.961 95.0842 108.946 95.4492 108.989 95.5814L114.362 103.421C114.48 103.688 114.591 103.679 114.722 103.668L118.891 103.657C119.161 103.619 119.18 103.36 119.085 103.108Z" fill="#FBB040"/>
<path d="M119.085 103.108L113.628 95.3474C113.455 95.1351 113.427 95.0159 113.108 95.0408L109.215 95.0636C109.106 95.0722 109.036 95.2196 109.079 95.3517L114.452 103.231C114.566 103.431 114.651 103.443 114.804 103.44L118.953 103.406C119.089 103.399 119.136 103.242 119.085 103.108Z" fill="#F7C684"/>
<path d="M118.818 102.936L113.495 95.5143C113.268 95.199 113.129 95.2272 113.066 95.2326L109.493 95.2651C109.385 95.2738 109.315 95.42 109.358 95.5511L114.613 103.105C114.665 103.206 114.738 103.238 114.877 103.221L118.687 103.234C118.799 103.223 118.867 103.067 118.818 102.936Z" fill="#EFEFEF"/>
<path d="M115.976 103.463L115.909 103.232C115.861 103.107 115.875 103.001 116.042 103.001L117.222 103.003C117.364 102.992 117.503 103.055 117.61 103.179L117.769 103.363L115.976 103.463Z" fill="#F7C684"/>
<path d="M113.842 101.178L117.067 101.163C117.085 101.163 117.104 101.175 117.115 101.194L117.784 102.041C117.818 102.098 117.789 102.183 117.736 102.183L114.516 102.215C114.497 102.215 114.479 102.203 114.467 102.181L113.793 101.318C113.761 101.26 113.791 101.178 113.842 101.178Z" fill="#CFCFD3"/>
<path d="M112.733 99.5215L115.928 99.5518C115.947 99.5518 115.965 99.5637 115.976 99.5832L116.769 100.647C116.803 100.703 116.774 100.789 116.721 100.789L113.521 100.806C113.501 100.806 113.483 100.794 113.471 100.773L112.683 99.6613C112.652 99.6038 112.681 99.5215 112.733 99.5215Z" fill="#CFCFD3"/>
<path d="M111.969 98.3168L115.027 98.3418C115.046 98.3418 115.063 98.3537 115.075 98.3732L115.517 99.0015C115.552 99.0578 115.522 99.1434 115.468 99.1434L112.378 99.0979C112.358 99.0979 112.34 99.086 112.328 99.0643L111.919 98.4555C111.886 98.3992 111.916 98.3168 111.969 98.3168Z" fill="#CFCFD3"/>
<path d="M112.517 95.5684L110.315 95.5392" stroke="#CFCFD3" stroke-width="0.5" stroke-miterlimit="10" stroke-linecap="round"/>
<path d="M88.3659 105.43L110.131 105.428C110.777 105.43 110.738 104.258 110.611 104.038L103.295 95.2532C103.246 95.1698 103.171 95.1199 103.091 95.1199L85.8327 94.3388C85.2008 94.4396 85.2431 95.0138 85.3822 95.6735L88.1398 105.249C88.1837 105.361 88.2707 105.43 88.3659 105.43Z" fill="#4361F7"/>
<path d="M88.6425 104.575L110.407 104.573C110.618 104.573 110.738 104.258 110.611 104.038L103.814 94.5327C103.608 94.1124 103.184 93.6867 102.641 93.7289L85.7275 93.7127C85.5362 93.7127 85.4128 93.9781 85.5006 94.2002L88.4156 104.394C88.4595 104.505 88.5473 104.575 88.6425 104.575Z" fill="#8FA7FF"/>
<path d="M96.9908 99.6696C97.3529 99.5422 97.5577 99.0066 97.4481 98.4733C97.3385 97.94 96.956 97.611 96.5938 97.7384C96.2316 97.8658 96.0269 98.4014 96.1365 98.9347C96.2461 99.468 96.6286 99.797 96.9908 99.6696Z" fill="white"/>
<path d="M37.4296 90.6111H123.126" stroke="black" stroke-width="2" stroke-miterlimit="10" stroke-linecap="round"/>
<path d="M77.6144 92.1754L78.05 85.2648L80.7844 83.9551" stroke="#BCBEC0" stroke-width="3" stroke-miterlimit="10" stroke-linecap="round" stroke-linejoin="round"/>
<path d="M76.1933 97.8348L76.6521 94.9477C76.71 94.8989 76.8599 94.5739 77.1067 94.5739L80.2147 94.6118C80.5873 94.6118 80.7157 95.2618 80.3894 95.4969L78.1866 98.6386C78.1352 98.6754 78.074 98.6689 78.0143 98.6711L76.3953 98.7036C76.031 98.7112 75.8877 98.0915 76.1933 97.8348Z" fill="#E0E0E0"/>
<path d="M78.5998 89.3392L78.2487 98.5097C78.2462 98.5963 78.1824 98.6657 78.1029 98.6689L77.0198 98.6949L76.5941 98.7036L75.1308 98.7296C75.0513 98.7328 74.9875 98.6657 74.9809 98.5822L74.2596 89.4259C74.253 89.3338 74.3192 89.2526 74.4012 89.2526L78.4524 89.1778C78.4831 89.1778 78.5145 89.1865 78.5385 89.2038C78.541 89.2071 78.5452 89.2093 78.5476 89.2125C78.5799 89.2418 78.6015 89.2872 78.5998 89.3392Z" fill="#F7C684"/>
<path d="M78.5999 89.3392L78.2487 98.5097C78.2462 98.5963 78.1825 98.6657 78.103 98.6689L76.6968 98.6949C76.6662 98.6689 76.6438 98.6288 76.6413 98.5822L76.2405 89.4259C76.2314 89.3338 76.2977 89.2526 76.3838 89.2526L78.546 89.2125C78.58 89.2418 78.6015 89.2872 78.5999 89.3392Z" fill="#FBB040"/>
<path d="M78.5982 87.8421V88.7012C78.5982 88.8073 78.5328 88.8929 78.4533 88.8929L75.5581 88.8951H74.383C74.3019 88.8951 74.2365 88.8073 74.2365 88.7033V87.8442C74.2365 87.7381 74.3019 87.6525 74.383 87.6525H78.4516C78.5336 87.6525 78.5982 87.7381 78.5982 87.8421Z" fill="#603C29"/>
<path d="M78.9568 88.8929V89.323C78.9568 89.427 78.8914 89.5126 78.8102 89.5126L75.559 89.5147H74.0253C73.9458 89.5147 73.8804 89.4292 73.8804 89.3252V88.8951C73.8804 88.7911 73.9458 88.7033 74.0253 88.7033H75.559L78.599 88.7012H78.8102C78.8914 88.7012 78.9568 88.7878 78.9568 88.8929Z" fill="#996441"/>
<path opacity="0.22" d="M75.5581 88.7033V89.5147H74.0244C73.9449 89.5147 73.8795 89.4292 73.8795 89.3252V88.8951C73.8795 88.7911 73.9449 88.7033 74.0244 88.7033H74.2356V87.8442C74.2356 87.7381 74.301 87.6525 74.3822 87.6525H75.5573C75.5581 87.6525 75.559 88.1595 75.5581 88.7033Z" fill="black"/>
<path opacity="0.99" d="M46.5936 52.7464C45.6827 53.9056 44.6699 55.822 46.4387 60.7793C46.4387 60.7815 46.4404 60.7815 46.4404 60.7837C44.4984 59.0178 44.5771 54.6639 46.5936 52.7464Z" fill="#754C29"/>
<path opacity="0.99" d="M47.2305 51.9588C47.3365 51.779 47.4276 51.5916 47.5079 51.3933C47.4665 51.5872 47.3679 51.7682 47.2305 51.9588Z" fill="#754C29"/>
<path opacity="0.99" d="M49.7405 42.7787C51.6593 40.3098 55.1275 40.8915 56.5369 39.0845C55.2028 41.8914 53.6551 42.5024 50.8899 42.7353C49.9566 42.8133 49.3041 43.4742 48.8403 44.4037C49.0556 43.8349 49.3447 43.2857 49.7405 42.7787Z" fill="#754C29"/>
<path opacity="0.99" d="M60.9193 34.281C60.7744 34.2518 58.5418 33.8563 57.1091 37.713C57.8834 34.4489 59.4345 33.5909 60.9193 34.281Z" fill="#754C29"/>
<path d="M72.4046 46.7837C71.5989 43.8533 69.4673 43.0657 67.3266 41.8221C64.9871 40.4614 64.3834 36.5668 64.366 36.4574C65.4857 38.4453 65.9328 41.0464 69.3861 41.6834C72.0204 42.172 72.0734 44.7157 72.4046 46.7837Z" fill="#754C29"/>
<path d="M73.3694 54.0291C73.877 52.6695 73.0224 50.5397 72.6174 47.8064C72.759 48.3102 72.9594 48.7402 73.2783 49.0522C74.9097 50.6426 74.7093 52.5341 73.3694 54.0291Z" fill="#754C29"/>
<path d="M99.3907 34.3579C99.5911 32.7145 97.9076 32.7903 97.9076 32.7903C97.9076 32.7903 98.0434 32.1284 97.5308 31.7406C97.0165 31.3549 96.4981 31.9508 96.4981 31.9508C96.4227 31.1426 96.0849 30.8533 95.9606 30.771C96.2803 30.9357 96.4144 31.2412 96.4144 31.2412C96.4144 31.2412 96.8625 30.5977 97.5084 31.1729C98.1535 31.7482 97.9514 32.5423 97.9514 32.5423C97.9514 32.5423 98.9261 32.2573 99.3087 33.3959C99.4363 33.7783 99.4412 34.1001 99.3907 34.3579Z" fill="#A97C50"/>
<path d="M81.7881 45.3375C81.4867 45.8575 81.2142 46.111 80.9807 46.2161C80.9873 46.4447 81.0072 47.4457 80.9542 48.893C80.9923 47.697 80.6908 46.748 80.483 46.2388C80.3993 46.0363 80.3314 45.9052 80.3016 45.8532C80.2933 45.8369 80.2892 45.8282 80.2892 45.8282C80.2892 45.8282 80.8473 46.0265 81.5065 45.3971C82.1657 44.7655 81.5993 44.0852 81.5993 44.0852C81.8908 44.3311 82.1351 44.7395 81.7881 45.3375Z" fill="#E5C2A8"/>
<path d="M96.2265 66.6672C93.9765 64.9805 92.9521 63.3837 92.9521 63.3837C92.1935 63.1963 91.5285 62.9178 90.9753 62.5029C91.1443 62.5896 92.331 63.1832 93.0026 62.6416C93.0564 62.5982 93.1069 62.5484 93.1525 62.491C93.1525 62.491 93.3686 62.9287 93.7355 63.5451C94.292 64.4746 95.1955 65.8136 96.2265 66.6672Z" fill="#E5C2A8"/>
<path d="M97.0165 67.2263C96.9502 67.1829 96.8856 67.1374 96.821 67.0919C96.8964 67.1396 96.961 67.1829 97.0165 67.2263Z" fill="#E5C2A8"/>
<path d="M59.6805 65.4778C59.6979 65.4019 59.7558 65.2925 59.8668 65.1441C59.8047 65.2546 59.7418 65.3662 59.6805 65.4778Z" fill="#E0BEA4"/>
<path d="M62.6129 60.8248L62.6145 60.8313C61.8676 61.6872 61.167 62.8398 60.4689 64.0694C60.8564 63.141 61.6771 61.9179 61.6771 61.9179C60.3281 61.2636 60.3836 59.7523 60.3836 59.7523C60.6105 60.7057 60.9368 61.5214 61.5313 61.4283C61.7334 61.3968 62.0638 60.9852 62.1177 60.7501C62.222 60.294 62.1226 59.6613 62.1226 59.6613C62.2046 59.7642 62.2883 59.8574 62.3752 59.9397C63.4302 60.9418 64.8091 60.424 64.8091 60.424C64.3627 60.7317 63.6687 60.9776 62.6129 60.8248Z" fill="#E0BEA4"/>
<path d="M61.8742 62.0284C61.5612 62.0284 61.0337 61.8908 60.5119 60.9971C59.9356 60.0091 59.9463 59.1457 60.054 58.5997C60.1161 58.2833 60.4117 58.1642 60.6014 58.3754C60.5782 58.4209 59.8859 59.0536 60.7629 60.7468C61.3285 61.8388 62.0266 61.5409 62.0556 61.5333L62.0845 61.6644C62.1243 61.8453 62.0224 62.0273 61.8783 62.0284C61.8775 62.0284 61.8759 62.0284 61.8742 62.0284Z" fill="#6B8AF9"/>
<path d="M40.4581 63.3988C40.4581 63.3988 40.6601 61.4445 42.3628 62.075C42.3628 62.075 41.745 63.8668 40.4581 63.3988Z" fill="#ABBDFF"/>
<path d="M40.5566 63.3826C40.5566 63.3826 40.5193 61.4109 38.7745 61.7944C38.7736 61.7955 39.2382 63.6643 40.5566 63.3826Z" fill="#ABBDFF"/>
<path d="M40.3148 65.9869C40.3148 65.9869 40.4787 64.0261 42.1929 64.6002C42.1929 64.6002 41.6099 66.4116 40.3148 65.9869Z" fill="#ABBDFF"/>
<path d="M40.4125 65.9674C40.4125 65.9674 40.3371 63.9968 38.5997 64.4399C38.5997 64.4399 39.0999 66.2935 40.4125 65.9674Z" fill="#ABBDFF"/>
<path d="M40.4762 69.0766C40.4762 69.0766 40.4232 67.1049 42.183 67.3519C42.183 67.3519 41.8046 69.2543 40.4762 69.0766Z" fill="#ABBDFF"/>
<path d="M40.5707 69.0397C40.5707 69.0397 40.28 67.1038 38.6088 67.8676C38.6088 67.8676 39.3078 69.6085 40.5707 69.0397Z" fill="#ABBDFF"/>
<path d="M40.9127 72.2724C40.9127 72.2724 40.6303 70.3343 42.3983 70.2271C42.3983 70.2271 42.2468 72.1836 40.9127 72.2724Z" fill="#ABBDFF"/>
<path d="M41.0021 72.2172C41.0021 72.2172 40.4887 70.3625 38.9268 71.4502C38.9268 71.4512 39.8204 73.0318 41.0021 72.2172Z" fill="#ABBDFF"/>
<path d="M40.6187 62.3816C40.6187 62.3816 41.4518 61.4532 41.1222 59.9723C41.1214 59.9723 39.6001 60.7685 40.6187 62.3816Z" fill="#ABBDFF"/>
<path d="M113.218 17.5218C113.535 17.5218 113.793 17.1852 113.793 16.77C113.793 16.3548 113.535 16.0182 113.218 16.0182C112.901 16.0182 112.643 16.3548 112.643 16.77C112.643 17.1852 112.901 17.5218 113.218 17.5218Z" fill="#009444"/>
<path d="M115.952 17.5218C116.269 17.5218 116.526 17.1852 116.526 16.77C116.526 16.3548 116.269 16.0182 115.952 16.0182C115.634 16.0182 115.377 16.3548 115.377 16.77C115.377 17.1852 115.634 17.5218 115.952 17.5218Z" fill="#FFF200"/>
<path d="M118.685 17.5218C119.003 17.5218 119.26 17.1852 119.26 16.77C119.26 16.3548 119.003 16.0182 118.685 16.0182C118.368 16.0182 118.11 16.3548 118.11 16.77C118.11 17.1852 118.368 17.5218 118.685 17.5218Z" fill="#ED1C24"/>
<path d="M38.7463 37.3262C39.5632 37.3262 40.2253 36.46 40.2253 35.3914C40.2253 34.3228 39.5632 33.4566 38.7463 33.4566C37.9295 33.4566 37.2673 34.3228 37.2673 35.3914C37.2673 36.46 37.9295 37.3262 38.7463 37.3262Z" stroke="#603913" stroke-miterlimit="10"/>
<path d="M48.5455 39.1625C49.7502 39.1625 50.7268 37.8849 50.7268 36.309C50.7268 34.7331 49.7502 33.4555 48.5455 33.4555C47.3409 33.4555 46.3643 34.7331 46.3643 36.309C46.3643 37.8849 47.3409 39.1625 48.5455 39.1625Z" fill="white"/>
<path d="M62.9149 57.8292C62.9149 59.5531 62.4176 60.9344 61.423 61.9732C60.4285 63.012 59.2239 63.6971 57.8095 64.0286V66.1504C57.8095 66.9239 57.7321 67.4654 57.5774 67.7748C57.4448 68.0842 57.2348 68.2942 56.9475 68.4047C56.6823 68.5152 56.3176 68.5705 55.8535 68.5705C55.3894 68.5705 55.0136 68.5152 54.7263 68.4047C54.4611 68.2942 54.2732 68.0953 54.1627 67.808C54.008 67.4322 53.9307 66.8687 53.9307 66.1172V64.0618C53.0245 63.8629 52.2068 63.5314 51.4774 63.0672C50.7481 62.6031 50.2397 62.1942 49.9524 61.8406L49.5215 61.277C49.0573 60.6803 48.8253 60.1609 48.8253 59.7189C48.8253 59.2768 49.201 58.6912 49.9524 57.9618C50.3945 57.5419 50.8586 57.3319 51.3448 57.3319C51.8531 57.3319 52.5493 57.774 53.4334 58.658C54.1185 59.4979 54.8921 59.9178 55.754 59.9178C57.3895 59.9178 58.2073 59.2437 58.2073 57.8955C58.2073 57.4093 57.8979 57.0336 57.279 56.7683C56.6602 56.5031 55.9087 56.2711 55.0247 56.0722C54.1406 55.8511 53.2566 55.5638 52.3725 55.2102C51.4885 54.8566 50.737 54.2488 50.1182 53.3868C49.4994 52.5249 49.1899 51.4309 49.1899 50.1048C49.1899 48.7787 49.6099 47.5852 50.4497 46.5244C51.2896 45.4635 52.4499 44.7784 53.9307 44.469V42.6124C53.9307 41.861 53.997 41.3195 54.1296 40.988C54.3506 40.4576 54.9363 40.1923 55.8866 40.1923C56.4834 40.1923 56.9254 40.325 57.2127 40.5902C57.5221 40.8333 57.6989 41.0985 57.7431 41.3858C57.7874 41.6731 57.8095 42.0931 57.8095 42.6456V44.5021C58.4283 44.6347 58.9919 44.8226 59.5002 45.0657C60.0085 45.3088 60.3622 45.5077 60.5611 45.6624L60.8594 45.9276L60.992 46.0271C61.5446 46.5354 61.8208 46.9554 61.8208 47.2869C61.8208 47.6184 61.5556 48.1709 61.0252 48.9445C60.5169 49.718 59.9533 50.1048 59.3344 50.1048C58.9366 50.1048 58.594 50.0053 58.3067 49.8064C58.0415 49.6075 57.8316 49.4418 57.6768 49.3091C57.5221 49.1765 57.3785 49.066 57.2459 48.9776C56.8701 48.7345 56.395 48.613 55.8203 48.613C55.2457 48.613 54.7705 48.7566 54.3948 49.0439C54.0191 49.3091 53.8312 49.6849 53.8312 50.1711C53.8312 50.6573 54.0522 51.0552 54.4943 51.3646C54.9584 51.6519 55.522 51.8508 56.185 51.9613C56.848 52.0497 57.5774 52.2155 58.373 52.4586C59.1687 52.6796 59.898 52.9448 60.5611 53.2542C61.2241 53.5637 61.7766 54.1162 62.2187 54.9118C62.6828 55.6854 62.9149 56.6578 62.9149 57.8292Z" fill="#00AEEF"/>
<path d="M69.8668 57.8292C69.8668 59.5531 69.3695 60.9344 68.375 61.9732C67.3804 63.012 66.1759 63.6971 64.7614 64.0286V66.1504C64.7614 66.9239 64.6841 67.4654 64.5294 67.7748C64.3967 68.0842 64.1868 68.2942 63.8995 68.4047C63.6342 68.5152 63.2696 68.5705 62.8055 68.5705C62.3413 68.5705 61.9656 68.5152 61.6783 68.4047C61.4131 68.2942 61.2252 68.0953 61.1147 67.808C60.96 67.4322 60.8826 66.8687 60.8826 66.1172V64.0618C59.9765 63.8629 59.1587 63.5314 58.4294 63.0672C57.7 62.6031 57.1917 62.1942 56.9044 61.8406L56.4734 61.277C56.0093 60.6803 55.7772 60.1609 55.7772 59.7189C55.7772 59.2768 56.1529 58.6912 56.9044 57.9618C57.3464 57.5419 57.8105 57.3319 58.2968 57.3319C58.8051 57.3319 59.5013 57.774 60.3854 58.658C61.0705 59.4979 61.844 59.9178 62.706 59.9178C64.3415 59.9178 65.1592 59.2437 65.1592 57.8955C65.1592 57.4093 64.8498 57.0336 64.231 56.7683C63.6121 56.5031 62.8607 56.2711 61.9766 56.0722C61.0926 55.8511 60.2085 55.5638 59.3245 55.2102C58.4404 54.8566 57.689 54.2488 57.0702 53.3868C56.4513 52.5249 56.1419 51.4309 56.1419 50.1048C56.1419 48.7787 56.5618 47.5852 57.4017 46.5244C58.2415 45.4635 59.4018 44.7784 60.8826 44.469V42.6124C60.8826 41.861 60.9489 41.3195 61.0815 40.988C61.3026 40.4576 61.8882 40.1923 62.8386 40.1923C63.4353 40.1923 63.8774 40.325 64.1647 40.5902C64.4741 40.8333 64.6509 41.0985 64.6951 41.3858C64.7393 41.6731 64.7614 42.0931 64.7614 42.6456V44.5021C65.3803 44.6347 65.9438 44.8226 66.4522 45.0657C66.9605 45.3088 67.3141 45.5077 67.513 45.6624L67.8114 45.9276L67.944 46.0271C68.4965 46.5354 68.7728 46.9554 68.7728 47.2869C68.7728 47.6184 68.5076 48.1709 67.9772 48.9445C67.4688 49.718 66.9052 50.1048 66.2864 50.1048C65.8886 50.1048 65.546 50.0053 65.2587 49.8064C64.9935 49.6075 64.7835 49.4418 64.6288 49.3091C64.4741 49.1765 64.3304 49.066 64.1978 48.9776C63.8221 48.7345 63.3469 48.613 62.7723 48.613C62.1977 48.613 61.7225 48.7566 61.3468 49.0439C60.971 49.3091 60.7832 49.6849 60.7832 50.1711C60.7832 50.6573 61.0042 51.0552 61.4462 51.3646C61.9103 51.6519 62.4739 51.8508 63.137 51.9613C63.8 52.0497 64.5294 52.2155 65.325 52.4586C66.1206 52.6796 66.85 52.9448 67.513 53.2542C68.1761 53.5637 68.7286 54.1162 69.1706 54.9118C69.6348 55.6854 69.8668 56.6578 69.8668 57.8292Z" fill="#00AEEF"/>
<path d="M112.042 43.5316C112.231 43.5316 112.384 43.3313 112.384 43.0842C112.384 42.8371 112.231 42.6367 112.042 42.6367C111.853 42.6367 111.7 42.8371 111.7 43.0842C111.7 43.3313 111.853 43.5316 112.042 43.5316Z" fill="white"/>
<path d="M113.68 43.5316C113.869 43.5316 114.022 43.3313 114.022 43.0842C114.022 42.8371 113.869 42.6367 113.68 42.6367C113.491 42.6367 113.338 42.8371 113.338 43.0842C113.338 43.3313 113.491 43.5316 113.68 43.5316Z" fill="white"/>
<path d="M115.317 43.5316C115.506 43.5316 115.659 43.3313 115.659 43.0842C115.659 42.8371 115.506 42.6367 115.317 42.6367C115.128 42.6367 114.975 42.8371 114.975 43.0842C114.975 43.3313 115.128 43.5316 115.317 43.5316Z" fill="white"/>
</svg>
