<svg width="173" height="116" viewBox="0 0 173 116" fill="none" xmlns="http://www.w3.org/2000/svg">
<g clip-path="url(#clip0_2_633)">
<path d="M115.478 115.735C121.093 113.966 126.131 112.159 132.192 108.728C138.443 105.19 166.211 88.3509 169.822 59.2077C170.768 51.2204 169.983 43.1213 167.521 35.4696C166.405 32.1715 164.09 25.5474 158.246 18.9965C151.093 10.9723 142.932 7.8623 138.146 6.10354C128.076 2.40143 119.631 2.59646 115.609 2.7288C111.269 2.87159 103.608 3.192 94.9 7.02645C89.2192 9.52703 85.6877 12.3794 80.4837 16.6422C72.2388 23.4021 71.1538 26.2161 56.7305 40.1748C52.7705 44.0057 49.5154 47.0252 44.5464 49.9995C41.1013 52.0612 38.3162 53.214 33.1778 55.3175C20.548 60.4893 16.952 61.5365 12.8192 64.448C4.78169 70.1144 5.30229 76.2938 4.95674 77.6242C4.05816 81.0265 3.85014 84.5766 4.34512 88.0619C5.39904 95.0516 9.13444 99.6209 11.4531 102.386C14.6357 106.147 18.4924 109.271 22.8217 111.594C25.8271 113.193 28.9401 114.576 32.1377 115.735H115.478Z" fill="#EFEDEF"/>
<path d="M94.3773 4.70743C103.447 0.716168 111.425 0.379443 115.949 0.231258C120.135 0.0941234 128.933 -0.108305 139.424 3.74824C144.409 5.58067 152.909 8.82019 160.361 17.1767C166.445 24.0001 168.857 30.9009 170.019 34.3353C172.583 42.3054 173.4 50.7413 172.416 59.0608C168.656 89.4186 139.731 106.957 133.22 110.643" stroke="#6A8D99" stroke-miterlimit="10"/>
<path d="M119.533 115.565H107.636L106.07 97.145H121.098L119.533 115.565Z" fill="#FFE3CB"/>
<path d="M107.636 115.565C108.559 112.472 109.519 109.392 110.484 106.314C110.96 104.772 111.46 103.238 111.948 101.701L113.42 97.0912C113.431 97.0562 113.453 97.0257 113.483 97.0041C113.512 96.9824 113.548 96.9708 113.584 96.9708C113.621 96.9708 113.656 96.9824 113.686 97.0041C113.715 97.0257 113.737 97.0562 113.749 97.0912L115.221 101.701C115.709 103.238 116.209 104.772 116.685 106.313L118.126 110.933L119.533 115.565L117.965 110.986L116.432 106.396C115.917 104.868 115.426 103.331 114.922 101.799L113.42 97.1989H113.748L112.246 101.799C111.743 103.331 111.251 104.868 110.736 106.396C109.718 109.457 108.695 112.517 107.636 115.565Z" fill="#904D24"/>
<path d="M106.07 97.1451C107.389 100.188 108.672 103.245 109.95 106.304L111.851 110.9L113.744 115.498H113.425L115.317 110.899C115.951 109.368 116.573 107.831 117.218 106.304L119.142 101.717L121.098 97.145L119.298 101.782L117.464 106.406C116.858 107.949 116.227 109.482 115.608 111.02L113.744 115.631C113.731 115.663 113.709 115.69 113.681 115.709C113.652 115.729 113.619 115.739 113.584 115.739C113.55 115.739 113.517 115.729 113.488 115.709C113.46 115.69 113.438 115.663 113.425 115.631L111.561 111.02L109.705 106.405C108.478 103.325 107.257 100.242 106.07 97.1451Z" fill="#904D24"/>
<path d="M106.853 107.302C107.975 107.23 109.097 107.196 110.219 107.168C111.341 107.136 112.462 107.132 113.584 107.127C114.706 107.131 115.828 107.136 116.95 107.168L118.633 107.216C119.194 107.245 119.755 107.262 120.316 107.302C119.755 107.341 119.194 107.358 118.633 107.387L116.95 107.435C115.828 107.467 114.706 107.472 113.584 107.476C112.462 107.471 111.341 107.467 110.219 107.435C109.097 107.407 107.975 107.373 106.853 107.302Z" fill="#904D24"/>
<path d="M121.306 95.4803H105.862C105.616 95.4803 105.417 95.6815 105.417 95.9297V96.6956C105.417 96.9438 105.616 97.1451 105.862 97.1451H121.306C121.553 97.1451 121.752 96.9438 121.752 96.6956V95.9297C121.752 95.6815 121.553 95.4803 121.306 95.4803Z" fill="#904D24"/>
<path d="M80.2159 4.98315H77.4082C76.5641 4.98315 75.8798 5.67282 75.8798 6.52357V9.35335C75.8798 10.2041 76.5641 10.8938 77.4082 10.8938H80.2159C81.06 10.8938 81.7443 10.2041 81.7443 9.35335V6.52357C81.7443 5.67282 81.06 4.98315 80.2159 4.98315Z" fill="#DC8758"/>
<path d="M62.886 115.652H60.5107L70.1374 72.0414L74.9868 73.3571L62.886 115.652Z" fill="#DC8758"/>
<path d="M95.028 115.652H97.403L87.7767 72.0414L82.9272 73.3571L95.028 115.652Z" fill="#DC8758"/>
<path d="M118.779 8.47232H38.6891C38.1264 8.47232 37.6702 8.9321 37.6702 9.49926V77.0045C37.6702 77.5716 38.1264 78.0314 38.6891 78.0314H118.779C119.342 78.0314 119.798 77.5716 119.798 77.0045V9.49926C119.798 8.9321 119.342 8.47232 118.779 8.47232Z" fill="#FFE3CB"/>
<path d="M85.8181 20.9775C85.722 20.9774 85.6298 20.9398 85.5607 20.8726C85.4916 20.8054 85.4511 20.7138 85.4476 20.6171C85.4442 20.5204 85.478 20.4261 85.5421 20.354C85.6062 20.2819 85.6955 20.2377 85.7912 20.2306L92.5953 19.7264C92.6438 19.7228 92.6927 19.7289 92.7389 19.7443C92.7852 19.7597 92.828 19.7842 92.8648 19.8163C92.9017 19.8483 92.932 19.8874 92.9539 19.9313C92.9758 19.9752 92.9889 20.0229 92.9924 20.0719C92.996 20.1209 92.99 20.1701 92.9747 20.2167C92.9594 20.2633 92.9351 20.3064 92.9033 20.3436C92.8714 20.3808 92.8327 20.4113 92.7891 20.4333C92.7456 20.4554 92.6982 20.4686 92.6496 20.4722L85.8456 20.9764C85.8364 20.9771 85.8271 20.9775 85.8181 20.9775Z" fill="#904D24"/>
<path d="M92.6224 22.8983H85.8184C85.72 22.8983 85.6256 22.8589 85.556 22.7887C85.4864 22.7186 85.4473 22.6235 85.4473 22.5243C85.4473 22.4251 85.4864 22.3299 85.556 22.2598C85.6256 22.1897 85.72 22.1503 85.8184 22.1503H92.6224C92.7209 22.1503 92.8152 22.1897 92.8848 22.2598C92.9544 22.3299 92.9935 22.4251 92.9935 22.5243C92.9935 22.6235 92.9544 22.7186 92.8848 22.7887C92.8152 22.8589 92.7209 22.8983 92.6224 22.8983Z" fill="#904D24"/>
<path d="M92.6224 25.323H85.8184C85.72 25.323 85.6256 25.2836 85.556 25.2135C85.4864 25.1434 85.4473 25.0482 85.4473 24.949C85.4473 24.8498 85.4864 24.7547 85.556 24.6846C85.6256 24.6144 85.72 24.575 85.8184 24.575H92.6224C92.7209 24.575 92.8152 24.6144 92.8848 24.6846C92.9544 24.7547 92.9935 24.8498 92.9935 24.949C92.9935 25.0482 92.9544 25.1434 92.8848 25.2135C92.8152 25.2836 92.7209 25.323 92.6224 25.323Z" fill="#904D24"/>
<path d="M92.6224 26.9527H85.8184C85.72 26.9527 85.6256 26.9133 85.556 26.8432C85.4864 26.773 85.4473 26.6779 85.4473 26.5787C85.4473 26.4795 85.4864 26.3844 85.556 26.3143C85.6256 26.2441 85.72 26.2047 85.8184 26.2047H92.6224C92.7209 26.2047 92.8152 26.2441 92.8848 26.3143C92.9544 26.3844 92.9935 26.4795 92.9935 26.5787C92.9935 26.6779 92.9544 26.773 92.8848 26.8432C92.8152 26.9133 92.7209 26.9527 92.6224 26.9527Z" fill="#904D24"/>
<path d="M53.5625 67.2292C53.4641 67.2292 53.3697 67.1898 53.3001 67.1197C53.2305 67.0495 53.1914 66.9544 53.1914 66.8552V20.0993C53.1914 20.0001 53.2305 19.905 53.3001 19.8349C53.3697 19.7647 53.4641 19.7253 53.5625 19.7253C53.6609 19.7253 53.7553 19.7647 53.8249 19.8349C53.8945 19.905 53.9336 20.0001 53.9336 20.0993V66.8553C53.9336 66.9544 53.8945 67.0496 53.8249 67.1197C53.7553 67.1898 53.6609 67.2292 53.5625 67.2292Z" fill="#904D24"/>
<path d="M111.951 59.3519H45.5168C45.4184 59.3519 45.324 59.3125 45.2544 59.2424C45.1848 59.1723 45.1457 59.0771 45.1457 58.9779C45.1457 58.8787 45.1848 58.7836 45.2544 58.7135C45.324 58.6433 45.4184 58.6039 45.5168 58.6039H111.951C112.05 58.6039 112.144 58.6433 112.214 58.7135C112.283 58.7836 112.322 58.8787 112.322 58.9779C112.322 59.0771 112.283 59.1723 112.214 59.2424C112.144 59.3125 112.05 59.3519 111.951 59.3519Z" fill="#904D24"/>
<path d="M57.0104 54.805C56.9433 54.8049 56.8775 54.7865 56.8199 54.7518C56.7624 54.717 56.7153 54.6672 56.6836 54.6076C56.652 54.548 56.6369 54.4809 56.6401 54.4133C56.6432 54.3458 56.6645 54.2804 56.7016 54.2241L63.3681 44.1101C63.4049 44.0556 63.4551 44.0117 63.5137 43.9826C63.5724 43.9535 63.6375 43.9401 63.7028 43.9439C63.7682 43.9485 63.8312 43.9704 63.8855 44.0075C63.9397 44.0446 63.9833 44.0955 64.0117 44.155L67.3619 51.1782L76.4482 32.8762C76.4812 32.8079 76.5343 32.7516 76.6002 32.715C76.6661 32.6783 76.7417 32.663 76.8165 32.6713C76.8912 32.6787 76.962 32.7087 77.0194 32.7575C77.0768 32.8063 77.1181 32.8715 77.138 32.9445L80.3483 44.7425L83.1236 39.7978C83.1575 39.7373 83.2076 39.6875 83.2681 39.654C83.3286 39.6206 83.3972 39.6048 83.4661 39.6085C83.5351 39.6121 83.6016 39.6351 83.6583 39.6748C83.715 39.7144 83.7596 39.7693 83.7871 39.8331L87.5504 48.576L90.2233 41.0126C90.2466 40.9463 90.2881 40.888 90.3429 40.8444C90.3977 40.8009 90.4635 40.7738 90.5329 40.7662C90.6024 40.7581 90.6727 40.7702 90.7355 40.8011C90.7984 40.8319 90.8512 40.8802 90.8877 40.9403L93.5262 45.2106L102.884 26.411C102.917 26.3458 102.967 26.2916 103.03 26.255C103.093 26.2184 103.165 26.2011 103.237 26.2052C103.309 26.2093 103.379 26.2346 103.437 26.278C103.495 26.3215 103.539 26.3811 103.564 26.4496L105.347 31.3345L111.624 19.4726C111.647 19.4292 111.678 19.3909 111.716 19.3597C111.753 19.3285 111.797 19.3051 111.843 19.2908C111.89 19.2765 111.939 19.2716 111.987 19.2764C112.036 19.2811 112.083 19.2955 112.126 19.3186C112.169 19.3417 112.207 19.3732 112.238 19.4111C112.269 19.4491 112.292 19.4928 112.306 19.5398C112.321 19.5867 112.325 19.6361 112.321 19.685C112.316 19.7339 112.302 19.7813 112.279 19.8247L105.612 32.4231C105.579 32.4868 105.527 32.5392 105.465 32.5742C105.402 32.6091 105.331 32.6251 105.259 32.6201C105.188 32.6152 105.119 32.5895 105.062 32.5462C105.005 32.5029 104.961 32.4439 104.937 32.3762L103.163 27.5182L93.8929 46.1421C93.8633 46.2015 93.8186 46.2519 93.7633 46.2881C93.708 46.3243 93.6441 46.345 93.5782 46.3481C93.5125 46.3501 93.4474 46.335 93.3892 46.3042C93.3311 46.2734 93.2818 46.2279 93.2463 46.1722L90.6643 41.9936L87.9338 49.72C87.9088 49.7908 87.8633 49.8523 87.8032 49.8966C87.743 49.9408 87.6711 49.9659 87.5967 49.9684C87.5222 49.9709 87.4488 49.9508 87.3858 49.9107C87.3229 49.8706 87.2734 49.8123 87.2438 49.7434L83.4028 40.8197L80.5514 45.8999C80.5152 45.9644 80.4608 46.0165 80.3952 46.0498C80.3296 46.0831 80.2556 46.096 80.1827 46.0869C80.1098 46.0778 80.0412 46.0471 79.9856 45.9986C79.93 45.9502 79.8899 45.8862 79.8705 45.8148L76.6784 34.084L67.6871 52.1947C67.654 52.2555 67.6057 52.3066 67.547 52.3429C67.4882 52.3792 67.4211 52.3993 67.3523 52.4014C67.2829 52.4008 67.215 52.3807 67.1564 52.3432C67.0978 52.3057 67.0508 52.2524 67.0207 52.1894L63.6254 45.0716L57.3198 54.6379C57.286 54.6893 57.24 54.7316 57.186 54.7607C57.132 54.7899 57.0716 54.8051 57.0104 54.805Z" fill="#904D24"/>
<path d="M47.1259 49.2314C47.0275 49.2314 46.9331 49.192 46.8636 49.1219C46.794 49.0517 46.7549 48.9566 46.7549 48.8574V26.5787C46.7549 26.4795 46.794 26.3844 46.8636 26.3143C46.9331 26.2441 47.0275 26.2047 47.1259 26.2047C47.2244 26.2047 47.3187 26.2441 47.3883 26.3143C47.4579 26.3844 47.497 26.4795 47.497 26.5787V48.8574C47.497 48.9566 47.4579 49.0517 47.3883 49.1219C47.3187 49.192 47.2244 49.2314 47.1259 49.2314Z" fill="#904D24"/>
<path d="M97.4692 65.2024H97.4638L62.7524 64.7095C62.654 64.7081 62.5602 64.6674 62.4916 64.5962C62.423 64.5251 62.3852 64.4294 62.3866 64.3302C62.3894 64.2315 62.4303 64.1378 62.5006 64.0689C62.5708 64.0001 62.665 63.9616 62.763 63.9615L97.4743 64.4544C97.5723 64.4557 97.6657 64.4961 97.7343 64.5666C97.8029 64.6372 97.841 64.7322 97.8403 64.8309C97.8397 64.9297 97.8003 65.0242 97.7307 65.0937C97.6612 65.1633 97.5672 65.2024 97.4692 65.2024Z" fill="#904D24"/>
<path d="M91.835 75.4435H66.052C65.616 75.4435 65.2625 75.7998 65.2625 76.2393V78.4124C65.2625 78.8519 65.616 79.2081 66.052 79.2081H91.835C92.271 79.2081 92.6245 78.8519 92.6245 78.4124V76.2393C92.6245 75.7998 92.271 75.4435 91.835 75.4435Z" fill="#DC8758"/>
<path d="M9.56761 83.6739C10.401 84.3266 11.8692 85.8765 11.9088 87.0389C11.9088 87.0389 14.6072 84.0818 13.84 81.5529C13.3856 80.6078 12.6316 79.8424 11.6972 79.3775C11.6972 79.3775 12.7553 78.7793 13.8664 80.2477C13.8664 80.2477 13.4696 76.2777 7.98044 77.7188C7.98044 77.7188 5.83763 73.3137 1.59182 77.4741C1.59182 77.4741 4.44883 77.107 3.8933 78.0043C2.85902 78.2974 1.89098 78.7899 1.04286 79.4546C0.758391 79.7085 0.527049 80.017 0.362381 80.3622C0.197712 80.7073 0.103029 81.0821 0.0838765 81.4645C0.0177866 82.5386 -0.0836117 84.6641 0.123615 84.6936C0.40133 84.7344 2.22671 83.0621 3.45683 83.1845C4.68696 83.3068 0.639431 86.9777 0.639431 86.9777C0.639431 86.9777 1.47279 90.1592 1.82995 90.1184C2.18699 90.0776 3.48331 89.1667 2.95415 90.1184L2.04155 90.8526L3.23197 92.5113L6.22128 91.1789C6.22128 91.1789 4.89858 87.5352 6.11547 88.5277C6.11547 88.5277 7.04129 89.765 7.05453 90.6895C7.05453 90.6895 11.0557 88.9356 10.6589 87.7323C10.2269 86.6158 9.7217 85.5295 9.14665 84.4806C9.05022 84.3033 8.99377 84.1068 8.98131 83.905C8.96807 83.5991 9.04738 83.266 9.56761 83.6739ZM9.07602 79.4501C9.45082 79.1895 10.3723 79.3571 10.7184 80.2069C11.0888 81.1156 11.0733 82.1285 10.6986 82.389C10.3238 82.6497 9.25902 82.3098 8.99228 81.4305C8.6969 80.4516 8.7013 79.7106 9.07602 79.4501Z" fill="#8B9D36"/>
<path d="M7.98041 77.7188C7.5537 78.2081 7.15922 78.7251 6.7995 79.2663C6.45937 79.8166 6.1788 80.4021 5.96259 81.0127C5.74809 81.6251 5.56413 82.2479 5.41139 82.8788C5.25174 83.5113 5.09925 84.143 4.97211 84.781C4.83741 85.4172 4.7197 86.0576 4.62331 86.7006C4.52406 87.3437 4.46695 87.9905 4.38855 88.6408C4.23647 89.9471 3.84991 91.2146 3.24776 92.3814C3.50443 91.7831 3.71624 91.1663 3.88141 90.5362C4.05269 89.9103 4.16547 89.2696 4.21827 88.6225C4.31351 87.3165 4.49261 86.018 4.75443 84.7352C4.88899 84.0944 5.04936 83.4587 5.21564 82.8276C5.37226 82.1903 5.56857 81.5636 5.80342 80.9512C6.04176 80.338 6.34549 79.7526 6.70927 79.2055C7.09504 78.6782 7.51998 78.1812 7.98041 77.7188Z" fill="#5E7C24"/>
<path d="M6.4222 79.7915C5.98568 79.8843 5.55641 80.0088 5.13779 80.1643C4.72034 80.3172 4.30773 80.483 3.90729 80.6771C3.09519 81.0425 2.32491 81.492 1.53889 81.9336C1.7105 81.787 1.88965 81.6499 2.06732 81.5097C2.25332 81.3825 2.43647 81.2496 2.62687 81.1279C3.00977 80.8866 3.40631 80.668 3.81446 80.4733C4.22694 80.286 4.6519 80.128 5.08623 80.0005C5.52018 79.8705 5.96957 79.8002 6.4222 79.7915Z" fill="#5E7C24"/>
<path d="M4.61372 86.0997C4.3063 86.3399 3.98627 86.5366 3.67374 86.7417C3.51713 86.843 3.36417 86.9476 3.21487 87.0556C3.06086 87.1586 2.93122 87.2945 2.83511 87.4536C2.85621 87.2509 2.95001 87.0631 3.0989 86.9252C3.23628 86.7849 3.38852 86.6603 3.55289 86.5535C3.87707 86.3402 4.23625 86.1865 4.61372 86.0997Z" fill="#5E7C24"/>
<path d="M5.22659 83.1943C5.58887 83.5363 5.92677 83.9037 6.23777 84.2936C6.5511 84.6828 6.84166 85.0901 7.10797 85.5135C7.37284 85.9401 7.60014 86.3893 7.78726 86.856C7.98036 87.3216 8.0862 87.8193 8.09945 88.3238C8.00293 87.8388 7.8451 87.3684 7.62984 86.9239C7.42287 86.4772 7.18542 86.0455 6.91919 85.6319C6.6697 85.2067 6.38547 84.8026 6.10207 84.3976C5.81772 83.9929 5.5241 83.5939 5.22659 83.1943Z" fill="#5E7C24"/>
<path d="M1.56535 95.9375L2.67641 96.9708C2.67641 96.9708 3.76102 95.8152 3.88006 96.6173C3.88006 96.6173 3.70811 97.4195 3.49648 97.4875C3.49648 97.4875 6.1551 99.6425 6.69079 97.8682C6.90614 97.0745 7.178 96.2975 7.50425 95.5433C7.50425 95.5433 8.09946 95.8696 7.58361 98.4392C7.58361 98.4392 9.64115 97.8298 10.4052 96.7119C10.493 96.5799 10.5398 96.4246 10.5396 96.2658C10.547 95.6266 10.6306 93.8278 11.3533 94.5032C11.3533 94.5032 11.77 94.7071 11.4525 96.0735C11.4525 96.0735 13.127 94.1709 12.3316 93.0015C12.1745 92.7824 11.9468 92.625 11.6875 92.556C11.4281 92.487 11.153 92.5108 10.9091 92.6232C10.4441 92.8266 9.58125 93.2013 7.98044 93.8913C5.9195 94.7991 3.76921 95.485 1.56535 95.9375Z" fill="#8B9D36"/>
<path d="M5.22659 97.5147C5.32954 96.9268 5.51364 96.3564 5.77354 95.8201C5.90179 95.5478 6.05933 95.2905 6.24331 95.0529C6.33706 94.9321 6.44548 94.8237 6.56602 94.7302C6.68562 94.6324 6.83472 94.5787 6.9887 94.5779C6.72604 94.6926 6.51197 94.8971 6.38422 95.1553C6.2333 95.4018 6.09615 95.6566 5.97344 95.9185C5.71801 96.442 5.4905 96.9811 5.22659 97.5147Z" fill="#5E7C24"/>
<path d="M8.84017 96.6717C8.80982 96.1453 8.8573 95.6172 8.98103 95.1049C9.04272 94.8463 9.12974 94.5944 9.24079 94.3532C9.34294 94.1009 9.52852 93.8921 9.76605 93.7621C9.5943 93.9493 9.46921 94.175 9.40115 94.4205C9.3236 94.6623 9.25698 94.9084 9.19728 95.1577C9.07683 95.657 8.97686 96.1628 8.84017 96.6717Z" fill="#5E7C24"/>
<path d="M27.3315 78.1482C27.3315 78.1482 24.6596 78.5346 27.0405 80.438C27.0405 80.438 27.6489 80.9547 29.6329 81.5529C29.6329 81.5529 30.8763 76.103 27.3315 78.1482Z" fill="#5E7C24"/>
<path d="M29.633 81.5529C29.5835 81.3744 29.5511 81.1956 29.5065 81.02C29.4509 80.8471 29.4107 80.6712 29.3499 80.5027C29.2354 80.1657 29.0856 79.8419 28.9031 79.5369C28.7171 79.2365 28.4904 78.9638 28.2295 78.7267C27.9644 78.4845 27.6608 78.289 27.3315 78.1482C27.6982 78.2098 28.0441 78.3618 28.3387 78.5905C28.638 78.8176 28.8934 79.0983 29.092 79.4185C29.2838 79.7401 29.4267 80.0889 29.5158 80.4531C29.5643 80.6326 29.5825 80.8188 29.6133 81.0004C29.6223 81.1857 29.6334 81.3696 29.633 81.5529Z" fill="#50661A"/>
<path d="M23.9406 67.1373C23.9406 67.1373 26.9028 65.2352 27.79 69.4587C27.79 69.4587 26.2527 68.125 26.2324 68.8965C26.7303 69.4842 27.1091 70.1645 27.3474 70.899C27.4855 71.4463 27.4088 72.0262 27.1332 72.5179C26.7566 73.2085 25.9959 74.5652 25.8622 74.5037C25.6832 74.4215 25.2568 72.6779 24.4866 72.2776C23.7163 71.8773 24.6761 75.7204 24.6761 75.7204C24.6761 75.7204 22.9565 77.3706 22.7624 77.2071C22.5683 77.0435 22.1583 75.9774 22.1015 76.7721L22.3542 77.5804L21.0134 78.1481L19.7716 76.1647C19.7716 76.1647 21.9574 74.4173 20.8586 74.5617C20.8586 74.5617 19.8362 74.9705 19.471 75.5387C19.471 75.5387 17.7974 72.9022 18.4957 72.3097C19.1778 71.7875 19.8928 71.3104 20.6362 70.8814C20.7861 70.7955 20.9116 70.6722 21.0004 70.5232C21.0989 70.3522 21.1181 70.1699 20.7058 70.2155C19.9638 70.2976 18.5018 70.6904 18.0291 71.3959C18.0291 71.3959 17.5863 68.5176 19.0147 67.2465C19.637 66.8404 20.3769 66.6574 21.115 66.7271C21.115 66.7271 20.7243 65.9465 19.5037 66.4269C19.5037 66.4269 21.2715 64.1187 23.9406 67.1373Z" fill="#5E7C24"/>
<path d="M25.268 71.8656C25.0263 71.2717 24.7995 70.6832 24.5237 70.122C24.3884 69.8436 24.2279 69.5784 24.0445 69.3296C23.8721 69.0701 23.6083 68.8865 23.3066 68.8158C23.4719 68.8105 23.6361 68.8436 23.7867 68.9126C23.9372 68.9816 24.0699 69.0846 24.1746 69.2136C24.3944 69.4553 24.579 69.7273 24.7227 70.0215C25.0055 70.6011 25.1899 71.2245 25.268 71.8656Z" fill="#50661A"/>
<path d="M19.1836 73.2865C19.3346 72.9569 19.5248 72.6469 19.7499 72.3635C19.9721 72.0735 20.2304 71.8134 20.5182 71.5896C20.8075 71.3589 21.1388 71.1875 21.4935 71.0851C21.849 70.99 22.2245 71.0023 22.5732 71.1203C22.2251 71.0902 21.8747 71.1351 21.5453 71.2522C21.2239 71.3777 20.9232 71.5516 20.6535 71.7678C20.3765 71.982 20.118 72.2194 19.8808 72.4776C19.641 72.7363 19.4053 73.0029 19.1836 73.2865Z" fill="#50661A"/>
<path d="M21.9613 67.5218C22.0704 67.3748 22.2075 67.2512 22.3645 67.1582C22.5216 67.0653 22.6954 67.0047 22.8759 66.9802C23.0571 66.9517 23.2411 66.9468 23.4235 66.9655C23.6052 66.9863 23.7848 67.0235 23.96 67.0767L24.0251 67.0951L23.9985 67.1628C23.6524 68.0438 23.3585 68.9487 23.0681 69.8516C22.784 70.7573 22.5281 71.6717 22.2775 72.5875C22.0365 73.506 21.811 74.4287 21.6009 75.3557C21.3896 76.2824 21.2036 77.2148 21.0134 78.1482C21.1296 77.203 21.2693 76.2596 21.4524 75.3243C21.619 74.3854 21.845 73.4588 22.0744 72.5336C22.3058 71.6086 22.5806 70.6951 22.8765 69.789C23.1706 68.8819 23.5 67.9877 23.8826 67.1119L23.9211 67.1979L23.6683 67.122C23.5823 67.1056 23.4968 67.084 23.4103 67.0696C23.2369 67.0414 23.0606 67.0357 22.8858 67.0525C22.529 67.0826 22.1977 67.2508 21.9613 67.5218Z" fill="#50661A"/>
<path d="M22.8771 75.6864C22.791 75.3607 22.6721 75.0448 22.5223 74.7435C22.4523 74.6081 22.3474 74.4943 22.2187 74.4139C22.0699 74.3469 21.9075 74.3164 21.7447 74.3249C21.8254 74.2769 21.9149 74.2457 22.0078 74.2332C22.1007 74.2207 22.1951 74.2272 22.2855 74.2522C22.4694 74.3216 22.6219 74.4562 22.7145 74.6307C22.8884 74.953 22.9459 75.3261 22.8771 75.6864Z" fill="#50661A"/>
<path d="M12.9934 97.5147C12.9934 97.5147 12.4668 95.6826 11.1301 96.7184C10.6757 97.0823 10.3506 97.5849 10.2037 98.1508C9.96263 99.0276 9.75424 100.617 10.348 102.872C10.348 102.872 11.7165 100.963 12.7289 100.288C13.8706 99.5269 14.6071 97.7866 12.9934 97.5147Z" fill="#C4CE6E"/>
<path d="M12.9934 97.5146C12.7924 97.6643 12.617 97.8462 12.4742 98.053C12.3231 98.252 12.1863 98.4617 12.0648 98.6804C11.8173 99.1164 11.5973 99.5676 11.4059 100.031C11.204 100.492 11.0299 100.965 10.857 101.439L10.3481 102.872C10.3915 102.621 10.449 102.373 10.4993 102.123C10.5574 101.876 10.6296 101.632 10.6943 101.385C10.8348 100.896 11.0127 100.417 11.2016 99.9429C11.4046 99.4729 11.645 99.0201 11.9204 98.589C12.1828 98.1457 12.5518 97.7762 12.9934 97.5146Z" fill="#8B9D36"/>
<path d="M14.9228 72.065C14.9228 72.065 14.9674 70.1552 13.3862 70.7203C12.8453 70.9236 12.3856 71.3002 12.0776 71.7923C11.5868 72.5511 10.915 73.9981 10.8084 76.3316C10.8084 76.3316 12.6796 74.946 13.8445 74.6221C15.1583 74.2567 16.3779 72.8319 14.9228 72.065Z" fill="#8B9D36"/>
<path d="M14.9228 72.065C14.6869 72.1441 14.4656 72.2619 14.2679 72.4138C14.0646 72.5557 13.8717 72.7123 13.6908 72.8822C13.3251 73.2195 12.9811 73.5799 12.6608 73.9611C12.3314 74.336 12.0248 74.7313 11.7191 75.1285L10.8084 76.3317C10.9243 76.107 11.0527 75.8898 11.1749 75.668C11.3039 75.4507 11.4453 75.2415 11.5803 75.0274C11.864 74.6078 12.1686 74.2029 12.4928 73.8142C12.8262 73.4305 13.1901 73.0749 13.5809 72.7509C13.9631 72.411 14.4249 72.175 14.9228 72.065Z" fill="#5E7C24"/>
<path d="M26.8562 97.5147C26.8562 97.5147 27.3828 95.6826 28.7196 96.7184C29.174 97.0823 29.499 97.5849 29.6459 98.1508C29.887 99.0276 30.0954 100.617 29.5016 102.872C29.5016 102.872 28.1331 100.963 27.1208 100.288C25.979 99.5269 25.2425 97.7866 26.8562 97.5147Z" fill="#8B9D36"/>
<path d="M26.8562 97.5146C27.2978 97.7762 27.6669 98.1457 27.9293 98.5891C28.2047 99.0201 28.445 99.4729 28.6481 99.9429C28.8409 100.415 29.0102 100.896 29.1553 101.385C29.22 101.632 29.2923 101.876 29.3504 102.123C29.4006 102.373 29.4581 102.621 29.5016 102.872L28.9927 101.439C28.8198 100.965 28.6457 100.492 28.4438 100.031C28.2524 99.5676 28.0323 99.1164 27.7848 98.6804C27.6633 98.4617 27.5265 98.252 27.3754 98.053C27.2326 97.8462 27.0572 97.6643 26.8562 97.5146Z" fill="#5E7C24"/>
<path d="M27.3315 78.1482C27.3315 78.1482 20.6757 72.4163 18.9509 105.903" stroke="#50661A" stroke-width="0.64428" stroke-miterlimit="10"/>
<path d="M21.0134 78.1481C21.0134 78.1481 17.7022 100.234 19.6863 105.903" stroke="#50661A" stroke-width="0.64428" stroke-miterlimit="10"/>
<path d="M18.4239 105.903C18.4239 105.903 15.9632 95.9508 12.9934 97.5146" stroke="#50661A" stroke-width="0.64428" stroke-miterlimit="10"/>
<path d="M18.7776 102.935C18.7776 102.935 20.9221 65.9589 14.9228 72.065" stroke="#50661A" stroke-width="0.64428" stroke-miterlimit="10"/>
<path d="M21.4257 105.903C21.4257 105.903 23.8864 95.9508 26.8562 97.5146" stroke="#50661A" stroke-width="0.64428" stroke-miterlimit="10"/>
<path d="M12.1448 92.7928C12.1448 92.7928 16.8028 91.6412 19.3424 105.672" stroke="#50661A" stroke-width="0.64428" stroke-miterlimit="10"/>
<path d="M13.6793 84.0988C13.6793 84.0988 15.0288 85.0063 20.1352 105.672" stroke="#50661A" stroke-width="0.64428" stroke-miterlimit="10"/>
<path d="M26.4345 88.7875C26.4345 88.7875 21.3908 96.8348 20.9221 105.903" stroke="#50661A" stroke-width="0.64428" stroke-miterlimit="10"/>
<path d="M13.0199 103.528V105.39C13.0182 105.561 13.0841 105.726 13.203 105.848C13.3218 105.97 13.484 106.04 13.6538 106.042H26.3537C26.5235 106.04 26.6856 105.97 26.8045 105.848C26.9234 105.726 26.9892 105.561 26.9876 105.39V103.674C26.9892 103.504 26.9243 103.341 26.8069 103.219C26.6896 103.097 26.5293 103.026 26.3608 103.023L13.6608 102.877C13.5762 102.876 13.4923 102.893 13.4142 102.926C13.336 102.959 13.265 103.007 13.2054 103.067C13.1458 103.128 13.0987 103.2 13.0669 103.279C13.035 103.358 13.019 103.443 13.0199 103.528Z" fill="#9857BD"/>
<path d="M13.6261 106.042L14.0777 115.652H25.6308L26.3814 106.042H13.6261Z" fill="#CB97E7"/>
<path d="M24.3554 88.2399C24.373 87.3629 26.1719 88.9537 26.1719 88.9537C25.1005 84.1067 21.6769 86.1279 21.6769 86.1279C18.5465 82.5658 16.514 85.106 16.514 85.106C17.927 84.6188 18.3879 85.5252 18.3879 85.5252C17.5443 85.4057 16.6854 85.5782 15.9518 86.0146C14.3051 87.3924 14.8453 90.6872 14.8453 90.6872C15.3876 89.9077 17.085 89.5315 17.9447 89.4726C18.4848 89.4363 18.39 89.7038 18.2446 89.9077C18.147 90.0398 18.0212 90.1483 17.8764 90.2249C17.0167 90.6766 16.1882 91.1861 15.3964 91.7499C14.5895 92.3889 16.5603 95.4685 16.5603 95.4685C16.9791 94.8408 18.163 94.4238 18.163 94.4238C19.4394 94.3128 16.9152 96.1958 16.9152 96.1958L18.3768 98.5117L19.931 97.9293L19.6289 96.998C19.6885 96.0962 20.1735 97.3289 20.4005 97.5237C20.6275 97.7209 22.6116 95.9262 22.6116 95.9262C22.6116 95.9262 21.4609 91.5075 22.3581 92.0014C23.2575 92.4931 23.7689 94.4963 23.9784 94.5983C24.1349 94.6753 25.0057 93.1684 25.4378 92.4003C25.5943 92.126 25.6955 91.8232 25.7356 91.5094C25.7757 91.1956 25.7539 90.8769 25.6715 90.5716C25.3828 89.7175 24.9362 88.9264 24.3554 88.2399ZM19.3357 88.2036C18.7625 88.6817 17.8808 88.4166 17.7397 88.0609C17.5964 87.7074 18.0351 87.0026 18.692 86.554C19.3071 86.1325 20.0147 86.4475 20.1559 86.8032C20.2991 87.1567 19.9729 87.6689 19.3357 88.2036Z" fill="#5E7C24"/>
<path d="M21.6764 86.1279C21.7905 86.6561 21.8651 87.1922 21.8996 87.7317C21.9102 88.2756 21.8622 88.819 21.7565 89.3525C21.6489 89.8836 21.507 90.4072 21.332 90.9198C21.1666 91.4319 20.9954 91.9449 20.8039 92.4499C20.4137 93.4563 19.9578 94.4357 19.4393 95.3816C19.1862 95.8515 18.9776 96.3443 18.8161 96.8536C18.6476 97.3635 18.5165 97.8851 18.4239 98.4142C18.5193 97.3327 18.8117 96.2781 19.2866 95.3035C19.779 94.3515 20.2163 93.3718 20.5966 92.369C20.7927 91.8706 20.9685 91.365 21.1401 90.8555C21.3129 90.3474 21.4682 89.8362 21.5897 89.3172C21.7126 88.798 21.7801 88.267 21.7911 87.7333C21.786 87.1963 21.7477 86.6601 21.6764 86.1279Z" fill="#50661A"/>
<path d="M21.8273 88.2813C22.1408 88.4941 22.4232 88.75 22.6664 89.0416C22.9126 89.33 23.1358 89.6377 23.3338 89.9616C23.5305 90.2854 23.7051 90.6224 23.8563 90.9701C24.0076 91.3169 24.1328 91.6747 24.2307 92.0405L23.7004 91.0473C23.5198 90.7208 23.3408 90.3947 23.1444 90.0794C22.9514 89.7622 22.747 89.4525 22.5311 89.1504C22.3152 88.8458 22.0801 88.5555 21.8273 88.2813Z" fill="#50661A"/>
<path d="M20.2717 93.4606C20.5039 93.6881 20.6892 93.9596 20.8171 94.2595C20.8828 94.4105 20.931 94.5686 20.9606 94.7308C20.9999 94.8978 20.9757 95.0737 20.8926 95.2236C20.8895 95.069 20.8556 94.9167 20.7927 94.7757C20.7352 94.6335 20.6759 94.4914 20.6132 94.3493C20.4805 94.0608 20.3664 93.764 20.2717 93.4606Z" fill="#50661A"/>
<path d="M21.1393 91.1783L20.0093 91.6092C19.6362 91.7568 19.2647 91.9066 18.9033 92.0763C18.5392 92.238 18.1852 92.4218 17.8431 92.6266C17.4973 92.8286 17.1777 93.073 16.8917 93.3545C17.1179 93.0098 17.4086 92.7129 17.7476 92.4804C18.0812 92.2425 18.4376 92.0388 18.8113 91.8721C19.5515 91.5329 20.335 91.2994 21.1393 91.1783Z" fill="#50661A"/>
<path d="M32.3381 82.7607C32.3381 82.7607 34.9187 78.8755 38.1461 83.4636C38.1461 83.4636 35.6185 82.695 35.9891 83.6318C36.8877 84.0676 37.6912 84.6794 38.3527 85.4314C38.7998 86.0175 39.0047 86.7552 38.9246 87.4901C38.8264 88.5226 38.6082 90.5622 38.4163 90.5608C38.1594 90.559 36.7549 88.6974 35.6255 88.6338C34.4962 88.5702 37.616 92.6626 37.616 92.6626C37.616 92.6626 36.3976 95.5733 36.0809 95.4821C35.7642 95.3909 34.7262 94.3333 35.065 95.3177L35.7822 96.151L34.464 97.5577L31.958 95.8496C31.958 95.8496 33.6863 92.5699 32.4416 93.3377C32.4416 93.3377 31.424 94.3815 31.2767 95.2609C31.2767 95.2609 27.9182 93.0026 28.4528 91.9138C29.0029 90.9197 29.6154 89.962 30.2865 89.0465C30.4218 88.8638 30.5097 88.65 30.5424 88.4245C30.5759 88.162 30.5098 87.9236 30.0326 88.2049C29.1842 88.7049 27.6309 89.9673 27.4249 91.0696C27.4249 91.0696 25.4196 87.8553 26.4828 85.557C27.0199 84.7348 27.8129 84.1158 28.7372 83.7973C28.7372 83.7973 27.8686 83.072 26.6499 84.3089C26.6499 84.3089 27.5893 80.5825 32.3381 82.7607Z" fill="#C4CE6E"/>
<path d="M32.3381 82.7607C32.7892 83.9309 33.162 85.1302 33.4542 86.3505C33.757 87.5686 33.9913 88.8037 34.1748 90.046C34.3531 91.2893 34.4686 92.5409 34.5208 93.796C34.5745 95.05 34.5555 96.306 34.464 97.5578C34.4542 96.3039 34.4479 95.0526 34.3498 93.8054C34.2714 92.5578 34.1397 91.3154 33.9547 90.0783C33.7905 88.8393 33.5541 87.6111 33.2883 86.3899C33.0209 85.1689 32.7125 83.9559 32.3381 82.7607Z" fill="#8B9D36"/>
<path d="M32.9822 84.8288C32.7734 85.0906 32.5868 85.3696 32.4245 85.6629C32.2624 85.9528 32.1162 86.2515 31.9867 86.5575C31.8566 86.8633 31.7435 87.1767 31.6387 87.4945C31.5349 87.8128 31.4421 88.1358 31.3435 88.4626C31.3538 88.121 31.3965 87.7812 31.4712 87.4479C31.5458 87.113 31.6499 86.7855 31.7821 86.4693C31.917 86.1531 32.0833 85.8514 32.2786 85.5691C32.4703 85.2844 32.7082 85.0341 32.9822 84.8288Z" fill="#8B9D36"/>
<path d="M34.0559 89.9749C34.3977 90.0524 34.7199 90.2001 35.0026 90.4087C35.2852 90.6173 35.5221 90.8824 35.6986 91.1875C35.8166 91.3893 35.9004 91.6097 35.9465 91.8394C35.7101 91.4593 35.4302 91.1087 35.1125 90.7946C34.79 90.4845 34.4359 90.2098 34.0559 89.9749Z" fill="#8B9D36"/>
<path d="M142.808 107.348L143.216 111.452L136.145 114.933H147.003V107.348H142.808Z" fill="#F9977A"/>
<path d="M131.155 107.348L131.563 111.452L124.492 114.933H135.35V107.348H131.155Z" fill="#F9977A"/>
<path d="M142.239 109.454H147.021C147.149 109.454 147.276 109.428 147.394 109.379C147.513 109.33 147.62 109.257 147.711 109.166C147.801 109.075 147.873 108.966 147.922 108.847C147.971 108.728 147.996 108.6 147.996 108.471V91.3311C147.996 87.9819 147.623 84.6432 146.882 81.3781C146.749 80.7928 146.697 80.1919 146.725 79.5922C146.933 75.1787 147.712 55.8229 145.529 52.3022L131.563 51.2629L141.278 108.636C141.316 108.865 141.434 109.073 141.61 109.222C141.786 109.372 142.009 109.454 142.239 109.454Z" fill="#C67A56"/>
<path d="M127.016 50.5333C127.016 50.5333 126.282 62.5126 126.282 65.329V81.9481C126.282 82.6324 126.315 83.3156 126.382 83.9975L128.827 108.989C128.851 109.231 128.963 109.457 129.143 109.62C129.322 109.784 129.555 109.875 129.797 109.875H135.432C135.566 109.875 135.699 109.847 135.822 109.793C135.945 109.739 136.055 109.66 136.146 109.561C136.238 109.462 136.308 109.346 136.352 109.218C136.397 109.091 136.415 108.956 136.405 108.821L134.882 87.7215C134.742 85.7827 134.872 83.8337 135.267 81.931L141.416 52.3022L127.016 50.5333Z" fill="#C67A56"/>
<path d="M116.193 31.6243C116.193 31.6243 116.142 30.2724 114.079 28.132C112.017 25.9916 110.167 24.5288 111.241 26.3323L112.082 27.693C112.082 27.693 109.863 26.8257 108.586 26.1922C108.25 26.0188 107.867 25.9588 107.495 26.021C107.122 26.0832 106.779 26.2642 106.516 26.5376C106.035 27.0607 106.05 27.6326 107.377 28.6473C108.601 29.6295 109.955 30.4357 111.399 31.0428C111.606 31.1232 111.781 31.2705 111.897 31.4618L113.38 32.6789L116.193 31.6243Z" fill="#F9977A"/>
<path d="M113.38 28.3248C113.144 28.2693 112.915 28.1854 112.699 28.075C112.481 27.9692 112.274 27.8412 112.082 27.693C112.205 27.7054 112.326 27.7322 112.442 27.7729C112.557 27.8107 112.67 27.8568 112.779 27.9109C112.999 28.0169 113.202 28.1565 113.38 28.3248Z" fill="#DD765E"/>
<path d="M110.315 27.9106C110.033 27.815 109.757 27.7027 109.489 27.5742C109.219 27.4505 108.957 27.3097 108.699 27.1609C108.441 27.0118 108.192 26.8473 107.953 26.6684C107.711 26.4927 107.488 26.2907 107.29 26.0662C107.777 26.4086 108.28 26.7058 108.79 27.0028C109.297 27.3031 109.811 27.591 110.315 27.9106Z" fill="#DD765E"/>
<path d="M109.764 28.5995C109.45 28.5115 109.143 28.4023 108.844 28.2726C108.543 28.1459 108.25 28.0014 107.966 27.8396C107.68 27.6795 107.408 27.4939 107.154 27.285C106.891 27.0848 106.673 26.8299 106.516 26.5376C106.725 26.7833 106.969 26.9973 107.238 27.1729C107.503 27.353 107.774 27.5245 108.056 27.6807C108.613 28.0023 109.189 28.2917 109.764 28.5995Z" fill="#DD765E"/>
<path d="M109.099 29.1161C108.835 29.0495 108.576 28.9622 108.325 28.8553C108.073 28.751 107.827 28.632 107.589 28.4988C107.106 28.2389 106.671 27.8985 106.301 27.492C106.529 27.643 106.751 27.7934 106.981 27.9336C107.213 28.07 107.442 28.2098 107.677 28.3392L109.099 29.1161Z" fill="#DD765E"/>
<path d="M132.286 24.7589C132.286 24.7589 131.169 25.2624 130.303 25.7099C129.102 26.3304 127.237 28.5105 125.056 33.9557L123.606 37.5742C123.606 37.5742 119.253 32.4535 115.488 29.2058L111.771 32.2452L120.373 42.2317C120.93 43.0337 121.669 43.6897 122.528 44.1447C124.492 45.1563 126.498 44.8227 127.599 42.7655C129.321 39.5475 131.368 34.648 131.564 33.2828L132.286 24.7589Z" fill="#FFBA55"/>
<path d="M123.619 37.6389C123.56 38.2112 123.464 38.7497 123.442 39.2887C123.423 39.5545 123.43 39.8214 123.462 40.0858C123.498 40.3565 123.576 40.6197 123.694 40.8659C123.457 40.6855 123.284 40.4338 123.2 40.1475C123.112 39.8641 123.078 39.5669 123.097 39.2709C123.113 38.9808 123.166 38.694 123.254 38.4176C123.336 38.141 123.46 37.8785 123.619 37.6389Z" fill="#E6952A"/>
<path d="M140.324 54.624C140.324 54.624 140.324 60.5472 146.808 58.9973L146.45 53.6654L140.324 54.624Z" fill="#A3862B"/>
<path d="M123.403 115.306V115.281C123.403 115.089 123.456 114.901 123.555 114.738C123.655 114.575 123.798 114.442 123.968 114.356L131.307 110.628C131.379 110.592 131.461 110.582 131.539 110.6C131.618 110.619 131.687 110.664 131.735 110.729L133.17 112.653C133.221 112.722 133.295 112.769 133.378 112.785C133.461 112.801 133.548 112.786 133.62 112.742L135.304 111.724C135.356 111.692 135.415 111.676 135.476 111.675C135.537 111.674 135.596 111.689 135.649 111.72C135.702 111.75 135.746 111.793 135.776 111.846C135.807 111.899 135.823 111.959 135.823 112.02V115.306C135.823 115.398 135.787 115.486 135.723 115.551C135.658 115.615 135.571 115.652 135.48 115.652H123.745C123.655 115.652 123.567 115.615 123.503 115.551C123.439 115.486 123.403 115.398 123.403 115.306Z" fill="#5D1115"/>
<path d="M135.055 115.306V115.281C135.055 115.089 135.108 114.901 135.208 114.738C135.308 114.575 135.451 114.442 135.621 114.356L142.96 110.628C143.031 110.592 143.114 110.582 143.192 110.6C143.27 110.619 143.34 110.664 143.388 110.729L144.822 112.653C144.873 112.722 144.947 112.769 145.031 112.785C145.114 112.801 145.2 112.786 145.273 112.742L146.956 111.724C147.008 111.692 147.068 111.676 147.128 111.675C147.189 111.674 147.249 111.689 147.302 111.72C147.354 111.75 147.398 111.793 147.429 111.846C147.459 111.899 147.475 111.959 147.475 112.02V115.306C147.475 115.398 147.439 115.486 147.375 115.551C147.311 115.615 147.224 115.652 147.133 115.652H135.398C135.307 115.652 135.22 115.615 135.156 115.551C135.091 115.486 135.055 115.398 135.055 115.306Z" fill="#5D1115"/>
<path d="M136.727 10.7882C135.735 10.6361 134.722 10.7236 133.771 11.0435C133.325 11.2028 131.695 11.7855 130.9 13.3414C130.598 13.9323 130.53 14.6431 130.393 16.0648C130.308 16.9528 129.969 17.5888 129.969 18.6719C129.987 19.5494 130.13 20.4198 130.393 21.2564C130.789 22.5656 130.534 23.3095 130.731 23.5542C131.525 24.5406 133.228 23.6288 133.265 24.9159C133.287 25.7107 132.786 26.2137 133.444 26.9266C134.26 27.8106 137.361 27.4761 138.5 26.8734C138.655 26.7913 140.934 25.5556 140.78 24.15C140.698 23.3991 140 23.3214 139.513 22.1925C139.201 21.4099 139.114 20.5548 139.26 19.7244C139.48 18.0812 140.301 17.8809 140.949 15.8946C141.125 15.3959 141.17 14.8601 141.082 14.3385C140.993 13.8169 140.773 13.327 140.442 12.9158C139.49 11.7894 138.174 11.0363 136.727 10.7882Z" fill="#F9977A"/>
<path d="M130.387 17.733C130.57 17.733 130.718 17.5472 130.718 17.3181C130.718 17.0889 130.57 16.9032 130.387 16.9032C130.204 16.9032 130.056 17.0889 130.056 17.3181C130.056 17.5472 130.204 17.733 130.387 17.733Z" fill="#0A0709"/>
<path d="M133.857 17.8733C134.039 17.8733 134.188 17.6876 134.188 17.4584C134.188 17.2293 134.039 17.0435 133.857 17.0435C133.674 17.0435 133.526 17.2293 133.526 17.4584C133.526 17.6876 133.674 17.8733 133.857 17.8733Z" fill="#0A0709"/>
<path d="M131.953 16.5512C131.997 16.5512 132.04 16.5372 132.075 16.5111C132.111 16.485 132.138 16.4482 132.151 16.406C132.165 16.3638 132.165 16.3183 132.152 16.276C132.138 16.2337 132.112 16.1968 132.076 16.1706C131.723 15.9036 131.299 15.7487 130.858 15.7258C130.418 15.7028 129.98 15.8128 129.602 16.0418C129.556 16.0728 129.524 16.1211 129.513 16.1758C129.502 16.2306 129.514 16.2875 129.544 16.3339C129.575 16.3803 129.623 16.4125 129.678 16.4233C129.732 16.4342 129.788 16.4228 129.834 16.3918C130.14 16.2065 130.494 16.1187 130.85 16.1399C131.206 16.1611 131.548 16.2903 131.83 16.5106C131.865 16.537 131.908 16.5512 131.953 16.5512Z" fill="#1E1D22"/>
<path d="M135.387 16.7228C135.431 16.7228 135.474 16.7088 135.51 16.6827C135.545 16.6566 135.572 16.6199 135.586 16.5776C135.599 16.5354 135.599 16.4899 135.586 16.4476C135.572 16.4053 135.546 16.3684 135.51 16.3422C135.157 16.0752 134.733 15.9203 134.293 15.8973C133.852 15.8744 133.415 15.9843 133.036 16.2132C132.99 16.2443 132.958 16.2925 132.947 16.3473C132.937 16.4021 132.948 16.459 132.979 16.5054C133.01 16.5518 133.057 16.584 133.112 16.5948C133.166 16.6057 133.223 16.5943 133.269 16.5632C133.574 16.3779 133.928 16.29 134.284 16.3113C134.641 16.3325 134.982 16.4618 135.264 16.6822C135.299 16.7087 135.343 16.7229 135.387 16.7228Z" fill="#1E1D22"/>
<path d="M132.685 53.9434C132.99 53.9434 133.237 53.6945 133.237 53.3875C133.237 53.0805 132.99 52.8316 132.685 52.8316C132.38 52.8316 132.133 53.0805 132.133 53.3875C132.133 53.6945 132.38 53.9434 132.685 53.9434Z" fill="#5D1115"/>
<path d="M131.9 16.8013C131.987 17.1506 131.957 17.5186 131.817 17.8496C131.692 18.183 131.52 18.497 131.308 18.7825C131.2 18.9261 131.042 19.0335 131.053 19.1745C131.071 19.3327 131.151 19.477 131.275 19.5758C131.413 19.6737 131.57 19.7431 131.735 19.78C131.9 19.8169 132.071 19.8206 132.238 19.7909C132.067 19.8483 131.886 19.8662 131.707 19.8435C131.529 19.8207 131.358 19.7577 131.207 19.6592C131.128 19.6039 131.062 19.5321 131.014 19.4487C130.965 19.3652 130.935 19.2721 130.926 19.1759C130.925 19.0719 130.963 18.9714 131.033 18.8949L131.2 18.6941C131.409 18.4208 131.583 18.1226 131.72 17.8063C131.871 17.4945 131.933 17.1467 131.9 16.8013Z" fill="#DD765E"/>
<path d="M138.016 16.9417C138.142 16.9357 138.269 16.9578 138.386 17.0064C138.504 17.0549 138.609 17.1288 138.695 17.2228C138.782 17.3139 138.858 17.4154 138.92 17.525C138.98 17.6344 139.025 17.7516 139.053 17.8734C138.915 17.679 138.762 17.495 138.597 17.3226C138.518 17.2385 138.429 17.1637 138.333 17.0997C138.235 17.0322 138.128 16.9791 138.016 16.9417Z" fill="#DD765E"/>
<path d="M138.285 18.6719C138.156 18.4289 138.111 18.1501 138.157 17.8786C138.202 17.6072 138.335 17.3585 138.535 17.171C138.482 17.2958 138.423 17.4105 138.385 17.5333C138.341 17.6522 138.31 17.7757 138.293 17.9014C138.252 18.1564 138.249 18.4161 138.285 18.6719Z" fill="#DD765E"/>
<path d="M126.864 44.2326C126.734 42.9967 126.698 41.7528 126.754 40.5113C126.787 39.2672 126.941 38.0295 127.216 36.816C127.189 38.0605 127.145 39.2899 127.099 40.5253C127.045 41.7597 126.993 42.9939 126.864 44.2326Z" fill="#E6952A"/>
<path d="M133.616 21.2571C133.616 21.2571 132.312 22.4827 131.146 21.2571H133.616Z" fill="#0A0709"/>
<path d="M134.925 17.4076C134.639 17.2634 134.331 17.167 134.014 17.122C133.859 17.0965 133.701 17.0912 133.544 17.1063C133.384 17.1197 133.224 17.1457 133.068 17.1841C133.209 17.0943 133.366 17.0316 133.53 16.9994C133.696 16.9665 133.866 16.961 134.033 16.9831C134.367 17.027 134.679 17.1755 134.925 17.4076Z" fill="#1E1D22"/>
<path d="M131.515 17.2672C131.229 17.123 130.921 17.0266 130.605 16.9817C130.449 16.9561 130.291 16.9508 130.134 16.966C129.974 16.9793 129.815 17.0054 129.658 17.0438C129.799 16.9539 129.956 16.8913 130.12 16.859C130.286 16.8261 130.456 16.8206 130.623 16.8428C130.957 16.8866 131.269 17.0351 131.515 17.2672Z" fill="#1E1D22"/>
<path d="M126.835 52.2143C127.516 52.6566 128.252 53.007 129.024 53.2564C129.788 53.521 130.569 53.7331 131.361 53.8914C132.945 54.2176 134.554 54.4029 136.171 54.445C136.977 54.5066 137.787 54.475 138.596 54.4871C139.406 54.4714 140.214 54.4168 141.024 54.3927C141.832 54.3275 142.641 54.2739 143.449 54.199C144.256 54.1144 145.062 54.0178 145.873 53.9434C145.075 54.0959 144.272 54.2262 143.469 54.3685C142.663 54.4781 141.853 54.5619 141.044 54.6599C140.232 54.7264 139.418 54.7716 138.603 54.804C137.788 54.8023 136.972 54.8456 136.156 54.7925C134.522 54.7367 132.897 54.5221 131.303 54.1516C129.727 53.7569 128.128 53.2282 126.835 52.2143Z" fill="#5D1115"/>
<path d="M132.077 54.1823C132.481 56.1533 132.848 58.1308 133.21 60.1092C133.572 62.0875 133.904 64.071 134.252 66.0517C134.573 68.0371 134.908 70.0199 135.215 72.0077L135.669 74.9904C135.808 75.9869 135.958 76.9813 136.087 77.9794C135.881 76.9944 135.697 76.0057 135.502 75.0191L134.953 72.0525C134.592 70.0741 134.259 68.0908 133.912 66.11C133.592 64.1244 133.255 62.1418 132.949 60.1539C132.642 58.1661 132.341 56.1774 132.077 54.1823Z" fill="#5D1115"/>
<path d="M129.287 51.7199C129.407 52.0777 129.466 52.4538 129.459 52.8316C129.467 53.2096 129.408 53.5858 129.287 53.9434C129.165 53.5858 129.107 53.2096 129.114 52.8316C129.107 52.4538 129.166 52.0777 129.287 51.7199Z" fill="#5D1115"/>
<path d="M137.716 52.6263C137.885 53.0253 137.994 53.4477 138.037 53.8792C138.096 54.3092 138.088 54.7455 138.016 55.1732C137.846 54.7744 137.738 54.3519 137.694 53.9202C137.637 53.4903 137.644 53.054 137.716 52.6263Z" fill="#5D1115"/>
<path d="M133.355 54.3881C133.583 55.1692 133.769 55.9623 133.912 56.7637C134.058 57.5622 134.178 58.3649 134.265 59.1732L134.274 59.2557L134.217 59.2941C133.841 59.5473 133.456 59.7894 133.06 60.0155C133.385 59.6937 133.721 59.3879 134.067 59.0932L134.019 59.2141C133.844 58.4204 133.702 57.6213 133.585 56.818C133.465 56.0128 133.388 55.2017 133.355 54.3881Z" fill="#5D1115"/>
<path d="M145.873 67.2184C145.859 67.8075 145.786 68.3937 145.656 68.9681C145.532 69.5467 145.355 70.1126 145.128 70.6586C144.903 71.2098 144.607 71.7294 144.25 72.2046C143.892 72.6801 143.436 73.0712 142.912 73.3505C143.344 72.9715 143.721 72.5327 144.03 72.0471C144.333 71.5627 144.594 71.0528 144.81 70.5232C145.033 69.9919 145.228 69.4496 145.396 68.8984C145.564 68.345 145.73 67.7876 145.873 67.2184Z" fill="#5D1115"/>
<path d="M145.873 71.2615C145.776 71.6758 145.633 72.0775 145.445 72.4586C145.26 72.8422 145.044 73.2093 144.798 73.5562C144.317 74.2646 143.669 74.842 142.912 75.2373C143.209 74.9329 143.498 74.6417 143.763 74.326C144.025 74.0084 144.284 73.6913 144.518 73.3526C144.999 72.6841 145.429 71.9817 145.873 71.2615Z" fill="#5D1115"/>
<path d="M133.255 87.3835C133.24 87.9726 133.167 88.5588 133.037 89.1333C132.913 89.7119 132.737 90.2778 132.51 90.8237C132.284 91.3749 131.989 91.8945 131.631 92.3697C131.274 92.8452 130.817 93.2363 130.294 93.5156C130.726 93.1366 131.102 92.6978 131.412 92.2122C131.715 91.7278 131.976 91.2179 132.192 90.6883C132.414 90.157 132.61 89.6147 132.777 89.0635C132.946 88.5102 133.112 87.9527 133.255 87.3835Z" fill="#5D1115"/>
<path d="M133.255 91.4266C133.158 91.8409 133.014 92.2426 132.826 92.6238C132.642 93.0073 132.426 93.3745 132.18 93.7213C131.698 94.4297 131.05 95.0072 130.294 95.4024C130.591 95.098 130.88 94.807 131.145 94.4912C131.406 94.1735 131.666 93.8564 131.9 93.5178C132.38 92.8493 132.811 92.1468 133.255 91.4266Z" fill="#5D1115"/>
<path d="M139.167 59.1937C139.087 59.877 139.08 60.5671 139.148 61.2518C139.183 61.9111 139.438 62.5391 139.871 63.0346C140.317 63.4911 141.007 63.5943 141.665 63.554C142.343 63.4867 143.013 63.3459 143.662 63.1341C143.05 63.4769 142.383 63.7105 141.692 63.8244C141.334 63.8785 140.97 63.8709 140.614 63.802C140.245 63.7262 139.904 63.5469 139.631 63.2846C139.139 62.7328 138.872 62.0149 138.881 61.2734C138.856 60.5687 138.953 59.865 139.167 59.1937Z" fill="#5D1115"/>
<path d="M133.792 25.0237C133.792 25.0237 134.578 29.0308 140.151 23.1584L145.528 26.5117C146.746 27.2919 147.722 28.3999 148.347 29.7102C150.472 34.2435 151.716 39.1452 152.011 44.1502C152.011 44.1502 152.771 49.194 145.34 59.1403C145.34 59.1403 141.455 59.895 140.527 55.7248L142.913 52.4056C142.913 52.4056 130.309 53.5971 127.016 50.5332C127.016 50.5332 125.292 28.8184 132.589 24.4904L133.792 25.0237Z" fill="#FFBA55"/>
<path d="M143.144 34.1926C143.293 35.1382 143.43 36.085 143.557 37.0329C143.679 37.9814 143.813 38.9285 143.926 39.8781L144.262 42.727C144.379 43.6761 144.465 44.6286 144.568 45.5793L144.569 45.595L144.568 45.6082C144.47 46.7783 144.292 47.9403 144.036 49.0859C143.803 50.2362 143.426 51.3518 142.912 52.4056C143.327 51.3182 143.631 50.1912 143.82 49.042C143.923 48.4699 144.005 47.8941 144.074 47.3171C144.149 46.7417 144.213 46.1613 144.254 45.586L144.254 45.6147C144.146 44.6646 144.021 43.7164 143.927 42.7648L143.63 39.9115C143.531 38.9603 143.454 38.0068 143.365 37.0545C143.282 36.1017 143.208 35.1478 143.144 34.1926Z" fill="#E6952A"/>
<path d="M141.816 35.1289C142.192 35.4442 142.524 35.8085 142.804 36.2121C143.096 36.6071 143.334 37.04 143.512 37.499C143.136 37.1842 142.803 36.8198 142.524 36.4157C142.232 36.0203 141.994 35.5875 141.816 35.1289Z" fill="#E6952A"/>
<path d="M144.411 45.597C144.796 45.593 145.138 45.6329 145.48 45.6468C145.65 45.6565 145.818 45.6548 145.989 45.6531C146.159 45.6432 146.327 45.6244 146.522 45.597C146.395 45.7485 146.227 45.8605 146.039 45.92C145.853 45.9774 145.659 46.0026 145.464 45.9945C145.274 45.9835 145.086 45.9452 144.906 45.8808C144.724 45.8197 144.556 45.7233 144.411 45.597Z" fill="#E6952A"/>
<path d="M134.988 26.2906C134.644 27.3362 134.313 28.3852 134.022 29.4458C133.716 30.5015 133.433 31.5635 133.174 32.6318C132.653 34.7664 132.197 36.9166 131.856 39.086C131.508 41.2538 131.279 43.4393 131.171 45.6327C131.152 46.7295 131.101 47.8286 131.173 48.9253C131.17 50.0273 131.335 51.1147 131.425 52.2143C131.038 50.04 130.865 47.8329 130.905 45.6244C130.973 43.416 131.177 41.2139 131.515 39.0308C131.887 36.8547 132.34 34.6927 132.918 32.5645C133.486 30.4342 134.177 28.3393 134.988 26.2906Z" fill="#E6952A"/>
<path d="M132.589 24.4905C132.46 25.0716 132.344 25.655 132.268 26.2425C132.169 26.8164 132.163 27.4026 132.249 27.9786C132.31 28.2567 132.47 28.4504 132.711 28.3816C132.971 28.3012 133.211 28.1675 133.418 27.9889C133.864 27.6141 134.279 27.2024 134.657 26.7581L134.911 26.4719L134.939 26.8615C134.96 27.2613 135.063 27.6523 135.242 28.0101C135.318 28.1786 135.435 28.325 135.583 28.4356C135.73 28.5463 135.903 28.6176 136.085 28.643C136.477 28.656 136.865 28.5602 137.207 28.3661C137.574 28.1776 137.92 27.9519 138.241 27.6923C139.536 26.6156 140.733 25.4239 141.816 24.1315C141.315 24.8146 140.799 25.4894 140.237 26.1272C139.679 26.773 139.073 27.3744 138.423 27.9258C138.09 28.2026 137.729 28.4444 137.348 28.6474C136.954 28.876 136.505 28.9895 136.051 28.975C135.813 28.9478 135.586 28.8598 135.392 28.7192C135.197 28.5785 135.042 28.3901 134.94 28.1717C134.743 27.7661 134.633 27.3231 134.616 26.8716L134.898 26.975C134.5 27.4282 134.066 27.847 133.598 28.2268C133.354 28.4347 133.063 28.5801 132.751 28.651C132.659 28.6701 132.563 28.6654 132.473 28.6373C132.383 28.6092 132.302 28.5586 132.236 28.4903C132.123 28.3613 132.049 28.2019 132.023 28.0313C131.973 27.7271 131.964 27.4172 131.997 27.1106C132.023 26.811 132.067 26.5133 132.129 26.2191C132.247 25.634 132.401 25.0567 132.589 24.4905Z" fill="#E6952A"/>
<path d="M133.592 33.8094C133.787 33.8094 133.945 33.6502 133.945 33.4537C133.945 33.2573 133.787 33.0981 133.592 33.0981C133.397 33.0981 133.239 33.2573 133.239 33.4537C133.239 33.6502 133.397 33.8094 133.592 33.8094Z" fill="#5D1115"/>
<path d="M134.651 29.6798C134.845 29.6798 135.003 29.5205 135.003 29.3241C135.003 29.1276 134.845 28.9684 134.651 28.9684C134.456 28.9684 134.298 29.1276 134.298 29.3241C134.298 29.5205 134.456 29.6798 134.651 29.6798Z" fill="#5D1115"/>
<path d="M132.712 38.6512C132.907 38.6512 133.065 38.492 133.065 38.2955C133.065 38.0991 132.907 37.9398 132.712 37.9398C132.517 37.9398 132.359 38.0991 132.359 38.2955C132.359 38.492 132.517 38.6512 132.712 38.6512Z" fill="#5D1115"/>
<path d="M131.99 43.7605C132.184 43.7605 132.342 43.6012 132.342 43.4048C132.342 43.2084 132.184 43.0491 131.99 43.0491C131.795 43.0491 131.637 43.2084 131.637 43.4048C131.637 43.6012 131.795 43.7605 131.99 43.7605Z" fill="#5D1115"/>
<path d="M131.768 49.3552C131.963 49.3552 132.121 49.196 132.121 48.9995C132.121 48.8031 131.963 48.6439 131.768 48.6439C131.573 48.6439 131.415 48.8031 131.415 48.9995C131.415 49.196 131.573 49.3552 131.768 49.3552Z" fill="#5D1115"/>
<path d="M133.049 24.8535C133.049 24.8535 135.386 24.8971 136.722 23.0248C137.359 22.1321 137.361 20.3262 137.298 19.2757C137.27 18.8048 137.343 18.3334 137.514 17.894C137.75 17.287 138.04 16.4598 138.629 16.4047C139.063 16.3642 139.237 16.2486 139.394 16.6709C139.652 17.3695 139.203 18.1401 138.891 18.6768C138.444 19.4449 138.064 19.6125 138.057 20.1439C138.051 20.5492 138.696 21.2237 138.962 21.2534C139.414 21.3036 139.618 19.9238 140.828 17.6223C141.593 16.169 141.944 15.8963 142.033 14.9891C142.064 14.667 142.194 13.3334 141.398 12.5577C141.028 12.198 140.818 12.3076 139.212 11.6221C138.766 11.4438 138.33 11.2412 137.906 11.0152C136.627 10.3109 136.655 9.94857 135.907 9.73408C135.23 9.54035 135.19 9.83137 133.899 9.7543C132.654 9.68003 132.543 9.40064 131.968 9.56608C130.968 9.85328 130.488 10.9291 130.359 11.2181C130.102 11.7185 129.97 12.2746 129.974 12.8381C130.029 13.4099 130.239 13.9554 130.581 14.4147C130.743 14.5814 131.402 13.6207 131.76 13.2593C132.112 12.9052 132.512 13.0502 133.056 13.0843C133.587 13.1176 133.558 13.4509 134.343 13.7435C134.623 13.8477 135.744 13.3415 136.106 13.9668C136.492 14.6332 136.792 14.7139 136.611 15.3339C136.498 15.7213 136.568 16.1972 136.708 17.1491C136.808 17.8322 136.26 20.2182 136.26 20.2182C136.211 20.3172 136.144 20.4056 136.062 20.4783C135.98 20.551 135.884 20.6066 135.78 20.6418C135.677 20.677 135.567 20.6912 135.458 20.6835C135.349 20.6758 135.242 20.6464 135.145 20.5969C134.551 20.2886 133.936 20.0211 133.307 19.7962C132.93 19.667 132.53 19.6236 132.136 19.6691C131.741 19.7146 131.361 19.8479 131.023 20.0593C130.788 20.2038 130.547 20.3657 130.357 20.5117C130.23 20.6088 130.129 20.7358 130.062 20.8816C129.996 21.0274 129.966 21.1874 129.975 21.3476C130.045 22.3716 130.466 24.8764 133.049 24.8535ZM130.828 21.2957C130.924 20.808 131.646 20.6183 132.058 20.5104C132.384 20.3944 132.738 20.3817 133.072 20.4743C133.151 20.499 133.868 20.7474 133.933 21.33C133.998 21.9128 133.354 22.3191 133.253 22.3801C133.011 22.5262 132.737 22.6077 132.456 22.6167C132.174 22.6257 131.895 22.562 131.645 22.4315C131.275 22.2387 130.734 21.7646 130.828 21.2957Z" fill="#1E1D22"/>
<path d="M28.061 29.1253H21.0921C21.0005 29.1253 20.9126 29.0886 20.8478 29.0233C20.783 28.958 20.7466 28.8694 20.7466 28.777V19.9045C20.7466 19.8121 20.783 19.7235 20.8478 19.6582C20.9126 19.5929 21.0005 19.5562 21.0921 19.5562H30.7528C30.8444 19.5562 30.9323 19.5929 30.9971 19.6582C31.0619 19.7235 31.0983 19.8121 31.0983 19.9045V26.3602L28.061 29.1253Z" fill="#FFE3CB"/>
<path d="M31.0981 26.371H28.0611V29.1251L31.0981 26.371Z" fill="#FECA9C"/>
<path d="M27.3007 18.6602H24.1977C24.0069 18.6602 23.8521 18.8161 23.8521 19.0085V20.1926C23.8521 20.3849 24.0069 20.5409 24.1977 20.5409H27.3007C27.4916 20.5409 27.6463 20.3849 27.6463 20.1926V19.0085C27.6463 18.8161 27.4916 18.6602 27.3007 18.6602Z" fill="#FECA9C"/>
<path d="M28.3374 22.8115H23.4859V23.1598H28.3374V22.8115Z" fill="#FECA9C"/>
<path d="M28.3374 24.9011H23.4859V25.2494H28.3374V24.9011Z" fill="#FECA9C"/>
<path d="M9.56761 83.6739C10.401 84.3266 11.8692 85.8765 11.9088 87.0389C11.9088 87.0389 14.6072 84.0818 13.84 81.5529C13.3856 80.6078 12.6316 79.8424 11.6972 79.3775C11.6972 79.3775 12.7553 78.7793 13.8664 80.2477C13.8664 80.2477 13.4696 76.2777 7.98044 77.7188C7.98044 77.7188 5.83763 73.3137 1.59182 77.4741C1.59182 77.4741 4.44883 77.107 3.8933 78.0043C2.85902 78.2974 1.89098 78.7899 1.04286 79.4546C0.758391 79.7085 0.527049 80.017 0.362381 80.3622C0.197712 80.7073 0.103029 81.0821 0.0838765 81.4645C0.0177866 82.5386 -0.0836117 84.6641 0.123615 84.6936C0.40133 84.7344 2.22671 83.0621 3.45683 83.1845C4.68696 83.3068 0.639431 86.9777 0.639431 86.9777C0.639431 86.9777 1.47279 90.1592 1.82995 90.1184C2.18699 90.0776 3.48331 89.1667 2.95415 90.1184L2.04155 90.8526L3.23197 92.5113L6.22128 91.1789C6.22128 91.1789 4.89858 87.5352 6.11547 88.5277C6.11547 88.5277 7.04129 89.765 7.05453 90.6895C7.05453 90.6895 11.0557 88.9356 10.6589 87.7323C10.2269 86.6158 9.7217 85.5295 9.14665 84.4806C9.05022 84.3033 8.99377 84.1068 8.98131 83.905C8.96807 83.5991 9.04738 83.266 9.56761 83.6739ZM9.07602 79.4501C9.45082 79.1895 10.3723 79.3571 10.7184 80.2069C11.0888 81.1156 11.0733 82.1285 10.6986 82.389C10.3238 82.6497 9.25902 82.3098 8.99228 81.4305C8.6969 80.4516 8.7013 79.7106 9.07602 79.4501Z" fill="#8B9D36"/>
<path d="M7.98041 77.7188C7.5537 78.2081 7.15922 78.7251 6.7995 79.2663C6.45937 79.8166 6.1788 80.4021 5.96259 81.0127C5.74809 81.6251 5.56413 82.2479 5.41139 82.8788C5.25174 83.5113 5.09925 84.143 4.97211 84.781C4.83741 85.4172 4.7197 86.0576 4.62331 86.7006C4.52406 87.3437 4.46695 87.9905 4.38855 88.6408C4.23647 89.9471 3.84991 91.2146 3.24776 92.3814C3.50443 91.7831 3.71624 91.1663 3.88141 90.5362C4.05269 89.9103 4.16547 89.2696 4.21827 88.6225C4.31351 87.3165 4.49261 86.018 4.75443 84.7352C4.88899 84.0944 5.04936 83.4587 5.21564 82.8276C5.37226 82.1903 5.56857 81.5636 5.80342 80.9512C6.04176 80.338 6.34549 79.7526 6.70927 79.2055C7.09504 78.6782 7.51998 78.1812 7.98041 77.7188Z" fill="#5E7C24"/>
<path d="M6.4222 79.7915C5.98568 79.8843 5.55641 80.0088 5.13779 80.1643C4.72034 80.3172 4.30773 80.483 3.90729 80.6771C3.09519 81.0425 2.32491 81.492 1.53889 81.9336C1.7105 81.787 1.88965 81.6499 2.06732 81.5097C2.25332 81.3825 2.43647 81.2496 2.62687 81.1279C3.00977 80.8866 3.40631 80.668 3.81446 80.4733C4.22694 80.286 4.6519 80.128 5.08623 80.0005C5.52018 79.8705 5.96957 79.8002 6.4222 79.7915Z" fill="#5E7C24"/>
<path d="M4.61372 86.0997C4.3063 86.3399 3.98627 86.5366 3.67374 86.7417C3.51713 86.843 3.36417 86.9476 3.21487 87.0556C3.06086 87.1586 2.93122 87.2945 2.83511 87.4536C2.85621 87.2509 2.95001 87.0631 3.0989 86.9252C3.23628 86.7849 3.38852 86.6603 3.55289 86.5535C3.87707 86.3402 4.23625 86.1865 4.61372 86.0997Z" fill="#5E7C24"/>
<path d="M5.22659 83.1943C5.58887 83.5363 5.92677 83.9037 6.23777 84.2936C6.5511 84.6828 6.84166 85.0901 7.10797 85.5135C7.37284 85.9401 7.60014 86.3893 7.78726 86.856C7.98036 87.3216 8.0862 87.8193 8.09945 88.3238C8.00293 87.8388 7.8451 87.3684 7.62984 86.9239C7.42287 86.4772 7.18542 86.0455 6.91919 85.6319C6.6697 85.2067 6.38547 84.8026 6.10207 84.3976C5.81772 83.9929 5.5241 83.5939 5.22659 83.1943Z" fill="#5E7C24"/>
<path d="M1.56535 95.9375L2.67641 96.9708C2.67641 96.9708 3.76102 95.8152 3.88006 96.6173C3.88006 96.6173 3.70811 97.4195 3.49648 97.4875C3.49648 97.4875 6.1551 99.6425 6.69079 97.8682C6.90614 97.0745 7.178 96.2975 7.50425 95.5433C7.50425 95.5433 8.09946 95.8696 7.58361 98.4392C7.58361 98.4392 9.64115 97.8298 10.4052 96.7119C10.493 96.5799 10.5398 96.4246 10.5396 96.2658C10.547 95.6266 10.6306 93.8278 11.3533 94.5032C11.3533 94.5032 11.77 94.7071 11.4525 96.0735C11.4525 96.0735 13.127 94.1709 12.3316 93.0015C12.1745 92.7824 11.9468 92.625 11.6875 92.556C11.4281 92.487 11.153 92.5108 10.9091 92.6232C10.4441 92.8266 9.58125 93.2013 7.98044 93.8913C5.9195 94.7991 3.76921 95.485 1.56535 95.9375Z" fill="#8B9D36"/>
<path d="M5.22659 97.5147C5.32954 96.9268 5.51364 96.3564 5.77354 95.8201C5.90179 95.5478 6.05933 95.2905 6.24331 95.0529C6.33706 94.9321 6.44548 94.8237 6.56602 94.7302C6.68562 94.6324 6.83472 94.5787 6.9887 94.5779C6.72604 94.6926 6.51197 94.8971 6.38422 95.1553C6.2333 95.4018 6.09615 95.6566 5.97344 95.9185C5.71801 96.442 5.4905 96.9811 5.22659 97.5147Z" fill="#5E7C24"/>
<path d="M8.84017 96.6717C8.80982 96.1453 8.8573 95.6172 8.98103 95.1049C9.04272 94.8463 9.12974 94.5944 9.24079 94.3532C9.34294 94.1009 9.52852 93.8921 9.76605 93.7621C9.5943 93.9493 9.46921 94.175 9.40115 94.4205C9.3236 94.6623 9.25698 94.9084 9.19728 95.1577C9.07683 95.657 8.97686 96.1628 8.84017 96.6717Z" fill="#5E7C24"/>
<path d="M27.3315 78.1482C27.3315 78.1482 24.6596 78.5346 27.0405 80.438C27.0405 80.438 27.6489 80.9547 29.6329 81.5529C29.6329 81.5529 30.8763 76.103 27.3315 78.1482Z" fill="#5E7C24"/>
<path d="M29.633 81.5529C29.5835 81.3744 29.5511 81.1956 29.5065 81.02C29.4509 80.8471 29.4107 80.6712 29.3499 80.5027C29.2354 80.1657 29.0856 79.8419 28.9031 79.5369C28.7171 79.2365 28.4904 78.9638 28.2295 78.7267C27.9644 78.4845 27.6608 78.289 27.3315 78.1482C27.6982 78.2098 28.0441 78.3618 28.3387 78.5905C28.638 78.8176 28.8934 79.0983 29.092 79.4185C29.2838 79.7401 29.4267 80.0889 29.5158 80.4531C29.5643 80.6326 29.5825 80.8188 29.6133 81.0004C29.6223 81.1857 29.6334 81.3696 29.633 81.5529Z" fill="#50661A"/>
<path d="M23.9406 67.1373C23.9406 67.1373 26.9028 65.2352 27.79 69.4587C27.79 69.4587 26.2527 68.125 26.2324 68.8965C26.7303 69.4842 27.1091 70.1645 27.3474 70.899C27.4855 71.4463 27.4088 72.0262 27.1332 72.5179C26.7566 73.2085 25.9959 74.5652 25.8622 74.5037C25.6832 74.4215 25.2568 72.6779 24.4866 72.2776C23.7163 71.8773 24.6761 75.7204 24.6761 75.7204C24.6761 75.7204 22.9565 77.3706 22.7624 77.2071C22.5683 77.0435 22.1583 75.9774 22.1015 76.7721L22.3542 77.5804L21.0134 78.1481L19.7716 76.1647C19.7716 76.1647 21.9574 74.4173 20.8586 74.5617C20.8586 74.5617 19.8362 74.9705 19.471 75.5387C19.471 75.5387 17.7974 72.9022 18.4957 72.3097C19.1778 71.7875 19.8928 71.3104 20.6362 70.8814C20.7861 70.7955 20.9116 70.6722 21.0004 70.5232C21.0989 70.3522 21.1181 70.1699 20.7058 70.2155C19.9638 70.2976 18.5018 70.6904 18.0291 71.3959C18.0291 71.3959 17.5863 68.5176 19.0147 67.2465C19.637 66.8404 20.3769 66.6574 21.115 66.7271C21.115 66.7271 20.7243 65.9465 19.5037 66.4269C19.5037 66.4269 21.2715 64.1187 23.9406 67.1373Z" fill="#5E7C24"/>
<path d="M25.268 71.8656C25.0263 71.2717 24.7995 70.6832 24.5237 70.122C24.3884 69.8436 24.2279 69.5784 24.0445 69.3296C23.8721 69.0701 23.6083 68.8865 23.3066 68.8158C23.4719 68.8105 23.6361 68.8436 23.7867 68.9126C23.9372 68.9816 24.0699 69.0846 24.1746 69.2136C24.3944 69.4553 24.579 69.7273 24.7227 70.0215C25.0055 70.6011 25.1899 71.2245 25.268 71.8656Z" fill="#50661A"/>
<path d="M19.1836 73.2865C19.3346 72.9569 19.5248 72.6469 19.7499 72.3635C19.9721 72.0735 20.2304 71.8134 20.5182 71.5896C20.8075 71.3589 21.1388 71.1875 21.4935 71.0851C21.849 70.99 22.2245 71.0023 22.5732 71.1203C22.2251 71.0902 21.8747 71.1351 21.5453 71.2522C21.2239 71.3777 20.9232 71.5516 20.6535 71.7678C20.3765 71.982 20.118 72.2194 19.8808 72.4776C19.641 72.7363 19.4053 73.0029 19.1836 73.2865Z" fill="#50661A"/>
<path d="M21.9613 67.5218C22.0704 67.3748 22.2075 67.2512 22.3645 67.1582C22.5216 67.0653 22.6954 67.0047 22.8759 66.9802C23.0571 66.9517 23.2411 66.9468 23.4235 66.9655C23.6052 66.9863 23.7848 67.0235 23.96 67.0767L24.0251 67.0951L23.9985 67.1628C23.6524 68.0438 23.3585 68.9487 23.0681 69.8516C22.784 70.7573 22.5281 71.6717 22.2775 72.5875C22.0365 73.506 21.811 74.4287 21.6009 75.3557C21.3896 76.2824 21.2036 77.2148 21.0134 78.1482C21.1296 77.203 21.2693 76.2596 21.4524 75.3243C21.619 74.3854 21.845 73.4588 22.0744 72.5336C22.3058 71.6086 22.5806 70.6951 22.8765 69.789C23.1706 68.8819 23.5 67.9877 23.8826 67.1119L23.9211 67.1979L23.6683 67.122C23.5823 67.1056 23.4968 67.084 23.4103 67.0696C23.2369 67.0414 23.0606 67.0357 22.8858 67.0525C22.529 67.0826 22.1977 67.2508 21.9613 67.5218Z" fill="#50661A"/>
<path d="M22.8771 75.6864C22.791 75.3607 22.6721 75.0448 22.5223 74.7435C22.4523 74.6081 22.3474 74.4943 22.2187 74.4139C22.0699 74.3469 21.9075 74.3164 21.7447 74.3249C21.8254 74.2769 21.9149 74.2457 22.0078 74.2332C22.1007 74.2207 22.1951 74.2272 22.2855 74.2522C22.4694 74.3216 22.6219 74.4562 22.7145 74.6307C22.8884 74.953 22.9459 75.3261 22.8771 75.6864Z" fill="#50661A"/>
<path d="M12.9934 97.5147C12.9934 97.5147 12.4668 95.6826 11.1301 96.7184C10.6757 97.0823 10.3506 97.5849 10.2037 98.1508C9.96263 99.0276 9.75424 100.617 10.348 102.872C10.348 102.872 11.7165 100.963 12.7289 100.288C13.8706 99.5269 14.6071 97.7866 12.9934 97.5147Z" fill="#C4CE6E"/>
<path d="M12.9934 97.5146C12.7924 97.6643 12.617 97.8462 12.4742 98.053C12.3231 98.252 12.1863 98.4617 12.0648 98.6804C11.8173 99.1164 11.5973 99.5676 11.4059 100.031C11.204 100.492 11.0299 100.965 10.857 101.439L10.3481 102.872C10.3915 102.621 10.449 102.373 10.4993 102.123C10.5574 101.876 10.6296 101.632 10.6943 101.385C10.8348 100.896 11.0127 100.417 11.2016 99.9429C11.4046 99.4729 11.645 99.0201 11.9204 98.589C12.1828 98.1457 12.5518 97.7762 12.9934 97.5146Z" fill="#8B9D36"/>
<path d="M14.9228 72.065C14.9228 72.065 14.9674 70.1552 13.3862 70.7203C12.8453 70.9236 12.3856 71.3002 12.0776 71.7923C11.5868 72.5511 10.915 73.9981 10.8084 76.3316C10.8084 76.3316 12.6796 74.946 13.8445 74.6221C15.1583 74.2567 16.3779 72.8319 14.9228 72.065Z" fill="#8B9D36"/>
<path d="M14.9228 72.065C14.6869 72.1441 14.4656 72.2619 14.2679 72.4138C14.0646 72.5557 13.8717 72.7123 13.6908 72.8822C13.3251 73.2195 12.9811 73.5799 12.6608 73.9611C12.3314 74.336 12.0248 74.7313 11.7191 75.1285L10.8084 76.3317C10.9243 76.107 11.0527 75.8898 11.1749 75.668C11.3039 75.4507 11.4453 75.2415 11.5803 75.0274C11.864 74.6078 12.1686 74.2029 12.4928 73.8142C12.8262 73.4305 13.1901 73.0749 13.5809 72.7509C13.9631 72.411 14.4249 72.175 14.9228 72.065Z" fill="#5E7C24"/>
<path d="M26.8562 97.5147C26.8562 97.5147 27.3828 95.6826 28.7196 96.7184C29.174 97.0823 29.499 97.5849 29.6459 98.1508C29.887 99.0276 30.0954 100.617 29.5016 102.872C29.5016 102.872 28.1331 100.963 27.1208 100.288C25.979 99.5269 25.2425 97.7866 26.8562 97.5147Z" fill="#8B9D36"/>
<path d="M26.8562 97.5146C27.2978 97.7762 27.6669 98.1457 27.9293 98.5891C28.2047 99.0201 28.445 99.4729 28.6481 99.9429C28.8409 100.415 29.0102 100.896 29.1553 101.385C29.22 101.632 29.2923 101.876 29.3504 102.123C29.4006 102.373 29.4581 102.621 29.5016 102.872L28.9927 101.439C28.8198 100.965 28.6457 100.492 28.4438 100.031C28.2524 99.5676 28.0323 99.1164 27.7848 98.6804C27.6633 98.4617 27.5265 98.252 27.3754 98.053C27.2326 97.8462 27.0572 97.6643 26.8562 97.5146Z" fill="#5E7C24"/>
<path d="M27.3315 78.1482C27.3315 78.1482 20.6757 72.4163 18.9509 105.903" stroke="#50661A" stroke-width="0.64428" stroke-miterlimit="10"/>
<path d="M21.0134 78.1481C21.0134 78.1481 17.7022 100.234 19.6863 105.903" stroke="#50661A" stroke-width="0.64428" stroke-miterlimit="10"/>
<path d="M18.4239 105.903C18.4239 105.903 15.9632 95.9508 12.9934 97.5146" stroke="#50661A" stroke-width="0.64428" stroke-miterlimit="10"/>
<path d="M18.7776 102.935C18.7776 102.935 20.9221 65.9589 14.9228 72.065" stroke="#50661A" stroke-width="0.64428" stroke-miterlimit="10"/>
<path d="M21.4257 105.903C21.4257 105.903 23.8864 95.9508 26.8562 97.5146" stroke="#50661A" stroke-width="0.64428" stroke-miterlimit="10"/>
<path d="M12.1448 92.7928C12.1448 92.7928 16.8028 91.6412 19.3424 105.672" stroke="#50661A" stroke-width="0.64428" stroke-miterlimit="10"/>
<path d="M13.6793 84.0988C13.6793 84.0988 15.0288 85.0063 20.1352 105.672" stroke="#50661A" stroke-width="0.64428" stroke-miterlimit="10"/>
<path d="M26.4345 88.7875C26.4345 88.7875 21.3908 96.8348 20.9221 105.903" stroke="#50661A" stroke-width="0.64428" stroke-miterlimit="10"/>
<path d="M13.0199 103.528V105.39C13.0182 105.561 13.0841 105.726 13.203 105.848C13.3218 105.97 13.484 106.04 13.6538 106.042H26.3537C26.5235 106.04 26.6856 105.97 26.8045 105.848C26.9234 105.726 26.9892 105.561 26.9876 105.39V103.674C26.9892 103.504 26.9243 103.341 26.8069 103.219C26.6896 103.097 26.5293 103.026 26.3608 103.023L13.6608 102.877C13.5762 102.876 13.4923 102.893 13.4142 102.926C13.336 102.959 13.265 103.007 13.2054 103.067C13.1458 103.128 13.0987 103.2 13.0669 103.279C13.035 103.358 13.019 103.443 13.0199 103.528Z" fill="#D6694B"/>
<path d="M13.6261 106.042L14.0777 115.652H25.6308L26.3814 106.042H13.6261Z" fill="#E19974"/>
<path d="M24.3554 88.2399C24.373 87.3629 26.1719 88.9537 26.1719 88.9537C25.1005 84.1067 21.6769 86.1279 21.6769 86.1279C18.5465 82.5658 16.514 85.106 16.514 85.106C17.927 84.6188 18.3879 85.5252 18.3879 85.5252C17.5443 85.4057 16.6854 85.5782 15.9518 86.0146C14.3051 87.3924 14.8453 90.6872 14.8453 90.6872C15.3876 89.9077 17.085 89.5315 17.9447 89.4726C18.4848 89.4363 18.39 89.7038 18.2446 89.9077C18.147 90.0398 18.0212 90.1483 17.8764 90.2249C17.0167 90.6766 16.1882 91.1861 15.3964 91.7499C14.5895 92.3889 16.5603 95.4685 16.5603 95.4685C16.9791 94.8408 18.163 94.4238 18.163 94.4238C19.4394 94.3128 16.9152 96.1958 16.9152 96.1958L18.3768 98.5117L19.931 97.9293L19.6289 96.998C19.6885 96.0962 20.1735 97.3289 20.4005 97.5237C20.6275 97.7209 22.6116 95.9262 22.6116 95.9262C22.6116 95.9262 21.4609 91.5075 22.3581 92.0014C23.2575 92.4931 23.7689 94.4963 23.9784 94.5983C24.1349 94.6753 25.0057 93.1684 25.4378 92.4003C25.5943 92.126 25.6955 91.8232 25.7356 91.5094C25.7757 91.1956 25.7539 90.8769 25.6715 90.5716C25.3828 89.7175 24.9362 88.9264 24.3554 88.2399ZM19.3357 88.2036C18.7625 88.6817 17.8808 88.4166 17.7397 88.0609C17.5964 87.7074 18.0351 87.0026 18.692 86.554C19.3071 86.1325 20.0147 86.4475 20.1559 86.8032C20.2991 87.1567 19.9729 87.6689 19.3357 88.2036Z" fill="#5E7C24"/>
<path d="M21.6764 86.1279C21.7905 86.6561 21.8651 87.1922 21.8996 87.7317C21.9102 88.2756 21.8622 88.819 21.7565 89.3525C21.6489 89.8836 21.507 90.4072 21.332 90.9198C21.1666 91.4319 20.9954 91.9449 20.8039 92.4499C20.4137 93.4563 19.9578 94.4357 19.4393 95.3816C19.1862 95.8515 18.9776 96.3443 18.8161 96.8536C18.6476 97.3635 18.5165 97.8851 18.4239 98.4142C18.5193 97.3327 18.8117 96.2781 19.2866 95.3035C19.779 94.3515 20.2163 93.3718 20.5966 92.369C20.7927 91.8706 20.9685 91.365 21.1401 90.8555C21.3129 90.3474 21.4682 89.8362 21.5897 89.3172C21.7126 88.798 21.7801 88.267 21.7911 87.7333C21.786 87.1963 21.7477 86.6601 21.6764 86.1279Z" fill="#50661A"/>
<path d="M21.8273 88.2813C22.1408 88.4941 22.4232 88.75 22.6664 89.0416C22.9126 89.33 23.1358 89.6377 23.3338 89.9616C23.5305 90.2854 23.7051 90.6224 23.8563 90.9701C24.0076 91.3169 24.1328 91.6747 24.2307 92.0405L23.7004 91.0473C23.5198 90.7208 23.3408 90.3947 23.1444 90.0794C22.9514 89.7622 22.747 89.4525 22.5311 89.1504C22.3152 88.8458 22.0801 88.5555 21.8273 88.2813Z" fill="#50661A"/>
<path d="M20.2717 93.4606C20.5039 93.6881 20.6892 93.9596 20.8171 94.2595C20.8828 94.4105 20.931 94.5686 20.9606 94.7308C20.9999 94.8978 20.9757 95.0737 20.8926 95.2236C20.8895 95.069 20.8556 94.9167 20.7927 94.7757C20.7352 94.6335 20.6759 94.4914 20.6132 94.3493C20.4805 94.0608 20.3664 93.764 20.2717 93.4606Z" fill="#50661A"/>
<path d="M21.1393 91.1783L20.0093 91.6092C19.6362 91.7568 19.2647 91.9066 18.9033 92.0763C18.5392 92.238 18.1852 92.4218 17.8431 92.6266C17.4973 92.8286 17.1777 93.073 16.8917 93.3545C17.1179 93.0098 17.4086 92.7129 17.7476 92.4804C18.0812 92.2425 18.4376 92.0388 18.8113 91.8721C19.5515 91.5329 20.335 91.2994 21.1393 91.1783Z" fill="#50661A"/>
<path d="M32.3381 82.7607C32.3381 82.7607 34.9187 78.8755 38.1461 83.4636C38.1461 83.4636 35.6185 82.695 35.9891 83.6318C36.8877 84.0676 37.6912 84.6794 38.3527 85.4314C38.7998 86.0175 39.0047 86.7552 38.9246 87.4901C38.8264 88.5226 38.6082 90.5622 38.4163 90.5608C38.1594 90.559 36.7549 88.6974 35.6255 88.6338C34.4962 88.5702 37.616 92.6626 37.616 92.6626C37.616 92.6626 36.3976 95.5733 36.0809 95.4821C35.7642 95.3909 34.7262 94.3333 35.065 95.3177L35.7822 96.151L34.464 97.5577L31.958 95.8496C31.958 95.8496 33.6863 92.5699 32.4416 93.3377C32.4416 93.3377 31.424 94.3815 31.2767 95.2609C31.2767 95.2609 27.9182 93.0026 28.4528 91.9138C29.0029 90.9197 29.6154 89.962 30.2865 89.0465C30.4218 88.8638 30.5097 88.65 30.5424 88.4245C30.5759 88.162 30.5098 87.9236 30.0326 88.2049C29.1842 88.7049 27.6309 89.9673 27.4249 91.0696C27.4249 91.0696 25.4196 87.8553 26.4828 85.557C27.0199 84.7348 27.8129 84.1158 28.7372 83.7973C28.7372 83.7973 27.8686 83.072 26.6499 84.3089C26.6499 84.3089 27.5893 80.5825 32.3381 82.7607Z" fill="#C4CE6E"/>
<path d="M32.3381 82.7607C32.7892 83.9309 33.162 85.1302 33.4542 86.3505C33.757 87.5686 33.9913 88.8037 34.1748 90.046C34.3531 91.2893 34.4686 92.5409 34.5208 93.796C34.5745 95.05 34.5555 96.306 34.464 97.5578C34.4542 96.3039 34.4479 95.0526 34.3498 93.8054C34.2714 92.5578 34.1397 91.3154 33.9547 90.0783C33.7905 88.8393 33.5541 87.6111 33.2883 86.3899C33.0209 85.1689 32.7125 83.9559 32.3381 82.7607Z" fill="#8B9D36"/>
<path d="M32.9822 84.8288C32.7734 85.0906 32.5868 85.3696 32.4245 85.6629C32.2624 85.9528 32.1162 86.2515 31.9867 86.5575C31.8566 86.8633 31.7435 87.1767 31.6387 87.4945C31.5349 87.8128 31.4421 88.1358 31.3435 88.4626C31.3538 88.121 31.3965 87.7812 31.4712 87.4479C31.5458 87.113 31.6499 86.7855 31.7821 86.4693C31.917 86.1531 32.0833 85.8514 32.2786 85.5691C32.4703 85.2844 32.7082 85.0341 32.9822 84.8288Z" fill="#8B9D36"/>
<path d="M34.0559 89.9749C34.3977 90.0524 34.7199 90.2001 35.0026 90.4087C35.2852 90.6173 35.5221 90.8824 35.6986 91.1875C35.8166 91.3893 35.9004 91.6097 35.9465 91.8394C35.7101 91.4593 35.4302 91.1087 35.1125 90.7946C34.79 90.4845 34.4359 90.2098 34.0559 89.9749Z" fill="#8B9D36"/>
<path d="M166.549 116H10.3607C10.269 116 10.1811 115.963 10.1163 115.898C10.0515 115.833 10.0151 115.744 10.0151 115.652C10.0151 115.559 10.0515 115.471 10.1163 115.405C10.1811 115.34 10.269 115.303 10.3607 115.303H166.549C166.641 115.303 166.729 115.34 166.794 115.405C166.859 115.471 166.895 115.559 166.895 115.652C166.895 115.744 166.859 115.833 166.794 115.898C166.729 115.963 166.641 116 166.549 116Z" fill="#935B50"/>
</g>
<defs>
<clipPath id="clip0_2_633">
<rect width="173" height="116" fill="white"/>
</clipPath>
</defs>
</svg>
