<svg width="205" height="306" viewBox="0 0 205 306" fill="none" xmlns="http://www.w3.org/2000/svg">
<path d="M12.9463 25.8923C20.0963 25.8923 25.8922 20.0961 25.8922 12.9462C25.8922 5.79619 20.0963 0 12.9463 0C5.79638 0 0 5.79619 0 12.9462C0 20.0961 5.79638 25.8923 12.9463 25.8923Z" fill="#B76FEF"/>
<path d="M69.5374 25.8923C76.6874 25.8923 82.4838 20.0961 82.4838 12.9462C82.4838 5.79619 76.6874 0 69.5374 0C62.3875 0 56.5916 5.79619 56.5916 12.9462C56.5916 20.0961 62.3875 25.8923 69.5374 25.8923Z" fill="#B76FEF"/>
<path d="M126.127 25.8923C133.277 25.8923 139.073 20.0961 139.073 12.9462C139.073 5.79619 133.277 0 126.127 0C118.977 0 113.18 5.79619 113.18 12.9462C113.18 20.0961 118.977 25.8923 126.127 25.8923Z" fill="#B76FEF"/>
<path d="M182.815 25.8923C189.965 25.8923 195.761 20.0961 195.761 12.9462C195.761 5.79619 189.965 0 182.815 0C175.665 0 169.869 5.79619 169.869 12.9462C169.869 20.0961 175.665 25.8923 182.815 25.8923Z" fill="#B76FEF"/>
<path d="M12.9463 72.5769C20.0963 72.5769 25.8922 66.7807 25.8922 59.6307C25.8922 52.4808 20.0963 46.6846 12.9463 46.6846C5.79638 46.6846 0 52.4808 0 59.6307C0 66.7807 5.79638 72.5769 12.9463 72.5769Z" fill="#B76FEF"/>
<path d="M69.5374 72.5769C76.6874 72.5769 82.4838 66.7808 82.4838 59.6308C82.4838 52.4808 76.6874 46.6846 69.5374 46.6846C62.3875 46.6846 56.5916 52.4808 56.5916 59.6308C56.5916 66.7808 62.3875 72.5769 69.5374 72.5769Z" fill="#B76FEF"/>
<path d="M126.127 72.5769C133.277 72.5769 139.073 66.7808 139.073 59.6308C139.073 52.4808 133.277 46.6846 126.127 46.6846C118.977 46.6846 113.18 52.4808 113.18 59.6308C113.18 66.7808 118.977 72.5769 126.127 72.5769Z" fill="#B76FEF"/>
<path d="M182.815 72.5769C189.965 72.5769 195.761 66.7808 195.761 59.6308C195.761 52.4808 189.965 46.6846 182.815 46.6846C175.665 46.6846 169.869 52.4808 169.869 59.6308C169.869 66.7808 175.665 72.5769 182.815 72.5769Z" fill="#B76FEF"/>
<path d="M12.9463 119.262C20.0963 119.262 25.8922 113.465 25.8922 106.316C25.8922 99.1656 20.0963 93.3694 12.9463 93.3694C5.79638 93.3694 0 99.1656 0 106.316C0 113.465 5.79638 119.262 12.9463 119.262Z" fill="#B76FEF"/>
<path d="M69.5374 119.262C76.6874 119.262 82.4838 113.466 82.4838 106.316C82.4838 99.1656 76.6874 93.3694 69.5374 93.3694C62.3875 93.3694 56.5916 99.1656 56.5916 106.316C56.5916 113.466 62.3875 119.262 69.5374 119.262Z" fill="#B76FEF"/>
<path d="M126.127 119.262C133.277 119.262 139.073 113.466 139.073 106.316C139.073 99.1656 133.277 93.3694 126.127 93.3694C118.977 93.3694 113.18 99.1656 113.18 106.316C113.18 113.466 118.977 119.262 126.127 119.262Z" fill="#B76FEF"/>
<path d="M182.815 119.262C189.965 119.262 195.761 113.466 195.761 106.316C195.761 99.1656 189.965 93.3694 182.815 93.3694C175.665 93.3694 169.869 99.1656 169.869 106.316C169.869 113.466 175.665 119.262 182.815 119.262Z" fill="#B76FEF"/>
<path d="M12.9463 165.946C20.0963 165.946 25.8922 160.15 25.8922 153C25.8922 145.85 20.0963 140.054 12.9463 140.054C5.79638 140.054 0 145.85 0 153C0 160.15 5.79638 165.946 12.9463 165.946Z" fill="#B76FEF"/>
<path d="M69.5374 165.946C76.6874 165.946 82.4838 160.15 82.4838 153C82.4838 145.85 76.6874 140.054 69.5374 140.054C62.3875 140.054 56.5916 145.85 56.5916 153C56.5916 160.15 62.3875 165.946 69.5374 165.946Z" fill="#B76FEF"/>
<path d="M126.127 165.946C133.277 165.946 139.073 160.15 139.073 153C139.073 145.85 133.277 140.054 126.127 140.054C118.977 140.054 113.18 145.85 113.18 153C113.18 160.15 118.977 165.946 126.127 165.946Z" fill="#B76FEF"/>
<path d="M182.815 165.946C189.965 165.946 195.761 160.15 195.761 153C195.761 145.85 189.965 140.054 182.815 140.054C175.665 140.054 169.869 145.85 169.869 153C169.869 160.15 175.665 165.946 182.815 165.946Z" fill="#B76FEF"/>
<path d="M12.9463 212.631C20.0963 212.631 25.8922 206.835 25.8922 199.685C25.8922 192.535 20.0963 186.739 12.9463 186.739C5.79638 186.739 0 192.535 0 199.685C0 206.835 5.79638 212.631 12.9463 212.631Z" fill="#B76FEF"/>
<path d="M69.5374 212.631C76.6874 212.631 82.4838 206.835 82.4838 199.685C82.4838 192.535 76.6874 186.738 69.5374 186.738C62.3875 186.738 56.5916 192.535 56.5916 199.685C56.5916 206.835 62.3875 212.631 69.5374 212.631Z" fill="#B76FEF"/>
<path d="M126.127 212.631C133.277 212.631 139.073 206.835 139.073 199.685C139.073 192.535 133.277 186.738 126.127 186.738C118.977 186.738 113.18 192.535 113.18 199.685C113.18 206.835 118.977 212.631 126.127 212.631Z" fill="#B76FEF"/>
<path d="M182.815 212.631C189.965 212.631 195.761 206.835 195.761 199.685C195.761 192.535 189.965 186.738 182.815 186.738C175.665 186.738 169.869 192.535 169.869 199.685C169.869 206.835 175.665 212.631 182.815 212.631Z" fill="#B76FEF"/>
<path d="M12.9463 259.315C20.0963 259.315 25.8922 253.519 25.8922 246.369C25.8922 239.219 20.0963 233.423 12.9463 233.423C5.79638 233.423 0 239.219 0 246.369C0 253.519 5.79638 259.315 12.9463 259.315Z" fill="#B76FEF"/>
<path d="M69.5374 259.315C76.6874 259.315 82.4838 253.519 82.4838 246.369C82.4838 239.219 76.6874 233.423 69.5374 233.423C62.3875 233.423 56.5916 239.219 56.5916 246.369C56.5916 253.519 62.3875 259.315 69.5374 259.315Z" fill="#B76FEF"/>
<path d="M126.127 259.315C133.277 259.315 139.073 253.519 139.073 246.369C139.073 239.219 133.277 233.423 126.127 233.423C118.977 233.423 113.18 239.219 113.18 246.369C113.18 253.519 118.977 259.315 126.127 259.315Z" fill="#B76FEF"/>
<path d="M182.815 259.315C189.965 259.315 195.761 253.519 195.761 246.369C195.761 239.219 189.965 233.423 182.815 233.423C175.665 233.423 169.869 239.219 169.869 246.369C169.869 253.519 175.665 259.315 182.815 259.315Z" fill="#B76FEF"/>
<path d="M12.9463 306C20.0963 306 25.8922 300.204 25.8922 293.054C25.8922 285.904 20.0963 280.108 12.9463 280.108C5.79638 280.108 0 285.904 0 293.054C0 300.204 5.79638 306 12.9463 306Z" fill="#B76FEF"/>
<path d="M69.5374 306C76.6874 306 82.4838 300.204 82.4838 293.054C82.4838 285.904 76.6874 280.108 69.5374 280.108C62.3875 280.108 56.5916 285.904 56.5916 293.054C56.5916 300.204 62.3875 306 69.5374 306Z" fill="#B76FEF"/>
<path d="M126.127 306C133.277 306 139.073 300.204 139.073 293.054C139.073 285.904 133.277 280.108 126.127 280.108C118.977 280.108 113.18 285.904 113.18 293.054C113.18 300.204 118.977 306 126.127 306Z" fill="#B76FEF"/>
<path d="M182.815 306C189.965 306 195.761 300.204 195.761 293.054C195.761 285.904 189.965 280.108 182.815 280.108C175.665 280.108 169.869 285.904 169.869 293.054C169.869 300.204 175.665 306 182.815 306Z" fill="#B76FEF"/>
</svg>
