<svg width="30" height="30" viewBox="0 0 30 30" fill="none" xmlns="http://www.w3.org/2000/svg">
<path d="M15.0001 1.87244C7.7614 1.87244 1.87268 7.76134 1.87268 14.9998C1.87268 22.2385 7.7614 28.1276 15.0001 28.1276C22.2384 28.1276 28.1276 22.2385 28.1276 14.9998C28.1276 7.76134 22.2384 1.87244 15.0001 1.87244ZM18.7103 10.1595C18.7103 10.2216 18.6856 10.2812 18.6417 10.3252C18.5977 10.3692 18.5381 10.3938 18.4759 10.3938L16.9837 10.3948C15.999 10.3948 15.819 10.7782 15.819 11.5334V13.0999H18.3784C18.4457 13.0999 18.5099 13.129 18.5542 13.1796C18.5985 13.2302 18.6191 13.2975 18.6109 13.3643L18.2465 16.1845C18.2392 16.241 18.2116 16.293 18.1688 16.3306C18.126 16.3682 18.071 16.3889 18.014 16.3889H15.819V23.3918C15.819 23.454 15.7943 23.5136 15.7504 23.5575C15.7064 23.6015 15.6468 23.6262 15.5847 23.6262H12.6728C12.6106 23.6262 12.551 23.6015 12.507 23.5575C12.4631 23.5136 12.4384 23.454 12.4384 23.3918V16.3889H10.2364C10.1743 16.3889 10.1146 16.3642 10.0707 16.3203C10.0267 16.2763 10.002 16.2167 10.002 16.1545V13.3343C10.002 13.2722 10.0267 13.2125 10.0707 13.1686C10.1146 13.1246 10.1743 13.0999 10.2364 13.0999H12.4384V11.2542C12.4384 8.8097 13.9178 7.29142 16.2997 7.29142C17.3237 7.29142 18.2287 7.36759 18.5066 7.40439C18.563 7.41183 18.6147 7.43949 18.6522 7.48222C18.6896 7.52494 18.7103 7.57983 18.7103 7.63665V10.1595Z" fill="#231F20"/>
</svg>
