<svg width="160" height="137" viewBox="0 0 160 137" fill="none" xmlns="http://www.w3.org/2000/svg">
<path d="M84.6147 77.713L84.6294 77.8413L67.6754 77.7989C66.512 77.769 65.3486 77.7516 64.1851 77.7167C64.16 77.7167 64.1326 77.7142 64.1074 77.7142C64.1326 77.7142 64.16 77.7117 64.1851 77.7117C65.3486 77.6744 66.512 77.657 67.6754 77.6271L84.6147 77.713Z" fill="black"/>
<path d="M108.651 77.7142L108.398 77.7217C107.291 77.7541 106.187 77.7715 105.083 77.7989L101.515 77.8462C99.136 77.8761 96.7588 77.8736 94.3794 77.8886C94.0731 77.8861 93.7646 77.8861 93.4583 77.8836C93.1794 77.8811 92.8983 77.8811 92.6171 77.8811C92.4548 77.8786 92.2903 77.8786 92.1257 77.8786C91.9657 77.8786 91.8057 77.8761 91.6457 77.8761C90.8137 77.8736 91.0674 77.8687 90.2354 77.8637L90.2537 77.5623C91.1977 77.5548 91.056 77.5523 92 77.5498C92.2377 77.5473 92.4731 77.5473 92.7086 77.5473C93.2663 77.5448 93.8217 77.5424 94.3794 77.5399C96.7589 77.5523 99.136 77.5498 101.515 77.5797L105.083 77.627C106.194 77.6544 107.305 77.6719 108.418 77.7068C108.496 77.7093 108.574 77.7117 108.651 77.7142Z" fill="black"/>
<path d="M43.8975 56.3147C43.3757 56.3112 42.8547 56.2692 42.3381 56.1889C42.3234 56.1867 42.3092 56.1814 42.2963 56.1734C42.0474 56.0165 40.7979 55.2152 40.6371 54.8647C40.4304 54.5951 40.1509 54.4036 39.8384 54.3176C39.2349 54.1028 38.2239 54.0116 36.8329 54.7939C36.8145 54.8042 36.7939 54.809 36.7733 54.8075C36.7526 54.8061 36.7327 54.7986 36.7156 54.7858C36.6986 54.7731 36.685 54.7555 36.6764 54.7349C36.6679 54.7144 36.6645 54.6917 36.6669 54.6693C36.6782 54.5596 36.9667 51.9807 38.8667 51.463C38.8877 51.4594 39.5434 51.3504 39.8987 49.9176C40.2807 48.3776 41.009 47.8699 41.541 47.4994L41.5999 47.4581C42.0862 47.1175 42.664 45.6541 42.7783 44.7397C42.9041 43.7351 44.3546 41.1192 47.0342 40.9044C49.3203 40.7217 52.3733 42.5018 52.7807 43.6006C52.8304 43.7085 52.8458 43.8315 52.8243 43.95C52.8027 44.0685 52.7456 44.1758 52.6619 44.255C51.2573 46.2598 49.5674 48.0069 47.6565 49.4302V53.2173C47.6812 53.5944 47.6307 53.9728 47.5086 54.3266C47.3864 54.6804 47.1954 55.0012 46.9488 55.267C46.3013 55.9644 45.2783 56.3147 43.8975 56.3147ZM42.3914 55.9454C44.4934 56.2561 45.9728 55.968 46.7881 55.0899C47.0099 54.8478 47.1817 54.5569 47.2922 54.2367C47.4027 53.9165 47.4493 53.5743 47.4288 53.2329L47.4279 49.364C47.4279 49.3436 47.4325 49.3236 47.4413 49.3056C47.45 49.2876 47.4627 49.2722 47.4782 49.2608C49.3917 47.846 51.0821 46.1026 52.4837 44.0983C52.4894 44.0894 52.4963 44.0813 52.504 44.0744C52.5554 44.0304 52.5904 43.9675 52.6023 43.8974C52.6142 43.8273 52.6023 43.7549 52.5688 43.6938C52.1931 42.6806 49.2118 40.9805 47.0509 41.153C44.5375 41.3544 43.1196 43.8563 43.0049 44.7733C42.8959 45.6446 42.3292 47.2433 41.7235 47.6678L41.6641 47.7091C41.1357 48.0774 40.4782 48.5357 40.1194 49.9828C39.7192 51.5963 38.9394 51.7041 38.9064 51.7077C37.4935 52.0938 37.0478 53.8277 36.9306 54.4633C38.2886 53.7603 39.2945 53.8625 39.9093 54.0807C40.2806 54.1841 40.6091 54.4211 40.8415 54.7532C40.9412 54.9705 41.8364 55.5939 42.3914 55.9454Z" fill="black"/>
<path d="M50.8998 77.555L50.8969 77.5575C50.8696 77.6095 50.8443 77.6607 50.8162 77.7131L50.8998 77.555Z" fill="black"/>
<path d="M58.1686 66.9342C57.8806 66.4957 57.7092 63.2899 57.7092 63.2899C57.3046 55.6877 52.3103 54.4522 52.3103 54.4522C52.2363 54.5499 52.1519 54.6377 52.0589 54.7137C51.0486 55.5307 49.06 55.1546 49.06 55.1546C49.06 55.1546 48.1389 55.4685 47.8212 56.8509C47.5034 58.2334 48.052 62.2537 47.3023 62.0345C46.5526 61.8153 44.8772 61.8427 44.7491 56.1883C44.7491 56.1883 44.7514 56.1684 44.7583 56.1335C43.9574 56.2223 43.1494 56.1997 42.3537 56.0663C42.3537 56.0663 40.8932 55.1446 40.74 54.8084C40.5846 54.4746 39.1629 53.3437 36.7811 54.6838C36.7811 54.6838 34.3606 54.9255 31.7937 57.9719C29.2269 61.0182 26.5183 66.8719 25.9423 78.0959L27.9354 78.736C27.9446 77.5653 28.0017 76.397 28.0886 75.2313C28.2048 73.6458 28.414 72.07 28.7149 70.5135C29.0326 68.9692 29.4234 67.4049 30.1709 66.0349C29.8597 66.749 29.6117 67.4938 29.4303 68.2593C29.236 69.019 29.0829 69.7912 28.9549 70.5658C28.7034 72.1202 28.5274 73.6894 28.4063 75.2612C28.2806 76.8355 28.212 78.4147 28.1869 79.994C28.1754 80.7836 28.1823 81.5732 28.2211 82.3628C28.2371 82.7564 28.2577 83.1499 28.3034 83.541C28.3246 83.7369 28.3551 83.9314 28.3949 84.1238C28.4138 84.2198 28.4398 84.3139 28.4726 84.4053C28.4918 84.4563 28.5147 84.5054 28.5411 84.5523L28.5526 84.5647C28.5765 84.5908 28.6034 84.6134 28.6326 84.632C28.6326 84.632 35.6131 81.6031 40.6234 78.9353C40.612 78.3101 40.6189 77.6874 40.6166 77.0671L40.5914 75.2014C40.548 73.9585 40.516 72.718 40.4131 71.4825C40.3309 70.247 40.1937 69.014 40.0063 67.791C39.9149 67.1807 39.8014 66.5737 39.6657 65.9701C39.5402 65.3641 39.3721 64.7695 39.1629 64.1916C39.6692 65.3164 40.0344 66.5102 40.2486 67.7411C40.3766 68.3514 40.4612 68.9717 40.5503 69.5894C40.6189 70.2097 40.692 70.8324 40.7331 71.4551C40.7834 72.0778 40.804 72.7031 40.8269 73.3258C40.8451 73.951 40.8429 74.5762 40.8383 75.1989L40.772 77.0696C40.7217 77.6923 40.6829 78.3151 40.6234 78.9353C40.6234 78.9353 41.1537 79.8669 46.7469 78.7161C46.7469 78.7161 50.7857 77.7048 50.8977 77.5578C53.4029 72.7803 52.3103 69.3229 52.3103 69.3229C52.2047 68.7232 52.1284 68.1179 52.0817 67.5095C52.0269 66.9017 52.0017 66.294 51.988 65.6837C51.9789 65.0734 51.988 64.4631 52.0314 63.8528C52.0613 63.2397 52.1548 62.6322 52.3103 62.042C52.2737 62.6522 52.2783 63.2551 52.2806 63.8603C52.2874 64.4656 52.2943 65.0709 52.308 65.6762C52.324 66.8892 52.3514 68.0999 52.3103 69.3229C53.8303 69.6368 58.1686 66.9342 58.1686 66.9342ZM37.9057 61.0332C37.8252 60.9247 37.7349 60.8254 37.636 60.7368L37.3503 60.4652C37.2497 60.3806 37.14 60.3108 37.0349 60.2336C36.6091 59.9376 36.1336 59.7369 35.636 59.6433C35.1378 59.5427 34.6289 59.5217 34.1251 59.581C33.617 59.6343 33.1158 59.7479 32.6303 59.9197C33.1 59.6835 33.5991 59.524 34.1114 59.4465C34.6276 59.3676 35.1519 59.376 35.6657 59.4714C36.1819 59.5757 36.672 59.7981 37.1034 60.124C37.5285 60.4482 37.8892 60.8625 38.164 61.342L37.9057 61.0332Z" fill="black"/>
<path d="M44.7588 56.1337L45.2861 56.02C45.4565 55.9608 45.6295 55.9106 45.7954 55.8416C46.1259 55.7032 46.4328 55.5053 46.7031 55.2561C46.9631 55.0015 47.1656 54.6847 47.2948 54.3307C47.4222 53.9816 47.473 53.6049 47.4432 53.2307C47.4428 53.2267 47.4425 53.2212 47.4424 53.2173C47.416 51.9328 47.409 50.6484 47.3913 49.3639C47.3909 49.3382 47.3962 49.3128 47.4068 49.2898C47.4174 49.2669 47.4329 49.247 47.452 49.232L47.4578 49.2275C47.9268 48.8632 48.3907 48.4912 48.8313 48.087C49.2775 47.6907 49.7016 47.2658 50.1181 46.8336C50.5363 46.403 50.9357 45.9509 51.3203 45.4854C51.7048 45.0238 52.0674 44.5411 52.4067 44.0391C52.4111 44.0324 52.416 44.026 52.4213 44.0201L52.4436 43.9955C52.4614 43.9794 52.4761 43.9595 52.4867 43.937C52.4972 43.9145 52.5035 43.8899 52.505 43.8646C52.5004 43.7904 52.4793 43.7185 52.4436 43.655C52.343 43.4819 52.2193 43.3261 52.0763 43.193C51.767 42.9051 51.4306 42.6537 51.0727 42.443C50.3493 42.0098 49.577 41.6813 48.7756 41.4658C48.3795 41.3576 47.975 41.2899 47.5674 41.2636C47.3667 41.2513 47.1653 41.2567 46.9654 41.2797C46.7653 41.2986 46.5668 41.3347 46.3719 41.3875C46.1763 41.4375 45.984 41.5019 45.7964 41.5804C45.6103 41.664 45.4292 41.7606 45.2543 41.8695C44.9008 42.0858 44.5757 42.3533 44.2881 42.6647C43.996 42.9732 43.7384 43.3182 43.5205 43.6924C43.2972 44.0512 43.1438 44.4559 43.0697 44.8818C42.9891 45.3507 42.8585 45.8078 42.6806 46.2437C42.5141 46.6908 42.2841 47.1066 41.9989 47.4757C41.9599 47.5222 41.9142 47.5657 41.8719 47.6102C41.8242 47.6495 41.7688 47.6967 41.7245 47.7264L41.4603 47.9089C41.2902 48.028 41.1307 48.1642 40.9841 48.316C40.6953 48.6255 40.468 48.9963 40.3161 49.4055C40.2369 49.6133 40.1688 49.8259 40.1123 50.0424C40.0512 50.2707 39.9724 50.4931 39.877 50.7071C39.7782 50.9243 39.6506 51.1244 39.4983 51.3011C39.3416 51.4923 39.1335 51.6249 38.9038 51.68L38.9159 51.6776C38.6215 51.7563 38.3433 51.8949 38.096 52.086C37.8508 52.287 37.6368 52.5297 37.4622 52.8048C37.2905 53.0863 37.1471 53.3873 37.0345 53.7024C36.9194 54.019 36.8343 54.3477 36.7805 54.6832C36.817 54.343 36.8852 54.0077 36.9842 53.6827C37.0821 53.3546 37.2151 53.0403 37.3805 52.7461C37.5514 52.4509 37.7649 52.1877 38.0127 51.9665C38.2692 51.7498 38.5611 51.5881 38.8729 51.4899L38.8851 51.4875C39.067 51.4268 39.2284 51.3089 39.3491 51.1487C39.4795 50.9826 39.5875 50.797 39.6699 50.5975C39.7543 50.3947 39.8229 50.1845 39.875 49.9691C39.9289 49.741 39.9949 49.5166 40.0726 49.2969C40.2287 48.8452 40.4682 48.4333 40.7761 48.0865C40.9321 47.9164 41.1023 47.7627 41.2847 47.6274L41.5512 47.4325C41.5959 47.4004 41.6218 47.3733 41.6585 47.3436C41.6906 47.3066 41.7246 47.2739 41.7558 47.2346C42.0058 46.889 42.2052 46.5034 42.347 46.0915C42.5011 45.6798 42.6148 45.2515 42.6862 44.8137C42.7024 44.6909 42.7261 44.5694 42.7573 44.45C42.789 44.3315 42.828 44.2154 42.8742 44.1026C42.9619 43.8812 43.0645 43.6672 43.1813 43.4624C43.4132 43.0562 43.6882 42.6813 44.0007 42.3455C44.311 42.0044 44.662 41.7105 45.0443 41.4717C45.2352 41.3504 45.4332 41.2426 45.6369 41.1491C45.843 41.0605 46.0544 40.9872 46.2696 40.93C46.4843 40.8699 46.703 40.8281 46.9237 40.8051C47.1438 40.778 47.3655 40.7701 47.5868 40.7813C48.0234 40.8051 48.457 40.8733 48.882 40.9851C49.7237 41.2107 50.5331 41.561 51.2876 42.0259C51.6719 42.2571 52.0324 42.5322 52.3631 42.8466C52.5403 43.0152 52.6922 43.2128 52.8136 43.4323C52.886 43.5678 52.9243 43.7217 52.9248 43.8784C52.9207 43.9681 52.8995 44.0558 52.8626 44.1361C52.8258 44.2163 52.7741 44.2874 52.7108 44.3448L52.7476 44.3013C52.3949 44.815 52.0181 45.3085 51.6187 45.7798C51.2231 46.2505 50.8132 46.7065 50.3844 47.1406C49.9556 47.5747 49.5104 47.9882 49.0489 48.3812C48.5917 48.7791 48.1113 49.144 47.6267 49.5002L47.6932 49.3639C47.6755 50.6483 47.6684 51.9328 47.642 53.2173L47.6413 53.204C47.6606 53.613 47.5907 54.0212 47.4372 54.395C47.2864 54.7636 47.0594 55.0892 46.7739 55.3463C46.4868 55.5914 46.1626 55.7801 45.816 55.9039C45.644 55.9637 45.4665 56.0036 45.2926 56.0523L44.7588 56.1337Z" fill="black"/>
<path d="M52.5776 44.1876C52.5769 44.213 52.5472 44.245 52.5287 44.2787L52.466 44.376L52.3384 44.5687C52.2536 44.6977 52.1624 44.8211 52.0738 44.9469C51.8928 45.1951 51.7086 45.4407 51.5182 45.6807C51.1396 46.1628 50.7364 46.6219 50.3189 47.0651C49.8999 47.5063 49.4731 47.9411 49.0172 48.3384C48.5682 48.745 48.0954 49.1193 47.6175 49.4855L47.6769 49.3639C47.6788 50.0061 47.6894 50.6484 47.6843 51.2906L47.6746 53.2173L47.6736 53.1997C47.6966 53.6152 47.6276 54.0306 47.4724 54.411C47.3204 54.7865 47.0907 55.1185 46.8013 55.3811C46.5105 55.6305 46.1826 55.8236 45.8319 55.952C45.6584 56.0145 45.4796 56.057 45.304 56.1082L44.7662 56.2004L44.8193 56.1469L44.809 56.2019L44.81 56.1878L44.8423 57.1053C44.8598 57.4105 44.8885 57.7148 44.911 58.0198C44.9735 58.6266 45.0874 59.2257 45.2513 59.8095C45.398 60.3923 45.6793 60.9244 46.0683 61.3551C46.27 61.5528 46.5089 61.7001 46.7683 61.7867C46.9002 61.8308 47.0342 61.8671 47.1696 61.8956L47.275 61.9214L47.3273 61.9341C47.337 61.9338 47.3468 61.9345 47.3564 61.9364C47.3888 61.935 47.4147 61.914 47.4457 61.8673C47.5442 61.6003 47.5931 61.3147 47.5898 61.027C47.6017 60.7252 47.6017 60.4203 47.5989 60.1149C47.5921 59.5036 47.5695 58.89 47.5683 58.2719C47.5688 57.9627 47.5756 57.6524 47.6004 57.3384C47.6213 57.0162 47.6866 56.6993 47.7942 56.3984C47.8963 56.0837 48.0572 55.7954 48.2667 55.5519C48.4761 55.3083 48.7297 55.1147 49.0112 54.9833C49.0305 54.9749 49.0515 54.9721 49.0721 54.9752L49.0886 54.9777C49.6003 55.0578 50.1186 55.0757 50.6339 55.0313C51.1341 55.0103 51.6174 54.8286 52.0231 54.5089C52.2063 54.333 52.3527 54.1162 52.4522 53.8732C52.5631 53.6231 52.6497 53.361 52.7104 53.0913C52.8383 52.5429 52.9115 51.9812 52.9289 51.4157C52.9299 51.3818 52.9405 51.3491 52.9592 51.322C52.9779 51.2948 53.0038 51.2746 53.0334 51.2641L53.0366 51.263C53.1112 51.2478 53.1785 51.2046 53.2268 51.141C53.2751 51.0773 53.3014 50.9971 53.3011 50.9145C53.3106 50.7134 53.2781 50.5126 53.2061 50.3271L53.2032 50.319C53.1959 50.2984 53.1932 50.2761 53.1955 50.2541L53.3647 48.678C53.4427 48.1627 53.4784 47.6409 53.4714 47.1188C53.445 46.5978 53.3543 46.0831 53.2018 45.5886C53.1238 45.3405 53.0324 45.0977 52.9279 44.8614C52.8739 44.744 52.8185 44.6273 52.7582 44.5134L52.665 44.3444L52.6159 44.2616L52.5904 44.221L52.5776 44.2008C52.5757 44.1983 52.5778 44.1949 52.5776 44.1876ZM52.5767 44.1527C53.1827 45.0067 53.5528 46.0311 53.6438 47.106C53.6692 47.6402 53.6507 48.1759 53.5888 48.7065L53.4577 50.2838L53.4472 50.2109C53.4918 50.3242 53.5262 50.4419 53.5501 50.5624C53.5765 50.6867 53.5857 50.8146 53.5775 50.9419C53.5745 51.0878 53.5273 51.2286 53.4432 51.3421C53.3591 51.4557 53.2427 51.5356 53.1125 51.5695L53.2202 51.4168C53.2169 52.0105 53.1504 52.6017 53.0219 53.1786C52.957 53.472 52.864 53.7571 52.7445 54.0293C52.6266 54.3168 52.4535 54.5735 52.2368 54.7819C51.7813 55.1532 51.2341 55.3674 50.6659 55.3969C50.1209 55.4495 49.5721 55.4274 49.0322 55.3312L49.1095 55.3257C48.8742 55.4299 48.6636 55.5909 48.4937 55.7966C48.3165 56.0089 48.1765 56.2548 48.0807 56.5221C47.8713 57.0552 47.8727 57.6659 47.8545 58.2749C47.8435 58.8845 47.8538 59.4983 47.8483 60.1147C47.8456 60.423 47.839 60.7323 47.8161 61.0432C47.803 61.1989 47.789 61.3547 47.7622 61.5119C47.7397 61.6797 47.6883 61.8413 47.6107 61.9882C47.5831 62.0352 47.5453 62.0741 47.5007 62.1015C47.456 62.1289 47.4059 62.144 47.3547 62.1454C47.3293 62.1428 47.3037 62.1391 47.2788 62.1344L47.2285 62.1203L47.1286 62.092C46.9885 62.057 46.8501 62.0142 46.714 61.9639C46.4356 61.8612 46.181 61.6935 45.968 61.4726C45.5765 61.0114 45.2939 60.4532 45.1445 59.8464C44.9862 59.2533 44.8752 58.6464 44.813 58.0325C44.7863 57.7261 44.7535 57.42 44.7319 57.113L44.6875 56.191C44.6873 56.1869 44.6875 56.1828 44.6882 56.1788L44.6886 56.1768L44.6984 56.1206C44.7006 56.1075 44.7065 56.0954 44.7152 56.086C44.7239 56.0766 44.735 56.0703 44.747 56.0678L44.7515 56.067L45.2747 55.9641C45.4433 55.9074 45.615 55.8598 45.7795 55.7934C46.1059 55.6597 46.4091 55.4662 46.6757 55.2213C46.9305 54.9744 47.1294 54.6666 47.2569 54.322C47.3844 53.9775 47.4371 53.6054 47.4108 53.235L47.4102 53.2274L47.4098 53.2173L47.4001 51.2906C47.395 50.6484 47.4056 50.0061 47.4076 49.3639C47.4078 49.3399 47.4133 49.3164 47.4236 49.2952C47.434 49.274 47.4488 49.2559 47.4669 49.2422C47.9426 48.8879 48.4142 48.5253 48.863 48.1299C49.315 47.7392 49.7573 47.3341 50.1837 46.9091C50.6132 46.4875 51.0192 46.0385 51.4208 45.5846C51.6212 45.3571 51.8157 45.1235 52.0075 44.8869C52.2019 44.6447 52.3735 44.4162 52.5767 44.1527Z" fill="black"/>
<path d="M49.4312 47.7932C49.8782 47.7148 50.3329 47.7045 50.7825 47.7626C51.2346 47.8084 51.676 47.9392 52.0871 48.1492C51.6423 48.0608 51.2072 47.9872 50.7648 47.936C50.3233 47.8811 49.8807 47.8444 49.4312 47.7932Z" fill="black"/>
<path d="M50.9629 49.4477C51.0252 49.4453 51.0842 49.4167 51.1275 49.3679C51.1708 49.319 51.195 49.2538 51.195 49.1859C51.195 49.118 51.1708 49.0527 51.1275 49.0039C51.0842 48.955 51.0252 48.9264 50.9629 48.9241C50.9006 48.9264 50.8416 48.955 50.7983 49.0039C50.755 49.0527 50.7308 49.118 50.7308 49.1859C50.7308 49.2538 50.755 49.319 50.7983 49.3679C50.8416 49.4167 50.9006 49.4453 50.9629 49.4477Z" fill="black"/>
<path d="M53.932 48.1492C53.7519 48.1457 53.5717 48.1523 53.3922 48.1689L52.8552 48.2123L52.9156 48.168C52.8538 48.3449 52.8159 48.5306 52.803 48.7194C52.788 48.9091 52.7982 49.1001 52.8332 49.2866C52.8742 49.475 52.9328 49.6584 53.0081 49.8338C53.0442 49.9229 53.0853 50.0095 53.1312 50.0932C53.18 50.1681 53.2333 50.2676 53.3266 50.2691C53.2284 50.2948 53.1496 50.1973 53.088 50.1296C53.0253 50.0536 52.9699 49.9709 52.9226 49.8827C52.8223 49.7089 52.7449 49.5206 52.6929 49.3234C52.6445 49.1217 52.6278 48.9126 52.6436 48.7049C52.6588 48.4961 52.7071 48.2917 52.7864 48.1008L52.787 48.0994C52.7923 48.0869 52.8008 48.0763 52.8114 48.0687C52.822 48.0611 52.8343 48.0569 52.8469 48.0565C53.0292 48.0507 53.2102 48.0536 53.3919 48.0651C53.5741 48.0727 53.7551 48.1009 53.932 48.1492Z" fill="black"/>
<path d="M53.1969 49.4948C53.2592 49.4924 53.3182 49.4638 53.3615 49.415C53.4048 49.3662 53.429 49.3009 53.429 49.233C53.429 49.1651 53.4048 49.0998 53.3615 49.051C53.3182 49.0022 53.2592 48.9736 53.1969 48.9712C53.1346 48.9736 53.0756 49.0022 53.0323 49.051C52.989 49.0998 52.9648 49.1651 52.9648 49.233C52.9648 49.3009 52.989 49.3662 53.0323 49.415C53.0756 49.4638 53.1346 49.4924 53.1969 49.4948Z" fill="black"/>
<path d="M51.0782 52.2958L51.5831 52.5927C51.7465 52.6886 51.9173 52.7686 52.0937 52.8316C52.1678 52.8702 52.2501 52.8866 52.332 52.8792C52.4139 52.8718 52.4925 52.8407 52.5597 52.7892C52.6624 52.6253 52.7172 52.4315 52.7171 52.233C52.749 52.3391 52.76 52.4514 52.7493 52.5624C52.7386 52.6735 52.7064 52.7808 52.655 52.8773C52.6189 52.9259 52.5738 52.9657 52.5226 52.9941C52.4715 53.0224 52.4155 53.0388 52.3582 53.042C52.2531 53.0476 52.148 53.0329 52.0477 52.9986C51.8594 52.9311 51.6813 52.8335 51.5192 52.7091C51.3582 52.5903 51.2102 52.4516 51.0782 52.2958Z" fill="black"/>
<path d="M51.6115 50.5524C51.6034 50.6885 51.6043 50.825 51.6141 50.961C51.6311 51.0928 51.6693 51.2203 51.7268 51.3377C51.6543 51.3182 51.5897 51.2731 51.5431 51.2095C51.494 51.1445 51.4635 51.0652 51.4551 50.9816C51.4457 50.9014 51.4552 50.8201 51.4825 50.745C51.5099 50.6699 51.5543 50.6037 51.6115 50.5524Z" fill="black"/>
<path d="M47.5422 53.2173C47.6877 53.3685 47.8212 53.5328 47.9413 53.7085L48.1194 53.9623C48.1787 54.0495 48.2426 54.133 48.3109 54.2121C48.207 54.1875 48.1105 54.1345 48.0306 54.058C47.9502 53.9866 47.8778 53.9051 47.8148 53.8154C47.6864 53.6392 47.5935 53.4353 47.5422 53.2173Z" fill="black"/>
<path d="M53.3242 51.2548C53.4308 51.9474 53.4934 52.6362 53.5735 53.3214C53.6133 53.6634 53.6526 54.0058 53.7093 54.3426C53.7362 54.5109 53.771 54.6776 53.8135 54.842C53.8495 55.0094 53.9142 55.1679 54.0041 55.3093C53.7689 55.0584 53.6062 54.7381 53.5358 54.3878C53.4481 54.0485 53.3849 53.7023 53.3469 53.3522C53.2658 52.6563 53.2582 51.9526 53.3242 51.2548Z" fill="black"/>
<path d="M26.6411 78.3211C26.6452 78.8052 26.6192 79.2889 26.5632 79.7691C26.5143 80.2503 26.4352 80.7272 26.3263 81.1965C26.3218 80.7125 26.3479 80.2286 26.4042 79.7485C26.4535 79.2674 26.5326 78.7905 26.6411 78.3211Z" fill="black"/>
<path d="M28.0971 81.532C27.375 81.449 26.654 81.3567 25.9343 81.2551L25.9895 81.2251C25.6918 81.891 25.4264 82.5735 25.1946 83.2698C24.9642 83.9674 24.7521 84.6723 24.5645 85.3854C24.385 86.1007 24.2149 86.8197 24.0771 87.5469C23.9335 88.2729 23.8216 89.0059 23.7127 89.741C23.772 88.9998 23.8495 88.2583 23.9743 87.5251C24.0842 86.7888 24.2462 86.0631 24.4218 85.3421C24.5992 84.6211 24.8105 83.9104 25.0548 83.213C25.2911 82.5111 25.5716 81.8278 25.8944 81.168C25.8997 81.1575 25.9078 81.149 25.9177 81.1436C25.9276 81.1382 25.9387 81.1362 25.9497 81.1379C26.6666 81.2611 27.3824 81.3925 28.0971 81.532Z" fill="black"/>
<path d="M54.2224 83.5277C54.0601 83.6244 53.9028 83.7303 53.7509 83.8453L53.7473 83.8481L53.7458 83.8491C51.6114 85.2714 49.4472 86.6485 47.2018 87.8617C44.9626 89.094 42.6402 90.1377 40.2548 90.9837C39.658 91.1933 39.057 91.3883 38.4537 91.574L37.5447 91.8387L37.0769 91.9461C36.9218 91.987 36.7612 91.9919 36.6037 92.0164C35.9697 92.0938 35.3287 92.0676 34.7018 91.9387C34.0769 91.8071 33.4713 91.5837 32.9015 91.2746C31.7654 90.6433 30.8201 89.6687 30.1787 88.4675C29.8695 87.8691 29.625 87.2337 29.4499 86.5741C29.2625 85.9218 29.1215 85.2548 29.0283 84.5789C29.0277 84.5743 29.0288 84.5697 29.0314 84.566C29.0339 84.5623 29.0377 84.5598 29.0419 84.5591C29.0461 84.5587 29.0503 84.5599 29.0537 84.5627C29.0571 84.5655 29.0594 84.5696 29.0601 84.5742C29.1701 85.2435 29.3275 85.9026 29.5306 86.5455C29.7198 87.1908 29.977 87.81 30.297 88.3908C30.6181 88.967 31.0133 89.4899 31.4708 89.9436C31.9298 90.3926 32.4419 90.7726 32.9935 91.0735C34.1063 91.6593 35.348 91.8917 36.5764 91.744C36.7279 91.7191 36.8823 91.7141 37.0313 91.6731L37.4806 91.5666L38.3819 91.297C38.9807 91.1079 39.5771 90.9096 40.1691 90.6967C41.3523 90.2685 42.5221 89.7987 43.6783 89.2873C44.8334 88.7744 45.9687 88.2093 47.0963 87.6265C48.2237 87.0428 49.3334 86.4174 50.4307 85.7673C51.5306 85.1218 52.612 84.4387 53.6834 83.7377L53.6783 83.7415C53.8701 83.5986 54.0701 83.4692 54.2771 83.354" fill="black"/>
<path d="M60.5774 82.9065C60.6203 82.9207 60.6631 82.9353 60.7058 82.9501C60.8939 83.0189 61.0861 83.0738 61.2809 83.1145C61.4709 83.148 61.6652 83.1366 61.8507 83.0809C61.9383 83.0523 62.0188 83.0026 62.0864 82.9355C62.1539 82.8685 62.2069 82.7858 62.2412 82.6935C62.3039 82.4976 62.3257 82.2889 62.305 82.0826L62.305 82.0801C62.3048 82.0685 62.3067 82.0571 62.3106 82.0464C62.3146 82.0357 62.3205 82.0259 62.328 82.0178C62.4576 81.8765 62.5755 81.7231 62.6804 81.5594C62.787 81.3984 62.8752 81.2239 62.9429 81.0396C63.0113 80.8616 63.0457 80.6703 63.0438 80.4773C63.0331 80.2901 62.977 80.1094 62.8812 79.9537C62.8679 79.9315 62.8633 79.9044 62.8683 79.8784C62.8733 79.8525 62.8876 79.8298 62.908 79.8153L62.9166 79.8099C63.1493 79.6811 63.3649 79.5185 63.5573 79.3263C63.7495 79.1462 63.8935 78.9129 63.9742 78.6511C63.9897 78.5876 64.0003 78.5228 64.0059 78.4574C64.0034 78.3898 64.0091 78.3323 64.0004 78.2541C63.9878 78.1062 63.9796 77.9576 63.9732 77.8087C63.9566 77.5053 63.9663 77.2009 64.0021 76.8995C64.0047 76.8802 64.0125 76.8623 64.0245 76.8479L64.0318 76.839C64.4995 76.2956 64.8423 75.6392 65.0321 74.9235C65.1207 74.5741 65.131 74.2066 65.0622 73.8519C65.0507 73.7635 65.0284 73.6772 64.9958 73.5953C64.9687 73.5112 64.9375 73.4288 64.9022 73.3485C64.83 73.1938 64.7387 73.0506 64.631 72.9228C64.5214 72.8117 64.3857 72.7359 64.239 72.7039C64.0922 72.6718 63.9402 72.6848 63.7998 72.7412C63.6606 72.7994 63.5391 72.8989 63.4491 73.0284C63.3515 73.1776 63.2625 73.3332 63.1826 73.4944C63.0171 73.826 62.8672 74.1666 62.7335 74.5147C62.586 74.9106 62.3083 75.2323 61.9547 75.4168C61.6029 75.5804 61.2156 75.6315 60.8381 75.5641C60.4669 75.5137 60.1094 75.3795 59.7884 75.1702C59.1449 74.7431 58.679 74.0602 58.489 73.2656C58.4652 73.1677 58.4508 73.0671 58.4316 72.9678L58.4007 72.6653L58.3644 72.098C58.3356 71.7207 58.2979 71.3446 58.242 70.9742C58.1934 70.6089 58.1102 70.2501 57.9937 69.9036C57.9448 69.7498 57.8652 69.6098 57.7607 69.4935C57.7209 69.453 57.6692 69.4293 57.6148 69.4266C57.5605 69.4239 57.507 69.4424 57.464 69.4788L57.4146 69.4991C57.3854 69.5109 57.3571 69.5255 57.3303 69.5429C57.2954 69.5651 57.2618 69.5899 57.2298 69.6168C57.1631 69.6769 57.1014 69.7432 57.0453 69.8149C56.9305 69.9687 56.8317 70.1359 56.7507 70.3134C56.5872 70.6841 56.4648 71.0747 56.3861 71.4769C56.3013 71.8842 56.2381 72.2964 56.1971 72.7116C56.1591 72.9285 56.1335 73.1492 56.0835 73.363L55.9909 73.6789C55.9639 73.7854 55.9276 73.8888 55.8827 73.9878C55.5468 74.7863 55.0473 75.4902 54.4226 76.0452C53.8125 76.603 53.1279 77.056 52.3924 77.3885C52.3887 77.3901 52.3849 77.3915 52.3811 77.3927C50.4444 77.9559 48.4954 78.4557 46.526 78.8577C45.5412 79.0554 44.5507 79.2287 43.5511 79.3215C43.0512 79.3719 42.549 79.3892 42.0472 79.3736C41.9217 79.3696 41.7963 79.3614 41.6712 79.3443C41.5457 79.3319 41.4211 79.3115 41.2978 79.2831C41.0453 79.2422 40.8081 79.1259 40.6126 78.947C40.6096 78.9437 40.6079 78.9393 40.6079 78.9347C40.6079 78.93 40.6096 78.9256 40.6126 78.9223C40.6157 78.9191 40.6198 78.9174 40.624 78.9174C40.6283 78.9175 40.6324 78.9193 40.6354 78.9225C40.8296 79.0897 41.0622 79.1953 41.3079 79.2276C41.4299 79.2521 41.5532 79.2687 41.677 79.2773C41.8006 79.2906 41.9248 79.2953 42.0493 79.2956C42.5476 79.2967 43.0454 79.265 43.5402 79.2008C44.5308 79.0749 45.5147 78.8868 46.494 78.6764C48.451 78.2458 50.3919 77.7163 52.3121 77.126L52.3008 77.1301C53.0034 76.7984 53.6558 76.3524 54.2357 75.8075C54.8178 75.2764 55.2805 74.607 55.5882 73.8507C55.6299 73.7593 55.6631 73.6637 55.6874 73.5651L55.7724 73.274C55.8178 73.0769 55.84 72.8739 55.8758 72.6741C55.9174 72.2444 55.9818 71.8177 56.0688 71.3961C56.1523 70.9664 56.2826 70.549 56.4568 70.1529C56.5491 69.9495 56.662 69.7581 56.7935 69.5822C56.8637 69.4921 56.9411 69.4089 57.0248 69.3338C57.1201 69.2481 57.2301 69.184 57.3484 69.1451L57.2991 69.1653C57.4017 69.0989 57.519 69.0645 57.6383 69.0658C57.7637 69.0731 57.8831 69.1267 57.9768 69.2178C58.1232 69.3707 58.2349 69.5585 58.3032 69.7665C58.4301 70.1377 58.5209 70.5224 58.5741 70.9142C58.6328 71.2982 58.6721 71.6827 58.7023 72.0671C58.7173 72.2593 58.7299 72.4516 58.7402 72.6439L58.766 72.9113C58.783 72.9989 58.7947 73.088 58.8154 73.1747C58.9797 73.8787 59.3884 74.4857 59.9553 74.8679C60.2373 75.0544 60.5519 75.1748 60.879 75.2214C61.1976 75.2824 61.5257 75.2436 61.8249 75.1094C62.1119 74.9611 62.3371 74.7006 62.4559 74.3797C62.5953 74.0234 62.7513 73.6752 62.9231 73.3362C63.0108 73.1615 63.1088 72.9932 63.2165 72.8322C63.3089 72.7005 63.4259 72.5916 63.5597 72.5127C63.6935 72.4337 63.8411 72.3865 63.9929 72.3742C64.1446 72.3618 64.297 72.3846 64.4401 72.441C64.5832 72.4974 64.7137 72.5861 64.8231 72.7014C65.0705 73.0101 65.2418 73.3822 65.3208 73.7829C65.3999 74.1835 65.3842 74.5995 65.2752 74.9917C65.0664 75.7489 64.6944 76.4407 64.1903 77.0093L64.22 76.949C64.1847 77.2311 64.1729 77.5161 64.1847 77.8005C64.1891 77.9455 64.1953 78.0907 64.2059 78.2359C64.2105 78.315 64.2114 78.3943 64.2088 78.4735C64.2012 78.5543 64.1872 78.6342 64.1669 78.7123C64.073 79.0105 63.9066 79.2754 63.6855 79.4787C63.477 79.6817 63.2438 79.8525 62.9925 79.9862L63.0279 79.8424C63.141 80.0299 63.2054 80.2472 63.2145 80.4714C63.2145 80.6897 63.1735 80.9057 63.0938 81.1059C63.0189 81.3017 62.9224 81.4867 62.8063 81.657C62.6934 81.8279 62.5668 81.9877 62.4281 82.1343L62.451 82.0697C62.471 82.3012 62.4425 82.5347 62.3678 82.7526C62.3245 82.8634 62.2591 82.9623 62.1764 83.0423C62.0937 83.1222 61.9958 83.1812 61.8897 83.2149C61.6853 83.274 61.4716 83.284 61.2633 83.2441C61.0631 83.2011 60.8657 83.1436 60.6724 83.072C60.5672 83.0346 60.4613 82.9995 60.3549 82.9665" fill="black"/>
<path d="M62.4933 77.8666C62.7891 77.7681 63.0755 77.6384 63.3482 77.4794C63.6183 77.332 63.8569 77.1244 64.0484 76.8699L64.05 76.8675C64.0628 76.8491 64.0818 76.837 64.1028 76.8338C64.1238 76.8307 64.1451 76.8367 64.1621 76.8506C64.179 76.8645 64.1902 76.8851 64.1933 76.908C64.1963 76.9309 64.1909 76.9541 64.1782 76.9726L64.1737 76.9786C63.9509 77.2306 63.6815 77.428 63.3834 77.5578C63.0966 77.692 62.7985 77.7955 62.4933 77.8666Z" fill="black"/>
<path d="M52.2387 73.7227C52.3206 73.9796 52.4147 74.2283 52.5113 74.4736C52.6091 74.7173 52.7187 74.9552 52.8397 75.1862C52.962 75.4146 53.1007 75.632 53.2545 75.8365C53.4149 76.0389 53.5939 76.2228 53.7887 76.3854C53.5561 76.2769 53.3439 76.1222 53.163 75.9293C52.9846 75.7327 52.8295 75.5124 52.7013 75.2738C52.4491 74.7978 52.2915 74.2693 52.2387 73.7227Z" fill="black"/>
<path d="M57.8509 67.126C58.0063 67.4373 58.1526 67.7511 58.3057 68.0625L58.212 68.1024C58.0863 67.7786 57.9651 67.4547 57.8509 67.126Z" fill="black"/>
<path d="M61.8829 75.2687C61.7296 75.1655 61.5967 75.03 61.492 74.8702C61.38 74.7207 61.2749 74.5613 61.172 74.4019C61.0532 74.2101 60.9412 74.0158 60.8315 73.819L60.9709 73.7567C61.0669 73.951 61.1652 74.1453 61.268 74.3371C61.3549 74.504 61.444 74.6709 61.54 74.8328C61.6307 74.9983 61.7467 75.1458 61.8829 75.2687Z" fill="black"/>
<path d="M109.446 61.7536C109.32 61.042 109.078 60.3606 108.732 59.7416C108.585 59.4368 108.34 59.2021 108.044 59.0827C107.736 58.9989 107.415 58.9939 107.105 59.068C106.782 59.1259 106.458 59.2211 106.121 59.29C105.95 59.3286 105.776 59.3519 105.6 59.3597C105.408 59.3726 105.217 59.3299 105.045 59.2359C104.87 59.135 104.728 58.9794 104.636 58.7894C104.552 58.6124 104.495 58.422 104.466 58.2254C104.45 58.1339 104.439 58.0334 104.425 57.9622C104.407 57.8888 104.378 57.8188 104.341 57.7547C104.258 57.6093 104.16 57.475 104.048 57.3545L104.129 57.1295C104.129 57.1289 104.128 57.1284 104.127 57.128C104.126 57.1277 104.125 57.1276 104.124 57.1277C104.124 57.1277 104.123 57.128 104.122 57.1284C104.121 57.1289 104.12 57.1295 104.12 57.1303C104.121 57.1303 104.13 57.124 104.135 57.1216C104.15 57.1127 104.164 57.1022 104.178 57.0904C104.211 57.0621 104.242 57.0317 104.272 56.9994C104.336 56.9332 104.397 56.8604 104.457 56.7858C104.577 56.6369 104.693 56.4795 104.804 56.3216L104.934 56.4596C104.913 56.4723 104.892 56.4827 104.87 56.4907L104.824 56.5C104.794 56.5061 104.77 56.5061 104.742 56.5092C104.69 56.5121 104.638 56.5132 104.588 56.5125C104.487 56.5114 104.387 56.5068 104.287 56.5002C104.088 56.4879 103.89 56.4678 103.692 56.4477C103.68 56.4465 103.669 56.4418 103.659 56.4341C103.65 56.4265 103.643 56.4161 103.638 56.4041C103.608 56.3164 103.573 56.2305 103.534 56.147C103.496 56.0683 103.449 55.9765 103.397 55.9543C103.243 55.8899 103.063 55.8477 102.894 55.7962C102.718 55.7496 102.545 55.6919 102.375 55.6234C102.349 55.6089 102.327 55.5884 102.31 55.5634C102.292 55.5383 102.28 55.5094 102.274 55.4786C102.264 55.4242 102.264 55.3681 102.273 55.3136C102.291 55.2141 102.32 55.1174 102.359 55.0256C102.518 54.6759 102.703 54.3415 102.913 54.0257C103.013 53.8745 103.091 53.7077 103.145 53.531C103.199 53.3643 103.212 53.1855 103.184 53.0116L103.187 53.0198C103.078 52.7059 103.001 52.3796 102.959 52.0472C102.912 51.7192 102.883 51.3885 102.872 51.0569C102.848 50.3957 102.862 49.7335 102.916 49.0743C102.919 49.0384 102.933 49.0045 102.955 48.9783C102.978 48.9521 103.008 48.935 103.041 48.9298C103.074 48.9247 103.107 48.9317 103.136 48.9498C103.165 48.968 103.187 48.9961 103.199 49.0297L103.202 49.0368C103.379 49.5248 103.59 49.9976 103.832 50.4515C104.07 50.9042 104.349 51.3302 104.663 51.7235C104.964 52.1124 105.338 52.4272 105.759 52.6471C106.174 52.8508 106.645 52.8778 107.078 52.7228L106.974 52.8577C107.011 52.635 107.07 52.4173 107.151 52.2087C107.23 51.9847 107.359 51.7858 107.527 51.6304C107.577 51.593 107.629 51.5596 107.682 51.5306C107.741 51.5086 107.8 51.4917 107.861 51.4799C107.921 51.4776 107.982 51.4802 108.042 51.4877C108.098 51.4986 108.153 51.5163 108.206 51.5404C108.259 51.5576 108.309 51.584 108.354 51.6185L108.491 51.7107C108.571 51.7824 108.648 51.8576 108.725 51.932C108.737 51.9429 108.746 51.9566 108.751 51.972C108.853 52.25 108.937 52.5353 109.003 52.8259C109.072 53.117 109.11 53.416 109.116 53.7167C109.126 53.872 109.107 54.0279 109.06 54.1748C109.013 54.3218 108.939 54.4566 108.842 54.5711C108.73 54.6627 108.6 54.7256 108.463 54.7553C108.325 54.785 108.183 54.7806 108.047 54.7425C108.043 54.7417 108.04 54.7392 108.037 54.7355C108.035 54.7317 108.034 54.727 108.034 54.7224C108.035 54.7181 108.037 54.7142 108.04 54.7115C108.044 54.7089 108.048 54.7076 108.052 54.7079C108.179 54.7315 108.31 54.7248 108.435 54.6883C108.56 54.6518 108.676 54.5863 108.776 54.4964C108.854 54.3876 108.911 54.2629 108.944 54.1296C108.976 53.9964 108.984 53.8573 108.967 53.7207C108.947 53.4353 108.898 53.1533 108.819 52.8805C108.776 52.5106 108.609 52.1712 108.349 51.9279L108.235 51.8568C108.2 51.8303 108.161 51.8111 108.119 51.8002C108.051 51.7652 107.974 51.7526 107.899 51.7639C107.824 51.7751 107.753 51.8097 107.696 51.8636C107.57 51.9919 107.475 52.1518 107.419 52.3293C107.354 52.5157 107.307 52.7093 107.28 52.9067C107.276 52.9369 107.264 52.9654 107.246 52.989C107.228 53.0126 107.205 53.0305 107.179 53.0409L107.177 53.0417C106.672 53.2382 106.117 53.2174 105.626 52.9837C105.156 52.7493 104.74 52.4031 104.409 51.9705C104.08 51.5567 103.793 51.1056 103.553 50.6248C103.309 50.1499 103.099 49.6557 102.924 49.1465L103.21 49.109C103.145 49.7536 103.115 50.4015 103.118 51.0499C103.118 51.3731 103.133 51.6961 103.164 52.0176C103.19 52.3361 103.25 52.6503 103.342 52.954L103.344 52.9605L103.344 52.9624C103.363 53.167 103.344 53.3737 103.287 53.5698C103.23 53.766 103.137 53.9474 103.014 54.1032C102.802 54.4077 102.615 54.7321 102.455 55.0725C102.418 55.155 102.391 55.2421 102.373 55.3318C102.357 55.4192 102.367 55.5017 102.423 55.531C102.585 55.5947 102.751 55.6478 102.92 55.69C103.092 55.7397 103.26 55.7789 103.439 55.8446C103.527 55.9001 103.597 55.9849 103.638 56.0864C103.682 56.1735 103.721 56.2632 103.755 56.3551L103.702 56.3116C103.898 56.3243 104.096 56.3308 104.292 56.333C104.39 56.3341 104.488 56.3332 104.585 56.3289C104.633 56.327 104.681 56.3231 104.727 56.3182C104.749 56.3144 104.774 56.3126 104.792 56.3074L104.82 56.3005C104.823 56.2979 104.821 56.2979 104.824 56.2997L104.941 56.3775C104.95 56.3833 104.957 56.3928 104.959 56.4037C104.961 56.4146 104.96 56.4261 104.955 56.4357L104.953 56.4378C104.846 56.6073 104.737 56.7717 104.619 56.9333C104.56 57.0141 104.499 57.0937 104.432 57.1714C104.398 57.2121 104.361 57.2505 104.323 57.2866C104.301 57.3076 104.277 57.3265 104.252 57.343C104.216 57.3703 104.173 57.3862 104.129 57.3889L104.21 57.164C104.343 57.2942 104.462 57.4415 104.563 57.6025C104.618 57.6912 104.66 57.7888 104.687 57.8917C104.71 57.9986 104.72 58.08 104.737 58.1677C104.751 58.3271 104.798 58.481 104.874 58.6178C104.95 58.7546 105.054 58.8709 105.177 58.9579C105.465 59.0744 105.779 59.0888 106.074 58.9992C106.398 58.9399 106.725 58.851 107.066 58.7969C107.415 58.7191 107.777 58.7385 108.117 58.8534C108.203 58.8879 108.286 58.9318 108.365 58.9845C108.44 59.041 108.51 59.1059 108.573 59.1782C108.635 59.2475 108.692 59.3231 108.741 59.4038C108.793 59.4796 108.836 59.561 108.881 59.6412C109.052 59.9637 109.185 60.3084 109.278 60.667C109.376 61.0201 109.443 61.3824 109.478 61.7492C109.478 61.7514 109.478 61.7537 109.477 61.7559C109.477 61.7581 109.476 61.7602 109.474 61.7619C109.473 61.7637 109.471 61.7652 109.47 61.7662C109.468 61.7673 109.466 61.768 109.464 61.7682C109.46 61.7684 109.456 61.7671 109.452 61.7644C109.449 61.7618 109.447 61.7579 109.446 61.7536Z" fill="black"/>
<path d="M115.833 53.5829C115.572 52.7658 113.727 50.5365 113.181 50.27C113.008 49.0144 112.572 47.8192 111.906 46.7772C111.906 46.7772 108.233 40.6531 102.927 49.028C102.928 49.0281 104.436 53.7497 107.126 52.8829C107.126 52.8828 107.339 51.2356 108.265 51.7303C108.506 51.8664 108.691 52.0968 108.783 52.3754C109.028 53.0725 109.454 54.4619 108.337 54.7667C108.063 55.3319 107.976 55.9822 108.089 56.6093C108.299 57.5733 107.951 58.9259 107.951 58.9259C107.951 58.9259 107.069 62.3484 109.663 61.7506C112.258 61.1552 116.351 59.6158 117.071 56.5047C117.071 56.5047 116.091 54.3999 115.833 53.5829ZM112.788 51.4531C112.556 51.863 112.268 52.2317 111.933 52.5466C111.6 52.8567 111.236 53.1249 110.847 53.3463C110.464 53.5708 110.057 53.7455 109.636 53.8669C110.025 53.6601 110.395 53.4234 110.758 53.1793C111.119 52.9343 111.462 52.6603 111.785 52.3598C112.103 52.0584 112.388 51.7192 112.637 51.3485C112.874 50.963 113.055 50.5394 113.172 50.0931C113.139 50.5721 113.008 51.0368 112.788 51.4531Z" fill="black"/>
<path d="M103.409 52.8927C103.532 52.6896 103.704 52.5269 103.905 52.4222C104.007 52.3684 104.116 52.332 104.228 52.3145C104.341 52.2973 104.456 52.3125 104.562 52.3587C104.357 52.4014 104.16 52.4756 103.975 52.5792C103.789 52.6759 103.61 52.79 103.409 52.8927Z" fill="black"/>
<path d="M104.129 53.8142C104.192 53.8118 104.251 53.7832 104.294 53.7344C104.337 53.6856 104.361 53.6203 104.361 53.5524C104.361 53.4845 104.337 53.4192 104.294 53.3704C104.251 53.3216 104.192 53.293 104.129 53.2906C104.067 53.293 104.008 53.3216 103.965 53.3704C103.921 53.4192 103.897 53.4845 103.897 53.5524C103.897 53.6203 103.921 53.6856 103.965 53.7344C104.008 53.7832 104.067 53.8118 104.129 53.8142Z" fill="black"/>
<path d="M117.072 56.4966C118.175 56.5749 119.26 56.8472 120.283 57.3031C121.312 57.7445 122.288 58.3189 123.191 59.014C124.98 60.4354 126.493 62.228 127.644 64.2887L128.071 65.059L128.468 65.8481C128.607 66.1076 128.723 66.3797 128.846 66.6483C128.964 66.9194 129.098 67.1821 129.203 67.4601C129.423 68.0098 129.648 68.5581 129.836 69.1227C130.043 69.6794 130.214 70.2502 130.388 70.82C130.479 71.1033 130.556 71.3917 130.63 71.6807L130.859 72.5463C130.998 73.1277 131.121 73.7144 131.248 74.2993L131.769 77.8524C131.773 77.8753 131.768 77.8987 131.756 77.9178C131.744 77.937 131.726 77.9504 131.705 77.9554L129.355 78.5173L127.001 79.0619L124.648 79.6064L122.291 80.137C122.289 80.1374 122.287 80.137 122.285 80.1357C122.284 80.1345 122.282 80.1325 122.282 80.1303C122.281 80.128 122.282 80.1257 122.283 80.1237C122.284 80.1218 122.286 80.1204 122.288 80.1199L124.63 79.5195L126.975 78.9332L129.32 78.3469L131.669 77.7779L131.604 77.8808L131.096 74.3302C130.974 73.748 130.854 73.1655 130.722 72.5853L130.507 71.7194C130.436 71.4302 130.365 71.1414 130.277 70.8579C129.659 68.5573 128.754 66.3599 127.589 64.3266C126.994 63.3211 126.321 62.3734 125.577 61.4941C124.83 60.6199 124.004 59.8297 123.112 59.1353C122.225 58.4336 121.263 57.8506 120.248 57.3989C119.74 57.1742 119.219 56.9847 118.689 56.8315C118.16 56.671 117.619 56.5647 117.072 56.514C117.07 56.514 117.068 56.5131 117.066 56.5115C117.065 56.5099 117.064 56.5076 117.064 56.5053C117.064 56.503 117.065 56.5008 117.066 56.4991C117.068 56.4975 117.07 56.4966 117.072 56.4966Z" fill="black"/>
<path d="M130.826 78.0739C130.966 78.4515 131.078 78.8408 131.161 79.2381C131.251 79.6336 131.311 80.0364 131.341 80.4426C131.2 80.0651 131.088 79.6757 131.006 79.2784C130.916 78.8828 130.856 78.48 130.826 78.0739Z" fill="black"/>
<path d="M116.409 63.6676C116.609 63.1741 116.857 62.7058 117.15 62.2711C117.442 61.8318 117.779 61.43 118.153 61.0732C118.533 60.7166 118.967 60.4348 119.435 60.2404C119.672 60.152 119.916 60.091 120.164 60.0585C120.412 60.0354 120.661 60.0448 120.906 60.0864C120.418 60.0678 119.931 60.163 119.479 60.3657C119.033 60.5726 118.62 60.8563 118.257 61.206C117.886 61.5505 117.548 61.9344 117.248 62.3522C116.941 62.7694 116.661 63.2089 116.409 63.6676Z" fill="black"/>
<path d="M124.999 62.5367C125.274 62.761 125.523 63.0217 125.739 63.3129C125.959 63.6031 126.149 63.9188 126.306 64.2542C126.465 64.5893 126.582 64.946 126.656 65.3149C126.731 65.6812 126.756 66.0578 126.729 66.4321C126.697 66.2474 126.697 66.0623 126.653 65.8829L126.605 65.6126L126.536 65.3482C126.442 64.9977 126.317 64.6578 126.163 64.3331C126.01 64.0068 125.836 63.6931 125.642 63.3943C125.445 63.0935 125.23 62.807 124.999 62.5367Z" fill="black"/>
<path d="M115.962 65.5598C115.725 66.1915 115.484 66.821 115.233 67.4455C114.98 68.069 114.738 68.698 114.475 69.3166L113.699 71.1786C113.437 71.7972 113.169 72.4133 112.891 73.024L112.85 72.8543L114.846 74.4834C115.512 75.0242 116.192 75.5452 116.874 76.0624C117.554 76.5825 118.246 77.0851 118.934 77.5931C119.624 78.0974 120.307 78.6135 120.991 79.1278L120.798 79.15C121.402 78.3882 121.969 77.5919 122.496 76.7645C123.026 75.9389 123.532 75.0944 123.985 74.2174C124.442 73.3422 124.839 72.4321 125.175 71.4944C125.501 70.5497 125.726 69.5675 125.848 68.5671C125.848 68.5648 125.849 68.5626 125.85 68.5605C125.851 68.5585 125.852 68.5567 125.854 68.5552C125.855 68.5538 125.857 68.5527 125.859 68.552C125.861 68.5513 125.863 68.5511 125.865 68.5513C125.869 68.5518 125.873 68.5539 125.876 68.5572C125.879 68.5605 125.88 68.5648 125.88 68.5692C125.838 69.5902 125.669 70.6002 125.378 71.5719C125.076 72.5401 124.703 73.4802 124.262 74.3831C123.817 75.2817 123.32 76.1488 122.774 76.9794C122.229 77.8104 121.641 78.6073 121.014 79.3664C120.99 79.3952 120.957 79.4134 120.921 79.4174C120.886 79.4215 120.85 79.4113 120.821 79.3886C120.15 78.8542 119.478 78.3216 118.814 77.7773C118.147 77.2366 117.484 76.6905 116.809 76.1619C116.136 75.6305 115.461 75.1027 114.773 74.5948L112.704 73.0779C112.68 73.0605 112.663 73.0347 112.655 73.0048C112.647 72.9749 112.649 72.9429 112.66 72.9144L112.663 72.9081C112.913 72.2832 113.174 71.6637 113.44 71.0467L114.25 69.2019C114.515 68.5849 114.802 67.9783 115.077 67.3662C115.355 66.7551 115.642 66.149 115.933 65.5451C115.935 65.5411 115.939 65.5381 115.942 65.5367C115.946 65.5352 115.951 65.5355 115.954 65.5374C115.958 65.5393 115.961 65.5427 115.962 65.5468C115.964 65.551 115.964 65.5557 115.962 65.5598Z" fill="black"/>
<path d="M106.331 59.0987C106.11 60.4688 105.874 61.8359 105.624 63.2C105.372 64.5636 105.117 65.9266 104.826 67.2819C104.679 67.9584 104.523 68.6361 104.329 69.3002L103.743 71.2868C103.545 71.9466 103.387 72.6201 103.271 73.3029C103.214 73.6431 103.184 73.9882 103.183 74.334C103.187 74.6765 103.248 75.0154 103.362 75.3343L103.282 75.3352C103.581 74.6418 104.002 74.0186 104.52 73.5003C105.034 72.9753 105.633 72.5585 106.286 72.2711C106.448 72.1981 106.618 72.1481 106.784 72.0856C106.868 72.0578 106.95 72.0215 107.036 72.0008L107.294 71.9431C107.467 71.9088 107.637 71.8569 107.812 71.8373L108.336 71.7873C108.511 71.7684 108.686 71.765 108.861 71.7772L109.387 71.793C109.735 71.8293 110.081 71.8891 110.428 71.9363L110.334 72.0424C110.092 70.7969 109.903 69.5422 109.737 68.2835C109.557 67.0265 109.462 65.7566 109.454 64.4844C109.454 64.4821 109.455 64.4799 109.456 64.4783C109.458 64.4766 109.46 64.4757 109.462 64.4758C109.464 64.4758 109.466 64.4767 109.468 64.4783C109.469 64.48 109.47 64.4821 109.47 64.4844C109.482 65.1192 109.541 65.751 109.606 66.381C109.669 67.0114 109.755 67.6393 109.846 68.2658C109.937 68.8923 110.04 69.5168 110.149 70.14C110.26 70.7624 110.373 71.3854 110.493 72.0049C110.495 72.0164 110.495 72.0282 110.493 72.0397C110.491 72.0511 110.487 72.0621 110.481 72.0719C110.476 72.0817 110.468 72.0901 110.459 72.0967C110.45 72.1033 110.44 72.108 110.43 72.1104C110.421 72.1124 110.412 72.1128 110.404 72.1117L110.399 72.111C110.057 72.0662 109.717 72.0085 109.375 71.9739L108.86 71.9604C108.689 71.9489 108.517 71.9527 108.346 71.972L107.833 72.0175C107.663 72.0348 107.497 72.0843 107.328 72.116L107.076 72.1699C106.992 72.1891 106.912 72.224 106.83 72.2502C106.668 72.3098 106.501 72.3568 106.343 72.4264C105.705 72.7032 105.117 73.101 104.606 73.6013C104.09 74.0984 103.668 74.6996 103.363 75.3718L103.361 75.3757C103.357 75.3839 103.351 75.3908 103.344 75.3955C103.337 75.4002 103.329 75.4025 103.32 75.4022C103.312 75.4019 103.304 75.399 103.297 75.3937C103.29 75.3885 103.285 75.3812 103.282 75.3728C103.169 75.0406 103.112 74.6887 103.115 74.3344C103.123 73.9847 103.156 73.6363 103.215 73.2923C103.34 72.609 103.498 71.9336 103.69 71.2691C103.876 70.6034 104.07 69.9407 104.244 69.2724C104.422 68.6058 104.561 67.9292 104.696 67.2497L106.315 59.0954L106.316 59.0922L106.318 59.0898L106.321 59.0885L106.324 59.0885L106.327 59.0898L106.33 59.0922L106.331 59.0953L106.331 59.0987Z" fill="black"/>
<path d="M103.556 74.8743C103.614 75.1449 103.683 75.4092 103.755 75.6704C103.826 75.9302 103.915 76.184 104.02 76.4299C104.119 76.6752 104.249 76.9043 104.406 77.1105C104.567 77.3171 104.768 77.4823 104.994 77.5944C104.737 77.5417 104.5 77.4055 104.315 77.2037C104.13 77.0018 103.981 76.7645 103.875 76.5037C103.767 76.2484 103.686 75.9802 103.635 75.7046C103.58 75.4319 103.554 75.1534 103.556 74.8743Z" fill="black"/>
<path d="M110.413 72.0237C110.755 72.2013 111.083 72.4082 111.395 72.6425C111.711 72.8705 112.009 73.1257 112.287 73.4059C111.945 73.2287 111.617 73.0217 111.305 72.787C110.99 72.5588 110.692 72.3035 110.413 72.0237Z" fill="black"/>
<path d="M92.2145 82.8719C92.3254 82.7459 92.4535 82.6393 92.5942 82.556C92.7383 82.4622 92.9091 82.4296 93.0739 82.4642C93.2392 82.5207 93.3775 82.6456 93.459 82.8122C93.4978 82.892 93.5328 82.9749 93.5646 83.0582L93.6381 83.3147C93.6444 83.3368 93.6424 83.3608 93.6325 83.3813C93.6226 83.4018 93.6057 83.4172 93.5854 83.4241C93.5651 83.431 93.5431 83.4289 93.5242 83.4181C93.5054 83.4073 93.4912 83.3888 93.4849 83.3667L93.4832 83.3598L93.4813 83.3506L93.4315 83.106C93.4083 83.0278 93.3824 82.9498 93.3533 82.8743C93.2958 82.7267 93.1875 82.6096 93.0516 82.5481C92.9045 82.5048 92.7479 82.5216 92.6114 82.5954C92.4668 82.6647 92.3329 82.758 92.2145 82.8719Z" fill="black"/>
<path d="M90.3824 83.1128C90.6326 82.7676 90.8654 82.4079 91.0796 82.0352C91.1872 81.8489 91.2853 81.6563 91.3735 81.4583C91.4677 81.2629 91.5311 81.0515 91.5611 80.8332C91.5441 81.0551 91.4931 81.2723 91.4102 81.4758C91.3333 81.6818 91.2461 81.883 91.1491 82.0786C90.9554 82.4706 90.7423 82.8508 90.5105 83.2174C90.5046 83.2269 90.497 83.235 90.4882 83.2412C90.4794 83.2475 90.4695 83.2518 90.4592 83.2539C90.4488 83.256 90.4382 83.2559 90.4279 83.2535C90.4176 83.2511 90.4078 83.2466 90.3992 83.2401C90.3905 83.2336 90.3831 83.2254 90.3773 83.2157C90.3716 83.2061 90.3676 83.1954 90.3657 83.1841C90.3637 83.1728 90.3639 83.1613 90.366 83.1501C90.3682 83.1388 90.3724 83.1282 90.3783 83.1187L90.3813 83.1143L90.3824 83.1128Z" fill="black"/>
<path d="M90.0336 82.4397L91.5611 79.6453L90.1734 82.5249C90.1685 82.5351 90.1618 82.5441 90.1537 82.5514C90.1456 82.5588 90.1363 82.5643 90.1262 82.5677C90.1162 82.5711 90.1056 82.5723 90.0952 82.5713C90.0847 82.5702 90.0745 82.567 90.0652 82.5616C90.0559 82.5563 90.0476 82.549 90.0409 82.5402C90.0342 82.5314 90.0291 82.5212 90.026 82.5103C90.0228 82.4994 90.0217 82.4878 90.0227 82.4764C90.0236 82.465 90.0266 82.4539 90.0315 82.4438L90.0336 82.4397Z" fill="black"/>
<path d="M90.7816 80.0807L91.7917 78.5577L90.9156 80.1762C90.9103 80.1861 90.9032 80.1947 90.8948 80.2016C90.8864 80.2085 90.8768 80.2136 90.8666 80.2164C90.8564 80.2193 90.8458 80.2199 90.8354 80.2183C90.8249 80.2167 90.8149 80.2129 90.8059 80.2071C90.7968 80.2012 90.7889 80.1935 90.7825 80.1843C90.7762 80.1752 90.7716 80.1647 90.769 80.1536C90.7663 80.1425 90.7657 80.131 90.7672 80.1196C90.7687 80.1082 90.7722 80.0973 90.7775 80.0874L90.7816 80.0807Z" fill="black"/>
<path d="M29.5594 86.7694C27.5386 87.9176 25.5041 89.0352 23.4761 90.1676L20.4244 91.8441L17.3704 93.5156L17.2555 92.9743L20.6737 92.9278L24.092 92.899L30.9285 92.8589C35.4862 92.8378 40.0439 92.8433 44.6017 92.9138L51.4383 92.9982L54.8567 93.0411L58.275 93.0659C62.8327 93.0888 83.3904 93.0561 87.948 93.0213L101.621 92.846L108.458 92.781L115.294 92.7402C124.409 92.6686 133.525 92.6671 142.64 92.7356L142.456 93.4773L137.047 89.9619C135.242 88.7945 133.448 87.6066 131.649 86.4265L126.26 82.876L120.886 79.2959C120.877 79.2899 120.87 79.2804 120.868 79.2693C120.865 79.2582 120.867 79.2465 120.872 79.2366C120.877 79.2267 120.886 79.2195 120.896 79.2166C120.906 79.2136 120.917 79.215 120.926 79.2206L126.42 82.5782L131.897 85.9654C133.721 87.0979 135.549 88.2226 137.367 89.3678L142.825 92.7902C142.895 92.8337 142.949 92.9007 142.98 92.9811C143.011 93.0615 143.016 93.1507 142.996 93.235C142.976 93.3193 142.931 93.394 142.868 93.4476C142.805 93.5013 142.728 93.5309 142.648 93.5319H142.641C133.526 93.6261 124.41 93.6456 115.295 93.5901L108.458 93.565L101.622 93.5157L87.9484 93.3719C83.3907 93.3475 62.8329 93.3253 58.2752 93.3586L54.857 93.3913L51.4388 93.4421L44.6023 93.5421C40.0446 93.6232 35.4869 93.6391 30.9292 93.6285L24.0926 93.6041L20.6743 93.5831L17.256 93.5445L17.25 93.5444C17.1909 93.5438 17.1339 93.5213 17.0881 93.4807C17.0423 93.4401 17.0105 93.3839 16.9978 93.321C16.9852 93.2582 16.9925 93.1926 17.0185 93.1348C17.0445 93.0771 17.0877 93.0307 17.1411 93.0032L20.2302 91.4101L23.3215 89.822C25.3889 88.7779 27.4498 87.7191 29.5243 86.6909C29.5338 86.6862 29.5446 86.6857 29.5545 86.6896C29.5643 86.6934 29.5724 86.7013 29.5769 86.7115C29.5815 86.7218 29.5822 86.7335 29.579 86.7443C29.5757 86.7552 29.5687 86.7641 29.5594 86.7694Z" fill="black"/>
<path d="M17.2558 95.961L30.9289 95.8337L44.6021 95.7605L87.9481 95.6995L115.294 95.7595L128.968 95.833L142.641 95.961L128.968 96.0891L115.294 96.1623L87.9481 96.2223L44.6021 96.1615L30.9289 96.0883L17.2558 95.961Z" fill="black"/>
<path d="M108.242 86.2014C106.6 86.4059 104.944 86.4438 103.296 86.3145C102.234 86.235 101.176 86.0972 100.127 85.9017C99.0748 85.7117 98.0337 85.4549 97.0091 85.1326L97.0999 85.1344L96.5632 85.2648C96.3792 85.2836 96.1968 85.3172 96.0112 85.322C95.6347 85.3354 95.259 85.2746 94.9023 85.1427C94.5449 84.9946 94.2242 84.7575 93.9658 84.4504C93.7066 84.1427 93.5146 83.775 93.4043 83.375L93.7076 83.3994C93.6062 83.6462 93.4609 83.8686 93.28 84.0537C93.1011 84.2278 92.9018 84.3752 92.6873 84.4919C92.4776 84.6061 92.2589 84.6991 92.0337 84.7697C91.8093 84.8429 91.5799 84.8965 91.3478 84.9302L91.3444 84.9307C91.3349 84.932 91.3254 84.9319 91.3159 84.9305C91.128 84.9131 90.9451 84.8557 90.7774 84.7615C90.5997 84.662 90.4558 84.5031 90.3668 84.3081C90.2836 84.1217 90.2383 83.918 90.234 83.7108C90.2273 83.5109 90.247 83.311 90.2925 83.1172L90.2978 83.2301C90.2123 82.9829 90.0644 82.7902 89.9302 82.4959C89.8659 82.3404 89.8379 82.1699 89.8488 81.9997C89.8652 81.8441 89.8995 81.6913 89.9507 81.5449C90.0487 81.2735 90.1664 81.0111 90.3029 80.7603C90.4347 80.5128 90.5737 80.2722 90.7144 80.0333L90.6892 80.1115C90.7675 79.3508 91.0514 78.6326 91.5049 78.048C91.6175 77.8983 91.7443 77.7621 91.8833 77.6417C91.9576 77.5756 92.0389 77.5195 92.1255 77.4747C92.1784 77.4469 92.235 77.4282 92.2932 77.4193C92.3327 77.4173 92.3722 77.4198 92.4113 77.4266L92.4802 77.4515C92.8122 77.5844 93.1062 77.7253 93.4173 77.8662C94.6441 78.4322 95.8633 79.0114 97.083 79.5921L97.0182 79.5775L101.542 79.5584L102.107 79.5565L102.668 79.5757C103.038 79.5754 103.409 79.554 103.777 79.5117C104.515 79.4234 105.241 79.2453 105.942 78.9808C107.353 78.4463 108.668 77.6507 109.831 76.6288C110.418 76.1198 110.971 75.5662 111.486 74.9721C112.007 74.3802 112.485 73.7459 112.917 73.0746C112.102 74.4654 111.104 75.7173 109.953 76.79C108.812 77.8972 107.486 78.7541 106.047 79.3137C105.322 79.5836 104.573 79.7664 103.812 79.8587C103.431 79.9024 103.049 79.9245 102.667 79.9248L102.098 79.9054L101.534 79.9074L97.0194 79.9265C96.9971 79.9265 96.975 79.9215 96.9545 79.9118C95.7361 79.3317 94.5162 78.7522 93.2928 78.1878C92.99 78.0502 92.6739 77.9008 92.3815 77.7836L92.3324 77.7649C92.3248 77.7658 92.3286 77.7703 92.3262 77.7665C92.3024 77.772 92.2793 77.7808 92.2576 77.7927C92.1942 77.8263 92.1346 77.868 92.0802 77.9169C91.9589 78.0225 91.8482 78.1418 91.75 78.2728C91.3384 78.8035 91.0802 79.4551 91.008 80.1454C91.0053 80.1733 90.9966 80.2 90.9828 80.2237C90.8445 80.4587 90.7082 80.6946 90.5806 80.9342C90.4534 81.1679 90.3434 81.4121 90.2515 81.6647C90.2105 81.7814 90.1824 81.9031 90.1681 82.0271C90.1612 82.1389 90.1798 82.2507 90.2222 82.3527C90.3579 82.5949 90.4824 82.8443 90.5951 83.1001C90.6076 83.1358 90.6096 83.1747 90.6008 83.2117L90.6004 83.2131C90.5645 83.3714 90.5489 83.5345 90.5541 83.6975C90.5567 83.8538 90.59 84.0077 90.6518 84.1487C90.7112 84.2816 90.8093 84.3894 90.9308 84.4551C91.06 84.5263 91.2006 84.5697 91.3449 84.583L91.3132 84.5833C91.5263 84.5517 91.7369 84.5021 91.943 84.435C92.1497 84.3703 92.3505 84.285 92.5429 84.1804C92.7306 84.0783 92.9052 83.9497 93.0621 83.7979C93.2092 83.647 93.3279 83.4663 93.4117 83.266C93.4251 83.2333 93.4474 83.2059 93.4756 83.1873C93.5037 83.1688 93.5364 83.16 93.5692 83.1622C93.602 83.1644 93.6334 83.1775 93.6593 83.1996C93.6851 83.2218 93.7042 83.252 93.7139 83.2862L93.715 83.2904C93.8131 83.6341 93.9796 83.9499 94.2026 84.2154C94.4266 84.4814 94.7043 84.6868 95.0137 84.8155C95.3319 84.9317 95.6665 84.9851 96.0019 84.9731C96.171 84.9689 96.3409 84.9367 96.5105 84.9206L97.0145 84.798L97.0203 84.7966C97.0485 84.7898 97.0777 84.7909 97.1054 84.7998C98.1161 85.1172 99.1429 85.3702 100.181 85.5576C101.219 85.7512 102.266 85.8876 103.318 85.9663C104.96 86.0952 106.609 86.0562 108.245 85.8497" fill="black"/>
<path d="M114.563 83.8202C114.641 83.7757 114.719 83.7312 114.798 83.6886C115.034 83.5639 115.264 83.4261 115.487 83.2755C116.397 82.6987 117.245 82.0124 118.015 81.2295L118.585 80.6313C118.764 80.4204 118.937 80.2027 119.113 79.9883L119.377 79.6651L119.617 79.3211L120.097 78.632L119.642 79.342L119.414 79.6976L119.163 80.033C118.994 80.2557 118.828 80.4823 118.656 80.7025L118.104 81.33C117.354 82.1567 116.521 82.8891 115.621 83.5135C115.276 83.7521 114.923 83.98 114.562 84.1912" fill="black"/>
<path d="M58.215 68.1105C58.0565 68.1984 57.897 68.2838 57.735 68.3624L57.7603 68.2984C57.8632 68.5393 57.9575 68.7838 58.0508 69.0288C58.147 69.2725 58.2345 69.52 58.3133 69.7713C58.3936 70.0219 58.4675 70.2753 58.5518 70.5242C58.6365 70.7729 58.7307 71.0174 58.8274 71.261C59.229 72.2286 59.6112 73.2047 59.935 74.206L59.8495 74.1657C60.1728 74.0391 60.4988 73.92 60.8285 73.8109C60.8304 73.8103 60.8325 73.8104 60.8343 73.8114C60.8361 73.8124 60.8376 73.814 60.8383 73.8161C60.839 73.8181 60.839 73.8204 60.8383 73.8224C60.8376 73.8245 60.8362 73.8262 60.8344 73.8271C60.5256 73.9937 60.2135 74.1511 59.898 74.2993C59.8826 74.3066 59.8651 74.3069 59.8495 74.3003C59.8338 74.2936 59.8212 74.2805 59.8144 74.2637L59.8125 74.259C59.4178 73.2883 59.0815 72.2925 58.7647 71.2881C58.6817 71.0387 58.5962 70.7903 58.5014 70.546C58.4061 70.3019 58.3004 70.0623 58.201 69.8199C58.0998 69.5783 58.0077 69.3328 57.9247 69.0834C57.8383 68.8354 57.753 68.5869 57.6763 68.3348L57.6749 68.3303C57.6713 68.3185 57.6721 68.3057 57.6771 68.2946C57.6821 68.2835 57.6909 68.275 57.7016 68.2708C57.8688 68.2066 58.0384 68.1491 58.209 68.0943C58.211 68.0937 58.213 68.0939 58.2148 68.0948C58.2166 68.0958 58.2181 68.0974 58.2188 68.0995C58.2195 68.1015 58.2196 68.1038 58.2189 68.1058C58.2181 68.1079 58.2168 68.1095 58.215 68.1105Z" fill="black"/>
<path d="M60.9679 73.7486C61.421 73.5393 61.8716 73.323 62.3269 73.1193L63.6918 72.5065C64.6033 72.1021 68.4249 70.3982 69.3451 70.0176L69.3106 70.1046L68.7941 68.6166L68.2674 67.1331C67.9081 66.1475 67.5355 65.1678 67.1641 64.1874L67.2315 64.2191C66.2983 64.6401 59.06 67.7727 58.3087 68.0706C58.3067 68.0713 58.3046 68.0712 58.3028 68.0702C58.3009 68.0693 58.2995 68.0676 58.2987 68.0656C58.298 68.0635 58.298 68.0612 58.2987 68.0591C58.2995 68.0571 58.3009 68.0554 58.3028 68.0544C59.0371 67.7097 66.2491 64.505 67.1932 64.1139L67.1946 64.1133C67.2073 64.108 67.2214 64.1085 67.2338 64.1145C67.2462 64.1206 67.2558 64.1318 67.2607 64.1456C67.6078 65.1364 67.9536 66.1278 68.3128 67.1134L68.8638 68.5865L69.425 70.0551C69.4312 70.0713 69.4312 70.0895 69.4251 70.1056C69.419 70.1218 69.4072 70.1347 69.3924 70.1414L69.3905 70.1423C68.4813 70.5529 64.6558 72.2463 63.7379 72.6332L62.3589 73.2072C61.8994 73.3993 61.4354 73.5785 60.9738 73.7649C60.9719 73.7657 60.9697 73.7656 60.9678 73.7647C60.9659 73.7637 60.9643 73.762 60.9636 73.7599C60.9628 73.7578 60.9628 73.7554 60.9636 73.7533C60.9645 73.7512 60.966 73.7495 60.9679 73.7486Z" fill="black"/>
<path d="M133.532 87.4164L124.379 81.4478L132.09 80.1284C132.09 80.1284 133.993 82.6415 133.532 87.4164Z" fill="black"/>
<path d="M76.6937 83.5344L76.7739 81.6676C76.8015 81.0549 76.8304 80.4506 76.871 79.8478L76.9555 79.9552C76.268 79.9042 75.5803 79.8555 74.894 79.7876C74.2072 79.728 73.522 79.6435 72.836 79.5716C72.1504 79.4936 71.4637 79.4326 70.7767 79.374C70.0895 79.3182 69.4019 79.27 68.7136 79.2293L68.7808 79.1666C68.7201 80.3983 68.6491 81.6291 68.5679 82.859L68.4655 82.7288C69.1466 82.7798 69.8252 82.8299 70.5048 82.8944C71.1849 82.958 71.862 83.0116 72.5459 83.0862L74.6043 83.3022L76.6937 83.5344ZM76.7085 83.5533L74.6758 83.4384L72.6121 83.3073C71.922 83.2662 71.225 83.2042 70.5312 83.1521C69.8367 83.1009 69.1413 83.0352 68.4484 82.9707L68.3367 82.9602L68.3459 82.8403C68.4402 81.6115 68.5436 80.3834 68.656 79.1561L68.6625 79.0867L68.7233 79.0933C69.4091 79.1673 70.0955 79.2348 70.7822 79.2956C71.4693 79.3528 72.1565 79.4075 72.845 79.4452C73.533 79.489 74.2219 79.5201 74.909 79.5762C75.5967 79.624 76.2831 79.691 76.9697 79.7557L77.0615 79.7643L77.0541 79.8632C77.0076 80.4899 76.9493 81.1149 76.8898 81.7317L76.7085 83.5533Z" fill="black"/>
<path d="M85.0945 87.8756L85.1747 86.0088C85.2024 85.3962 85.2313 84.7918 85.2719 84.189L85.3564 84.2965C84.6689 84.2455 83.9812 84.1968 83.2949 84.1288C82.608 84.0692 81.9229 83.9847 81.2369 83.9128C80.5513 83.8348 79.8645 83.7738 79.1776 83.7153C78.4904 83.6594 77.8027 83.6112 77.1145 83.5705L77.1817 83.5078C77.121 84.7395 77.05 85.9703 76.9688 87.2002L76.8664 87.07C77.5475 87.1211 78.2261 87.1711 78.9056 87.2356C79.5858 87.2992 80.2629 87.3529 80.9468 87.4274L83.0052 87.6435L85.0945 87.8756ZM85.1094 87.8946L83.0767 87.7796L81.013 87.6486C80.3228 87.6075 79.6259 87.5454 78.9321 87.4933C78.2376 87.4422 77.5422 87.3765 76.8492 87.3119L76.7376 87.3015L76.7468 87.1816C76.8411 85.9527 76.9445 84.7246 77.0569 83.4973L77.0633 83.428L77.1241 83.4346C77.81 83.5086 78.4963 83.576 79.1831 83.6369C79.8702 83.694 80.5574 83.7487 81.2459 83.7864C81.9339 83.8302 82.6228 83.8614 83.3099 83.9175C83.9976 83.9652 84.684 84.0322 85.3705 84.0969L85.4623 84.1056L85.455 84.2044C85.4085 84.8311 85.3502 85.4562 85.2907 86.073L85.1094 87.8946Z" fill="black"/>
<path d="M72.9104 87.8756L72.9906 86.0088C73.0183 85.3962 73.0472 84.7918 73.0878 84.189L73.1723 84.2965C72.4848 84.2455 71.7971 84.1968 71.1108 84.1288C70.424 84.0692 69.7388 83.9847 69.0528 83.9128C68.3672 83.8348 67.6805 83.7738 66.9935 83.7153C66.3063 83.6594 65.6186 83.6112 64.9304 83.5705L64.9976 83.5078C64.9369 84.7395 64.8659 85.9703 64.7847 87.2002L64.6823 87.07C65.3634 87.1211 66.042 87.1711 66.7216 87.2356C67.4017 87.2992 68.0788 87.3529 68.7627 87.4274L70.8211 87.6435L72.9104 87.8756ZM72.9253 87.8946L70.8926 87.7796L68.8289 87.6486C68.1388 87.6075 67.4418 87.5454 66.748 87.4933C66.0535 87.4422 65.3581 87.3765 64.6652 87.3119L64.5535 87.3015L64.5627 87.1816C64.657 85.9527 64.7604 84.7246 64.8728 83.4973L64.8792 83.428L64.9401 83.4346C65.6259 83.5086 66.3122 83.576 66.999 83.6369C67.6861 83.694 68.3733 83.7487 69.0618 83.7864C69.7498 83.8302 70.4387 83.8614 71.1258 83.9175C71.8135 83.9652 72.4999 84.0322 73.1864 84.0969L73.2783 84.1056L73.2709 84.2044C73.2244 84.8311 73.1661 85.4562 73.1066 86.073L72.9253 87.8946Z" fill="black"/>
<path d="M80.2019 85.6938L80.4634 82.0054L72.2193 81.3113L71.9578 84.9997L80.2019 85.6938Z" fill="black"/>
<path d="M83.9395 83.2997L84.201 79.6113L75.9569 78.9172L75.6954 82.6056L83.9395 83.2997Z" fill="black"/>
<path d="M75.766 81.6099C76.5546 81.5949 77.3397 81.631 78.1232 81.6873C78.9068 81.7441 79.6889 81.8212 80.4686 81.932L80.5391 81.942L80.5308 82.0111C80.491 82.3416 80.446 82.6717 80.3929 83.0011C80.3868 82.6667 80.3888 82.333 80.3961 81.9998L80.4582 82.0789C79.6721 82.0578 78.8884 82.0031 78.1062 81.928C77.3239 81.8525 76.5431 81.7568 75.766 81.6099Z" fill="white"/>
<path d="M87.4544 72.933C89.392 72.933 90.9627 72.4713 90.9627 71.9018C90.9627 71.3322 89.392 70.8705 87.4544 70.8705C85.5168 70.8705 83.9461 71.3322 83.9461 71.9018C83.9461 72.4713 85.5168 72.933 87.4544 72.933Z" fill="#020202"/>
<path d="M89.8721 81.1814C89.957 80.4075 90.0388 79.6335 90.0888 78.8564L90.2577 76.5249C90.3236 75.7481 90.3963 74.9715 90.4934 74.1979C90.5835 73.4234 90.6992 72.6522 90.8144 71.8815L90.9627 72.0647L89.2085 71.998C88.6238 71.982 88.0391 71.9755 87.4544 71.9784C86.8697 71.9808 86.285 71.9891 85.7003 72.0101L83.9461 72.0699L84.0992 71.8809C84.3243 73.4213 84.5174 74.9661 84.7118 76.5107C84.8129 77.2824 84.8999 78.0561 84.9894 78.8295C85.0689 79.6042 85.1582 80.3776 85.2266 81.1538L85.2292 81.1827L85.2288 81.1832L85.2283 81.1829C85.218 81.1519 85.2419 81.2203 85.3145 81.2722C85.3939 81.3291 85.4787 81.3767 85.5675 81.4141C85.7631 81.4957 85.9641 81.5613 86.1687 81.6105C86.5917 81.7107 87.0219 81.7712 87.4544 81.7916C87.8904 81.8174 88.3276 81.7998 88.7606 81.7389C88.9768 81.7083 89.1899 81.6556 89.397 81.5815C89.4995 81.5444 89.5981 81.4958 89.6912 81.4362C89.7372 81.4116 89.7775 81.3759 89.8088 81.3317C89.8402 81.2875 89.8618 81.2361 89.8721 81.1814ZM89.9178 81.1845C89.9082 81.2477 89.8853 81.3077 89.8509 81.3597C89.8166 81.4117 89.7716 81.4544 89.7196 81.4844C89.6242 81.5485 89.5229 81.6015 89.4172 81.6424C89.2081 81.7237 88.9937 81.7881 88.7758 81.8348C88.3399 81.9284 87.8982 81.9866 87.4544 82.009C87.0067 82.0331 86.558 82.0178 86.1126 81.9631C85.8831 81.9356 85.6565 81.8842 85.4359 81.8098C85.3164 81.7698 85.2011 81.7157 85.0923 81.6485C85.0273 81.6059 84.9682 81.5532 84.917 81.4922C84.8466 81.4068 84.805 81.2977 84.7994 81.183L84.8011 81.212C84.6915 80.4413 84.6028 79.6679 84.5044 78.8958C84.416 78.1222 84.325 77.3491 84.2482 76.574C84.0867 75.0249 83.9239 73.476 83.793 71.9227L83.7921 71.9119C83.7885 71.8688 83.8007 71.8258 83.8262 71.7925C83.8516 71.7592 83.8881 71.7382 83.9277 71.7343L83.9461 71.7337L85.7003 71.7935C86.285 71.8145 86.8697 71.8228 87.4544 71.8252C88.0391 71.8285 88.6238 71.822 89.2085 71.8056L90.9627 71.7389C91.001 71.7374 91.0384 71.7526 91.0665 71.7812C91.0946 71.8097 91.1111 71.8493 91.1124 71.8911L91.112 71.9095L91.111 71.9221C91.0483 72.6982 90.986 73.4739 90.8981 74.2463C90.8173 75.0195 90.712 75.7897 90.5999 76.5599L90.235 78.8689C90.107 79.6386 90.0109 80.4115 89.9178 81.1845Z" fill="#020202"/>
<path d="M57.297 81.1796C59.2346 81.1796 60.8053 80.7179 60.8053 80.1484C60.8053 79.5788 59.2346 79.1171 57.297 79.1171C55.3594 79.1171 53.7887 79.5788 53.7887 80.1484C53.7887 80.7179 55.3594 81.1796 57.297 81.1796Z" fill="#020202"/>
<path d="M59.7147 89.428C59.7996 88.6541 59.8814 87.8802 59.9314 87.103L60.1003 84.7715C60.1662 83.9947 60.2389 83.2182 60.336 82.4445C60.4261 81.67 60.5418 80.8988 60.657 80.1282L60.8053 80.3113L59.0512 80.2446C58.4664 80.2286 57.8817 80.222 57.297 80.225C56.7123 80.2274 56.1276 80.2357 55.5429 80.2567L53.7887 80.3165L53.9418 80.1275C54.1669 81.6679 54.36 83.2127 54.5544 84.7573C54.6555 85.5291 54.7425 86.3027 54.832 87.0761C54.9115 87.8508 55.0008 88.6242 55.0692 89.4004L55.0718 89.4293L55.0714 89.4299L55.0709 89.4295C55.0606 89.3985 55.0845 89.4669 55.1571 89.5188C55.2366 89.5758 55.3214 89.6233 55.4101 89.6607C55.6058 89.7423 55.8067 89.808 56.0113 89.8572C56.4344 89.9573 56.8645 90.0179 57.297 90.0382C57.733 90.064 58.1702 90.0464 58.6032 89.9855C58.8194 89.9549 59.0325 89.9022 59.2396 89.8281C59.3421 89.7911 59.4407 89.7424 59.5338 89.6829C59.5798 89.6583 59.6201 89.6225 59.6514 89.5783C59.6828 89.5341 59.7045 89.4827 59.7147 89.428ZM59.7604 89.4311C59.7508 89.4943 59.7279 89.5543 59.6936 89.6063C59.6592 89.6584 59.6143 89.701 59.5623 89.731C59.4668 89.7951 59.3655 89.8481 59.2599 89.889C59.0507 89.9703 58.8363 90.0347 58.6184 90.0814C58.1825 90.175 57.7408 90.2333 57.297 90.2556C56.8494 90.2797 56.4007 90.2644 55.9553 90.2097C55.7257 90.1822 55.4991 90.1308 55.2786 90.0564C55.159 90.0164 55.0437 89.9623 54.9349 89.8951C54.8699 89.8525 54.8109 89.7998 54.7596 89.7388C54.6892 89.6534 54.6477 89.5443 54.642 89.4296L54.6437 89.4586C54.5341 88.6879 54.4455 87.9145 54.347 87.1423C54.2586 86.3689 54.1676 85.5957 54.0908 84.8206C53.9293 83.2715 53.7665 81.7226 53.6356 80.1693L53.6348 80.1585C53.6311 80.1154 53.6434 80.0724 53.6688 80.0391C53.6942 80.0058 53.7308 79.9848 53.7704 79.9809L53.7887 79.9803L55.5429 80.0401C56.1276 80.0611 56.7123 80.0694 57.297 80.0718C57.8817 80.0751 58.4664 80.0686 59.0512 80.0522L60.8053 79.9855C60.8437 79.984 60.881 79.9992 60.9091 80.0278C60.9372 80.0563 60.9537 80.0959 60.955 80.1377L60.9546 80.1561L60.9536 80.1687C60.8909 80.9448 60.8286 81.7205 60.7408 82.4929C60.6599 83.2661 60.5546 84.0363 60.4425 84.8064L60.0776 87.1155C59.9496 87.8852 59.8535 88.6581 59.7604 89.4311Z" fill="#020202"/>
<path d="M111.309 82.0985C113.246 82.0985 114.817 81.6368 114.817 81.0673C114.817 80.4977 113.246 80.036 111.309 80.036C109.371 80.036 107.8 80.4977 107.8 81.0673C107.8 81.6368 109.371 82.0985 111.309 82.0985Z" fill="#020202"/>
<path d="M113.727 90.3468C113.811 89.573 113.893 88.799 113.943 88.0219L114.112 85.6903C114.178 84.9136 114.251 84.137 114.348 83.3634C114.438 82.5889 114.554 81.8177 114.669 81.047L114.817 81.2301L113.063 81.1635C112.478 81.1475 111.893 81.1409 111.309 81.1438C110.724 81.1463 110.139 81.1545 109.555 81.1756L107.8 81.2354L107.954 81.0464C108.179 82.5868 108.372 84.1315 108.566 85.6761C108.667 86.4479 108.754 87.2216 108.844 87.995C108.923 88.7697 109.013 89.5431 109.081 90.3193L109.084 90.3482L109.083 90.3487L109.083 90.3484C109.072 90.3174 109.096 90.3858 109.169 90.4376C109.248 90.4946 109.333 90.5422 109.422 90.5796C109.617 90.6611 109.818 90.7268 110.023 90.776C110.446 90.8762 110.876 90.9367 111.309 90.9571C111.745 90.9829 112.182 90.9652 112.615 90.9044C112.831 90.8738 113.044 90.8211 113.251 90.7469C113.354 90.7099 113.452 90.6612 113.546 90.6017C113.592 90.5771 113.632 90.5413 113.663 90.4972C113.695 90.453 113.716 90.4016 113.727 90.3468ZM113.772 90.3499C113.763 90.4132 113.74 90.4732 113.705 90.5252C113.671 90.5772 113.626 90.6199 113.574 90.6499C113.479 90.714 113.377 90.7669 113.272 90.8078C113.062 90.8892 112.848 90.9535 112.63 91.0003C112.194 91.0939 111.753 91.1521 111.309 91.1745C110.861 91.1986 110.412 91.1833 109.967 91.1286C109.737 91.1011 109.511 91.0497 109.29 90.9753C109.171 90.9353 109.055 90.8812 108.947 90.814C108.882 90.7713 108.823 90.7187 108.771 90.6577C108.701 90.5723 108.659 90.4631 108.654 90.3484L108.655 90.3774C108.546 89.6068 108.457 88.8333 108.359 88.0612C108.27 87.2877 108.179 86.5146 108.103 85.7395C107.941 84.1904 107.778 82.6415 107.647 81.0882L107.647 81.0774C107.643 81.0342 107.655 80.9913 107.681 80.958C107.706 80.9247 107.743 80.9037 107.782 80.8997L107.8 80.8991L109.555 80.9589C110.139 80.98 110.724 80.9882 111.309 80.9907C111.893 80.994 112.478 80.9874 113.063 80.971L114.817 80.9044C114.855 80.9029 114.893 80.9181 114.921 80.9467C114.949 80.9752 114.965 81.0147 114.967 81.0566L114.966 81.075L114.965 81.0875C114.903 81.8637 114.84 82.6394 114.752 83.4117C114.672 84.1849 114.566 84.9552 114.454 85.7253L114.089 88.0343C113.961 88.804 113.865 89.577 113.772 90.3499Z" fill="#020202"/>
</svg>
