<svg width="148" height="148" viewBox="0 0 148 148" fill="none" xmlns="http://www.w3.org/2000/svg">
<path d="M101.059 102.051C102.129 103.221 103.203 104.39 104.276 105.559H91.3135C91.7473 104.626 92.1912 103.692 92.6003 102.737C92.8671 102.107 93.0901 101.465 93.2825 100.807C93.2919 100.81 93.2953 100.814 93.3047 100.81C94.7561 100.686 96.2113 100.559 97.6596 100.429C97.8521 100.413 97.8051 100.125 97.6157 100.143C96.2018 100.268 94.7874 100.392 93.3726 100.513C93.7513 99.1724 94.0212 97.7985 94.3032 96.4398C94.4398 95.7948 94.5605 95.1525 94.6882 94.5044C95.4575 94.3025 96.2203 94.1011 96.9862 93.8962C97.368 93.794 97.7713 93.7102 97.9079 93.2978C97.9664 93.1179 97.694 93.0156 97.6348 93.1952C97.4887 93.6294 96.3848 93.7536 95.9942 93.8588C95.5782 93.9675 95.1658 94.0822 94.7561 94.1878C95.0757 92.5591 95.3862 90.9217 95.6708 89.281C95.702 89.0976 95.4136 89.0697 95.3831 89.2557C94.9638 91.6473 94.5109 94.0328 94.0148 96.4089C93.9845 96.5451 93.9555 96.6816 93.9278 96.8184C93.1617 95.6147 92.5354 94.3523 92.0419 93.0088C91.9771 92.8323 91.7103 92.9534 91.7782 93.1273C92.2993 94.5632 92.9814 95.9095 93.8199 97.1844C93.8288 97.1997 93.8384 97.2027 93.844 97.2123C93.4285 99.1943 92.9916 101.173 92.1538 103.028C92.0768 103.189 92.0044 103.351 91.9301 103.512C90.8286 102.243 89.7926 100.922 88.8347 99.545C88.726 99.3927 88.4995 99.579 88.6082 99.728C89.5919 101.136 90.6464 102.486 91.7756 103.776C91.7814 103.785 91.7935 103.791 91.8005 103.798C91.5273 104.387 91.2536 104.973 90.9845 105.559H79.2938C79.2753 105.451 79.2651 105.342 79.2651 105.231C79.2651 104.26 79.9759 103.428 80.7667 102.864C81.555 102.299 82.4633 101.902 83.1894 101.26C83.4529 101.025 83.7013 100.742 83.7788 100.401C83.94 99.6937 83.3721 99.0578 83.0126 98.4312C81.9081 96.508 82.7029 94.0919 83.5216 92.0321C83.7445 91.4583 84.0169 90.8347 84.5727 90.571C85.3819 90.1895 86.294 90.7636 87.0291 91.2783C87.764 91.7899 88.7759 92.2676 89.4953 91.7345C90.2088 91.2072 90.0473 90.0718 89.5755 89.321C89.0426 88.468 88.23 87.8199 87.6935 86.9728C87.1536 86.1262 86.9637 84.8914 87.6838 84.1874C88.5395 83.3563 89.9483 83.8213 91.049 84.29C92.1507 84.7584 93.649 85.0812 94.3471 84.1127C94.7473 83.564 94.685 82.7855 94.3807 82.1805C94.0732 81.5727 93.5715 81.0983 93.0901 80.6205C92.8271 80.3566 92.5513 80.0559 92.5196 79.6835C92.4885 79.3453 92.675 79.0199 92.8862 78.7499C94.0923 77.2299 96.4743 76.8047 98.1341 77.8162C99.7907 78.8305 100.504 81.1413 99.7011 82.9126C99.397 83.5823 98.9313 84.4478 99.4711 84.9507C100.172 85.6143 101.196 84.4946 102.157 84.4142C102.967 84.3459 103.662 85.1148 103.771 85.9184C103.876 86.725 103.529 87.519 103.094 88.2047C102.26 89.5227 101.09 90.5867 100.024 91.7251C99.8527 91.9081 99.6763 92.1035 99.6324 92.3516C99.5511 92.7613 99.8554 93.1459 100.194 93.3908C100.954 93.9399 101.924 94.076 102.818 94.3553C103.717 94.6342 104.648 95.1683 104.903 96.0705C105.173 97.045 104.524 98.0594 103.714 98.6641C102.902 99.2691 101.922 99.6099 101.087 100.187C100.845 100.355 100.6 100.562 100.525 100.848C100.417 101.294 100.749 101.716 101.059 102.051Z" fill="url(#paint0_linear_2_209)"/>
<path d="M45.9181 102.051C44.848 103.221 43.7744 104.39 42.7016 105.559H55.6639C55.2301 104.626 54.7862 103.692 54.377 102.737C54.1103 102.107 53.8871 101.465 53.6947 100.807C53.6853 100.81 53.6829 100.814 53.6732 100.81C52.2211 100.686 50.7659 100.559 49.3177 100.429C49.1259 100.413 49.1723 100.125 49.3615 100.143C50.7755 100.268 52.1901 100.392 53.6045 100.513C53.2262 99.1724 52.956 97.7985 52.674 96.4398C52.5374 95.7948 52.4169 95.1525 52.2892 94.5044C51.5226 94.3035 50.7566 94.1007 49.991 93.8962C49.6092 93.794 49.2059 93.7102 49.0693 93.2978C49.0108 93.1179 49.2834 93.0156 49.3425 93.1952C49.4886 93.6294 50.5926 93.7536 50.9838 93.8588C51.3992 93.9675 51.8115 94.0822 52.2211 94.1878C51.9015 92.5591 51.591 90.9217 51.3066 89.281C51.2747 89.0976 51.5639 89.0697 51.5943 89.2557C52.0136 91.6473 52.4663 94.0328 52.9625 96.4089C52.9927 96.5451 53.0217 96.6816 53.0494 96.8184C53.8155 95.6147 54.4417 94.3523 54.9352 93.0088C55.0001 92.8323 55.2669 92.9534 55.1989 93.1273C54.6781 94.5632 53.9953 95.9095 53.1581 97.1844C53.1485 97.1997 53.1398 97.2027 53.1334 97.2123C53.5487 99.1943 53.9858 101.173 54.8236 103.028C54.9011 103.189 54.973 103.351 55.0471 103.512C56.148 102.243 57.1846 100.922 58.1425 99.545C58.2509 99.3927 58.4779 99.579 58.3692 99.728C57.3853 101.136 56.3316 102.486 55.2014 103.776C55.1957 103.785 55.1837 103.791 55.1773 103.798C55.4499 104.387 55.7238 104.973 55.993 105.559H67.6836C67.7027 105.451 67.7121 105.342 67.7121 105.231C67.7121 104.26 67.0015 103.428 66.2106 102.864C65.4224 102.299 64.5141 101.902 63.788 101.26C63.5243 101.025 63.2761 100.742 63.1985 100.401C63.0373 99.6937 63.605 99.0578 63.9646 98.4312C65.0693 96.508 64.2746 94.0919 63.4559 92.0321C63.2329 91.4583 62.9603 90.8347 62.4046 90.571C61.5953 90.1895 60.6833 90.7636 59.9483 91.2783C59.2134 91.7899 58.2015 92.2676 57.4817 91.7345C56.7684 91.2072 56.9299 90.0718 57.4019 89.321C57.9348 88.468 58.7471 87.8199 59.284 86.9728C59.8238 86.1262 60.0138 84.8914 59.2934 84.1874C58.4379 83.3563 57.029 83.8213 55.9281 84.29C54.8266 84.7584 53.329 85.0812 52.6303 84.1127C52.2302 83.564 52.2917 82.7855 52.5967 82.1805C52.904 81.5727 53.4058 81.0983 53.8872 80.6205C54.1504 80.3566 54.4259 80.0559 54.4576 79.6835C54.489 79.3453 54.302 79.0199 54.0911 78.7499C52.8849 77.2299 50.503 76.8047 48.8434 77.8162C47.1867 78.8305 46.4733 81.1413 47.2769 82.9126C47.5812 83.5823 48.0462 84.4478 47.5061 84.9507C46.8057 85.6143 45.7817 84.4946 44.8201 84.4142C44.0101 84.3459 43.3159 85.1148 43.2072 85.9184C43.1018 86.725 43.4487 87.519 43.8831 88.2047C44.7176 89.5227 45.887 90.5867 46.9536 91.7251C47.1252 91.9081 47.301 92.1035 47.3448 92.3516C47.4263 92.7613 47.1218 93.1459 46.7834 93.3908C46.0236 93.9399 45.053 94.076 44.1595 94.3553C43.26 94.6342 42.3295 95.1683 42.0746 96.0705C41.8052 97.045 42.4538 98.0594 43.263 98.6641C44.0755 99.2691 45.0562 99.6099 45.8904 100.187C46.1322 100.355 46.3775 100.562 46.4518 100.848C46.5604 101.294 46.2281 101.716 45.9181 102.051Z" fill="url(#paint1_linear_2_209)"/>
<path opacity="0.5" d="M106.633 105.559H36.5999C37.3405 102.359 39.9913 99.6802 43.5871 98.2918C44.9164 97.7716 46.3812 97.4305 47.9235 97.3051C48.875 94.7503 50.5245 92.4323 52.6987 90.4843C56.8835 86.7376 63.015 84.3752 69.8484 84.3752C79.2549 84.3752 87.3294 88.8559 90.8351 95.2585C91.2778 95.2231 91.7256 95.1963 92.1804 95.1963C98.8046 95.1963 104.17 99.4299 104.17 104.649C104.17 104.701 104.17 104.745 104.163 104.791C105.053 104.937 105.883 105.203 106.633 105.559Z" fill="url(#paint2_linear_2_209)"/>
<path opacity="0.7" d="M56.9685 105.559H111.4C110.825 103.072 108.765 100.99 105.97 99.9106C104.936 99.5067 103.797 99.2411 102.599 99.1439C101.859 97.1583 100.577 95.3569 98.8873 93.8423C95.6351 90.9304 90.8694 89.0946 85.5579 89.0946C78.2468 89.0946 71.9712 92.5771 69.2468 97.5537C68.902 97.5254 68.5538 97.5049 68.2006 97.5049C63.0518 97.5049 58.8824 100.795 58.8824 104.852C58.8824 104.892 58.8824 104.927 58.8868 104.962C58.1964 105.076 57.5511 105.282 56.9685 105.559Z" fill="url(#paint3_linear_2_209)"/>
<path d="M74.2579 90.1404C74.2579 90.1404 73.4695 87.6904 71.2846 88.5996L71.2832 88.5988L71.2649 88.6075C71.174 88.6453 71.0847 88.6871 70.9974 88.7327C70.9974 88.7327 71.0171 88.7844 71.0589 88.8684L71.0654 88.8827H71.0661C71.3079 89.3626 72.2228 90.7972 74.2579 90.1404Z" fill="white"/>
<path d="M85.857 102.551L85.8227 102.546L85.8208 102.548C83.9743 102.352 83.2095 103.487 82.8945 104.424C82.833 103.653 82.6805 102.894 82.3833 102.169C82.3069 101.984 82.2231 101.806 82.1348 101.631C84.8001 101.043 84.6045 98.4431 84.6045 98.4431C84.4825 98.4382 84.3682 98.4393 84.2576 98.4431H84.2164L84.2146 98.4458C82.272 98.5359 81.8158 99.9723 81.727 100.908C80.7736 99.4008 79.4022 98.2237 78.1072 96.98C79.8989 95.7822 79.0421 93.8876 79.0421 93.8876C78.9486 93.9178 78.8564 93.9517 78.7657 93.9893L78.7467 93.9959L78.7461 93.9973C77.4217 94.5494 77.3334 95.6067 77.4713 96.3545C77.4699 96.3532 77.4688 96.3518 77.4673 96.3505C76.7259 95.5984 76.1088 94.7722 75.6362 93.8844C77.4458 93.2499 77.4203 91.6676 77.3613 91.156C77.3613 91.156 77.362 91.1556 77.3626 91.1556L77.3588 91.1322C77.3481 91.0445 77.336 90.9934 77.336 90.9934C77.2356 91.0036 77.1404 91.0181 77.0489 91.0349L77.0248 91.0385L77.0233 91.04C75.5664 91.3178 75.2933 92.395 75.2933 93.161C74.8728 92.1739 74.6281 91.1188 74.5917 90.0109C76.7777 90.3595 77.4142 88.3389 77.4142 88.3389C77.3143 88.2945 77.2184 88.2579 77.1251 88.2251L77.1193 88.2227L77.1182 88.223C75.7766 87.7577 75.0094 88.4679 74.6104 89.1123C74.6155 89.033 74.618 88.9553 74.6255 88.8763C74.7026 88.0646 74.8645 87.2704 75.0829 86.4908C76.9135 86.4119 77.3028 84.9648 77.3811 84.4861C77.3817 84.4861 77.3817 84.4857 77.3817 84.4857L77.3836 84.474C77.3975 84.3857 77.4002 84.3331 77.4002 84.3331C77.31 84.3169 77.2242 84.3061 77.1405 84.2978L77.1093 84.2937L77.1075 84.2952C76.4753 84.239 76.0237 84.3969 75.7017 84.6521C75.9171 84.0964 76.1507 83.547 76.3959 83.0036C78.0271 83.7394 79.0244 82.6546 79.3126 82.2705L79.3134 82.2709L79.3198 82.2617C79.373 82.1896 79.4004 82.1445 79.4004 82.1445C79.3273 82.0874 79.2549 82.0372 79.1836 81.9904L79.1621 81.9746L79.1597 81.9751C78.1148 81.3038 77.3029 81.6822 76.7928 82.1413C76.9352 81.8361 77.0793 81.5324 77.2229 81.2307C77.2559 81.1623 77.2414 81.0968 77.2057 81.0467C79.027 80.9618 79.4143 79.5196 79.4918 79.0416C79.4926 79.0418 79.4926 79.0416 79.4926 79.0416L79.4937 79.032C79.5084 78.9422 79.5114 78.8888 79.5114 78.8888C79.4255 78.8739 79.3391 78.8622 79.2523 78.8537L79.22 78.8492L79.2181 78.8511C77.2699 78.6783 77.0399 80.5485 77.0139 80.9676C76.9784 80.9782 76.9473 81.0019 76.9256 81.0468C76.6524 81.6201 76.3787 82.1975 76.1144 82.78C76.0422 82.3137 75.6402 80.5545 73.7542 80.8731L73.7529 80.8718L73.7261 80.8776C73.6418 80.8931 73.5546 80.911 73.4639 80.9344C73.4639 80.9344 73.7606 83.0525 76.0632 82.8953C75.5995 83.9243 75.1721 84.972 74.8474 86.0493C74.7337 85.4655 74.2655 83.9564 72.5066 84.2539L72.5047 84.2526L72.4776 84.2584C72.39 84.2738 72.3031 84.2927 72.217 84.315C72.217 84.315 72.5112 86.4117 74.7806 86.2775C74.6256 86.8184 74.4967 87.3669 74.4058 87.925C74.296 88.5897 74.2459 89.245 74.2572 89.8879C74.2478 89.9202 74.2427 89.9392 74.2427 89.9392C74.2485 89.9407 74.2534 89.9417 74.2591 89.943C74.2853 91.0677 74.5005 92.1548 74.9185 93.1946C74.3342 92.7286 73.41 92.3512 72.3187 93.1829L72.3169 93.1823L72.2973 93.1991C72.2204 93.2581 72.146 93.3202 72.0743 93.3853C72.0743 93.3853 72.1097 93.4351 72.1784 93.5116L72.1796 93.5128C72.5189 93.8955 73.6653 94.9534 75.3245 94.0676C75.5068 94.4141 75.7112 94.7548 75.9437 95.0887C76.2087 95.4695 76.5015 95.8251 76.8095 96.1677C76.2227 95.7548 75.3562 95.4901 74.3476 96.2597L74.3457 96.2593L74.3259 96.2755C74.2493 96.3344 74.1751 96.3965 74.1037 96.4615C74.1037 96.4615 74.1386 96.5108 74.2072 96.5877L74.2089 96.59C74.5666 96.9924 75.8128 98.1397 77.6074 96.9978C77.6346 97.0252 77.6633 97.0516 77.6912 97.0787C77.7229 97.1527 77.7438 97.1944 77.7438 97.1944C77.7591 97.1866 77.7719 97.1787 77.7864 97.1712C78.4838 97.8423 79.2112 98.4864 79.8869 99.176C79.4391 99.0188 78.8866 98.9957 78.2101 99.2073L78.2083 99.2058L78.1809 99.216C78.0717 99.2513 77.9598 99.2901 77.8442 99.338C77.8442 99.338 78.6148 102.084 81.6375 101.422C81.663 101.468 81.6909 101.513 81.715 101.559C81.7209 101.651 81.7271 101.703 81.7271 101.703C81.745 101.7 81.7616 101.697 81.7797 101.695C82.2251 102.595 82.4449 103.544 82.5205 104.516C82.1813 103.579 81.3747 102.402 79.4828 102.689L79.4806 102.687L79.4449 102.694C79.3255 102.713 79.2029 102.736 79.0752 102.767C79.0752 102.767 79.0846 102.845 79.1141 102.974L79.1147 102.978H79.1152C79.2665 103.641 79.9379 105.632 82.509 105.582C82.6469 105.49 82.8179 105.499 82.9622 105.573C85.5027 105.49 86.08 103.486 86.2009 102.821V102.82C86.2249 102.688 86.2313 102.608 86.2313 102.608C86.1017 102.583 85.9778 102.565 85.857 102.551Z" fill="white"/>
<path d="M67.1767 94.1069C67.1767 94.1069 67.7623 92.2859 69.3859 92.9618L69.3872 92.9613L69.4012 92.9675C69.4685 92.9956 69.5346 93.0266 69.5993 93.0605C69.5993 93.0605 69.5847 93.099 69.5543 93.1612L69.5492 93.1718H69.5485C69.3687 93.5291 68.6885 94.5949 67.1767 94.1069Z" fill="white"/>
<path d="M58.5573 103.33L58.582 103.326L58.5833 103.328C59.9553 103.182 60.5244 104.026 60.7581 104.722C60.8038 104.148 60.9178 103.584 61.1379 103.046C61.1945 102.908 61.2573 102.776 61.3227 102.645C59.3424 102.21 59.4877 100.277 59.4877 100.277C59.5736 100.274 59.6597 100.274 59.7457 100.277L59.7755 100.277L59.7774 100.279C61.2205 100.346 61.5599 101.413 61.6257 102.109C62.3348 100.989 63.3536 100.114 64.3164 99.19C62.9844 98.2994 63.6209 96.8918 63.6209 96.8918C63.6941 96.9148 63.7618 96.9404 63.8262 96.9666L63.8401 96.9717L63.8409 96.9731C64.8254 97.3833 64.8914 98.1692 64.7884 98.7249C64.7897 98.7238 64.7903 98.7227 64.7916 98.7221C65.3422 98.1628 65.8016 97.5493 66.1522 96.8893C64.8074 96.4177 64.8265 95.2415 64.8697 94.8618L64.8691 94.8612L64.8723 94.8439C64.8806 94.7786 64.8887 94.7407 64.8887 94.7407C64.9604 94.7478 65.0316 94.7582 65.1023 94.7718L65.1206 94.7745L65.1219 94.7752C66.2043 94.9817 66.4069 95.7822 66.4069 96.3515C66.7202 95.6176 66.9017 94.834 66.9285 94.0105C65.3041 94.2696 64.831 92.7681 64.831 92.7681C64.9013 92.7368 64.9729 92.7086 65.0457 92.6836L65.05 92.6817L65.0508 92.6821C66.0481 92.3361 66.6184 92.8639 66.9137 93.3423C66.91 93.2838 66.9081 93.2261 66.9028 93.1669C66.8464 92.5646 66.7257 91.9741 66.5632 91.3948C65.2024 91.3363 64.9134 90.2607 64.8551 89.905H64.8544L64.8538 89.8959C64.8436 89.8301 64.8411 89.7912 64.8411 89.7912C64.9054 89.7799 64.97 89.771 65.0349 89.7646L65.0577 89.7616L65.0583 89.7631C65.5284 89.7212 65.8643 89.8386 66.1033 90.0285C65.9437 89.6152 65.7693 89.207 65.588 88.8033C64.376 89.3502 63.635 88.5438 63.4202 88.2586H63.4196L63.4151 88.252C63.3751 88.1982 63.3547 88.1646 63.3547 88.1646C63.4069 88.1245 63.4606 88.0864 63.5156 88.0503L63.5326 88.0387L63.5345 88.039C64.3102 87.5399 64.9134 87.821 65.2928 88.162C65.1867 87.9362 65.0799 87.7107 64.9724 87.4855C64.9485 87.4346 64.9593 87.3862 64.9853 87.349C63.6316 87.2856 63.3447 86.2141 63.286 85.8589L63.2849 85.852C63.2742 85.7848 63.2723 85.7452 63.2723 85.7452C63.3361 85.7343 63.4003 85.7256 63.4647 85.7191L63.4888 85.7161L63.4901 85.7172C64.9383 85.5886 65.1092 86.9789 65.1288 87.2897C65.1543 87.2982 65.1777 87.3154 65.1937 87.3494C65.3969 87.7753 65.6008 88.2043 65.797 88.637C65.8504 88.2905 66.1496 86.983 67.5508 87.2202L67.5521 87.2192L67.5717 87.2234C67.6347 87.2347 67.6988 87.2481 67.7662 87.2657C67.7662 87.2657 67.5464 88.8396 65.8351 88.7227C66.1794 89.4874 66.497 90.2661 66.7383 91.0665C66.8228 90.6328 67.171 89.5114 68.4783 89.7326L68.4794 89.7315L68.4991 89.7357C68.562 89.7474 68.6262 89.7602 68.693 89.7777C68.693 89.7777 68.4743 91.3359 66.7879 91.2361C66.9028 91.6385 66.9982 92.0457 67.0669 92.4604C67.1488 92.955 67.1858 93.4415 67.1774 93.9199C67.1842 93.9433 67.188 93.9576 67.188 93.9576C67.1837 93.9585 67.1799 93.9591 67.1761 93.9604C67.1571 94.7961 66.9956 95.604 66.6851 96.3765C67.1195 96.0302 67.8068 95.7498 68.6179 96.3678L68.619 96.3674L68.6337 96.3799C68.6885 96.4226 68.7439 96.4674 68.799 96.5182C68.799 96.5182 68.7722 96.5553 68.7216 96.6123L68.7209 96.6135V96.6131C68.4685 96.8975 67.617 97.6839 66.3841 97.0256C66.2464 97.2877 66.0928 97.5411 65.9241 97.7843C65.7267 98.0673 65.5093 98.3316 65.2807 98.5862C65.717 98.2791 66.361 98.0829 67.11 98.6545L67.1113 98.6542L67.1258 98.6662C67.1827 98.7104 67.2381 98.7566 67.2918 98.8047C67.2918 98.8047 67.265 98.8413 67.2141 98.8982L67.2129 98.8997C66.9473 99.1989 66.0213 100.052 64.688 99.2035C64.6671 99.2235 64.6455 99.2431 64.6252 99.2634C64.6018 99.3183 64.5858 99.3491 64.5858 99.3491C64.575 99.3434 64.5656 99.3377 64.5546 99.3317C64.0362 99.8308 63.4952 100.309 62.9933 100.822C63.3262 100.705 63.7365 100.688 64.2396 100.845L64.2409 100.844L64.2611 100.852C64.3424 100.878 64.4256 100.907 64.5109 100.942C64.5109 100.942 63.9391 102.983 61.6919 102.491C61.6734 102.525 61.6524 102.559 61.6347 102.593C61.6309 102.661 61.6256 102.699 61.6256 102.699C61.6124 102.698 61.6003 102.695 61.5864 102.693C61.2561 103.362 61.0922 104.068 61.0363 104.79C61.2885 104.094 61.8882 103.219 63.2938 103.432L63.2956 103.43L63.3224 103.436C63.4113 103.45 63.5015 103.467 63.5961 103.49C63.5961 103.49 63.5892 103.548 63.5675 103.644L63.5669 103.647C63.4544 104.139 62.9559 105.619 61.0446 105.582C60.9421 105.514 60.8152 105.521 60.7079 105.576C58.82 105.514 58.3906 104.025 58.3012 103.531V103.53C58.2833 103.432 58.2784 103.372 58.2784 103.372C58.3749 103.353 58.4677 103.34 58.5573 103.33Z" fill="white"/>
<path d="M88.9326 99.5372H57.0576C53.6313 99.5372 50.8548 96.7601 50.8548 93.3338V43.2403C50.8548 39.8148 53.6313 37.0377 57.0576 37.0377H88.9326C92.3581 37.0377 95.1353 39.8148 95.1353 43.2403V93.3338C95.1353 96.7601 92.3581 99.5372 88.9326 99.5372Z" fill="#37AEFD"/>
<path opacity="0.2" d="M92.1778 92.793V40.6722H54.8579V95.9022H80.5807L92.1778 92.793Z" fill="#231F20"/>
<path d="M91.6551 92.049V39.9286H54.335V95.1584H80.0572L91.6551 92.049Z" fill="white"/>
<path d="M91.6551 92.049L88.7319 89.6239L80.0572 95.1584L91.6551 92.049Z" fill="#FFF1BA"/>
<path d="M66.6369 90.5916H58.7389C58.568 90.5916 58.4283 90.7314 58.4283 90.9025C58.4283 91.0738 58.568 91.2136 58.7389 91.2136H66.6369C66.8083 91.2136 66.9487 91.0738 66.9487 90.9025C66.9487 90.7314 66.8083 90.5916 66.6369 90.5916ZM86.1104 82.1957H68.6104C68.4991 82.1957 68.4102 82.3356 68.4102 82.5069C68.4102 82.6782 68.4991 82.8174 68.6104 82.8174H86.1104C86.2206 82.8174 86.3107 82.6782 86.3107 82.5069C86.3107 82.3356 86.2206 82.1957 86.1104 82.1957ZM86.1104 80.3299H68.6104C68.4991 80.3299 68.4102 80.4698 68.4102 80.6407C68.4102 80.8118 68.4991 80.952 68.6104 80.952H86.1104C86.2206 80.952 86.3107 80.8118 86.3107 80.6407C86.3107 80.4698 86.2206 80.3299 86.1104 80.3299ZM86.1104 78.4646H68.6104C68.4991 78.4646 68.4102 78.6044 68.4102 78.7754C68.4102 78.9458 68.4991 79.0862 68.6104 79.0862H86.1104C86.2206 79.0862 86.3107 78.9458 86.3107 78.7754C86.3107 78.6044 86.2206 78.4646 86.1104 78.4646ZM86.1104 70.9392H68.6104C68.4991 70.9392 68.4102 71.0784 68.4102 71.2503C68.4102 71.421 68.4991 71.5614 68.6104 71.5614H86.1104C86.2206 71.5614 86.3107 71.421 86.3107 71.2503C86.3107 71.0784 86.2206 70.9392 86.1104 70.9392ZM86.1104 69.0732H68.6104C68.4991 69.0732 68.4102 69.2132 68.4102 69.3845C68.4102 69.5554 68.4991 69.695 68.6104 69.695H86.1104C86.2206 69.695 86.3107 69.5554 86.3107 69.3845C86.3107 69.2132 86.2206 69.0732 86.1104 69.0732ZM86.1104 67.2076H68.6104C68.4991 67.2076 68.4102 67.3479 68.4102 67.5185C68.4102 67.6897 68.4991 67.8297 68.6104 67.8297H86.1104C86.2206 67.8297 86.3107 67.6897 86.3107 67.5185C86.3107 67.3479 86.2206 67.2076 86.1104 67.2076ZM86.1104 59.6826H68.6104C68.4991 59.6826 68.4102 59.8227 68.4102 59.994C68.4102 60.1647 68.4991 60.3045 68.6104 60.3045H86.1104C86.2206 60.3045 86.3107 60.1647 86.3107 59.994C86.3107 59.8227 86.2206 59.6826 86.1104 59.6826ZM86.1104 57.8168H68.6104C68.4991 57.8168 68.4102 57.9568 68.4102 58.1281C68.4102 58.2993 68.4991 58.4393 68.6104 58.4393H86.1104C86.2206 58.4393 86.3107 58.2993 86.3107 58.1281C86.3107 57.9567 86.2206 57.8168 86.1104 57.8168ZM86.1104 55.9511H68.6104C68.4991 55.9511 68.4102 56.0915 68.4102 56.262C68.4102 56.4333 68.4991 56.5731 68.6104 56.5731H86.1104C86.2206 56.5731 86.3107 56.4333 86.3107 56.262C86.3107 56.0915 86.2206 55.9511 86.1104 55.9511Z" fill="#595A5C"/>
<path d="M66.6165 90.0681C65.0863 90.0681 63.8409 88.8237 63.8409 87.2931C63.8409 85.7624 65.0862 84.5178 66.6165 84.5178C68.1467 84.5178 69.3918 85.7624 69.3918 87.2931C69.3917 88.8237 68.1467 90.0681 66.6165 90.0681ZM66.6165 84.7527C65.2153 84.7527 64.0757 85.8919 64.0757 87.2931C64.0757 88.6935 65.2153 89.8338 66.6165 89.8338C68.017 89.8338 69.1567 88.6935 69.1567 87.2931C69.1567 85.8919 68.017 84.7527 66.6165 84.7527Z" fill="#5590EB"/>
<path d="M62.872 86.2838C62.646 86.863 62.4123 87.4385 62.1669 88.0099C61.9594 88.4917 61.7738 89.2038 61.3337 89.5301C61.401 89.5473 61.4671 89.5654 61.5342 89.5828C60.7055 88.3287 61.6614 86.9731 62.7139 86.2412C62.9482 86.0786 63.1929 85.937 63.4532 85.8223C63.6128 85.7519 63.8039 85.6606 63.9786 85.6378C64.1755 85.612 64.5573 85.6791 64.6639 85.8794C64.7599 86.0609 64.5058 86.6393 64.4283 86.8C64.2797 87.1022 64.0682 87.3557 63.8197 87.5802C63.6896 87.6977 63.854 87.8794 63.9976 87.8105C64.5552 87.541 65.2089 87.1663 65.8268 87.0645C66.2969 86.9869 66.6672 87.3483 67.1196 87.2418C67.3031 87.198 67.2258 86.9152 67.0415 86.9588C66.748 87.0282 66.5244 86.7783 66.2481 86.7294C66.0447 86.6934 65.8587 86.7484 65.6657 86.8071C65.0424 86.9973 64.4353 87.274 63.8489 87.557C63.9093 87.6338 63.9678 87.7107 64.0274 87.7875C64.545 87.3195 65.0953 86.4585 64.9504 85.7149C64.805 84.9713 63.7671 85.3589 63.3217 85.5568C61.8189 86.224 60.1726 88.0551 61.2808 89.731C61.321 89.7916 61.4155 89.8325 61.4823 89.7833C61.9409 89.4428 62.1105 88.8709 62.331 88.3634C62.6192 87.702 62.8924 87.0339 63.1548 86.3616C63.2233 86.1858 62.9393 86.1094 62.872 86.2838Z" fill="#58595B"/>
<path d="M64.5198 44.8534H64.9271V46.6139H64.5198V44.8534ZM67.1494 44.8534V46.6139H66.814L65.9363 45.5449V46.6139H65.5341V44.8534H65.8708L66.7461 45.922V44.8534H67.1494ZM67.6182 46.4404L67.756 46.1333C67.9041 46.2415 68.1256 46.317 68.3365 46.317C68.5787 46.317 68.6772 46.2366 68.6772 46.1284C68.6772 45.7988 67.6532 46.0254 67.6532 45.3716C67.6532 45.0724 67.8945 44.8234 68.3949 44.8234C68.6168 44.8234 68.8422 44.876 69.0061 44.9792L68.8803 45.2881C68.7164 45.1955 68.5481 45.1501 68.3919 45.1501C68.1505 45.1501 68.0584 45.2403 68.0584 45.3512C68.0584 45.6756 69.0823 45.4519 69.0823 46.0984C69.0823 46.3925 68.8377 46.6441 68.3348 46.6441C68.0558 46.6441 67.7738 46.5611 67.6182 46.4404ZM69.5351 45.8397V44.8534H69.9429V45.8243C69.9429 46.1587 70.0886 46.2974 70.3355 46.2974C70.5847 46.2974 70.7275 46.1587 70.7275 45.8243V44.8534H71.1302V45.8397C71.1302 46.3574 70.8329 46.6441 70.3323 46.6441C69.8316 46.6441 69.5351 46.3574 69.5351 45.8397ZM72.8446 46.6139L72.5047 46.1235H72.1293V46.6139H71.7222V44.8533H72.485C72.9549 44.8533 73.249 45.0972 73.249 45.4924C73.249 45.7563 73.1158 45.9497 72.8864 46.0484L73.2822 46.6139L72.8446 46.6139ZM72.4615 45.1852H72.1293V45.7988H72.4615C72.7107 45.7988 72.837 45.6834 72.837 45.4924C72.837 45.2984 72.7106 45.1852 72.4615 45.1852ZM74.9204 46.2366H74.1028L73.9474 46.6139H73.5294L74.3144 44.8533H74.7159L75.5036 46.6139H75.0754L74.9204 46.2366ZM74.7921 45.9273L74.5126 45.2532L74.2332 45.9273H74.7921ZM77.4915 44.8534V46.6139H77.1576L76.2797 45.5449V46.6139H75.877V44.8534H76.2148L77.0882 45.922V44.8534H77.4915ZM77.9884 45.7333C77.9884 45.2027 78.3962 44.8234 78.9444 44.8234C79.2479 44.8234 79.5026 44.9339 79.6684 45.135L79.4073 45.3762C79.2885 45.2402 79.1398 45.17 78.9646 45.17C78.6349 45.17 78.4011 45.4017 78.4011 45.7333C78.4011 46.0657 78.6349 46.2974 78.9646 46.2974C79.1398 46.2974 79.2885 46.2264 79.4073 46.0882L79.6684 46.3298C79.5026 46.5335 79.2479 46.6441 78.9423 46.6441C78.3962 46.6441 77.9884 46.2645 77.9884 45.7333ZM81.4959 46.287V46.6139H80.1321V44.8533H81.4635V45.1802H80.5373V45.5628H81.3548V45.8797H80.5373V46.287H81.4959ZM62.4142 48.7212C62.4142 49.3188 61.9664 49.69 61.2497 49.69H60.7098V50.4295H60.0887V47.7485H61.2497C61.9664 47.7486 62.4142 48.12 62.4142 48.7212ZM61.7858 48.7212C61.7858 48.4263 61.5946 48.2539 61.215 48.2539H60.7098V49.1845H61.215C61.5946 49.1845 61.7858 49.0122 61.7858 48.7212ZM64.5643 50.4295L64.0472 49.6827H63.4762V50.4295H62.8562V47.7486H64.0167C64.7326 47.7486 65.181 48.12 65.181 48.7212C65.181 49.1235 64.9778 49.4186 64.6298 49.5678L65.2311 50.4295H64.5643ZM63.9823 48.2539H63.4762V49.1886H63.9823C64.3617 49.1886 64.5527 49.0122 64.5527 48.7212C64.5528 48.4264 64.3617 48.2539 63.9823 48.2539ZM65.5037 49.0888C65.5037 48.2924 66.1242 47.7029 66.9709 47.7029C67.8132 47.7029 68.4376 48.2883 68.4376 49.0888C68.4376 49.8894 67.8132 50.4753 66.9709 50.4753C66.1242 50.4753 65.5037 49.8853 65.5037 49.0888ZM67.8094 49.0888C67.8094 48.5795 67.4491 48.2309 66.9709 48.2309C66.4926 48.2309 66.1324 48.5795 66.1324 49.0888C66.1324 49.5983 66.4926 49.9471 66.9709 49.9471C67.4492 49.9471 67.8094 49.5983 67.8094 49.0888ZM69.4248 48.2539H68.5659V47.7486H70.9035V48.2539H70.0446V50.4295H69.4248V48.2539ZM73.3134 49.9315V50.4295H71.2368V47.7486H73.2626V48.2466H71.8536V48.8287H73.0981V49.311H71.8536V49.9315H73.3134ZM73.6323 49.0888C73.6323 48.2809 74.253 47.7029 75.0881 47.7029C75.5512 47.7029 75.9379 47.8714 76.1908 48.1773L75.7926 48.5452C75.6121 48.3385 75.3859 48.2309 75.1186 48.2309C74.6161 48.2309 74.2597 48.5833 74.2597 49.0888C74.2597 49.5944 74.6161 49.9471 75.1186 49.9471C75.3859 49.9471 75.6121 49.8396 75.7926 49.6291L76.1908 49.9966C75.9379 50.3069 75.5512 50.4753 75.0841 50.4753C74.253 50.4753 73.6323 49.8972 73.6323 49.0888ZM77.1384 48.2539H76.2803V47.7486H78.6166V48.2539H77.759V50.4295H77.1384V48.2539ZM78.9512 47.7486H79.5713V50.4295H78.9512V47.7486ZM80.0393 49.0888C80.0393 48.2924 80.6599 47.7029 81.5061 47.7029C82.349 47.7029 82.9734 48.2883 82.9734 49.0888C82.9734 49.8894 82.3489 50.4753 81.5061 50.4753C80.6599 50.4753 80.0393 49.8853 80.0393 49.0888ZM82.3452 49.0888C82.3452 48.5795 81.9849 48.2309 81.5061 48.2309C81.0277 48.2309 80.667 48.5795 80.667 49.0888C80.667 49.5983 81.0277 49.9471 81.5061 49.9471C81.9849 49.9471 82.3452 49.5983 82.3452 49.0888ZM85.9016 47.7486V50.4295H85.3909L84.0557 48.8017V50.4295H83.4421V47.7486H83.9554L85.2887 49.3759V47.7486H85.9016Z" fill="#595A5C"/>
<path d="M84.1991 37.6041H61.7903C60.8509 37.6041 60.0886 38.3659 60.0886 39.306V45.3396C60.0886 46.2791 60.8509 47.0406 61.7903 47.0406H84.1991C85.1393 47.0406 85.9016 46.2791 85.9016 45.3396V39.306C85.9016 38.3659 85.1393 37.6041 84.1991 37.6041ZM85.3776 44.7747C85.3776 45.7141 84.6166 46.4762 83.6764 46.4762H62.3136C61.3736 46.4762 60.6121 45.7141 60.6121 44.7747V39.9195C60.6121 38.9797 61.3737 38.2183 62.3136 38.2183H83.6764C84.6166 38.2183 85.3776 38.9797 85.3776 39.9195V44.7747Z" fill="#8F9686"/>
<path d="M82.6621 39.4785H63.3276C62.2927 39.4785 61.4537 38.6394 61.4537 37.6042C61.4537 36.5689 62.2927 35.7302 63.3276 35.7302H82.6621C83.6981 35.7302 84.5372 36.5689 84.5372 37.6042C84.5371 38.6394 83.6981 39.4785 82.6621 39.4785Z" fill="#595A5C"/>
<path d="M61.7871 55.2858C60.816 56.4041 59.7323 56.4318 59.6859 56.4325H59.2166C59.1308 56.4325 59.0604 56.5025 59.0604 56.5884V56.7608C59.0159 57.7872 59.1346 58.6883 59.4224 59.5179C59.6784 60.2543 60.0487 60.8203 60.5569 61.2473C60.9068 61.5417 61.3114 61.7533 61.7604 61.8752C61.7681 61.8778 61.777 61.8787 61.7871 61.8797C61.7979 61.8787 61.8062 61.8778 61.8132 61.8755C62.2629 61.7533 62.6688 61.542 63.0175 61.2473C63.5262 60.8203 63.8965 60.2543 64.1521 59.5179C64.4409 58.6883 64.5592 57.7871 64.5141 56.7642V56.5884C64.5141 56.5026 64.4449 56.4325 64.359 56.4325H63.8903C63.842 56.4318 62.759 56.4041 61.7871 55.2858Z" fill="#FED948"/>
<path d="M61.7566 63.2326H61.7523C59.1447 63.2302 57.0219 61.0954 57.0206 58.4737C57.0201 57.1873 57.5162 55.9851 58.4181 55.0884C59.3202 54.1923 60.5276 53.6996 61.8221 53.6996H61.8311C64.4358 53.7045 66.5524 55.8448 66.551 58.4703C66.5497 59.749 66.0519 60.9471 65.1498 61.8429C64.2466 62.7387 63.0416 63.2326 61.7566 63.2326ZM61.8221 54.3096C60.6915 54.3096 59.6352 54.7401 58.8487 55.5214C58.0623 56.3027 57.6311 57.3508 57.6318 58.4732C57.6324 60.7588 59.4814 62.6199 61.7529 62.6221L61.7566 62.9272V62.6221C64.0618 62.6221 65.9387 60.7588 65.9406 58.4697C65.9425 56.1805 64.0988 54.3141 61.8304 54.3096H61.8221Z" fill="#37AEFD"/>
<path d="M61.7871 62.0391L61.7847 62.0389C61.7622 62.0382 61.7398 62.0351 61.7179 62.0296C61.2473 61.9008 60.8223 61.6789 60.4539 61.3692C59.9241 60.9233 59.5367 60.3349 59.2718 59.5703C58.9764 58.7207 58.8551 57.8009 58.9008 56.7574V56.5883C58.9008 56.4142 59.0424 56.2729 59.2165 56.2729H59.6853C59.6949 56.2726 60.7887 56.242 61.7262 55.1124L61.7871 55.0381L61.8488 55.1124C62.7888 56.2446 63.8807 56.2726 63.8916 56.2729H64.359C64.5324 56.2729 64.6741 56.4142 64.6741 56.5883V56.7608C64.7186 57.8009 64.5984 58.7207 64.3027 59.5703C64.0376 60.3349 63.6515 60.9233 63.1205 61.3692C62.7528 61.6789 62.327 61.9008 61.8564 62.0296C61.8368 62.0347 61.8145 62.0381 61.7898 62.0389L61.7871 62.0391ZM61.7871 55.2858C60.816 56.4041 59.7323 56.4318 59.6859 56.4326H59.2166C59.1308 56.4326 59.0604 56.5025 59.0604 56.5884V56.7608C59.0159 57.7872 59.1346 58.6883 59.4224 59.5179C59.6784 60.2544 60.0487 60.8203 60.5569 61.2473C60.9068 61.5417 61.3114 61.7533 61.7604 61.8752C61.7681 61.8778 61.777 61.8787 61.7871 61.8797C61.7979 61.8787 61.8062 61.8778 61.8132 61.8755C62.2629 61.7533 62.6688 61.542 63.0175 61.2473C63.5262 60.8203 63.8965 60.2544 64.1521 59.5179C64.4409 58.6883 64.5592 57.7871 64.5141 56.7642V56.5884C64.5141 56.5026 64.4449 56.4326 64.359 56.4326H63.8903C63.842 56.4318 62.759 56.4041 61.7871 55.2858Z" fill="url(#paint4_linear_2_209)"/>
<path opacity="0.3" d="M64.2689 56.4325C64.0174 58.2141 62.4864 59.5841 60.6355 59.5841C60.1909 59.5841 59.7646 59.5051 59.3703 59.3599C59.1206 58.5742 59.0191 57.7225 59.0604 56.7608V56.5884C59.0604 56.5022 59.1307 56.4325 59.2165 56.4325H59.6859C59.7323 56.4322 60.816 56.4041 61.7871 55.2858C62.759 56.4041 63.842 56.4322 63.8902 56.4325H64.2689Z" fill="#5590EB"/>
<path d="M61.7871 65.9288C60.816 67.0468 59.7323 67.0744 59.6859 67.0755H59.2166C59.1308 67.0755 59.0604 67.1451 59.0604 67.2309V67.4034C59.0159 68.43 59.1346 69.3309 59.4224 70.1607C59.6784 70.8971 60.0487 71.4629 60.5569 71.8899C60.9068 72.1848 61.3114 72.3959 61.7604 72.5179C61.7681 72.5204 61.777 72.5221 61.7871 72.5226C61.7979 72.5221 61.8062 72.5204 61.8132 72.5181C62.2629 72.3959 62.6688 72.1847 63.0175 71.8903C63.5262 71.4628 63.8965 70.8971 64.1521 70.1607C64.4409 69.3308 64.5592 68.4299 64.5141 67.4067V67.2309C64.5142 67.2105 64.5102 67.1903 64.5024 67.1714C64.4946 67.1526 64.4832 67.1355 64.4688 67.121C64.4544 67.1066 64.4373 67.0951 64.4185 67.0873C64.3996 67.0795 64.3794 67.0755 64.359 67.0755H63.8903C63.842 67.0744 62.759 67.0469 61.7871 65.9288Z" fill="#FED948"/>
<path d="M61.7566 73.8754H61.7523C59.1447 73.8731 57.0219 71.7379 57.0206 69.1162C57.0201 67.8297 57.5162 66.6277 58.4181 65.7309C59.3202 64.8349 60.5276 64.3422 61.8221 64.3422H61.8311C64.4358 64.3471 66.5524 66.487 66.551 69.113C66.5497 70.3915 66.0519 71.5893 65.1498 72.4859C64.2466 73.3817 63.0416 73.8754 61.7566 73.8754ZM61.8221 64.9519C60.6915 64.9519 59.6352 65.3827 58.8487 66.1644C58.0623 66.945 57.6311 67.9935 57.6318 69.1159C57.6324 71.4016 59.4814 73.2627 61.7529 73.265L61.7566 73.5693V73.265C64.0618 73.265 65.9387 71.4018 65.9406 69.1127C65.9425 66.8228 64.0988 64.9564 61.8304 64.9519L61.8221 64.9519Z" fill="#37AEFD"/>
<path d="M61.7871 72.6819H61.7847C61.7622 72.6809 61.7398 72.6777 61.7179 72.6723C61.2473 72.5434 60.8223 72.3214 60.4539 72.0122C59.9241 71.5661 59.5367 70.9775 59.2718 70.2131C58.9764 69.3631 58.8551 68.4435 58.9008 67.4002V67.2309C58.9008 67.0568 59.0424 66.9156 59.2165 66.9156H59.6853C59.6949 66.9152 60.7887 66.8842 61.7262 65.7547L61.7871 65.6804L61.8488 65.7547C62.7888 66.8876 63.8807 66.9152 63.8916 66.9156H64.359C64.5324 66.9156 64.6741 67.0568 64.6741 67.2309V67.4034C64.7186 68.4435 64.5984 69.3631 64.3027 70.2131C64.0376 70.9775 63.6515 71.566 63.1205 72.0122C62.7528 72.3214 62.327 72.5434 61.8564 72.6723C61.8346 72.6778 61.8123 72.681 61.7898 72.6819H61.7871ZM61.7871 65.9288C60.816 67.0468 59.7323 67.0744 59.6859 67.0755H59.2166C59.1308 67.0755 59.0604 67.1451 59.0604 67.2309V67.4034C59.0159 68.43 59.1346 69.3309 59.4224 70.1607C59.6784 70.8971 60.0487 71.4629 60.5569 71.8899C60.9068 72.1848 61.3114 72.3959 61.7604 72.5179C61.7681 72.5204 61.777 72.5221 61.7871 72.5226C61.7979 72.5221 61.8062 72.5204 61.8132 72.5181C62.2629 72.3959 62.6688 72.1848 63.0175 71.8903C63.5262 71.4628 63.8965 70.8971 64.1521 70.1607C64.4409 69.3308 64.5592 68.4299 64.5141 67.4067V67.2309C64.5142 67.2105 64.5102 67.1903 64.5024 67.1714C64.4946 67.1526 64.4832 67.1355 64.4688 67.121C64.4544 67.1066 64.4373 67.0951 64.4185 67.0873C64.3996 67.0795 64.3794 67.0755 64.359 67.0755H63.8903C63.842 67.0744 62.759 67.0469 61.7871 65.9288Z" fill="url(#paint5_linear_2_209)"/>
<path opacity="0.3" d="M64.2689 67.0756C64.0174 68.8567 62.4864 70.2266 60.6355 70.2266C60.1909 70.2266 59.7646 70.1477 59.3703 70.0025C59.1206 69.2168 59.0191 68.3651 59.0604 67.4034V67.231C59.0604 67.1452 59.1307 67.0756 59.2165 67.0756H59.6859C59.7323 67.0746 60.816 67.0467 61.7871 65.9288C62.759 67.0467 63.842 67.0746 63.8902 67.0756H64.2689Z" fill="#5590EB"/>
<path d="M61.7871 76.5711C60.816 77.6897 59.7323 77.7172 59.6859 77.7182H59.2166C59.1308 77.7182 59.0604 77.7878 59.0604 77.8736V78.046C59.0159 79.072 59.1346 79.9735 59.4224 80.803C59.6784 81.5398 60.0487 82.1057 60.5569 82.5329C60.9068 82.827 61.3114 83.0382 61.7604 83.1603C61.7681 83.163 61.777 83.1645 61.7871 83.1653C61.7959 83.1647 61.8046 83.1634 61.8132 83.1615C62.2629 83.0381 62.6688 82.8276 63.0175 82.5329C63.5262 82.1056 63.8965 81.5398 64.1521 80.8029C64.4409 79.9735 64.5592 79.072 64.5141 78.0494V77.8736C64.5142 77.8532 64.5102 77.833 64.5024 77.8141C64.4946 77.7953 64.4832 77.7781 64.4688 77.7637C64.4544 77.7493 64.4373 77.7378 64.4185 77.73C64.3996 77.7222 64.3794 77.7182 64.359 77.7181H63.8903C63.842 77.7172 62.759 77.6896 61.7871 76.5711Z" fill="#FED948"/>
<path d="M61.7566 84.5178H61.7523C59.1447 84.5156 57.0219 82.3801 57.0206 79.7589C57.0201 78.4725 57.5162 77.2703 58.4181 76.3739C59.3202 75.4779 60.5276 74.9848 61.8221 74.9848H61.8311C64.4358 74.9893 66.5524 77.1296 66.551 79.7555C66.5497 81.0338 66.0519 82.2319 65.1498 83.1283C64.2466 84.0243 63.0416 84.5178 61.7566 84.5178ZM61.8221 75.5945C60.6915 75.5945 59.6352 76.0257 58.8487 76.807C58.0623 77.5876 57.6311 78.6361 57.6318 79.7585C57.6324 82.0442 59.4814 83.9053 61.7529 83.9074L61.7566 84.2122V83.9074C64.0618 83.9074 65.9387 82.0444 65.9406 79.7555C65.9425 77.4654 64.0988 75.5994 61.8304 75.5945L61.8221 75.5945Z" fill="#37AEFD"/>
<path d="M61.7871 83.3245H61.7847C61.7621 83.3236 61.7397 83.3203 61.7179 83.3145C61.2473 83.1859 60.8223 82.9638 60.4539 82.6548C59.9241 82.2089 59.5367 81.62 59.2718 80.8558C58.9764 80.0062 58.8551 79.0862 58.9008 78.0426V77.8736C58.9008 77.6995 59.0424 77.5582 59.2165 77.5582H59.6853C59.6949 77.5582 60.7887 77.527 61.7262 76.3973L61.7871 76.3234L61.8488 76.3973C62.7888 77.5302 63.8807 77.5582 63.8916 77.5582H64.359C64.5324 77.5582 64.6741 77.6995 64.6741 77.8736V78.046C64.7186 79.0862 64.5984 80.0062 64.3027 80.8558C64.0376 81.62 63.6515 82.2089 63.1205 82.6548C62.7528 82.9638 62.327 83.1859 61.8564 83.3145C61.8368 83.32 61.8145 83.3234 61.7898 83.3245H61.7871ZM61.7871 76.5711C60.816 77.6897 59.7323 77.7172 59.6859 77.7182H59.2166C59.1308 77.7182 59.0604 77.7878 59.0604 77.8736V78.046C59.0159 79.072 59.1346 79.9735 59.4224 80.803C59.6784 81.5398 60.0487 82.1057 60.5569 82.5329C60.9068 82.827 61.3114 83.0382 61.7604 83.1603C61.7681 83.163 61.777 83.1645 61.7871 83.1653C61.7959 83.1647 61.8046 83.1634 61.8132 83.1615C62.2629 83.0381 62.6688 82.8276 63.0175 82.5329C63.5262 82.1056 63.8965 81.5398 64.1521 80.8029C64.4409 79.9735 64.5592 79.072 64.5141 78.0494V77.8736C64.5142 77.8532 64.5102 77.833 64.5024 77.8141C64.4946 77.7953 64.4832 77.7781 64.4688 77.7637C64.4544 77.7493 64.4373 77.7378 64.4185 77.73C64.3996 77.7222 64.3794 77.7182 64.359 77.7181H63.8903C63.842 77.7172 62.759 77.6896 61.7871 76.5711Z" fill="url(#paint6_linear_2_209)"/>
<path opacity="0.3" d="M64.2689 77.7181C64.0174 79.4993 62.4864 80.869 60.6355 80.869C60.1909 80.869 59.7646 80.7899 59.3703 80.6451C59.1206 79.8592 59.0191 79.0077 59.0604 78.046V77.8736C59.0604 77.7878 59.1307 77.7182 59.2165 77.7182H59.6859C59.7323 77.7172 60.816 77.6893 61.7871 76.5711C62.759 77.6893 63.842 77.7172 63.8902 77.7182L64.2689 77.7181Z" fill="#5590EB"/>
<path d="M63.0614 78.7345C62.7939 78.4078 62.3321 78.3184 61.9613 78.5214L61.7877 78.6164L61.6144 78.5214C61.2441 78.3184 60.7815 78.4078 60.5142 78.7345C60.3847 78.8915 60.3138 79.0886 60.3135 79.2922C60.3133 79.4948 60.3836 79.6912 60.5124 79.8477L61.7878 81.4055L63.062 79.8477C63.3287 79.524 63.3281 79.0571 63.0614 78.7345ZM62.9616 79.4125C62.9615 79.4267 62.9558 79.4404 62.9457 79.4504C62.9356 79.4605 62.9219 79.4662 62.9077 79.4662H62.6719C62.6421 79.4662 62.6192 79.4904 62.6192 79.5196V79.7449C62.6192 79.775 62.5945 79.798 62.5647 79.798H62.2991C62.268 79.798 62.2439 79.775 62.2439 79.7449V79.5196C62.2439 79.4904 62.221 79.4662 62.191 79.4662H61.9554C61.9264 79.4662 61.9015 79.4421 61.9015 79.4125V79.1665C61.9015 79.1369 61.9264 79.1127 61.9554 79.1127H62.191C62.221 79.1127 62.2439 79.089 62.2439 79.0594V78.8341C62.2439 78.8052 62.268 78.7809 62.2991 78.7809H62.5647C62.5945 78.7809 62.6192 78.8052 62.6192 78.8341V79.0594C62.6192 79.089 62.6421 79.1127 62.6719 79.1127H62.9077C62.9369 79.1127 62.9616 79.1369 62.9616 79.1665V79.4125ZM63.4926 68.8125H63.0474V70.4144C63.0474 70.5917 62.9154 70.7378 62.7445 70.761V69.306H61.9771V70.7645H60.8776C60.6844 70.7645 60.5276 70.6076 60.5276 70.4144V68.8125H60.0823L61.7872 67.1053L63.4926 68.8125ZM60.8185 58.9616V59.3715C60.8185 59.5183 60.6991 59.6383 60.5523 59.6383C60.4069 59.6383 60.2869 59.5183 60.2869 59.3715V58.9616C60.2869 58.8543 60.3511 58.7614 60.4431 58.7213C60.4767 58.706 60.5129 58.6966 60.5523 58.6966C60.5829 58.6966 60.6102 58.7015 60.6363 58.7117C60.6445 58.7134 60.6532 58.7162 60.6604 58.7213H60.6363V58.7953C60.6363 58.8343 60.6698 58.8677 60.7093 58.8677C60.7396 58.8677 60.7664 58.8499 60.7772 58.8222C60.8043 58.8636 60.8186 58.9121 60.8185 58.9616ZM63.3174 58.9616V59.3715C63.3174 59.5183 63.198 59.6383 63.0505 59.6383C62.9056 59.6383 62.7856 59.5183 62.7856 59.3715V58.9616C62.7856 58.9207 62.7947 58.883 62.813 58.8482C62.8274 58.8608 62.8459 58.8677 62.865 58.8677C62.9056 58.8677 62.9388 58.8343 62.9388 58.7953V58.7226C62.9399 58.7213 62.9399 58.7213 62.9418 58.7213C62.975 58.706 63.0111 58.6966 63.0505 58.6966C63.0901 58.6966 63.1261 58.7041 63.1591 58.7213C63.2519 58.7615 63.3174 58.8543 63.3174 58.9616Z" fill="white"/>
<path d="M63.4475 58.3832C63.3955 58.3397 63.3351 58.3061 63.2664 58.2895C63.2595 58.38 63.1827 58.4547 63.0886 58.4547C62.9888 58.4547 62.909 58.3729 62.909 58.2744H60.7093C60.7093 58.3729 60.6291 58.4547 60.5295 58.4547C60.4356 58.4547 60.3567 58.3789 60.3511 58.2868C60.2768 58.3016 60.2113 58.3367 60.1573 58.3846C60.1496 58.3914 60.142 58.3974 60.1344 58.4046C60.0524 58.4863 60.0023 58.5985 60.0023 58.7213C60.0023 58.9086 60.1211 59.0709 60.2869 59.1372C60.339 59.1571 60.3944 59.1672 60.4501 59.1671H63.1535C63.2112 59.1671 63.2665 59.1567 63.3174 59.1372C63.3746 59.1144 63.4259 59.0799 63.4698 59.0361C63.5112 58.9948 63.544 58.9457 63.5663 58.8917C63.5886 58.8377 63.6001 58.7797 63.6 58.7213C63.5999 58.5864 63.5409 58.4668 63.4475 58.3832ZM60.7093 58.8677C60.6698 58.8677 60.6362 58.8343 60.6362 58.7953V58.7213H60.6604C60.6532 58.7162 60.6445 58.7134 60.6362 58.7117V58.647C60.6362 58.606 60.6698 58.5729 60.7093 58.5729C60.719 58.5728 60.7287 58.5747 60.7377 58.5784C60.7467 58.5822 60.7549 58.5876 60.7618 58.5945C60.7686 58.6014 60.7741 58.6096 60.7778 58.6186C60.7815 58.6276 60.7834 58.6372 60.7834 58.647V58.7953C60.7834 58.8041 60.7815 58.8147 60.7772 58.8222C60.7664 58.85 60.7396 58.8677 60.7093 58.8677ZM61.0929 58.7953C61.0929 58.8343 61.0592 58.8677 61.0179 58.8677C60.9773 58.8677 60.9443 58.8343 60.9443 58.7953V58.647C60.9443 58.6274 60.952 58.6086 60.9658 58.5947C60.9796 58.5808 60.9983 58.5729 61.0179 58.5728C61.0592 58.5728 61.0929 58.606 61.0929 58.647V58.7953ZM61.4003 58.7953C61.4003 58.8343 61.3667 58.8677 61.3254 58.8677C61.2846 58.8677 61.251 58.8343 61.251 58.7953V58.647C61.2511 58.6273 61.259 58.6084 61.2729 58.5946C61.2868 58.5807 61.3057 58.5729 61.3254 58.5728C61.3667 58.5728 61.4003 58.606 61.4003 58.647V58.7953ZM62.0958 58.7268C62.0958 58.7453 62.0921 58.7636 62.0851 58.7807C62.078 58.7978 62.0676 58.8134 62.0545 58.8265C62.0414 58.8396 62.0259 58.8499 62.0088 58.857C61.9917 58.8641 61.9734 58.8677 61.9548 58.8677H61.6226C61.6041 58.8678 61.5857 58.8642 61.5686 58.8571C61.5515 58.8501 61.5359 58.8397 61.5228 58.8266C61.5097 58.8135 61.4993 58.7979 61.4922 58.7808C61.4851 58.7637 61.4815 58.7453 61.4815 58.7268V58.7213C61.4847 58.647 61.5464 58.5879 61.6226 58.5879H61.9548C62.031 58.5879 62.0927 58.647 62.0958 58.7213V58.7268ZM62.3233 58.7953C62.3233 58.8343 62.2895 58.8677 62.2484 58.8677C62.209 58.8677 62.1765 58.8343 62.1765 58.7953V58.647C62.1765 58.606 62.209 58.5728 62.2484 58.5728C62.2895 58.5728 62.3233 58.606 62.3233 58.647V58.7953ZM62.6326 58.7953C62.6326 58.8343 62.5977 58.8677 62.5578 58.8677C62.517 58.8677 62.4834 58.8343 62.4834 58.7953V58.647C62.4835 58.6273 62.4914 58.6084 62.5053 58.5946C62.5192 58.5807 62.5381 58.5729 62.5578 58.5728C62.5978 58.5728 62.6326 58.606 62.6326 58.647V58.7953ZM62.9388 58.7953C62.9388 58.8343 62.9056 58.8677 62.865 58.8677C62.8459 58.8677 62.8274 58.8608 62.813 58.8482C62.7996 58.8343 62.7907 58.8147 62.7907 58.7953V58.647C62.7907 58.6372 62.7925 58.6275 62.7963 58.6185C62.8 58.6094 62.8055 58.6012 62.8124 58.5943C62.8193 58.5875 62.8275 58.582 62.8365 58.5783C62.8456 58.5746 62.8553 58.5728 62.865 58.5728C62.8846 58.5729 62.9034 58.5808 62.9172 58.5947C62.9311 58.6085 62.9388 58.6274 62.9388 58.647V58.7953Z" fill="url(#paint7_linear_2_209)"/>
<path d="M63.5175 58.282C63.4368 58.1688 63.3032 58.0931 63.1521 58.0931H60.4519C60.3008 58.0931 60.1669 58.1688 60.086 58.282C60.0314 58.3572 60.0021 58.4478 60.0022 58.5408V58.7213H60.6604C60.6532 58.7162 60.6445 58.7133 60.6362 58.7117V58.647C60.6362 58.606 60.6698 58.5728 60.7093 58.5728C60.719 58.5728 60.7287 58.5747 60.7377 58.5784C60.7467 58.5821 60.7549 58.5876 60.7617 58.5945C60.7686 58.6014 60.7741 58.6095 60.7778 58.6186C60.7815 58.6276 60.7834 58.6372 60.7834 58.647V58.7213H60.9443V58.647C60.9443 58.6274 60.952 58.6086 60.9658 58.5947C60.9796 58.5808 60.9983 58.5729 61.0179 58.5728C61.0592 58.5728 61.0929 58.606 61.0929 58.647V58.7213H61.251V58.647C61.2511 58.6273 61.259 58.6084 61.2729 58.5946C61.2868 58.5807 61.3057 58.5729 61.3254 58.5728C61.3667 58.5728 61.4003 58.606 61.4003 58.647V58.7213H61.4816C61.4847 58.647 61.5464 58.5879 61.6227 58.5879H61.9549C62.0311 58.5879 62.0927 58.647 62.0958 58.7213H62.1765V58.647C62.1765 58.606 62.209 58.5728 62.2484 58.5728C62.2896 58.5728 62.3233 58.606 62.3233 58.647V58.7213H62.4834V58.647C62.4835 58.6273 62.4914 58.6084 62.5053 58.5946C62.5193 58.5807 62.5381 58.5729 62.5578 58.5728C62.5978 58.5728 62.6326 58.606 62.6326 58.647V58.7213H62.7907V58.647C62.7907 58.6372 62.7926 58.6275 62.7963 58.6185C62.8 58.6094 62.8055 58.6012 62.8124 58.5944C62.8193 58.5875 62.8275 58.582 62.8366 58.5783C62.8456 58.5746 62.8553 58.5728 62.8651 58.5728C62.8847 58.5729 62.9034 58.5808 62.9173 58.5947C62.9311 58.6085 62.9388 58.6274 62.9388 58.647V58.7213H63.6V58.5408C63.6003 58.448 63.5714 58.3575 63.5175 58.282ZM63.0885 58.0943C63.1865 58.0943 63.2683 58.175 63.2683 58.2744C63.2683 58.2793 63.2683 58.2852 63.2664 58.2895C63.2595 58.3801 63.1827 58.4548 63.0885 58.4548C62.9888 58.4548 62.909 58.3729 62.909 58.2744C62.909 58.175 62.9888 58.0943 63.0885 58.0943ZM60.5295 58.0943C60.6291 58.0943 60.7093 58.175 60.7093 58.2744C60.7093 58.3729 60.6291 58.4548 60.5295 58.4548C60.4356 58.4548 60.3567 58.3789 60.351 58.2869C60.3497 58.282 60.3497 58.2793 60.3497 58.2744C60.3497 58.175 60.431 58.0943 60.5295 58.0943Z" fill="white"/>
<path d="M63.4323 57.8977L63.3955 57.8673L63.3941 57.8639L63.2651 57.7536L63.1082 57.618C63.0988 57.6102 63.0901 57.6027 63.0797 57.5968L63.231 57.8217H60.3739L60.525 57.5968C60.5142 57.6027 60.5053 57.6102 60.4959 57.618L60.3084 57.7796L60.2252 57.8507L60.2099 57.8639L60.2086 57.8673L60.1725 57.8977C60.1365 57.9285 60.1076 57.9668 60.0877 58.0099C60.0679 58.053 60.0575 58.0998 60.0575 58.1472C60.0575 58.1959 60.0677 58.241 60.086 58.282C60.102 58.3193 60.1252 58.3532 60.1541 58.3817C60.1552 58.3826 60.1563 58.3835 60.1573 58.3846C60.2169 58.4423 60.2976 58.4789 60.3889 58.4789H63.2157C63.3053 58.4789 63.3877 58.4408 63.4475 58.3833C63.4764 58.3537 63.5 58.3195 63.5175 58.282C63.5352 58.241 63.5454 58.196 63.5454 58.1473C63.5455 58.0524 63.5047 57.96 63.4323 57.8977ZM60.5295 58.4547C60.4356 58.4547 60.3567 58.3789 60.3511 58.2868C60.3497 58.282 60.3497 58.2793 60.3497 58.2744C60.3497 58.175 60.431 58.0942 60.5295 58.0942C60.6291 58.0942 60.7093 58.175 60.7093 58.2744C60.7093 58.3729 60.6291 58.4547 60.5295 58.4547ZM63.0886 58.4547C62.9888 58.4547 62.909 58.3729 62.909 58.2744C62.909 58.175 62.9888 58.0942 63.0886 58.0942C63.1865 58.0942 63.2683 58.175 63.2683 58.2744C63.2683 58.2793 63.2683 58.2852 63.2664 58.2895C63.2595 58.38 63.1827 58.4547 63.0886 58.4547Z" fill="white"/>
<path d="M63.7975 57.8679H63.2659V57.5542H63.483C63.6571 57.5542 63.7975 57.6949 63.7975 57.8679ZM59.7774 57.8515H60.3084V57.5376H60.0913C59.9177 57.5376 59.7774 57.6783 59.7774 57.8515Z" fill="white"/>
<path d="M60.6617 58.7218H60.6363V58.7117C60.645 58.7135 60.6542 58.7164 60.6617 58.7218Z" fill="#F9C886"/>
<path d="M63.3941 57.8639L63.2651 57.6798L62.8422 57.0743C62.8109 57.0396 62.7727 57.0118 62.7301 56.9928C62.6874 56.9737 62.6412 56.9639 62.5945 56.9637H61.009C60.9625 56.9637 60.9165 56.9736 60.874 56.9926C60.8316 57.0117 60.7936 57.0395 60.7627 57.0743L60.3084 57.7239L60.2188 57.8507L60.21 57.8639L60.2086 57.8673H63.3955L63.3941 57.8639ZM60.3739 57.8217L60.525 57.5968L60.8439 57.1211C60.8749 57.0863 60.9128 57.0585 60.9553 57.0395C60.9977 57.0205 61.0438 57.0107 61.0903 57.0107H62.5137C62.6066 57.0107 62.6967 57.0501 62.7584 57.1211L63.0797 57.5968L63.231 57.8217H60.3739Z" fill="white"/>
<path d="M101.274 89.9923C101.274 89.9923 97.8088 91.0987 97.4549 91.1655C97.1012 91.2319 94.2264 91.5367 94.2264 91.5367L93.8657 92.4595C93.8657 92.4595 96.1471 93.4357 97.3599 93.2829C98.5749 93.1309 103.352 91.4158 103.318 90.5247C103.283 89.6334 101.321 89.9922 101.321 89.9922L101.274 89.9923Z" fill="url(#paint8_linear_2_209)"/>
<path d="M92.9637 90.8642C92.8652 90.7859 92.7216 90.6259 92.7463 90.3769C92.7546 90.3052 92.8459 90.2845 92.8918 90.3415C92.9637 90.437 93.1649 90.4339 93.2837 90.7135C93.5207 91.2692 93.9551 91.6016 93.9551 91.6016L93.6972 92.1641C93.6972 92.1641 92.9961 92.2956 92.6492 92.1368C92.3226 91.9858 91.4379 91.7563 91.3414 90.9181C91.3317 90.8301 91.3991 90.751 91.4868 90.7508C91.7556 90.7459 92.3075 90.7538 92.6135 90.8603C92.7667 90.9138 92.8663 90.9368 92.9312 90.944C92.9757 90.9482 92.9985 90.8927 92.9637 90.8642Z" fill="#FFDCB0"/>
<path d="M94.2264 91.5367L93.9221 91.534L93.6552 92.2069L93.8657 92.4595L94.2264 91.5367Z" fill="#2B3990"/>
<path d="M91.5389 88.1331L94.105 93.0367L90.5963 94.8767L87.8744 89.6788L90.2927 88.4122L91.5389 88.1331Z" fill="white"/>
<path d="M91.5389 88.1331L91.5547 88.1631L91.2899 88.729L90.2088 88.4562L90.2927 88.4122L91.5389 88.1331Z" fill="white"/>
<path d="M90.3268 88.4456L91.2659 88.6818L91.5019 88.1815L90.3268 88.4456Z" fill="url(#paint9_linear_2_209)"/>
<path d="M89.2561 89.5028L88.5129 89.8919C88.4969 89.9016 88.4767 89.8938 88.4676 89.8782C88.4608 89.8635 88.4665 89.8423 88.4818 89.8329L89.2256 89.4441C89.2414 89.436 89.2611 89.4424 89.2705 89.4585C89.2788 89.4747 89.272 89.4956 89.2561 89.5028ZM89.3488 89.6801L88.6036 90.0666C88.5903 90.0759 88.5687 90.0685 88.5597 90.054C88.5529 90.0381 88.5578 90.0178 88.575 90.0104L89.318 89.6205C89.3341 89.611 89.3531 89.6174 89.3622 89.6344C89.3703 89.6497 89.3646 89.6697 89.3488 89.6801ZM89.4395 89.8539L88.6963 90.2436C88.6804 90.2517 88.66 90.2447 88.6525 90.2302C88.6442 90.2128 88.65 90.1932 88.6658 90.1861L89.411 89.7952C89.4255 89.7869 89.4448 89.7939 89.4542 89.8097C89.463 89.8259 89.4567 89.845 89.4395 89.8539ZM93.111 92.429L92.3653 92.8174C92.35 92.8258 92.3291 92.8183 92.3215 92.8034C92.3124 92.7866 92.3175 92.7659 92.3374 92.7589L93.0799 92.371C93.0957 92.3629 93.115 92.3673 93.1244 92.3831C93.1311 92.4001 93.1247 92.4197 93.111 92.429ZM93.203 92.6048L92.4587 92.9936C92.4421 93.0028 92.4224 92.9952 92.4142 92.979C92.404 92.9621 92.4109 92.9424 92.4281 92.9341L93.1693 92.5444C93.1878 92.5369 93.2074 92.5423 93.2145 92.5588C93.2247 92.575 93.2183 92.5954 93.203 92.6048ZM93.2919 92.7795L92.5507 93.1683C92.5343 93.1781 92.5151 93.1715 92.5056 93.1543C92.4981 93.1381 92.5045 93.1184 92.5189 93.1105L93.2628 92.7211C93.2787 92.7135 93.299 92.717 93.3066 92.7357C93.316 92.7513 93.3096 92.7708 93.2919 92.7795ZM91.4924 89.3391L88.927 90.6827C88.9105 90.6914 88.8902 90.6833 88.8805 90.6686C88.8736 90.6535 88.8793 90.6323 88.8951 90.6231L91.4602 89.2802C91.4772 89.2711 91.4975 89.2776 91.5051 89.2936C91.516 89.3117 91.5077 89.3298 91.4924 89.3391ZM91.584 89.5151L89.0171 90.8574C89.0026 90.8661 88.9822 90.86 88.974 90.8434C88.9645 90.827 88.9728 90.8076 88.986 90.7983L91.5534 89.4566C91.5692 89.4477 91.5904 89.4539 91.5973 89.4696C91.6062 89.4864 91.6009 89.5054 91.584 89.5151ZM91.6768 89.6903L89.1105 91.0338C89.0953 91.0417 89.0756 91.0357 89.066 91.0194C89.0579 91.0023 89.0641 90.9829 89.0802 90.9749L91.6444 89.6309C91.6522 89.6269 91.6614 89.6262 91.6698 89.6289C91.6782 89.6315 91.6853 89.6374 91.6894 89.6452C91.6969 89.6618 91.6907 89.6828 91.6768 89.6903ZM91.8616 90.0461L89.2962 91.3873C89.2795 91.3964 89.2599 91.3903 89.2516 91.3739C89.2446 91.3573 89.2497 91.339 89.2667 91.3299L91.8311 89.9866C91.8469 89.9787 91.8678 89.9838 91.8761 90.0008C91.8842 90.0164 91.8767 90.0366 91.8616 90.0461ZM91.9537 90.2207L89.3893 91.5638C89.3722 91.5725 89.3525 91.5657 89.3448 91.5499C89.3359 91.5342 89.341 91.5123 89.3576 91.505L91.9242 90.1623C91.9384 90.1543 91.9569 90.1589 91.9676 90.1762C91.9739 90.1917 91.9682 90.2113 91.9537 90.2207ZM92.0465 90.3951L89.4795 91.7393C89.4636 91.7487 89.4451 91.7411 89.4365 91.7268C89.4282 91.711 89.4339 91.6889 89.4497 91.6816L92.014 90.337C92.0291 90.3287 92.051 90.3338 92.059 90.3509C92.0672 90.3671 92.0623 90.3873 92.0465 90.3951ZM92.2318 90.751L89.6675 92.0941C89.6509 92.1028 89.63 92.096 89.6206 92.0805C89.6185 92.0766 89.6172 92.0723 89.6169 92.0678C89.6166 92.0633 89.6173 92.0589 89.6188 92.0547C89.6204 92.0505 89.6228 92.0467 89.6259 92.0435C89.6291 92.0403 89.6329 92.0378 89.637 92.0362L92.2008 90.6924C92.2159 90.6831 92.237 90.6897 92.2446 90.7063C92.2467 90.7101 92.2481 90.7142 92.2487 90.7185C92.2492 90.7229 92.2489 90.7272 92.2477 90.7314C92.2465 90.7356 92.2445 90.7395 92.2417 90.7428C92.239 90.7462 92.2356 90.749 92.2318 90.751ZM92.3234 90.9266L89.759 92.2701C89.7419 92.2775 89.7236 92.2716 89.7121 92.2554C89.7043 92.239 89.7121 92.2203 89.7274 92.2113L92.2921 90.8676C92.3075 90.8587 92.3272 90.8657 92.3366 90.882C92.346 90.8974 92.3392 90.9178 92.3234 90.9266ZM92.4142 91.1028L89.85 92.4454C89.8326 92.4518 89.8149 92.4474 89.8047 92.4322C89.7972 92.4155 89.8036 92.3939 89.8194 92.3863L92.3843 91.0428C92.4007 91.0353 92.4211 91.0408 92.4294 91.0575C92.4364 91.0734 92.4313 91.0942 92.4142 91.1028ZM92.6009 91.458L90.0373 92.8002C90.0209 92.8094 89.9998 92.8021 89.9915 92.7872C89.9839 92.7708 89.989 92.7496 90.005 92.7425L92.5711 91.3986C92.5864 91.3903 92.6046 91.3958 92.6161 91.4126C92.6231 91.4276 92.6161 91.4484 92.6009 91.458ZM92.6935 91.6323L90.128 92.9753C90.1122 92.9841 90.0918 92.9777 90.085 92.9624C90.0754 92.9458 90.0805 92.9243 90.0982 92.9179L92.6612 91.5733C92.6771 91.5644 92.6988 91.5721 92.7063 91.5882C92.7152 91.6039 92.7096 91.6225 92.6935 91.6323ZM92.7839 91.8083L90.2178 93.1496C90.2043 93.159 90.184 93.1524 90.1776 93.1381C90.1669 93.1212 90.1725 93.1013 90.1892 93.093L92.7554 91.7512C92.7692 91.7401 92.7909 91.7465 92.7984 91.7638C92.8078 91.78 92.7997 91.7995 92.7839 91.8083Z" fill="#595A5C"/>
<path d="M92.4954 92.5712C92.6054 92.7751 92.5253 93.0286 92.3189 93.1348C92.115 93.2439 91.8627 93.1661 91.7522 92.9596C91.6454 92.7545 91.7262 92.5006 91.9301 92.3936C92.1359 92.2858 92.3886 92.3648 92.4954 92.5712Z" fill="#595A5C"/>
<path d="M97.0371 94.3998C97.6075 93.2476 98.1847 92.0723 98.3512 90.8093C98.4421 90.1298 98.0775 89.4422 98.1792 88.7643C98.2821 88.074 100.315 86.6717 100.841 86.101C100.853 86.088 100.998 85.347 101.01 85.3322C101.13 85.3957 101.244 85.4715 101.341 85.5681C101.772 85.9948 101.789 86.6456 101.864 87.2334C101.997 88.2834 102.389 89.2869 102.693 90.3054C103.37 92.5791 103.607 94.9465 103.841 97.2986C103.863 97.5199 103.882 97.7585 103.757 97.9475C103.605 98.1782 103.294 98.2542 103.014 98.3099C101.599 98.5887 100.171 98.81 98.7368 98.9749C97.9199 99.069 97.0823 99.1426 96.2824 98.9545C96.146 98.9226 96.0049 98.8805 95.8994 98.791C95.6727 98.6014 95.674 98.2707 95.7132 97.9885C95.8879 96.7261 96.4667 95.5521 97.0371 94.3998Z" fill="url(#paint10_linear_2_209)"/>
<path d="M91.9765 109.983L91.6196 111.285L90.7264 110.936L90.8281 110.078L91.9765 109.983Z" fill="#DCC19E"/>
<path d="M91.2418 112.108L89.1041 111.951C88.9728 111.941 88.9422 111.762 89.0641 111.71L90.6615 110.789L91.882 110.935L91.8343 111.597C91.8107 111.902 91.5453 112.131 91.2418 112.108ZM97.1299 100.673H106.302C106.763 100.673 107.149 100.982 107.273 101.403C107.518 101.284 107.971 100.927 107.792 99.9752C107.552 98.6961 106.738 94.5968 106.738 94.5968L106.912 93.0269C106.912 93.0269 107.435 95.4985 108.017 97.1843C108.599 98.8704 109.296 102.476 107.639 102.389C107.639 102.389 106.831 102.709 106.302 102.709H102.97C102.89 102.919 102.702 103.3 102.334 103.46C102.336 103.476 102.344 103.49 102.344 103.505V108.111C102.344 108.355 102.147 108.552 101.903 108.552C101.658 108.552 101.46 108.355 101.46 108.111V103.505C101.46 103.472 101.473 103.442 101.481 103.41C101.139 103.229 100.907 102.899 100.797 102.709H97.1299C96.567 102.709 96.1114 102.253 96.1114 101.691C96.1114 101.129 96.567 100.673 97.1299 100.673Z" fill="#222347"/>
<path d="M106.244 89.9742C106.244 89.9742 107.32 89.5959 107.494 90.2068C107.668 90.8174 106.476 96.5735 106.476 96.5735C106.476 96.5735 104.703 96.8651 104.79 95.7307C104.878 94.5968 106.244 89.9742 106.244 89.9742Z" fill="url(#paint11_linear_2_209)"/>
<path d="M96.1114 101.226C96.1114 101.788 96.567 102.243 97.1299 102.243H106.302C106.864 102.243 107.32 101.788 107.32 101.226C107.32 100.664 106.864 100.208 106.302 100.208H97.1299C96.567 100.208 96.1114 100.664 96.1114 101.226Z" fill="url(#paint12_linear_2_209)"/>
<path d="M97.0594 109.711C97.6334 108.191 99.5916 107.069 101.928 107.069C104.283 107.069 106.255 108.211 106.809 109.753C107.111 109.887 107.32 110.15 107.32 110.456C107.32 110.721 107.163 110.954 106.923 111.1C106.921 111.113 106.919 111.127 106.917 111.141C106.914 111.13 106.911 111.12 106.909 111.11C106.753 111.201 106.565 111.255 106.36 111.255C105.83 111.255 105.4 110.897 105.4 110.456C105.4 110.081 105.712 109.768 106.129 109.682C105.227 108.721 103.683 108.088 101.928 108.088C100.16 108.088 98.6079 108.73 97.7079 109.701C98.089 109.806 98.3651 110.102 98.3651 110.456C98.3651 110.897 97.9352 111.255 97.4053 111.255C96.8751 111.255 96.4451 110.897 96.4451 110.456C96.4452 110.116 96.7017 109.828 97.0594 109.711Z" fill="#222347"/>
<path d="M95.1347 109.744L94.9345 110.543L93.8097 110.761L94.0917 110.02L95.1347 109.744Z" fill="#DCC19E"/>
<path d="M94.7187 111.736L92.6422 112.266C92.5145 112.298 92.4288 112.138 92.5271 112.05L93.7512 110.669L94.9541 110.421L95.1187 111.063C95.1937 111.36 95.0145 111.661 94.7187 111.736Z" fill="#222347"/>
<path d="M90.663 109.902C90.8241 110.732 92.2432 109.947 92.2432 109.947C92.2432 109.947 93.4469 102.955 93.36 101.864C93.2862 100.94 94.2015 100.391 94.4799 100.245C94.532 100.221 94.5597 100.207 94.5597 100.207L94.4494 101.226C94.4494 101.226 94.2143 105.206 94.0676 107.83V107.833C94.0028 109.044 93.9557 109.965 93.9595 110.076C93.971 110.425 95.0941 110.324 95.3628 109.773C96.2665 107.917 96.9639 103.472 97.5502 101.473C97.7562 100.775 98.4397 100.674 98.4397 100.674L104.586 100.207C106.115 99.2995 104.786 94.925 104.786 94.925L100.05 95.1653L99.2385 95.9053C99.2385 95.9053 93.3804 97.4752 92.2019 97.7821C91.0231 98.0856 90.663 99.5681 90.663 99.5681C90.663 99.5681 90.4991 109.075 90.663 109.902Z" fill="#202953"/>
<path d="M100.261 86.5979C100.261 86.5979 100.405 86.2924 100.165 86.0677C99.9241 85.8421 100.245 85.3497 101.066 85.5723C101.886 85.7936 101.685 86.0571 101.685 86.0571C101.685 86.0571 100.595 86.7223 100.261 86.5979Z" fill="url(#paint13_linear_2_209)"/>
<path d="M99.2583 83.2834C100.027 83.5405 100.795 83.7982 101.563 84.0564C101.816 84.1405 102.113 84.279 102.134 84.5438C102.147 84.7059 102.047 84.8508 101.983 84.9994C101.84 85.335 101.888 85.7462 102.106 86.039C102.317 86.3231 102.655 86.4829 102.897 86.7388C103.379 87.2493 103.402 88.025 103.418 88.7248C103.44 89.6786 103.499 90.6312 103.595 91.5803C103.668 92.2914 103.836 93.113 104.474 93.4353C105.15 93.7783 106.019 93.3084 106.348 92.6255C106.677 91.9423 106.599 91.1366 106.444 90.3941C106.345 89.9202 106.217 89.4302 106.334 88.9605C106.452 88.4866 106.813 88.0689 106.791 87.581C106.768 87.0556 106.319 86.6668 105.929 86.3137C105.331 85.7677 104.793 85.1483 104.38 84.4507C103.969 83.7504 104.186 82.5236 103.783 81.8171C103.382 81.111 102.77 80.4925 102.015 80.1969C101.257 79.9018 99.8294 80.4957 99.3936 81.1831C99.0227 81.7716 99.1307 82.5318 99.254 83.2183" fill="#1C244D"/>
<path d="M102.521 87.61C102.508 88.3778 102.455 89.1542 102.706 89.8925C102.9 90.4679 103.344 90.9677 103.666 91.5059C104.141 92.301 104.35 93.1913 104.269 94.0675C104.252 94.2603 104.219 94.4564 104.1 94.6251C103.933 94.8633 103.622 95.0135 103.315 95.1363C101.939 95.6852 100.35 95.8952 98.8226 95.7309C98.6594 95.7139 98.4847 95.6871 98.3716 95.5932C98.2255 95.4721 98.2293 95.284 98.2497 95.1163C98.3323 94.4542 98.5368 93.8005 98.8537 93.1826C99.0799 92.7434 99.3651 92.3175 99.4883 91.8525C99.6102 91.3881 99.5422 90.86 99.1344 90.5105C99.0169 90.4096 98.8754 90.3277 98.7609 90.2232C98.4314 89.924 98.385 89.4799 98.5146 89.0972C98.6447 88.7139 98.9262 88.376 99.2057 88.045C99.776 87.367 100.495 87.0676 101.066 86.3887C101.066 86.3887 102.556 85.5212 102.521 87.61Z" fill="#ECECEC"/>
<path d="M103.133 86.2724C103.244 86.2786 103.338 86.2556 103.417 86.2163C103.431 86.2261 103.446 86.2352 103.459 86.2463C103.595 86.3548 103.729 86.4763 103.801 86.6357C103.895 86.8449 103.87 87.0858 103.846 87.3123C103.766 88.0765 103.715 88.8436 103.696 89.6118C103.677 90.32 103.686 91.0343 103.82 91.7295C103.927 92.2701 104.106 92.7907 104.287 93.3116C104.892 95.0589 105.522 96.854 106.743 98.2439C106.978 98.5135 107.253 98.8694 107.089 99.1875C106.978 99.4023 106.713 99.4784 106.479 99.5342C105.509 99.7632 104.388 99.9628 103.605 99.3493C102.97 98.8532 102.778 97.9783 102.757 97.1741C102.735 96.3687 102.836 95.5456 102.61 94.7728C102.486 94.3468 102.266 93.9543 102.131 93.5317C102.001 93.1245 101.952 92.697 101.898 92.273C101.71 90.7821 101.386 90.0291 101.069 88.5615C101.024 88.3517 101.428 87.3061 101.302 87.1339C101.278 87.1007 101.252 87.0718 101.224 87.0444C101.861 86.4891 102.28 86.2273 103.133 86.2724Z" fill="url(#paint14_linear_2_209)"/>
<path d="M104.956 97.0312L105.253 97.4873L103.335 98.0573L103.199 97.5433L104.956 97.0312Z" fill="#202953"/>
<path d="M102.029 85.4527C102.143 85.6995 102.164 86.009 102.005 86.2301C101.846 86.4508 101.225 87.0957 101.054 86.883C101.004 86.8188 101.224 86.1535 101.178 86.0856C100.898 85.6815 100.138 85.8775 99.8954 85.4505C99.8542 85.3796 99.8211 85.3014 99.8148 85.2198C99.7526 84.3926 99.4628 84.5933 99.5347 84.0617C99.5581 83.8825 99.4489 83.7069 99.4628 83.5258C99.4808 83.2913 99.5937 83.0757 99.7062 82.869C99.8433 82.6124 99.9807 82.3564 100.118 82.1C100.143 82.0515 100.17 82.001 100.218 81.9699C100.343 81.8856 100.507 81.9937 100.606 82.1061C100.876 82.4077 101.06 82.7824 101.353 83.0614C101.645 83.3409 102.116 83.5041 102.453 83.2808C102.579 83.197 102.697 83.0608 102.845 83.0868C102.959 83.1064 103.035 83.2266 103.04 83.3432C103.046 83.4584 102.996 83.5699 102.94 83.6718C102.758 84.0015 102.5 84.2826 102.288 84.5948" fill="#EAE0B7"/>
<path d="M101.278 88.4011C101.278 88.4011 100.893 93.3489 100.73 93.7584C100.566 94.167 98.2382 96.6988 98.2382 96.6988L98.9533 97.6787C98.9533 97.6787 101.464 95.9638 102.103 94.6088C102.745 93.2544 104.115 87.1889 103.172 86.6377C102.23 86.0874 101.309 88.3517 101.309 88.3517L101.278 88.4011Z" fill="url(#paint15_linear_2_209)"/>
<path d="M101.468 86.8388C101.468 86.8388 101.49 86.1424 101.393 85.9382C101.296 85.7341 102.928 85.3701 103.205 85.7134C103.485 86.0563 103.308 86.3876 103.308 86.3876L101.468 86.8388Z" fill="url(#paint16_linear_2_209)"/>
<path d="M96.7125 97.5618C96.5665 97.6112 96.3073 97.655 96.0664 97.4656C95.9955 97.4101 96.0354 97.3009 96.125 97.2928C96.2705 97.2811 96.3999 97.0702 96.7671 97.1319C97.4963 97.252 98.1246 97.0227 98.1246 97.0227L98.5373 97.6587C98.5373 97.6587 98.2134 98.4699 97.8201 98.7234C97.4498 98.9619 96.63 99.7253 95.6993 99.2731C95.6022 99.2256 95.5661 99.1045 95.6238 99.0124C95.7959 98.7323 96.1663 98.1669 96.4774 97.9208C96.633 97.7972 96.7226 97.7093 96.7723 97.6486C96.8058 97.605 96.764 97.5448 96.7125 97.5618Z" fill="#FFDCB0"/>
<path d="M98.2382 96.6988L98.035 97.0115L98.5545 97.7299L98.9533 97.6788L98.2382 96.6988Z" fill="#2B3990"/>
<path d="M57.5569 90.2358L58.7586 88.8407C58.7586 88.8407 56.9514 85.7296 56.5907 84.7996C56.2299 83.8691 54.2824 84.2762 54.2824 84.2762L57.5569 90.2358Z" fill="#113A5A"/>
<path d="M58.8761 89.6884L65.4503 93.8705L64.7991 94.5968L57.5675 91.675L58.8761 89.6884Z" fill="#DCC19E"/>
<path d="M57.8686 92.0986C57.8686 92.0986 58.5122 89.7182 59.5697 89.6884C59.5697 89.6884 59.5912 88.9059 59.0578 88.7643C58.523 88.6222 57.499 88.9167 57.5092 89.5054C57.52 90.094 57.2798 91.9913 57.2798 91.9913C57.2798 91.9913 57.586 92.3806 57.8686 92.0986Z" fill="#18445F"/>
<path d="M56.2889 85.0901C56.2889 85.0901 57.4234 88.1902 57.5967 89.32C57.7601 90.3905 57.1134 94.9675 57.1134 94.9675L51.8838 95.1634C51.8838 95.1634 50.5507 90.9047 50.3372 89.2475C50.1251 87.5903 50.5899 84.7704 52.7129 83.8979C54.8343 83.0265 56.1123 84.8302 56.2889 85.0901Z" fill="#FED948"/>
<path d="M64.8863 109.983L65.2432 111.285L66.1362 110.936L66.0347 110.078L64.8863 109.983Z" fill="#DCC19E"/>
<path d="M65.6212 112.108L67.7587 111.951C67.8902 111.941 67.9206 111.762 67.7985 111.71L66.2011 110.789L64.9808 110.935L65.0285 111.597C65.0519 111.902 65.3175 112.131 65.6212 112.108Z" fill="#222347"/>
<path d="M52.662 84.3049C52.662 84.3049 53.7889 84.8066 54.1077 84.741C54.1077 84.741 54.4348 84.0364 54.2748 83.7385C54.1152 83.4399 52.4511 83.4698 52.662 84.2762" fill="#113A5A"/>
<path d="M59.7331 100.673H50.5607C50.0997 100.673 49.7133 100.982 49.5896 101.403C49.3451 101.284 48.8914 100.927 49.0706 99.9752C49.3108 98.6961 50.1244 94.5968 50.1244 94.5968L49.9505 93.0269C49.9505 93.0269 49.4278 95.4985 48.8458 97.1843C48.264 98.8704 47.5665 102.476 49.2238 102.389C49.2238 102.389 50.0318 102.709 50.5607 102.709H53.893C53.9724 102.919 54.1603 103.3 54.5281 103.46C54.527 103.476 54.5193 103.49 54.5193 103.505V108.111C54.5193 108.355 54.7162 108.552 54.9601 108.552C55.2048 108.552 55.4023 108.355 55.4023 108.111V103.505C55.4023 103.472 55.3894 103.442 55.3819 103.41C55.7237 103.229 55.9555 102.899 56.0659 102.709H59.733C60.2958 102.709 60.7511 102.253 60.7511 101.691C60.7511 101.129 60.2958 100.673 59.7331 100.673Z" fill="#222347"/>
<path d="M50.6186 89.9742C50.6186 89.9742 49.5432 89.5959 49.3693 90.2068C49.1951 90.8174 50.3868 96.5735 50.3868 96.5735C50.3868 96.5735 52.1596 96.8651 52.0724 95.7307C51.9849 94.5968 50.6186 89.9742 50.6186 89.9742Z" fill="url(#paint17_linear_2_209)"/>
<path d="M60.7511 101.226C60.7511 101.788 60.2958 102.243 59.733 102.243H50.5607C49.9987 102.243 49.5432 101.788 49.5432 101.226C49.5432 100.664 49.9987 100.208 50.5607 100.208H59.733C60.2958 100.208 60.7511 100.664 60.7511 101.226Z" fill="url(#paint18_linear_2_209)"/>
<path d="M59.8034 109.711C59.2294 108.191 57.2709 107.069 54.9349 107.069C52.5801 107.069 50.6078 108.211 50.054 109.753C49.7522 109.887 49.5432 110.15 49.5432 110.456C49.5432 110.721 49.7001 110.954 49.9395 111.1C49.9422 111.113 49.9435 111.127 49.9459 111.141C49.9484 111.13 49.9516 111.12 49.9542 111.11C50.1091 111.201 50.2979 111.255 50.5022 111.255C51.0327 111.255 51.4628 110.897 51.4628 110.456C51.4628 110.081 51.1509 109.768 50.7335 109.682C51.6355 108.721 53.1796 108.088 54.9349 108.088C56.7032 108.088 58.2549 108.73 59.1549 109.701C58.7736 109.806 58.4975 110.102 58.4975 110.456C58.4975 110.897 58.9276 111.255 59.4573 111.255C59.9877 111.255 60.4176 110.897 60.4176 110.456C60.4177 110.116 60.1609 109.828 59.8034 109.711Z" fill="#222347"/>
<path d="M61.7281 109.744L61.9283 110.543L63.0531 110.761L62.7709 110.02L61.7281 109.744Z" fill="#DCC19E"/>
<path d="M62.1443 111.736L64.2206 112.266C64.3483 112.298 64.4339 112.138 64.3355 112.05L63.1116 110.669L61.9085 110.421L61.7439 111.063C61.6691 111.36 61.8481 111.661 62.1443 111.736Z" fill="#222347"/>
<path d="M82.0833 81.8193C82.0833 81.8193 82.032 82.7714 81.9596 82.8804C81.8866 82.9895 81.7195 83.084 81.7995 83.1857C81.8794 83.2875 82.0682 83.5928 81.9747 83.8691C81.8794 84.1451 81.7857 84.9302 82.3452 84.7555C82.9047 84.5812 83.0356 85.7297 83.0356 85.7297L84.6636 85.9625L85.1857 84.4214C85.1857 84.4214 83.8339 80.7005 82.0833 81.8193Z" fill="#DCC19E"/>
<path d="M82.4391 82.5315C82.4391 82.5315 82.4104 83.0408 82.5706 82.895C82.7299 82.7495 83.2534 82.3428 83.2674 82.6045C83.2827 82.8661 82.7013 84.3488 83.1948 84.5669C83.6898 84.7848 85.4924 85.235 85.725 83.811C85.9568 82.3862 86.4661 81.0492 85.1577 80.6421C83.8499 80.2346 83.2674 80.0897 83.1225 79.8277C82.9778 79.5661 82.8273 79.9437 82.4377 80.3515C82.0465 80.7583 81.2335 80.4964 81.4068 81.1069C81.5816 81.7177 81.1598 82.1242 82.4391 82.5315Z" fill="#213347"/>
<path d="M66.1998 109.902C66.0385 110.732 64.6195 109.947 64.6195 109.947C64.6195 109.947 63.4156 102.955 63.5028 101.864C63.5763 100.94 62.6611 100.391 62.3828 100.245C62.331 100.221 62.3031 100.207 62.3031 100.207L62.4134 101.226C62.4134 101.226 62.6485 105.206 62.7952 107.83V107.833C62.8599 109.044 62.9069 109.965 62.9031 110.076C62.8918 110.425 61.7687 110.324 61.5 109.773C60.5963 107.917 59.8987 103.472 59.3124 101.473C59.1066 100.775 58.4231 100.674 58.4231 100.674L52.2764 100.207C50.7482 99.2995 52.0762 94.925 52.0762 94.925L56.8122 95.1653L57.6241 95.9053C57.6241 95.9053 63.4824 97.4752 64.6609 97.7821C65.8397 98.0856 66.1998 99.5681 66.1998 99.5681C66.1998 99.5681 66.3637 109.075 66.1998 109.902Z" fill="#18445F"/>
<path d="M95.8854 95.1635C95.8854 95.477 95.6314 95.7307 95.3182 95.7307H45.342C45.0289 95.7307 44.7755 95.477 44.7755 95.1635C44.7755 94.8505 45.0289 94.5968 45.342 94.5968H95.3182C95.6314 94.5968 95.8854 94.8505 95.8854 95.1635Z" fill="#DBCD93"/>
<path d="M49.7471 95.1635L48.0024 112.215H48.8603L51.4628 95.1635H49.7471ZM90.7685 95.1635L92.5126 112.215H91.6551L89.0521 95.1635H90.7685Z" fill="#DBCD93"/>
<path d="M63.9925 88.8407L63.0022 93.8407H68.0045L69.3027 89.1885L68.8632 88.8407H63.9925Z" fill="#FFF1BA"/>
<path d="M89.0724 94.5959C89.0956 94.6328 89.1187 94.6134 89.0724 94.5959V94.5959Z" fill="#47ABAC"/>
<path d="M89.2342 93.8407C89.7317 92.6883 88.9074 89.32 88.1005 87.6851C87.2947 86.0496 85.2453 86.0928 85.0484 85.9624C84.8522 85.8311 84.9182 85.5916 84.9182 85.5916L82.993 85.4961L82.9104 85.7879C82.8298 86.0796 81.9525 86.3765 81.9525 86.3765C80.3602 86.4853 78.202 89.32 77.7217 90.7374C77.2425 92.1549 77.613 94.4881 77.613 94.4881L80.7603 94.5183L80.8542 98.3473C80.8542 98.3473 82.7738 98.7544 84.4596 98.6674C86.1455 98.5797 87.4254 98.6793 87.4254 98.6793L88.0632 94.59L88.7606 94.5967C88.9461 94.5688 89.0344 94.5816 89.0724 94.5958C89.0388 94.5425 89.0094 94.3617 89.2342 93.8407Z" fill="url(#paint19_linear_2_209)"/>
<path d="M63.5232 92.0792C63.5232 92.0792 64.6582 92.126 64.2536 92.8558C63.849 93.5858 63.4145 93.975 63.1192 93.6945C62.825 93.4153 61.9854 92.8247 62.6841 91.9547C63.3832 91.0845 63.6617 91.2548 63.6617 91.2548L63.5232 92.0792ZM55.7141 79.9877C55.7141 79.9877 56.0704 80.6636 55.9607 81.274C55.8526 81.8848 55.9814 82.0806 55.9814 82.0806C55.9814 82.0806 55.9725 82.2226 55.7973 82.19C55.6232 82.1572 56.2229 83.0404 55.7865 83.4328C55.35 83.8253 54.4678 83.3022 54.4678 83.3022L54.1076 84.741C54.1076 84.741 53.7862 84.8121 53.3772 84.6161C53.2374 84.5483 52.7991 84.3706 52.7991 84.3706L52.8983 82.9204C52.8983 82.9204 51.9817 81.8736 52.5597 81.4486C53.1379 81.0237 55.7141 79.9877 55.7141 79.9877Z" fill="#DCC19E"/>
<path d="M55.9835 80.1836C55.9835 80.1836 56.2883 80.0746 56.3525 79.0282C56.4185 77.9819 54.9188 77.8291 54.1852 78.5487C53.4541 79.2684 52.93 79.1375 52.2981 80.1836C51.6654 81.2308 50.815 82.277 51.9493 82.8223C53.0824 83.3675 53.2571 83.0621 53.2571 83.0621L53.2794 82.2553C53.2794 82.2553 52.9458 81.994 53.026 81.7105C53.1055 81.4268 53.5844 81.7105 53.6496 81.8629C53.7144 82.0157 53.78 81.7105 54.0862 80.9256C54.391 80.1405 55.2853 80.9256 55.9835 80.1836Z" fill="#313B6B"/>
<path d="M51.9061 85.1775C51.9061 85.1775 55.9835 91.2609 55.6989 91.7623C55.4169 92.2635 54.0639 93.6374 54.0207 94.2046C53.977 94.7711 53.0825 94.2696 52.7991 93.4849C52.516 92.6998 49.7681 88.0768 50.4447 86.1367C51.1206 84.1962 51.9061 85.1775 51.9061 85.1775Z" fill="#113A5A"/>
<path d="M56.2668 92.8309L57.0302 92.824L62.5811 92.0986L62.9037 93.498C62.9037 93.498 59.2641 94.284 58.4695 94.447C57.3783 94.6711 55.387 94.3695 55.387 94.3695C55.387 94.3695 55.895 93.1793 56.2668 92.8309Z" fill="#DCC19E"/>
<path d="M55.3401 92.0671L55.5362 91.675C55.5362 91.675 57.3675 91.9913 57.0829 92.9179L56.3646 93.0269C56.3646 93.0269 55.6232 94.1531 55.8743 94.447C55.8743 94.447 54.9258 94.7934 53.7589 94.3027C52.5922 93.8121 55.3401 92.0671 55.3401 92.0671Z" fill="#18445F"/>
<path d="M62.7952 107.83C62.6896 107.328 61.8534 103.378 61.2003 102.125C60.5021 100.789 57.6578 97.6991 57.6578 97.6991C57.6578 97.6991 61.2135 98.5386 62.3829 100.245C62.331 100.221 62.3031 100.207 62.3031 100.207L62.4134 101.226C62.4134 101.226 62.6485 105.206 62.7952 107.83Z" fill="#222347"/>
<path d="M81.4152 98.0711C81.4152 98.0711 75.3009 98.3167 75.3009 99.7857C75.3009 101.254 75.7868 109.16 75.7868 109.16C75.7868 109.16 76.9294 109.539 77.192 109.162C77.453 108.785 77.6847 102.345 77.6847 102.345C77.6847 102.345 77.606 101.465 78.5079 101.553C79.4087 101.64 80.186 101.553 80.186 101.553H86.8131C86.8131 101.553 87.778 99.1037 87.3662 98.5804C86.9553 98.0568 81.4152 98.0711 81.4152 98.0711Z" fill="#DBCD93"/>
<path d="M81.5238 103.685L81.8738 106.941C81.8738 106.941 81.8585 108.09 82.6214 108.075C83.3842 108.06 83.2903 107.021 83.2903 107.021L83.6606 103.773L81.5238 103.685Z" fill="#DBCD93"/>
<path d="M61.9575 100.368C61.9575 100.368 63.2214 99.9752 63.8033 100.092C64.3858 100.208 60.1547 99.1175 60.1547 99.1175L61.9575 100.368Z" fill="#222347"/>
<path d="M80.5931 90.1196C80.5931 90.1196 78.9361 90.0034 78.9361 91.631C78.9361 93.2591 79.11 95.5852 79.11 95.5852C79.11 95.5852 79.3141 96.6612 81.2322 96.6612C83.1507 96.6612 88.3262 96.37 88.3262 96.37C88.3262 96.37 88.8202 96.1079 88.7625 93.8407C88.7039 91.5732 89.1709 90.1162 87.9195 90.1181C86.6695 90.1196 80.5931 90.1196 80.5931 90.1196Z" fill="url(#paint20_linear_2_209)"/>
<path d="M88.1094 102.747C88.1094 103.407 87.5582 103.942 86.8778 103.942H78.9341C78.2525 103.942 77.7013 103.407 77.7013 102.747C77.7013 102.087 78.2525 101.553 78.9341 101.553H86.8778C87.5582 101.553 88.1094 102.087 88.1094 102.747Z" fill="url(#paint21_linear_2_209)"/>
<path d="M87.9495 110.883C87.4686 109.609 85.9056 108.648 83.9941 108.523V105.388L84.1546 104.474L87.9749 104.072C87.9779 103.987 87.9876 103.903 88.004 103.821C87.823 103.765 87.6018 103.71 87.3524 103.679L87.5701 92.9613H87.1637L86.7245 103.7L82.3229 103.689L81.4068 93.1579L80.9566 93.1203L81.48 103.689H77.9178C77.9178 103.689 77.5258 104.104 78.5288 104.104C79.5318 104.104 82.8461 104.452 82.8461 104.452C82.8461 104.452 83.1646 105.347 83.2025 105.686V105.779C83.2006 105.789 83.1987 105.799 83.1947 105.805C83.1834 105.822 83.188 105.84 83.2025 105.859V108.521C81.2537 108.633 79.6589 109.617 79.1907 110.921C78.9189 111.041 78.7319 111.277 78.7319 111.552C78.7319 111.79 78.8725 112 79.0885 112.13C79.0904 112.142 79.0904 112.155 79.093 112.167C79.0949 112.157 79.0987 112.148 79.1006 112.139C79.2396 112.221 79.4099 112.269 79.594 112.269C80.0698 112.269 80.4554 111.948 80.4554 111.552C80.4554 111.215 80.176 110.934 79.8019 110.856C80.5463 110.062 81.783 109.523 83.2025 109.441V109.445C83.2025 109.664 83.3791 109.841 83.5985 109.841C83.8167 109.841 83.994 109.664 83.994 109.445V109.443C85.4067 109.535 86.6301 110.079 87.3674 110.873C87.0251 110.968 86.7768 111.234 86.7768 111.552C86.7768 111.948 87.163 112.269 87.6395 112.269C88.1145 112.269 88.5008 111.948 88.5008 111.552C88.5008 111.246 88.2714 110.987 87.9495 110.883ZM77.3144 108.918L77.2744 110.372C77.2744 110.372 77.0305 110.451 76.61 110.471L73.143 110.416C73.143 110.416 72.8816 109.902 73.197 109.799C73.5135 109.696 75.4761 109.206 75.727 108.857C75.9773 108.508 77.3144 108.918 77.3144 108.918Z" fill="#222347"/>
<path d="M83.2902 107.021L83.2548 108.448C83.2548 108.448 83.0012 108.49 82.5827 108.448L79.1609 107.885C79.1609 107.885 78.9774 107.339 79.3043 107.283C79.6333 107.228 81.4718 107.031 81.7715 106.722C82.0701 106.415 83.2902 107.021 83.2902 107.021Z" fill="#222347"/>
<path d="M64.8203 94.1395L65.064 93.839C65.064 93.839 65.6186 93.8901 65.8772 93.8682C66.2194 93.839 66.8827 93.8781 67.1824 94.0814C67.4816 94.2849 68.3233 94.3172 67.9808 94.6258H64.871C64.871 94.6258 64.6283 94.6047 64.8203 94.1395Z" fill="#DCC19E"/>
<path d="M59.4744 91.4114L60.2399 91.7208L63.121 91.4405L63.2957 91.289L59.4744 91.4114Z" fill="#B29A7F"/>
<path d="M68.6859 88.9463L69.2284 89.19L68.9571 89.8052L68.6859 88.9463ZM64.7465 89.6884H68.1848V89.8052H64.7465V89.6884ZM64.685 90.2509H68.1233V90.3677H64.685V90.2509ZM64.5533 90.6942H67.9916V90.8112H64.5533V90.6942Z" fill="#DCC19E"/>
<defs>
<linearGradient id="paint0_linear_2_209" x1="92.1149" y1="96.9804" x2="92.1149" y2="82.7914" gradientUnits="userSpaceOnUse">
<stop stop-color="#BDDCFD"/>
<stop offset="1" stop-color="#59C4F6"/>
</linearGradient>
<linearGradient id="paint1_linear_2_209" x1="54.8624" y1="96.9804" x2="54.8624" y2="82.7914" gradientUnits="userSpaceOnUse">
<stop stop-color="#BDDCFD"/>
<stop offset="1" stop-color="#59C4F6"/>
</linearGradient>
<linearGradient id="paint2_linear_2_209" x1="91.8444" y1="94.9673" x2="67.2257" y2="94.9673" gradientUnits="userSpaceOnUse">
<stop stop-color="#BDDCFD"/>
<stop offset="1" stop-color="#59C4F6"/>
</linearGradient>
<linearGradient id="paint3_linear_2_209" x1="56.9685" y1="97.327" x2="111.4" y2="97.327" gradientUnits="userSpaceOnUse">
<stop stop-color="#BDDCFD"/>
<stop offset="1" stop-color="#59C4F6"/>
</linearGradient>
<linearGradient id="paint4_linear_2_209" x1="58.8915" y1="58.5386" x2="64.6831" y2="58.5386" gradientUnits="userSpaceOnUse">
<stop offset="0.046" stop-color="#262262"/>
<stop offset="0.15" stop-color="#203777"/>
<stop offset="0.432" stop-color="#136AAA"/>
<stop offset="0.678" stop-color="#088FD0"/>
<stop offset="0.875" stop-color="#02A6E7"/>
<stop offset="1" stop-color="#00AEEF"/>
</linearGradient>
<linearGradient id="paint5_linear_2_209" x1="58.8915" y1="69.1811" x2="64.6831" y2="69.1811" gradientUnits="userSpaceOnUse">
<stop offset="0.046" stop-color="#262262"/>
<stop offset="0.15" stop-color="#203777"/>
<stop offset="0.432" stop-color="#136AAA"/>
<stop offset="0.678" stop-color="#088FD0"/>
<stop offset="0.875" stop-color="#02A6E7"/>
<stop offset="1" stop-color="#00AEEF"/>
</linearGradient>
<linearGradient id="paint6_linear_2_209" x1="58.8915" y1="79.8239" x2="64.6831" y2="79.8239" gradientUnits="userSpaceOnUse">
<stop offset="0.046" stop-color="#262262"/>
<stop offset="0.15" stop-color="#203777"/>
<stop offset="0.432" stop-color="#136AAA"/>
<stop offset="0.678" stop-color="#088FD0"/>
<stop offset="0.875" stop-color="#02A6E7"/>
<stop offset="1" stop-color="#00AEEF"/>
</linearGradient>
<linearGradient id="paint7_linear_2_209" x1="61.8011" y1="59.1486" x2="61.8011" y2="58.0727" gradientUnits="userSpaceOnUse">
<stop offset="0.046" stop-color="white"/>
<stop offset="0.072" stop-color="#FFFEFC"/>
<stop offset="0.47" stop-color="#FDEED7"/>
<stop offset="0.792" stop-color="#FBE4C0"/>
<stop offset="0.995" stop-color="#FBE0B8"/>
</linearGradient>
<linearGradient id="paint8_linear_2_209" x1="99.6558" y1="91.5836" x2="96.329" y2="92.113" gradientUnits="userSpaceOnUse">
<stop stop-color="#E9C433"/>
<stop offset="1" stop-color="#F9ED32"/>
</linearGradient>
<linearGradient id="paint9_linear_2_209" x1="90.3678" y1="88.2429" x2="91.4546" y2="88.4475" gradientUnits="userSpaceOnUse">
<stop offset="0.202" stop-color="#FF6363"/>
<stop offset="1" stop-color="#EF4136"/>
</linearGradient>
<linearGradient id="paint10_linear_2_209" x1="97.7051" y1="92.0408" x2="99.9278" y2="92.312" gradientUnits="userSpaceOnUse">
<stop stop-color="#E9C433"/>
<stop offset="1" stop-color="#F9ED32"/>
</linearGradient>
<linearGradient id="paint11_linear_2_209" x1="106.149" y1="90.2437" x2="106.149" y2="111.795" gradientUnits="userSpaceOnUse">
<stop offset="0.144" stop-color="#3E4849"/>
<stop offset="1" stop-color="#603913"/>
</linearGradient>
<linearGradient id="paint12_linear_2_209" x1="101.716" y1="90.2433" x2="101.716" y2="111.794" gradientUnits="userSpaceOnUse">
<stop offset="0.144" stop-color="#3E4849"/>
<stop offset="1" stop-color="#603913"/>
</linearGradient>
<linearGradient id="paint13_linear_2_209" x1="102.019" y1="87.9335" x2="101.07" y2="86.405" gradientUnits="userSpaceOnUse">
<stop offset="0.175" stop-color="#E3B433"/>
<stop offset="1" stop-color="#F9ED32"/>
</linearGradient>
<linearGradient id="paint14_linear_2_209" x1="101.066" y1="92.9871" x2="107.139" y2="92.9871" gradientUnits="userSpaceOnUse">
<stop stop-color="#E9C433"/>
<stop offset="1" stop-color="#F9ED32"/>
</linearGradient>
<linearGradient id="paint15_linear_2_209" x1="101.861" y1="91.1223" x2="100.22" y2="94.909" gradientUnits="userSpaceOnUse">
<stop stop-color="#E9C433"/>
<stop offset="1" stop-color="#F9ED32"/>
</linearGradient>
<linearGradient id="paint16_linear_2_209" x1="102.759" y1="87.9822" x2="102.34" y2="86.1166" gradientUnits="userSpaceOnUse">
<stop offset="0.175" stop-color="#E3B433"/>
<stop offset="1" stop-color="#F9ED32"/>
</linearGradient>
<linearGradient id="paint17_linear_2_209" x1="50.7137" y1="90.2437" x2="50.7137" y2="111.795" gradientUnits="userSpaceOnUse">
<stop offset="0.144" stop-color="#3E4849"/>
<stop offset="1" stop-color="#603913"/>
</linearGradient>
<linearGradient id="paint18_linear_2_209" x1="55.1472" y1="90.2433" x2="55.1472" y2="111.794" gradientUnits="userSpaceOnUse">
<stop offset="0.144" stop-color="#3E4849"/>
<stop offset="1" stop-color="#603913"/>
</linearGradient>
<linearGradient id="paint19_linear_2_209" x1="77.4763" y1="92.0878" x2="89.3852" y2="92.0878" gradientUnits="userSpaceOnUse">
<stop offset="0.202" stop-color="#FF6363"/>
<stop offset="1" stop-color="#EF4136"/>
</linearGradient>
<linearGradient id="paint20_linear_2_209" x1="83.8685" y1="90.2436" x2="83.8685" y2="111.795" gradientUnits="userSpaceOnUse">
<stop offset="0.144" stop-color="#3E4849"/>
<stop offset="1" stop-color="#603913"/>
</linearGradient>
<linearGradient id="paint21_linear_2_209" x1="82.9053" y1="90.5877" x2="82.9053" y2="111.483" gradientUnits="userSpaceOnUse">
<stop offset="0.144" stop-color="#3E4849"/>
<stop offset="1" stop-color="#603913"/>
</linearGradient>
</defs>
</svg>
