<svg width="26" height="26" viewBox="0 0 26 26" fill="none" xmlns="http://www.w3.org/2000/svg">
<path d="M23.5875 0.500053H2.41251C2.17449 0.496747 1.93814 0.540362 1.71697 0.628407C1.4958 0.716453 1.29414 0.847203 1.12351 1.01319C0.952877 1.17918 0.816614 1.37716 0.722502 1.59581C0.62839 1.81447 0.578273 2.04953 0.575012 2.28755V23.7126C0.578273 23.9506 0.62839 24.1856 0.722502 24.4043C0.816614 24.6229 0.952877 24.8209 1.12351 24.9869C1.29414 25.1529 1.4958 25.2837 1.71697 25.3717C1.93814 25.4597 2.17449 25.5034 2.41251 25.5001H23.5875C23.8255 25.5034 24.0619 25.4597 24.2831 25.3717C24.5042 25.2837 24.7059 25.1529 24.8765 24.9869C25.0471 24.8209 25.1834 24.6229 25.2775 24.4043C25.3716 24.1856 25.4218 23.9506 25.425 23.7126V2.28755C25.4218 2.04953 25.3716 1.81447 25.2775 1.59581C25.1834 1.37716 25.0471 1.17918 24.8765 1.01319C24.7059 0.847203 24.5042 0.716453 24.2831 0.628407C24.0619 0.540362 23.8255 0.496747 23.5875 0.500053ZM8.11251 21.4251H4.36251V10.1751H8.11251V21.4251ZM6.23751 8.60005C5.72034 8.60005 5.22435 8.39461 4.85865 8.02891C4.49296 7.66321 4.28751 7.16722 4.28751 6.65005C4.28751 6.13288 4.49296 5.63689 4.85865 5.27119C5.22435 4.9055 5.72034 4.70005 6.23751 4.70005C6.51213 4.66891 6.79023 4.69612 7.05361 4.77991C7.31698 4.86369 7.55969 5.00217 7.76583 5.18625C7.97198 5.37034 8.13692 5.5959 8.24985 5.84816C8.36278 6.10041 8.42116 6.37367 8.42116 6.65005C8.42116 6.92643 8.36278 7.1997 8.24985 7.45195C8.13692 7.7042 7.97198 7.92976 7.76583 8.11385C7.55969 8.29794 7.31698 8.43641 7.05361 8.5202C6.79023 8.60398 6.51213 8.6312 6.23751 8.60005ZM21.6375 21.4251H17.8875V15.3876C17.8875 13.8751 17.35 12.8876 15.9875 12.8876C15.5658 12.8906 15.1552 13.0229 14.8111 13.2665C14.4669 13.5101 14.2056 13.8534 14.0625 14.2501C13.9647 14.5439 13.9223 14.8533 13.9375 15.1626V21.4126H10.1875C10.1875 21.4126 10.1875 11.1876 10.1875 10.1626H13.9375V11.7501C14.2782 11.1589 14.7736 10.672 15.3706 10.3416C15.9675 10.0112 16.6432 9.84987 17.325 9.87505C19.825 9.87505 21.6375 11.4876 21.6375 14.9501V21.4251Z" fill="black"/>
</svg>
