<svg width="110" height="110" viewBox="0 0 110 110" fill="none" xmlns="http://www.w3.org/2000/svg">
<path d="M57.6595 0H52.3403V110H57.6595V0Z" fill="#19223F"/>
<path d="M110 52.3405H0V57.6596H110V52.3405Z" fill="#19223F"/>
<path d="M17.98 14.225L14.2189 17.9861L91.9998 95.7671L95.761 92.0059L17.98 14.225Z" fill="#19223F"/>
<path d="M91.9999 14.2239L14.2189 92.0049L17.98 95.7661L95.761 17.9851L91.9999 14.2239Z" fill="#19223F"/>
<path d="M5.08358 31.8032L3.07666 36.7293L104.948 78.2323L106.955 73.3062L5.08358 31.8032Z" fill="#19223F"/>
<path d="M73.3055 3.08389L31.8025 104.955L36.7286 106.962L78.2316 5.09081L73.3055 3.08389Z" fill="#19223F"/>
<path d="M105.069 31.9884L3.02173 73.0624L5.0079 77.997L107.055 36.923L105.069 31.9884Z" fill="#19223F"/>
<path d="M36.9002 3.02333L31.9656 5.00897L73.0286 107.056L77.9632 105.07L36.9002 3.02333Z" fill="#19223F"/>
</svg>
