<svg width="24" height="25" viewBox="0 0 24 25" fill="none" xmlns="http://www.w3.org/2000/svg">
<path d="M8.24999 12.5L2.24999 5L21.75 12.5L2.24999 20L8.24999 12.5Z" fill="#344054"/>
<path d="M2.25037 20.75C2.01599 20.75 1.78934 20.6401 1.64467 20.4431C1.44472 20.1692 1.45274 19.7956 1.66447 19.5312L7.28947 12.5L1.66447 5.46873C1.45274 5.20436 1.44472 4.83078 1.64467 4.55688C1.84424 4.28441 2.20274 4.17821 2.51917 4.29978L22.0192 11.7998C22.3088 11.9111 22.5 12.1894 22.5 12.5C22.5 12.8106 22.3088 13.0889 22.0192 13.2002L2.51917 20.7002C2.43127 20.7339 2.34007 20.75 2.25037 20.75ZM4.56592 6.69408L8.8356 12.0312C9.05497 12.3051 9.05497 12.6948 8.8356 12.9687L4.56592 18.3059L19.6608 12.5L4.56592 6.69408Z" fill="#344054"/>
</svg>
