<svg width="26" height="26" viewBox="0 0 26 26" fill="none" xmlns="http://www.w3.org/2000/svg">
<path d="M18.75 15.5C18.5 15.375 16.875 14.625 16.625 14.5C16.375 14.375 16.125 14.375 15.875 14.625C15.625 14.875 15.125 15.625 14.875 15.875C14.75 16.125 14.5 16.125 14.25 16C13.375 15.625 12.5 15.125 11.75 14.5C11.125 13.875 10.5 13.125 10 12.375C9.875 12.125 10 11.875 10.125 11.75C10.25 11.625 10.375 11.375 10.625 11.25C10.75 11.125 10.875 10.875 10.875 10.75C11 10.625 11 10.375 10.875 10.25C10.75 10.125 10.125 8.625 9.875 8C9.75 7.125 9.5 7.125 9.25 7.125H8.625C8.375 7.125 8 7.375 7.875 7.5C7.125 8.25 6.75 9.125 6.75 10.125C6.875 11.25 7.25 12.375 8 13.375C9.375 15.375 11.125 17 13.25 18C13.875 18.25 14.375 18.5 15 18.625C15.625 18.875 16.25 18.875 17 18.75C17.875 18.625 18.625 18 19.125 17.25C19.375 16.75 19.375 16.25 19.25 15.75L18.75 15.5ZM21.875 4.125C17 -0.75 9.125 -0.75 4.25 4.125C0.25 8.125 -0.5 14.25 2.25 19.125L0.5 25.5L7.125 23.75C9 24.75 11 25.25 13 25.25C19.875 25.25 25.375 19.75 25.375 12.875C25.5 9.625 24.125 6.5 21.875 4.125ZM18.5 21.625C16.875 22.625 15 23.25 13 23.25C11.125 23.25 9.375 22.75 7.75 21.875L7.375 21.625L3.5 22.625L4.5 18.875L4.25 18.5C1.25 13.5 2.75 7.25 7.625 4.125C12.5 1 18.75 2.625 21.75 7.375C24.75 12.25 23.375 18.625 18.5 21.625Z" fill="black"/>
</svg>
